<?xml version="1.0" encoding="utf-8"?>
<!-- Generator: Adobe Illustrator 25.2.0, SVG Export Plug-In . SVG Version: 6.00 Build 0)  -->
<svg version="1.1" id="Layer_1" xmlns="http://www.w3.org/2000/svg" xmlns:xlink="http://www.w3.org/1999/xlink" x="0px" y="0px"
	 viewBox="0 0 1980 208.21" style="enable-background:new 0 0 1980 208.21;" xml:space="preserve">
<style type="text/css">
	.st0{fill:#D0E9F9;}
	.st1{fill:#FFFFFF;}
</style>
<g>
	<g>
		<path class="st0" d="M0,208.21h634.76c0,0,0-124.82-100.08-122.05C434.61,88.94,440.33,125,440.33,125S483.22-5.38,294.51,0.17
			C131.93,4.95,174.42,125,174.42,125S37.17,111.13,0,208.21z"/>
		<g>
			<path class="st1" d="M631.13,176.41c-0.92-4.63-2.08-9.53-3.53-14.6c-34.03-18.47-68.69-44.22-101.45-75.32
				c-5.41,0.27-10.45,0.65-15.2,1.11C549.4,125.32,590.82,155.95,631.13,176.41z"/>
			<path class="st1" d="M571.09,208.21h19.68c-43.46-29.79-86.59-67.12-126.76-110c-4.11,1.8-7.5,3.7-10.31,5.62
				C490.91,143.8,530.72,179.12,571.09,208.21z"/>
			<path class="st1" d="M295.9,81.6c29.07,30.18,41.72,73.5,38.08,126.61h14.9c3.68-56.81-10.28-103.54-42.05-136.52
				c-25.27-26.23-60.28-42.08-103.03-47.67c-5.76,4.01-10.68,8.33-14.75,12.9C234.23,40.4,270.6,55.33,295.9,81.6z"/>
			<path class="st1" d="M444.49,93.84c-0.06-6.1-0.67-12.73-2.15-19.57c-16.19-18.63-31.27-37.63-45.16-56.78
				c-5.82-2.98-12.32-5.66-19.58-7.98C397.35,38.1,419.75,66.43,444.49,93.84z"/>
			<path class="st1" d="M422.74,120.89c28.7,31.58,58.79,60.81,89.57,87.32h17.45c-33.83-28.34-66.92-60.13-98.36-94.73
				c-32.78-36.08-62.19-73.51-87.66-111.2c-4.67-0.6-9.54-1.09-14.64-1.45C356,41.54,387.41,82,422.74,120.89z"/>
			<path class="st1" d="M172.39,117.7c1.07,4.57,2.02,7.29,2.02,7.29s-15.39-1.54-37.22,0.03c33.06,3.98,59.91,15.82,78.99,35.62
				c12.51,12.99,21.26,29,26.37,47.56h15.35c-5.52-22.45-15.72-41.83-30.79-57.47C212.55,135.62,194.12,124.62,172.39,117.7z"/>
		</g>
	</g>
	<g>
		<path class="st0" d="M634.76,208.21l305.31-0.48c0,0-0.1-60.04-48.23-58.63c-48.13,1.41-45.35,18.75-45.35,18.75
			s20.53-62.74-70.24-59.93c-78.2,2.42-57.67,60.13-57.67,60.13S652.56,161.49,634.76,208.21z"/>
		<g>
			<path class="st1" d="M938.3,192.44c-0.45-2.23-1.01-4.58-1.71-7.02c-16.38-8.86-33.08-21.22-48.86-36.15
				c-2.6,0.13-5.02,0.32-7.31,0.55C898.95,167.92,918.9,182.63,938.3,192.44z"/>
			<path class="st1" d="M909.45,207.78l9.46-0.01c-20.93-14.3-41.7-32.22-61.06-52.81c-1.98,0.87-3.6,1.79-4.96,2.71
				C870.84,176.86,890.01,193.82,909.45,207.78z"/>
			<path class="st1" d="M776.99,147.09c14.01,14.5,20.12,35.32,18.42,60.87l7.17-0.01c1.73-27.33-5.02-49.79-20.33-65.63
				c-12.17-12.6-29.03-20.2-49.59-22.85c-2.77,1.93-5.13,4.01-7.08,6.22C747.3,127.32,764.8,134.47,776.99,147.09z"/>
			<path class="st1" d="M848.47,152.86c-0.03-2.93-0.33-6.12-1.05-9.41c-7.8-8.95-15.07-18.08-21.77-27.28
				c-2.8-1.43-5.93-2.71-9.42-3.83C825.75,126.09,836.54,139.7,848.47,152.86z"/>
			<path class="st1" d="M838.03,165.89c13.83,15.17,28.32,29.21,43.15,41.93l8.39-0.01c-16.29-13.61-32.24-28.87-47.38-45.49
				c-15.8-17.33-29.97-35.31-42.25-53.42c-2.25-0.28-4.59-0.52-7.04-0.69C805.86,127.77,821,147.21,838.03,165.89z"/>
			<path class="st1" d="M717.61,164.55c0.52,2.2,0.98,3.51,0.98,3.51s-7.4-0.73-17.9,0.04c15.9,1.89,28.83,7.56,38.02,17.07
				c6.03,6.24,10.25,13.93,12.72,22.86l7.38-0.01c-2.67-10.79-7.59-20.11-14.85-27.62C736.94,173.13,728.07,167.86,717.61,164.55z"
				/>
		</g>
	</g>
	<g>
		<g>
			<path class="st0" d="M940.08,207.78h209.8c0,0,0-41.26-33.08-40.34s-31.19,12.84-31.19,12.84s14.18-43.09-48.2-41.26
				c-53.73,1.58-39.69,41.26-39.69,41.26S952.36,175.69,940.08,207.78z"/>
			<g>
				<path class="st1" d="M1148.67,197.27c-0.3-1.53-0.69-3.15-1.17-4.82c-11.25-6.11-22.7-14.62-33.53-24.89
					c-1.79,0.09-3.45,0.21-5.02,0.37C1121.66,180.38,1135.35,190.51,1148.67,197.27z"/>
				<path class="st1" d="M1128.83,207.78h6.5c-14.36-9.85-28.62-22.18-41.9-36.36c-1.36,0.6-2.48,1.22-3.41,1.86
					C1102.33,186.49,1115.49,198.16,1128.83,207.78z"/>
				<path class="st1" d="M1037.88,165.93c9.61,9.98,13.79,24.29,12.59,41.85h4.93c1.22-18.78-3.4-34.22-13.9-45.12
					c-8.35-8.67-19.92-13.91-34.05-15.76c-1.9,1.32-3.53,2.75-4.87,4.26C1017.49,152.32,1029.51,157.25,1037.88,165.93z"/>
				<path class="st1" d="M1086.99,169.98c-0.02-2.02-0.22-4.21-0.71-6.47c-5.35-6.16-10.33-12.44-14.93-18.77
					c-1.92-0.98-4.07-1.87-6.47-2.64C1071.41,151.55,1078.81,160.92,1086.99,169.98z"/>
				<path class="st1" d="M1079.8,178.92c9.48,10.44,19.43,20.1,29.6,28.86h5.77c-11.18-9.37-22.12-19.87-32.51-31.31
					c-10.84-11.93-20.55-24.3-28.97-36.75c-1.54-0.2-3.15-0.36-4.84-0.48C1057.74,152.69,1068.12,166.06,1079.8,178.92z"/>
				<path class="st1" d="M997.05,177.86c0.35,1.51,0.67,2.41,0.67,2.41s-5.09-0.51-12.3,0.01c10.93,1.32,19.8,5.23,26.11,11.77
					c4.14,4.29,7.03,9.59,8.72,15.72h5.07c-1.82-7.42-5.2-13.82-10.18-18.99C1010.33,183.79,1004.24,180.15,997.05,177.86z"/>
			</g>
		</g>
		<g>
			<path class="st0" d="M1149.3,207.78h513.01c0,0,0-100.88-80.88-98.64c-80.88,2.24-76.26,31.38-76.26,31.38
				s34.66-105.36-117.85-100.88c-131.39,3.86-97.06,100.88-97.06,100.88S1179.34,129.31,1149.3,207.78z"/>
			<g>
				<path class="st1" d="M1622.07,119.32c-8.48-5.32-18.75-8.92-31.18-9.9c22.51,18.06,44.59,38.53,65.66,60.94
					c-3.3-11.56-8.5-24.04-16.69-34.71C1633.99,130.06,1628.05,124.62,1622.07,119.32z"/>
				<path class="st1" d="M1421.61,203.46c-11.43-36.91-8.49-65.13,8.29-79.48c16.14-13.8,43.88-13.52,78.28,0.43
					c0.36-3.95,0.5-8.44,0.22-13.24c-37.06-13.94-67.75-12.9-86.95,3.51c-12.27,10.49-18.78,26.25-19.37,46.03
					c-0.41,13.66,2.01,29.24,7.3,46.32c0.08,0.25,0.18,0.5,0.26,0.74h13.49C1422.64,206.35,1422.05,204.88,1421.61,203.46z"/>
				<path class="st1" d="M1525.47,118.46c-5.78,2.42-10.01,5.05-12.96,7.66c36.5,15.78,75.23,44.72,109.65,81.66h17.03
					c-1.25-1.41-2.41-2.84-3.69-4.25C1601.36,165.96,1562.62,136.14,1525.47,118.46z"/>
				<path class="st1" d="M1282.66,207.78c-11.17-22.61-20.51-44.95-27.89-66.77c-4.1,0.4-8.41,0.94-12.88,1.65
					c7.08,21.29,16.01,43.08,26.65,65.12H1282.66z"/>
				<path class="st1" d="M1208.87,151.36c-3.93,1.5-7.82,3.21-11.65,5.12c6.98,16.95,14.79,34.06,23.51,51.3h14.31
					C1225.26,188.81,1216.52,169.97,1208.87,151.36z"/>
				<path class="st1" d="M1342.15,169.25c-18.08-58.37-13.21-103.25,13.71-126.43c-8.14,1.5-15.32,3.49-21.72,5.84
					c-9.55,14.29-14.76,32.3-15.4,53.51c-0.62,20.77,3.07,44.53,11.16,70.64c3.55,11.46,7.88,23.14,12.93,34.96h13.91
					C1350.98,194.73,1346.06,181.84,1342.15,169.25z"/>
			</g>
		</g>
	</g>
	<g>
		<path class="st0" d="M1652.76,207.78H1980c0,0,0-64.35-51.59-62.92c-51.59,1.43-48.64,20.02-48.64,20.02s22.11-67.21-75.18-64.35
			c-83.81,2.46-61.91,64.35-61.91,64.35S1671.92,157.73,1652.76,207.78z"/>
		<g>
			<path class="st1" d="M1939.51,173.34c-5.44,4.66-8.33,11.68-8.6,20.53c-0.13,4.23,0.39,8.9,1.47,13.9h3.86
				c-3.3-14.47-1.32-25.58,5.79-31.66c6.69-5.72,17.39-6.5,30.63-2.4c-0.66-1.5-1.39-2.99-2.18-4.46
				C1957.41,165.89,1946.64,167.24,1939.51,173.34z"/>
			<path class="st1" d="M1910.73,202.2c-7.69-24.83-5.54-43.96,6.04-53.87c1.4-1.2,2.93-2.24,4.56-3.14
				c-2.62,0.17-5.08,0.39-7.38,0.65c-7.28,6.4-11.17,15.98-11.53,28.03c-0.26,8.63,1.28,18.52,4.65,29.4c0.46,1.49,0.97,3,1.49,4.51
				h4.04C1911.94,205.91,1911.3,204.04,1910.73,202.2z"/>
			<path class="st1" d="M1956.14,207.78h3.89c0.64-3.09,1.97-5.62,4.05-7.39c3.45-2.95,8.69-3.71,15.14-2.41
				c-0.16-1.21-0.36-2.5-0.59-3.86c-7.07-1.15-12.97-0.02-17.08,3.49C1958.67,200.08,1956.87,203.54,1956.14,207.78z"/>
			<path class="st1" d="M1866.28,115.09c-1.24-1-2.58-1.97-4.02-2.9c-16.56,32.05-42.61,65.31-75,95.59h7.1
				C1825.19,178.3,1850.08,146.18,1866.28,115.09z"/>
			<path class="st1" d="M1892.73,193.73c-4.81-15.52-6.42-29.19-4.96-40.48c-1.69,1.04-3.05,2.1-4.1,3.14
				c-0.07,0.98-0.17,1.94-0.2,2.96c-0.31,10.4,1.55,22.32,5.61,35.45c1.32,4.27,2.88,8.61,4.62,12.98h4.1
				C1895.87,203.04,1894.16,198.34,1892.73,193.73z"/>
			<path class="st1" d="M1755.28,186.93c-8.49,7.7-17.31,14.69-26.23,20.85h8.35c7.22-5.29,14.35-11.08,21.26-17.35
				c24.08-21.83,42.72-46.58,52.47-69.68c3.03-7.17,5.07-13.92,6.18-20.19c-1.62-0.06-3.29-0.09-4.99-0.11
				c-1.08,5.71-2.99,11.89-5.77,18.48C1797.07,141.41,1778.86,165.55,1755.28,186.93z"/>
			<path class="st1" d="M1848.93,105.84c-1.51-0.52-3.08-1.01-4.72-1.46c-0.37,0.92-0.71,1.83-1.1,2.76
				c-13.39,31.71-39.06,65.77-72.3,95.9c-1.77,1.6-3.55,3.17-5.34,4.74h7.33c0.46-0.41,0.93-0.81,1.39-1.23
				c33.75-30.59,59.85-65.25,73.5-97.58C1848.13,107.91,1848.52,106.88,1848.93,105.84z"/>
		</g>
	</g>
</g>
</svg>
