<svg version="1.1" id="Layer_1" xmlns="http://www.w3.org/2000/svg" x="0" y="0" viewBox="0 0 1980 208.21" style="enable-background:new 0 0 1980 208.21" xml:space="preserve"><style>.st0{fill:#d0e9f9}.st1{fill:#f4f7fe}</style><path class="st0" d="M0 0h634.76s0 124.82-100.08 122.05c-100.08-2.77-94.36-38.83-94.36-38.83s42.89 130.37-145.82 124.82C131.93 203.26 174.42 83.22 174.42 83.22S37.17 97.08 0 0z"/><path class="st1" d="M631.13 31.8c-.92 4.63-2.08 9.53-3.53 14.6-34.03 18.47-68.69 44.22-101.45 75.32-5.41-.27-10.45-.65-15.2-1.11 38.45-37.72 79.87-68.35 120.18-88.81zM571.09 0h19.68c-43.46 29.79-86.59 67.12-126.76 110-4.11-1.8-7.5-3.7-10.31-5.62C490.91 64.41 530.72 29.09 571.09 0zM295.9 126.61C324.98 96.43 337.62 53.11 333.99 0h14.9c3.68 56.81-10.28 103.54-42.05 136.52-25.27 26.23-60.28 42.08-103.03 47.67-5.76-4.01-10.68-8.33-14.75-12.9 45.17-3.48 81.54-18.41 106.84-44.68zm148.59-12.24c-.06 6.1-.67 12.73-2.15 19.57-16.19 18.63-31.27 37.63-45.16 56.78-5.82 2.98-12.32 5.66-19.58 7.98 19.75-28.59 42.15-56.92 66.89-84.33zm-21.75-27.05c28.7-31.58 58.79-60.81 89.57-87.32h17.45c-33.83 28.34-66.92 60.13-98.36 94.73-32.78 36.08-62.19 73.51-87.66 111.2-4.67.6-9.54 1.09-14.64 1.45 26.9-40.71 58.31-81.17 93.64-120.06zm-250.35 3.19c1.07-4.57 2.02-7.29 2.02-7.29s-15.39 1.54-37.22-.03c33.06-3.98 59.91-15.82 78.99-35.62 12.51-12.99 21.26-29 26.37-47.56h15.35c-5.52 22.45-15.72 41.83-30.79 57.47-14.56 15.11-32.99 26.11-54.72 33.03z"/><path class="st0" d="m634.76 0 305.31.48s-.1 60.04-48.23 58.63c-48.13-1.41-45.35-18.75-45.35-18.75s20.53 62.74-70.24 59.93c-78.2-2.42-57.67-60.13-57.67-60.13S652.56 46.73 634.76 0z"/><path class="st1" d="M938.3 15.77a90.04 90.04 0 0 1-1.71 7.02c-16.38 8.86-33.08 21.22-48.86 36.15-2.6-.13-5.02-.32-7.31-.55 18.53-18.1 38.48-32.81 57.88-42.62zM909.45.43l9.46.01c-20.93 14.3-41.7 32.22-61.06 52.81-1.98-.87-3.6-1.79-4.96-2.71 17.95-19.19 37.12-36.15 56.56-50.11zM776.99 61.12C791 46.63 797.11 25.8 795.41.25l7.17.01c1.73 27.33-5.02 49.79-20.33 65.63-12.17 12.6-29.03 20.2-49.59 22.85-2.77-1.93-5.13-4.01-7.08-6.22 21.72-1.63 39.22-8.78 51.41-21.4zm71.48-5.77c-.03 2.93-.33 6.12-1.05 9.41-7.8 8.95-15.07 18.08-21.77 27.28-2.8 1.43-5.93 2.71-9.42 3.83 9.52-13.75 20.31-27.36 32.24-40.52zm-10.44-13.03c13.83-15.17 28.32-29.21 43.15-41.93l8.39.01c-16.29 13.61-32.24 28.87-47.38 45.49-15.8 17.33-29.97 35.31-42.25 53.42-2.25.28-4.59.52-7.04.69 12.96-19.56 28.1-39 45.13-57.68zm-120.42 1.34c.52-2.2.98-3.51.98-3.51s-7.4.73-17.9-.04c15.9-1.89 28.83-7.56 38.02-17.07 6.03-6.24 10.25-13.93 12.72-22.86l7.38.01c-2.67 10.79-7.59 20.11-14.85 27.62-7.02 7.27-15.89 12.54-26.35 15.85z"/><path class="st0" d="M940.08.43h209.8s0 41.26-33.08 40.34-31.19-12.84-31.19-12.84 14.18 43.09-48.2 41.26c-53.73-1.58-39.69-41.26-39.69-41.26s-45.36 4.59-57.64-27.5z"/><path class="st1" d="M1148.67 10.94c-.3 1.53-.69 3.15-1.17 4.82-11.25 6.11-22.7 14.62-33.53 24.89-1.79-.09-3.45-.21-5.02-.37 12.71-12.45 26.4-22.58 39.72-29.34zM1128.83.43h6.5c-14.36 9.85-28.62 22.18-41.9 36.36-1.36-.6-2.48-1.22-3.41-1.86 12.31-13.21 25.47-24.88 38.81-34.5zm-90.95 41.85c9.61-9.98 13.79-24.29 12.59-41.85h4.93c1.22 18.78-3.4 34.22-13.9 45.12-8.35 8.67-19.92 13.91-34.05 15.76-1.9-1.32-3.53-2.75-4.87-4.26 14.91-1.15 26.93-6.09 35.3-14.77zm49.11-4.05c-.02 2.02-.22 4.21-.71 6.47a276.865 276.865 0 0 0-14.93 18.77c-1.92.98-4.07 1.87-6.47 2.64 6.53-9.45 13.93-18.82 22.11-27.88zm-7.19-8.94c9.48-10.44 19.43-20.1 29.6-28.86h5.77c-11.18 9.37-22.12 19.87-32.51 31.31-10.84 11.93-20.55 24.3-28.97 36.75-1.54.2-3.15.36-4.84.48 8.89-13.45 19.27-26.82 30.95-39.68zm-82.75 1.06c.35-1.51.67-2.41.67-2.41s-5.09.51-12.3-.01c10.93-1.32 19.8-5.23 26.11-11.77 4.14-4.29 7.03-9.59 8.72-15.72h5.07c-1.82 7.42-5.2 13.82-10.18 18.99-4.81 5-10.9 8.63-18.09 10.92z"/><path class="st0" d="M1149.3.43h513.01s0 100.88-80.88 98.64c-80.88-2.24-76.26-31.38-76.26-31.38s34.66 105.36-117.85 100.88c-131.39-3.86-97.06-100.88-97.06-100.88S1179.34 78.9 1149.3.43z"/><path class="st1" d="M1622.07 88.89c-8.48 5.32-18.75 8.92-31.18 9.9 22.51-18.06 44.59-38.53 65.66-60.94-3.3 11.56-8.5 24.04-16.69 34.71a674.931 674.931 0 0 1-17.79 16.33zM1421.61 4.75c-11.43 36.91-8.49 65.13 8.29 79.48 16.14 13.8 43.88 13.52 78.28-.43.36 3.95.5 8.44.22 13.24-37.06 13.94-67.75 12.9-86.95-3.51-12.27-10.49-18.78-26.25-19.37-46.03-.41-13.66 2.01-29.24 7.3-46.32.08-.25.18-.5.26-.74h13.49c-.49 1.42-1.08 2.89-1.52 4.31zm103.86 85c-5.78-2.42-10.01-5.05-12.96-7.66 36.5-15.78 75.23-44.72 109.65-81.66h17.03c-1.25 1.41-2.41 2.84-3.69 4.25-34.14 37.57-72.88 67.39-110.03 85.07zM1282.66.43c-11.17 22.61-20.51 44.95-27.89 66.77-4.1-.4-8.41-.94-12.88-1.65 7.08-21.29 16.01-43.08 26.65-65.12h14.12zm-73.79 56.42c-3.93-1.5-7.82-3.21-11.65-5.12a726.694 726.694 0 0 1 23.51-51.3h14.31c-9.78 18.97-18.52 37.81-26.17 56.42zm133.28-17.89c-18.08 58.37-13.21 103.25 13.71 126.43-8.14-1.5-15.32-3.49-21.72-5.84-9.55-14.29-14.76-32.3-15.4-53.51-.62-20.77 3.07-44.53 11.16-70.64 3.55-11.46 7.88-23.14 12.93-34.96h13.91c-5.76 13.04-10.68 25.93-14.59 38.52z"/><path class="st0" d="M1652.76.43H1980s0 64.35-51.59 62.92c-51.59-1.43-48.64-20.02-48.64-20.02s22.11 67.21-75.18 64.35c-83.81-2.46-61.91-64.35-61.91-64.35s-70.76 7.15-89.92-42.9z"/><path class="st1" d="M1939.51 34.87c-5.44-4.66-8.33-11.68-8.6-20.53-.13-4.23.39-8.9 1.47-13.9h3.86c-3.3 14.47-1.32 25.58 5.79 31.66 6.69 5.72 17.39 6.5 30.63 2.4-.66 1.5-1.39 2.99-2.18 4.46-13.07 3.36-23.84 2.01-30.97-4.09zm-28.78-28.86c-7.69 24.83-5.54 43.96 6.04 53.87 1.4 1.2 2.93 2.24 4.56 3.14-2.62-.17-5.08-.39-7.38-.65-7.28-6.4-11.17-15.98-11.53-28.03-.26-8.63 1.28-18.52 4.65-29.4.46-1.49.97-3 1.49-4.51h4.04c-.66 1.88-1.3 3.74-1.87 5.58zm45.41-5.58h3.89c.64 3.09 1.97 5.62 4.05 7.39 3.45 2.95 8.69 3.71 15.14 2.41-.16 1.21-.36 2.5-.59 3.86-7.07 1.15-12.97.02-17.08-3.49-2.88-2.47-4.68-5.92-5.41-10.17zm-89.86 92.69c-1.24 1-2.58 1.97-4.02 2.9-16.56-32.05-42.61-65.31-75-95.59h7.1c30.83 29.48 55.72 61.6 71.92 92.69zm26.45-78.64c-4.81 15.52-6.42 29.19-4.96 40.48-1.69-1.04-3.05-2.1-4.1-3.14-.07-.98-.17-1.94-.2-2.96-.31-10.4 1.55-22.32 5.61-35.45 1.32-4.27 2.88-8.61 4.62-12.98h4.1c-1.93 4.74-3.64 9.44-5.07 14.05zm-137.45 6.81c-8.49-7.7-17.31-14.69-26.23-20.85h8.35a262.91 262.91 0 0 1 21.26 17.35c24.08 21.83 42.72 46.58 52.47 69.68 3.03 7.17 5.07 13.92 6.18 20.19-1.62.06-3.29.09-4.99.11-1.08-5.71-2.99-11.89-5.77-18.48-9.48-22.49-27.69-46.63-51.27-68zm93.65 81.08a77.28 77.28 0 0 1-4.72 1.46c-.37-.92-.71-1.83-1.1-2.76-13.39-31.71-39.06-65.77-72.3-95.9-1.77-1.6-3.55-3.17-5.34-4.74h7.33c.46.41.93.81 1.39 1.23 33.75 30.59 59.85 65.25 73.5 97.58.44 1.06.83 2.09 1.24 3.13z"/></svg>