<svg version="1.1" id="Layer_1" xmlns="http://www.w3.org/2000/svg" xmlns:xlink="http://www.w3.org/1999/xlink" x="0" y="0" viewBox="0 0 1980 208.2" style="enable-background:new 0 0 1980 208.2" xml:space="preserve"><style>.st1{fill:#d0e9f9}.st2{fill:#f4f7fe}</style><defs><path id="SVGID_1_" d="M0 .4h1980v207.4H0z"/></defs><clipPath id="SVGID_2_"><use xlink:href="#SVGID_1_" style="overflow:visible"/></clipPath><g style="clip-path:url(#SVGID_2_)"><path class="st1" d="M-235 0h634.8s0 124.8-100.1 122.1-94.4-38.8-94.4-38.8S248.2 213.6 59.5 208C-103.1 203.3-60.6 83.2-60.6 83.2S-197.8 97.1-235 0z"/><path class="st2" d="M396.1 31.8c-.9 4.6-2.1 9.5-3.5 14.6-34 18.5-68.7 44.2-101.5 75.3-5.4-.3-10.5-.7-15.2-1.1 38.5-37.7 79.9-68.3 120.2-88.8zM336.1 0h19.7C312.3 29.8 269.2 67.1 229 110c-4.1-1.8-7.5-3.7-10.3-5.6 37.2-40 77-75.3 117.4-104.4zM60.9 126.6C90 96.4 102.6 53.1 99 0h14.9c3.7 56.8-10.3 103.5-42 136.5-25.3 26.2-60.3 42.1-103 47.7-5.8-4-10.7-8.3-14.7-12.9 45-3.5 81.4-18.4 106.7-44.7zm148.6-12.2c-.1 6.1-.7 12.7-2.1 19.6-16.2 18.6-31.3 37.6-45.2 56.8-5.8 3-12.3 5.7-19.6 8 19.8-28.7 42.2-57 66.9-84.4zm-21.7-27.1c28.7-31.6 58.8-60.8 89.6-87.3h17.5c-33.8 28.3-66.9 60.1-98.4 94.7-32.8 36.1-62.2 73.5-87.7 111.2-4.7.6-9.5 1.1-14.6 1.4 26.8-40.6 58.2-81.1 93.6-120zm-250.4 3.2c1.1-4.6 2-7.3 2-7.3s-15.4 1.5-37.2 0c33.1-4 59.9-15.8 79-35.6C-6.3 34.6 2.5 18.6 7.6 0H23C17.4 22.5 7.2 41.8-7.9 57.5c-14.5 15.1-33 26.1-54.7 33z"/><path class="st1" d="M1662.9 2.6h634.8s0 124.8-100.1 122.1-94.4-38.8-94.4-38.8 42.9 130.4-145.8 124.8c-162.6-4.8-120.1-124.8-120.1-124.8s-137.2 13.8-174.4-83.3z"/><path class="st2" d="M2294.1 34.4c-.9 4.6-2.1 9.5-3.5 14.6-34 18.5-68.7 44.2-101.4 75.3-5.4-.3-10.4-.7-15.2-1.1 38.3-37.7 79.8-68.3 120.1-88.8zM2234 2.6h19.7c-43.5 29.8-86.6 67.1-126.8 110-4.1-1.8-7.5-3.7-10.3-5.6 37.3-40 77.1-75.3 117.4-104.4zm-275.2 126.6c29.1-30.2 41.7-73.5 38.1-126.6h14.9c3.7 56.8-10.3 103.5-42.1 136.5-25.3 26.2-60.3 42.1-103 47.7-5.8-4-10.7-8.3-14.8-12.9 45.3-3.5 81.6-18.4 106.9-44.7zm148.6-12.2c-.1 6.1-.7 12.7-2.2 19.6-16.2 18.6-31.3 37.6-45.2 56.8-5.8 3-12.3 5.7-19.6 8 19.9-28.7 42.3-57 67-84.4zm-21.7-27.1c28.7-31.6 58.8-60.8 89.6-87.3h17.5c-33.8 28.3-66.9 60.1-98.4 94.7-32.8 36.1-62.2 73.5-87.7 111.2-4.7.6-9.5 1.1-14.6 1.4 26.8-40.6 58.3-81.1 93.6-120zm-250.4 3.2c1.1-4.6 2-7.3 2-7.3s-15.4 1.5-37.2 0c33.1-4 59.9-15.8 79-35.6 12.5-13 21.3-29 26.4-47.6h15.4c-5.5 22.5-15.7 41.8-30.8 57.5-14.6 15.1-33 26.1-54.8 33z"/><path class="st1" d="m1657.8 3.8-292.1.5s.1 60 46.1 58.6c46.1-1.4 43.4-18.8 43.4-18.8s-19.6 62.7 67.2 59.9c74.8-2.4 55.2-60.1 55.2-60.1s63.2 6.6 80.2-40.1z"/><path class="st2" d="M1367.3 19.6c.5 2.4 1 4.7 1.6 7 15.7 8.9 31.7 21.2 46.8 36.2 2.5-.1 4.8-.3 7-.5-17.7-18.2-36.8-32.9-55.4-42.7zM1395 4.2h-9.1c20 14.3 39.9 32.2 58.4 52.8 1.9-.9 3.4-1.8 4.7-2.7-17.1-19.1-35.4-36.1-54-50.1zm126.7 60.7c-13.4-14.5-19.3-35.3-17.6-60.9h-6.9c-1.7 27.3 4.8 49.8 19.5 65.6 11.6 12.6 27.8 20.2 47.5 22.8 2.7-1.9 4.9-4 6.8-6.2-20.9-1.5-37.6-8.6-49.3-21.3zm-68.4-5.7c0 2.9.3 6.1 1 9.4 7.5 8.9 14.4 18.1 20.8 27.3 2.7 1.4 5.7 2.7 9 3.8-9.1-13.8-19.4-27.4-30.8-40.5zm10-13.1c-13.2-15.2-27.1-29.2-41.3-41.9h-8c15.6 13.6 30.8 28.9 45.3 45.5 15.1 17.3 28.7 35.3 40.4 53.4 2.2.3 4.4.5 6.7.7-12.3-19.5-26.8-39-43.1-57.7zm115.2 1.4c-.5-2.2-.9-3.5-.9-3.5s7.1.7 17.1 0c-15.2-1.9-27.6-7.6-36.4-17.1-5.8-6.2-9.8-13.9-12.2-22.9h-7.1c2.6 10.8 7.3 20.1 14.2 27.6 6.8 7.3 15.3 12.6 25.3 15.9z"/><path class="st1" d="M1365.6-9.8h-200.8s0 41.3 31.7 40.3 29.8-12.8 29.8-12.8-13.6 43.1 46.1 41.3c51.4-1.6 38-41.3 38-41.3s43.5 4.6 55.2-27.5z"/><path class="st2" d="M1166.1.7c.3 1.5.7 3.2 1.1 4.8 10.8 6.1 21.7 14.6 32.1 24.9 1.7-.1 3.3-.2 4.8-.4-12.2-12.4-25.3-22.5-38-29.3zM1185-9.8h-6.2c13.7 9.9 27.4 22.2 40.1 36.4 1.3-.6 2.4-1.2 3.3-1.9-11.8-13.2-24.4-24.9-37.2-34.5zm87.1 41.8c-9.2-10-13.2-24.3-12-41.8h-4.7c-1.2 18.8 3.3 34.2 13.3 45.1 8 8.7 19.1 13.9 32.6 15.8 1.8-1.3 3.4-2.8 4.7-4.3-14.4-1.1-25.9-6.1-33.9-14.8zm-47-4c0 2 .2 4.2.7 6.5 5 6 9.8 12.3 14.3 18.8 1.8 1 3.9 1.9 6.2 2.6-6.3-9.5-13.4-18.9-21.2-27.9zm6.9-9c-9.1-10.4-18.6-20.1-28.3-28.9h-5.5c10.7 9.4 21.2 19.9 31.1 31.3 10.4 11.9 19.7 24.3 27.7 36.8 1.5.2 3 .4 4.6.5-8.5-13.4-18.5-26.8-29.6-39.7zm79.1 1.1c-.3-1.5-.6-2.4-.6-2.4s4.9.5 11.8 0c-10.5-1.3-18.9-5.2-25-11.8-4-4.3-6.7-9.6-8.3-15.7h-4.9c1.7 7.4 5 13.8 9.7 19 4.6 5 10.5 8.6 17.3 10.9z"/><path class="st1" d="m396.1.8 305.3.5s-.1 60-48.2 58.6-45.3-18.8-45.3-18.8 20.5 62.7-70.2 59.9C459.4 98.6 480 40.9 480 40.9S413.9 47.5 396.1.8z"/><path class="st2" d="M699.7 16.5c-.5 2.4-1 4.7-1.7 7-16.4 8.9-33.1 21.2-48.9 36.2-2.6-.1-5-.3-7.3-.5 18.5-18.2 38.5-32.9 57.9-42.7zM670.8 1.2h9.5c-20.9 14.3-41.7 32.2-61.1 52.8-2-.9-3.6-1.8-5-2.7 18-19.2 37.2-36.2 56.6-50.1zM538.4 61.9c14-14.5 20.1-35.3 18.4-60.9h7.2c1.7 27.3-5 49.8-20.3 65.6-12.2 12.6-29 20.2-49.6 22.8-2.8-1.9-5.1-4-7.1-6.2 21.7-1.6 39.2-8.7 51.4-21.3zm71.5-5.8c0 2.9-.3 6.1-1 9.4-7.8 8.9-15.1 18.1-21.8 27.3-2.8 1.4-5.9 2.7-9.4 3.8 9.4-13.7 20.2-27.3 32.2-40.5zm-10.5-13c13.8-15.2 28.3-29.2 43.2-41.9h8.4c-16.3 13.6-32.2 28.9-47.4 45.5-15.8 17.3-30 35.3-42.2 53.4-2.2.3-4.6.5-7 .7 12.8-19.6 28-39 45-57.7zM479 44.4c.5-2.2 1-3.5 1-3.5s-7.4.7-17.9 0c15.9-1.9 28.8-7.6 38-17.1 6-6.2 10.2-13.9 12.7-22.9h7.4c-2.7 10.8-7.6 20.1-14.8 27.6-7.1 7.3-15.9 12.6-26.4 15.9z"/><path class="st1" d="M701.5-9.8h209.8s0 41.3-33.1 40.3S847 17.7 847 17.7s14.2 43.1-48.2 41.3c-53.7-1.6-39.7-41.3-39.7-41.3s-45.4 4.6-57.6-27.5z"/><path class="st2" d="M910.1.7c-.3 1.5-.7 3.2-1.2 4.8-11.2 6.1-22.7 14.6-33.5 24.9-1.8-.1-3.4-.2-5-.4C883 17.6 896.7 7.5 910.1.7zM890.2-9.8h6.5c-14.4 9.9-28.6 22.2-41.9 36.4-1.4-.6-2.5-1.2-3.4-1.9 12.3-13.2 25.5-24.9 38.8-34.5zM799.3 32c9.6-10 13.8-24.3 12.6-41.8h4.9c1.2 18.8-3.4 34.2-13.9 45.1-8.3 8.7-19.9 13.9-34 15.8-1.9-1.3-3.5-2.8-4.9-4.3 14.9-1.1 26.9-6.1 35.3-14.8zm49.1-4c0 2-.2 4.2-.7 6.5-5.2 6-10.2 12.3-14.9 18.8-1.9 1-4.1 1.9-6.5 2.6 6.5-9.5 13.9-18.9 22.1-27.9zm-7.2-9c9.5-10.4 19.4-20.1 29.6-28.9h5.8C865.4-.5 854.5 10 844.1 21.4c-10.8 11.9-20.6 24.3-29 36.8-1.5.2-3.2.4-4.8.5 8.8-13.4 19.2-26.8 30.9-39.7zm-82.8 1.1c.3-1.5.7-2.4.7-2.4s-5.1.5-12.3 0c10.9-1.3 19.8-5.2 26.1-11.8 4.1-4.3 7-9.6 8.7-15.7h5.1c-1.8 7.4-5.2 13.8-10.2 19-4.8 5-10.9 8.6-18.1 10.9z"/><g><path class="st1" d="M745.9-336.2h248.9s0 48.9-39.2 47.9c-39.2-1.1-37-15.2-37-15.2s16.8 51.1-57.2 48.9c-63.8-1.9-47.1-48.9-47.1-48.9s-53.9 5.4-68.4-32.7z"/><path class="st2" d="M974.9-293.3c-4.1 2.6-9.1 4.3-15.1 4.8 10.9-8.8 21.6-18.7 31.9-29.6-1.6 5.6-4.1 11.7-8.1 16.8-2.9 2.8-5.7 5.4-8.7 8zm-97.2-40.8c-5.5 17.9-4.1 31.6 4 38.6 7.8 6.7 21.3 6.6 38-.2.2 1.9.2 4.1.1 6.4-18 6.8-32.9 6.3-42.2-1.7-6-5.1-9.1-12.7-9.4-22.3-.2-6.6 1-14.2 3.5-22.5 0-.1.1-.2.1-.4h6.5c-.1.7-.4 1.4-.6 2.1zm50.4 41.2c-2.8-1.2-4.9-2.5-6.3-3.7 17.7-7.7 36.5-21.7 53.2-39.6h8.3l-1.8 2.1c-16.6 18.2-35.4 32.6-53.4 41.2zm-117.9-43.3c-5.4 11-10 21.8-13.5 32.4-2-.2-4.1-.5-6.2-.8 3.4-10.3 7.8-20.9 12.9-31.6h6.8zm-35.8 27.4c-1.9-.7-3.8-1.6-5.7-2.5 3.5-8.4 7.3-16.7 11.4-24.9h6.9c-4.6 9.2-8.9 18.3-12.6 27.4zm64.7-8.7c-8.8 28.3-6.4 50.1 6.7 61.3-3.9-.7-7.4-1.7-10.5-2.8-4.6-6.9-7.2-15.7-7.5-26-.3-10.1 1.5-21.6 5.4-34.3 1.7-5.6 3.8-11.2 6.3-17h6.7c-2.8 6.4-5.2 12.7-7.1 18.8z"/></g></g></svg>