<?xml version="1.0" encoding="utf-8"?>
<!-- Generator: Adobe Illustrator 25.2.1, SVG Export Plug-In . SVG Version: 6.00 Build 0)  -->
<svg version="1.1" id="Layer_1" xmlns="http://www.w3.org/2000/svg" xmlns:xlink="http://www.w3.org/1999/xlink" x="0px" y="0px"
	 viewBox="0 0 469.5 491" style="enable-background:new 0 0 469.5 491;" xml:space="preserve">
<style type="text/css">
	.st0{opacity:.8;}
	.st1{fill:#CFEAFF;}
	.st2{fill:#f4f7fe;}
</style>
<g class="st0">
	<g id="Layer_2_1_">
		<g id="OBJECT">
			<path class="st1" d="M0,0h244.7c15.7,20.1,39.2,63.8,16.2,126.4c0,0,63,7.5,46.8,75.1c0,0,49.7,12.2,33.4,63.8
				c0,0,66.9,15,46.8,90.1c0,0,104.4,22.9,77,135.6H0"/>
			<path class="st2" d="M40,58c-14.9,6.5-27.2,6.6-34.6,0.1C2.9,55.9,1,53.1,0,50V28.6c0.3-1.4,0.7-2.8,1.1-4.2
				C3.9,15.8,7.7,7.6,12.5,0H16C11,7.8,6.9,16.3,4,25.2c-1.7,5.2-2.6,10.7-2.5,16.2c0.2,6.3,2.2,11.3,5.9,14.5
				c6.5,5.6,17.6,5.4,31.4-0.6c14.1-6.2,29.2-17.7,42.4-32.4c6.4-7.1,12.1-14.7,17-22.9h3.5c-5.2,8.9-11.3,17.2-18.2,24.8
				C70,39.9,54.5,51.6,40,58z"/>
			<path class="st2" d="M76.6,350.6c20.7-9,37.8-9.1,48-0.3c6,5.2,9.2,13.1,9.5,23c0.2,7-1,15-3.7,23.9c-6.4,21-20.3,44.1-39.2,65.1
				C81.7,472.9,71.3,482.5,60,491h-5.1c12.4-9,23.8-19.3,34-30.7c18.6-20.7,32.3-43.5,38.6-64c6.2-20.1,4.4-35.7-4.8-43.7
				s-25.2-7.8-44.8,0.8c-20,8.7-41.2,24.9-59.8,45.6C11.6,406.3,5.5,414,0,422v-5.3c4.9-6.9,10.2-13.5,15.8-19.7
				C34.7,376,56.3,359.5,76.6,350.6z"/>
			<path class="st2" d="M25.1,36.1c8.5,7.3,29.9-2.4,46.9-21.2C76.1,10.3,79.8,5.3,83,0h3.5C83,6,78.9,11.7,74.2,16.9
				C55.6,37.7,33.1,47.1,23,38.4c-7.8-6.8-5.5-22.1,4.6-38.4h3.7C21.4,15.3,18.4,30.3,25.1,36.1z"/>
			<path class="st2" d="M333.5,482.2c-19.6-6.4-41-19.7-60.2-37.4s-34.2-37.8-42-56.5c-8-19.2-7.6-34.9,1.1-44.1s24.6-10.7,44.7-4.1
				c19.6,6.4,41,19.7,60.2,37.4s34.2,37.8,42,56.5c8,19.2,7.6,34.9-1.1,44.1c-5.1,5.4-12.8,8.1-22.2,8.1
				C348.3,486,340.8,484.7,333.5,482.2z M375.3,475.4c7.6-8,7.8-22.2,0.4-40c-7.6-18.2-22.2-37.8-41.1-55.2l0,0
				c-18.9-17.4-39.8-30.3-58.8-36.5c-6.8-2.4-14-3.7-21.2-3.9c-8.3,0-14.9,2.3-19.3,6.9c-7.6,8-7.8,22.2-0.4,40
				c7.6,18.2,22.2,37.8,41.1,55.2s39.8,30.3,58.8,36.5C353.3,484.5,367.7,483.4,375.3,475.4L375.3,475.4z"/>
			<path class="st2" d="M2.6,486.4L2.6,486.4c-1.7-2.1-2.6-4.7-2.6-7.3V477c0.9,2.7,2.5,5.2,4.6,7.1c6.5,5.6,17.6,5.4,31.4-0.6
				c14.1-6.2,29.2-17.7,42.4-32.4s22.9-30.8,27.3-45.4c4.3-14.2,3.2-25.1-3.3-30.7s-17.6-5.4-31.4,0.6
				c-14.1,6.2-29.2,17.7-42.4,32.4l0,0c-13.2,14.7-22.9,30.8-27.3,45.4c-0.5,1.7-0.9,3.3-1.3,4.9v-10.5
				c5.1-13.6,14.3-28.3,26.4-41.7c13.5-15,28.9-26.8,43.4-33.1c14.9-6.5,27.2-6.5,34.6-0.1c4.4,3.8,6.7,9.5,6.9,16.7
				c0,5.8-0.9,11.6-2.7,17.1c-4.6,15-14.5,31.5-28,46.5S51.8,480,37.2,486.3c-5.4,2.4-11.1,4-16.9,4.7h-6.4
				C9.7,490.7,5.8,489.1,2.6,486.4z"/>
			<path class="st2" d="M284.2,433.4c-26.7-24.5-38.3-53.5-26.5-66s42.1-3,68.8,21.5c12.5,11.5,22.2,24.6,27.3,36.8
				c5.3,12.7,5,23.1-0.9,29.2c-3.5,3.6-8.5,5.5-14.9,5.5c-5-0.1-10-1-14.7-2.6C310.6,453.5,296.7,444.9,284.2,433.4z M350,452.2
				c4.7-5,4.8-13.9,0.1-25.1c-4.9-11.7-14.2-24.3-26.4-35.4c-24.2-22.3-53.2-32.2-63.2-21.7s2,38.2,26.3,60.5
				c12.1,11.2,25.5,19.5,37.7,23.5C336.3,457.8,345.3,457.1,350,452.2z"/>
			<path class="st2" d="M405,445c-10.7-25.7-31.3-53.4-57.9-77.8s-56.1-42.8-82.9-51.5c-26.3-8.6-46.9-7-57.8,4.5s-11.2,31.8-0.7,57
				c10.7,25.7,31.3,53.4,57.9,77.8c14.9,13.8,31.2,25.8,48.7,36h-7.7c-15.6-9.6-30.3-20.7-43.8-33.2c-27-24.8-48-53-58.9-79.2
				c-11.1-26.7-10.6-48.5,1.4-61.1s34.1-14.7,62-5.6c27.4,9,57.4,27.5,84.4,52.4s48,53,58.9,79.2c7.8,18.8,9.9,35.1,6.2,47.5h-4.1
				C414.6,479.3,412.7,463.5,405,445z"/>
			<path class="st2" d="M251.8,465.6c-32.7-30-58-64-71.2-95.7c-13.4-32.2-12.8-58.3,1.7-73.6s41-17.6,74.6-6.6
				c33.1,10.8,69.3,33.3,102,63.3s58,64,71.2,95.7c6.6,15.8,9.8,30,9.6,42.3h-3.9c0.1-11.8-3-25.5-9.4-40.9
				c-13-31.2-37.9-64.7-70.2-94.3s-68-51.8-100.5-62.5c-13.6-4.4-25.9-6.6-36.5-6.6c-14.6,0-26.2,4.1-33.9,12.2
				c-13.4,14.1-13.7,38.7-0.9,69.4c13,31.2,37.9,64.7,70.2,94.3c11,10.2,22.7,19.6,35,28.3h-6.7C272,483.1,261.7,474.6,251.8,465.6z
				"/>
			<path class="st2" d="M63.8,392.6c9.8-4.3,18-4.3,23,0c2.9,2.5,4.5,6.4,4.6,11.1c0,3.8-0.6,7.6-1.7,11.3
				c-3,9.7-9.4,20.5-18.2,30.2c-18.6,20.8-41.1,30.2-51.2,21.5s-3.3-31.8,15.3-52.6C44.3,404.4,54.3,396.7,63.8,392.6z M22.3,464.5
				c8.5,7.4,29.9-2.4,46.9-21.2c8.5-9.4,14.7-19.8,17.6-29.1c2.7-8.9,2-15.8-2-19.3s-11-3.3-19.7,0.5c-9,4-18.7,11.3-27.2,20.8
				C20.9,435,13.8,457.1,22.3,464.5z"/>
			<path class="st2" d="M286.7,191.5c-5-0.1-10-1-14.7-2.6c-12.7-4.2-26.6-12.8-39.2-24.3c-26.7-24.5-38.3-53.5-26.4-66
				c10.4-11,35.1-5,59.1,13.3c-0.4,1.4-0.7,2.7-1.1,4.1c-22.3-17.3-46.2-24.2-55.1-14.8c-10,10.5,2,38.2,26.3,60.5
				c12.1,11.1,25.5,19.5,37.7,23.4c11.7,3.8,20.7,3.2,25.5-1.8s4.8-13.9,0.1-25.1c-3.9-8.8-9.2-17-15.6-24.3
				c3.9,2.1,7.5,4.7,10.8,7.6c3.3,4.8,6.1,9.8,8.4,15.1c5.3,12.7,5,23.1-0.9,29.2C298.1,189.6,293,191.5,286.7,191.5z"/>
			<path class="st2" d="M282.1,213.3c-19.6-6.3-41-19.7-60.3-37.3s-34.2-37.8-42-56.6c-8-19.2-7.6-34.9,1.1-44.1s24.6-10.7,44.7-4.1
				c14,4.6,28.9,12.7,43.3,23.4c-0.2,1.4-0.4,2.9-0.7,4.4c-14.6-11.1-29.8-19.4-43.9-24.1c-6.8-2.4-14-3.7-21.3-3.9
				c-8.3,0-14.9,2.3-19.3,6.9c-7.6,8-7.8,22.2-0.4,40c7.6,18.2,22.2,37.8,41.1,55.2s39.8,30.3,58.8,36.5c17.4,5.7,31.1,5.1,39-1.6
				c1.1,0.7,2.2,1.4,3.3,2.2c-5.1,4.7-12.3,7.1-21.2,7.1C296.9,217.2,289.4,215.8,282.1,213.3z"/>
			<path class="st2" d="M293.8,241.4c-27.4-8.9-57.4-27.6-84.4-52.4s-47.9-53-58.9-79.2c-11.1-26.7-10.6-48.5,1.4-61.2
				s34.1-14.7,62-5.6c18.2,6,37.5,16.2,56.4,29.7c0,1.6,0,3.2,0,4.8c-19.3-14.1-39.1-24.7-57.7-30.8c-26.3-8.6-46.9-7-57.8,4.5
				s-11.2,31.8-0.7,57c10.7,25.7,31.3,53.4,57.9,77.8s56.1,42.8,82.9,51.5c20.3,6.6,37.1,7.2,48.8,1.8c0.2,1.3,0.3,2.7,0.4,4.1
				c-6.1,2.4-12.6,3.5-19.1,3.4C315.9,247.1,305.4,245.2,293.8,241.4z"/>
			<path class="st2" d="M33.2,80.4c-12.7,5.5-24,7.7-33.2,6.5v-3c8.7,1.2,19.6-0.9,31.9-6.3C51.8,68.9,73.1,52.7,91.7,32
				c8.9-9.9,16.9-20.6,23.8-32h3.5c-7.2,12.1-15.6,23.5-25,34C75.1,55,53.5,71.5,33.2,80.4z"/>
			<path class="st2" d="M95.1,467c22.5-25.1,39.1-52.7,46.7-77.6c7.5-24.5,5.4-43.4-5.9-53.2s-30.7-9.5-54.5,0.9
				C57.2,347.6,31.5,367.3,9,392.4c-3.1,3.5-6.1,7-9,10.6v-4.8c2.2-2.6,4.4-5.2,6.7-7.8C29.5,365,55.6,345,80.2,334.3
				c25-10.9,45.5-11,57.8-0.4c7.2,6.2,11,15.7,11.4,27.6c0.2,8.4-1.2,18.1-4.5,28.8c-7.7,25.3-24.6,53.2-47.4,78.7
				c-6.9,7.7-14.3,15.1-22.1,22h-4.6C79.4,483.5,87.5,475.5,95.1,467z"/>
			<path class="st2" d="M269.3,58.4c-21.8-15.3-44.1-27-65-33.8c-13.6-4.4-25.9-6.6-36.5-6.6c-14.6,0-26.2,4.1-33.9,12.2
				c-13.4,14.1-13.7,38.7-0.9,69.4c13,31.2,37.9,64.7,70.2,94.3s68,51.8,100.5,62.4c14.2,4.7,27.1,6.8,38.1,6.6
				c-0.2,0.8-0.5,1.5-0.7,2.3c0,0,1.8,0.4,4.6,1.4c-1.8,0.1-3.6,0.2-5.5,0.2c-11.1,0-23.9-2.3-37.8-6.8
				c-33.1-10.8-69.3-33.3-102-63.3s-57.9-64-71.2-95.7c-13.4-32.2-12.8-58.3,1.7-73.6s41-17.6,74.6-6.6c20.3,6.6,41.8,17.7,63,32.2
				C268.8,54.8,269,56.6,269.3,58.4z"/>
			<path class="st2" d="M42.4,162.2c14.9-6.5,27.2-6.6,34.6-0.1c4.4,3.8,6.7,9.5,6.9,16.7c0,5.8-0.9,11.6-2.7,17.1
				c-4.6,15-14.5,31.5-28,46.5c-13.5,15-28.9,26.8-43.4,33.1c-3.2,1.4-6.5,2.6-9.8,3.4v-3.1c2.9-0.8,5.8-1.9,8.6-3.1
				c14.1-6.2,29.2-17.7,42.4-32.4s22.9-30.8,27.4-45.4c4.3-14.2,3.2-25.1-3.3-30.7s-17.6-5.4-31.4,0.6
				c-14.1,6.2-29.2,17.7-42.4,32.4l0,0L0,198.7v-4.5C13.2,179.7,28.2,168.4,42.4,162.2z"/>
			<path class="st2" d="M36.4,181.8c9.8-4.3,18-4.3,23,0c2.9,2.5,4.5,6.4,4.6,11.1c0,3.8-0.6,7.6-1.8,11.2
				c-3,9.7-9.4,20.5-18.2,30.2C29,251.1,11.5,260.5,0,259v-3.1c10.2,1.7,27.6-7.7,41.7-23.5c8.5-9.4,14.7-19.8,17.6-29.1
				c2.7-8.9,2-15.8-2-19.3s-11-3.3-19.7,0.5c-9.1,4-18.7,11.3-27.2,20.8c-3.9,4.3-7.4,9-10.4,14v-5.7c2.5-3.6,5.2-7,8.2-10.3
				C16.9,193.5,26.9,185.9,36.4,181.8z"/>
			<path class="st2" d="M97.2,139.5c6,5.2,9.2,13.1,9.5,23c0.2,7-1,15-3.7,23.9c-6.4,20.9-20.3,44.1-39.2,65.1S23.3,289,3,297.9
				c-1,0.4-2,0.8-3,1.2v-3.3c0.6-0.2,1.1-0.5,1.7-0.7c20-8.7,41.2-24.9,59.8-45.6s32.3-43.4,38.6-64c6.2-20.1,4.4-35.7-4.8-43.7
				S70,134,50.5,142.5c-16.7,7.3-34.3,19.8-50.5,35.9v-4.2c15.9-15.3,32.9-27.3,49.2-34.4C70,130.8,87,130.6,97.2,139.5z"/>
			<path class="st2" d="M110.6,123.1c7.2,6.2,11,15.7,11.4,27.6c0.2,8.4-1.2,18.1-4.5,28.8c-7.7,25.3-24.6,53.3-47.4,78.7
				c-21.7,24.2-46.5,43.5-70,54.5v-3.3c22.8-11,46.7-29.7,67.7-53.1c22.5-25.1,39.1-52.7,46.7-77.6c7.5-24.5,5.4-43.4-6-53.2
				s-30.7-9.5-54.5,0.9c-17.7,7.7-36.4,20.5-54,36.7v-4.1c17.2-15.5,35.4-27.7,52.8-35.3C77.8,112.6,98.3,112.5,110.6,123.1z"/>
			<path class="st2" d="M26.7,96.7c-8.5,3.9-17.5,6.5-26.7,7.8v-3c8.8-1.3,17.4-3.8,25.5-7.5c24.2-10.6,49.9-30.2,72.4-55.3
				c10.8-12,20.5-24.9,28.8-38.7h3.5c-8.7,14.5-18.8,28.1-30.1,40.7C77.4,66.1,51.3,86,26.7,96.7z"/>
			<path class="st1" d="M160.8,48.5c0.4,0.1,0.7,0.3,1.1,0.5c-0.1-0.4-0.2-0.8-0.2-1.2c0.1-0.4,0.3-0.7,0.5-1.1
				c-0.4,0.1-0.8,0.2-1.2,0.2c-0.4-0.1-0.7-0.3-1.1-0.5c0.1,0.4,0.2,0.8,0.2,1.1c-0.1,0.4-0.3,0.7-0.5,1.1
				C160,48.5,160.4,48.5,160.8,48.5z M168,101.9c0.2-0.3,0.4-0.7,0.5-1.1c0-0.4-0.1-0.8-0.2-1.2c0.3,0.2,0.7,0.4,1.1,0.5
				c0.4,0,0.8-0.1,1.2-0.2c-0.2,0.3-0.4,0.7-0.5,1.1c0,0.4,0.1,0.8,0.2,1.2c-0.3-0.2-0.7-0.4-1.1-0.5
				C168.8,101.7,168.4,101.8,168,101.9L168,101.9z M214,43.9c0.2-0.3,0.4-0.7,0.5-1.1c0-0.4-0.1-0.8-0.2-1.1
				c0.3,0.2,0.7,0.3,1.1,0.5c0.4,0,0.8-0.1,1.2-0.2c-0.2,0.3-0.4,0.7-0.5,1.1c0,0.4,0.1,0.8,0.2,1.1c-0.3-0.2-0.7-0.3-1.1-0.5
				C214.8,43.7,214.4,43.8,214,43.9L214,43.9z M201.8,65.7c0.2,0.2,0.1,0.6-0.1,0.7c0,0,0,0,0,0c-0.2,0.2-0.6,0.1-0.8-0.1
				c-0.2-0.2-0.1-0.6,0.1-0.7c0,0,0,0,0,0C201.3,65.4,201.6,65.4,201.8,65.7C201.8,65.7,201.8,65.7,201.8,65.7L201.8,65.7z
				 M204.7,56.2c-0.5,0.3-0.6,0.9-0.3,1.4c0,0,0,0.1,0.1,0.1c0.4,0.5,1,0.5,1.5,0.2c0.5-0.3,0.6-0.9,0.3-1.4c0,0,0-0.1-0.1-0.1
				C205.8,55.9,205.1,55.8,204.7,56.2L204.7,56.2z M191.7,62c-0.9,0.7-1.1,2-0.4,2.9c0,0,0,0,0,0c0.7,0.9,2.1,1.1,3,0.4
				c0.9-0.7,1.1-2,0.5-2.9c0,0,0-0.1-0.1-0.1C194,61.4,192.6,61.3,191.7,62z M202.6,78.1c-0.5,0.3-0.6,0.9-0.3,1.4
				c0,0,0,0.1,0.1,0.1c0.4,0.5,1,0.5,1.5,0.2c0.5-0.3,0.6-0.9,0.3-1.4c0,0,0-0.1-0.1-0.1C203.7,77.9,203,77.8,202.6,78.1L202.6,78.1
				z M207.8,24.1c1-0.7,2.3-0.4,3,0.6c0.6,1,0.4,2.2-0.6,2.9c0,0,0,0,0,0c-1,0.7-2.3,0.4-3-0.6c0,0,0,0,0,0
				C206.6,26.1,206.9,24.8,207.8,24.1L207.8,24.1z M92.5,28.5c0.2-0.3,0.4-0.7,0.5-1.1c0-0.4-0.1-0.8-0.2-1.1
				c0.3,0.2,0.7,0.4,1.1,0.5c0.4,0,0.8-0.1,1.2-0.2c-0.2,0.3-0.4,0.7-0.5,1.1c0,0.4,0.1,0.8,0.2,1.1c-0.3-0.2-0.7-0.4-1.1-0.5
				C93.3,28.3,92.9,28.4,92.5,28.5z M101,81.7c0.2-0.3,0.4-0.7,0.5-1.1c0-0.4-0.1-0.8-0.2-1.2c0.3,0.2,0.7,0.4,1.1,0.5
				c0.4,0,0.8-0.1,1.2-0.2c-0.2,0.3-0.4,0.7-0.5,1.1c0,0.4,0.1,0.8,0.2,1.1c-0.3-0.2-0.7-0.3-1.1-0.5
				C101.8,81.5,101.4,81.6,101,81.7z M147,23.7c0.2-0.3,0.4-0.7,0.5-1.1c0-0.4-0.1-0.8-0.2-1.1c0.3,0.2,0.7,0.3,1.1,0.5
				c0.4,0,0.8-0.1,1.2-0.2c-0.2,0.3-0.4,0.7-0.5,1.1c0,0.4,0.1,0.8,0.2,1.1c-0.3-0.2-0.7-0.4-1.1-0.5
				C147.8,23.5,147.4,23.6,147,23.7L147,23.7z M134.7,45.5c0.2,0.2,0.1,0.6-0.1,0.7c-0.2,0.2-0.6,0.1-0.8-0.1
				c-0.2-0.2-0.1-0.5,0.1-0.7c0,0,0,0,0,0C134.2,45.2,134.5,45.3,134.7,45.5L134.7,45.5z M137.6,36c-0.5,0.3-0.6,0.9-0.3,1.4
				c0,0,0,0.1,0.1,0.1c0.4,0.5,1,0.5,1.5,0.2c0.5-0.3,0.6-0.9,0.3-1.4c0,0,0-0.1-0.1-0.1C138.8,35.7,138.1,35.6,137.6,36
				C137.6,36,137.6,36,137.6,36L137.6,36z M124.6,41.8c-0.9,0.7-1.1,2-0.5,2.9c0,0,0,0.1,0.1,0.1c0.7,0.9,2.1,1.1,3,0.4
				c0.9-0.7,1.1-2,0.5-2.9c0,0,0-0.1-0.1-0.1C126.9,41.3,125.6,41.2,124.6,41.8L124.6,41.8z M135.5,58c-0.5,0.3-0.6,0.9-0.3,1.4
				c0,0,0,0.1,0.1,0.1c0.4,0.5,1,0.5,1.5,0.2c0.5-0.3,0.6-0.9,0.3-1.4c0,0,0-0.1-0.1-0.1C136.6,57.7,136,57.6,135.5,58z M140.8,4
				c1-0.7,2.3-0.4,3,0.6c0,0,0,0,0,0c0.6,1,0.4,2.3-0.6,2.9c0,0,0,0,0,0c-1,0.7-2.3,0.4-3-0.6c0,0,0,0,0,0
				C139.5,6,139.8,4.7,140.8,4C140.7,4,140.7,4,140.8,4z M28,50.5c0.2-0.3,0.4-0.7,0.5-1.1c0-0.4-0.1-0.8-0.2-1.2
				c0.3,0.2,0.7,0.4,1.1,0.5c0.4,0,0.8-0.1,1.2-0.2c-0.2,0.3-0.4,0.7-0.5,1.1c0,0.4,0.1,0.8,0.2,1.2c-0.3-0.2-0.7-0.4-1.1-0.5
				C28.8,50.4,28.4,50.4,28,50.5z M36.5,103.8c0.2-0.3,0.4-0.7,0.5-1.1c0-0.4-0.1-0.8-0.2-1.2c0.3,0.2,0.7,0.4,1.1,0.5
				c0.4,0,0.8-0.1,1.2-0.2c-0.2,0.3-0.4,0.7-0.5,1.1c0,0.4,0.1,0.8,0.2,1.1c-0.3-0.2-0.7-0.3-1.1-0.5
				C37.2,103.6,36.9,103.7,36.5,103.8L36.5,103.8z M82.4,45.8c0.2-0.3,0.4-0.7,0.6-1c0-0.4-0.1-0.8-0.2-1.1c0.3,0.2,0.7,0.3,1.1,0.5
				c0.4,0,0.7-0.1,1.1-0.2c-0.2,0.3-0.4,0.7-0.5,1.1c0,0.4,0.1,0.8,0.2,1.2c-0.3-0.2-0.7-0.4-1.1-0.5C83.2,45.6,82.9,45.7,82.4,45.8
				L82.4,45.8z M70.2,67.6c0.2,0.2,0.1,0.6-0.1,0.7c0,0,0,0,0,0c-0.2,0.2-0.6,0.1-0.8-0.1c-0.2-0.2-0.1-0.5,0.1-0.7c0,0,0,0,0,0
				C69.7,67.3,70,67.4,70.2,67.6z M73.1,58.1c-0.5,0.3-0.6,0.9-0.3,1.4c0,0,0,0.1,0.1,0.1c0.4,0.5,1,0.5,1.5,0.2
				c0.5-0.3,0.6-0.9,0.3-1.4c0,0,0-0.1-0.1-0.1C74.3,57.8,73.6,57.7,73.1,58.1z M60.1,64c-0.9,0.7-1.1,2-0.5,2.9c0,0,0,0.1,0.1,0.1
				c0.7,0.9,2.1,1.1,3,0.4c0.9-0.7,1.1-2,0.5-2.9c0,0,0-0.1-0.1-0.1C62.4,63.5,61.1,63.3,60.1,64z M71,80.1
				c-0.5,0.3-0.6,0.9-0.3,1.4c0,0,0,0.1,0.1,0.1c0.4,0.5,1,0.5,1.5,0.2c0.5-0.4,0.5-1,0.2-1.5c0,0,0,0,0,0
				C72.1,79.8,71.5,79.7,71,80.1z M68.9,25.2c-0.2-0.2-0.1-0.6,0.1-0.7c0,0,0,0,0,0c0.2-0.2,0.6-0.1,0.7,0.2
				c0.2,0.2,0.1,0.6-0.2,0.7S69,25.4,68.9,25.2z M65.1,34.4c0.5-0.3,0.6-0.9,0.4-1.4c0,0,0,0,0-0.1c-0.3-0.5-1-0.7-1.5-0.3
				c-0.5,0.3-0.6,0.9-0.4,1.4c0,0,0,0.1,0.1,0.1C64,34.6,64.7,34.7,65.1,34.4L65.1,34.4z M78.6,29.7c1-0.6,1.3-1.9,0.7-2.9
				c0,0,0,0,0,0c-0.6-1-2-1.3-3-0.6c0,0,0,0,0,0c-1,0.6-1.2,1.9-0.6,2.9c0,0,0,0,0,0C76.3,30,77.6,30.3,78.6,29.7z M69.2,12.7
				c0.5-0.3,0.7-0.9,0.4-1.4c0,0,0-0.1-0.1-0.1c-0.3-0.5-1-0.6-1.5-0.3c-0.5,0.3-0.6,1-0.3,1.4c0,0,0,0,0,0
				C68,12.9,68.7,13,69.2,12.7L69.2,12.7z M101.2,85.8c0.4-0.2,0.7-0.4,1-0.6c0,0.4,0,0.8,0,1.2c0.2,0.4,0.4,0.7,0.7,1
				c-0.4,0-0.8,0-1.2,0c-0.4,0.2-0.7,0.4-1,0.6c0-0.4,0-0.8,0-1.2c-0.2-0.4-0.4-0.7-0.7-1C100.4,85.8,100.8,85.8,101.2,85.8
				L101.2,85.8z M165.6,83.5c-0.3-0.1-0.4-0.4-0.2-0.7c0,0,0,0,0,0c0.1-0.3,0.5-0.3,0.7-0.2c0.3,0.1,0.4,0.4,0.2,0.7c0,0,0,0,0,0
				C166.2,83.5,165.9,83.6,165.6,83.5C165.6,83.5,165.6,83.5,165.6,83.5L165.6,83.5z M172.2,91.7c0.3-0.5,0.1-1.1-0.3-1.4
				c0,0-0.1,0-0.1,0c-0.5-0.3-1.2-0.1-1.4,0.4c-0.3,0.5-0.1,1.1,0.3,1.4c0,0,0.1,0,0.1,0C171.3,92.4,171.9,92.3,172.2,91.7
				L172.2,91.7z M159.9,87.6c0.6-1,0.2-2.3-0.8-2.8c0,0,0,0,0,0c-1-0.5-2.3-0.2-2.9,0.9c-0.6,1-0.2,2.3,0.8,2.8c0,0,0,0,0.1,0
				C158,89,159.3,88.7,159.9,87.6L159.9,87.6z M166.4,70.4c0.3-0.5,0.1-1.1-0.4-1.4c0,0,0,0,0,0c-0.5-0.3-1.2-0.1-1.4,0.4
				c0,0,0,0,0,0c-0.3,0.5-0.1,1.1,0.3,1.4c0,0,0.1,0,0.1,0C165.5,71.1,166.2,70.9,166.4,70.4C166.4,70.4,166.4,70.4,166.4,70.4
				L166.4,70.4z"/>
			<path class="st1" d="M307.6,321.1c0.4,0.1,0.7,0.3,1.1,0.5c-0.1-0.4-0.2-0.8-0.2-1.1c0.1-0.4,0.3-0.7,0.5-1.1
				c-0.4,0.1-0.8,0.2-1.2,0.2c-0.4-0.1-0.7-0.3-1.1-0.5c0.1,0.4,0.2,0.8,0.2,1.1c-0.1,0.4-0.3,0.7-0.5,1.1
				C306.9,321.1,307.3,321.1,307.6,321.1z M314.9,374.5c0.2-0.3,0.4-0.7,0.5-1.1c0-0.4-0.1-0.8-0.2-1.1c0.3,0.2,0.7,0.3,1.1,0.5
				c0.4,0,0.8-0.1,1.2-0.2c-0.2,0.3-0.4,0.7-0.5,1.1c0,0.4,0.1,0.8,0.2,1.1c-0.3-0.2-0.7-0.4-1.1-0.5
				C315.7,374.3,315.3,374.4,314.9,374.5z M360.9,316.5c0.2-0.3,0.4-0.7,0.5-1.1c0-0.4-0.1-0.8-0.2-1.1c0.3,0.2,0.7,0.4,1.1,0.5
				c0.4,0,0.8-0.1,1.2-0.2c-0.2,0.3-0.4,0.7-0.5,1.1c0,0.4,0.1,0.8,0.2,1.1c-0.3-0.2-0.7-0.4-1.1-0.5
				C361.7,316.3,361.4,316.4,360.9,316.5L360.9,316.5z M348.7,338.3c0.2,0.2,0.2,0.5-0.1,0.7c0,0,0,0,0,0c-0.2,0.2-0.6,0.1-0.8-0.1
				c-0.2-0.2-0.1-0.6,0.1-0.7C348.2,338,348.5,338.1,348.7,338.3z M351.6,328.8c-0.5,0.4-0.5,1-0.2,1.5c0,0,0,0,0,0
				c0.4,0.5,1,0.5,1.5,0.2c0.5-0.3,0.6-0.9,0.3-1.4c0,0,0-0.1-0.1-0.1C352.7,328.5,352.1,328.4,351.6,328.8z M338.6,334.6
				c-0.9,0.7-1.1,2-0.5,2.9c0,0,0,0.1,0.1,0.1c0.7,0.9,2.1,1.1,3,0.4c0.9-0.7,1.1-2,0.4-2.9c0,0,0-0.1-0.1-0.1
				C340.8,334.1,339.5,333.9,338.6,334.6L338.6,334.6z M349.4,350.8c-0.5,0.3-0.6,0.9-0.3,1.4c0,0,0,0.1,0.1,0.1
				c0.4,0.5,1,0.5,1.5,0.2c0.5-0.3,0.6-0.9,0.3-1.4c0,0,0,0,0-0.1C350.6,350.5,350,350.4,349.4,350.8
				C349.5,350.8,349.5,350.8,349.4,350.8L349.4,350.8z M354.7,296.8c1-0.7,2.3-0.4,3,0.6c0,0,0,0,0,0c0.6,1,0.4,2.3-0.6,2.9
				c0,0,0,0,0,0c-1,0.7-2.3,0.4-3-0.6C353.5,298.7,353.8,297.4,354.7,296.8C354.7,296.8,354.7,296.8,354.7,296.8L354.7,296.8z
				 M239.4,301c0.2-0.3,0.4-0.7,0.5-1.1c0-0.4-0.1-0.8-0.2-1.1c0.3,0.2,0.7,0.3,1.1,0.5c0.4,0,0.8-0.1,1.2-0.2
				c-0.2,0.3-0.4,0.7-0.5,1.1c0,0.4,0.1,0.8,0.2,1.1c-0.3-0.2-0.7-0.4-1.1-0.5C240.2,300.9,239.8,301,239.4,301L239.4,301z
				 M247.8,354.2c0.2-0.3,0.4-0.7,0.5-1.1c0-0.4-0.1-0.8-0.2-1.1c0.3,0.2,0.7,0.4,1.1,0.5c0.4,0,0.8-0.1,1.2-0.2
				c-0.2,0.3-0.4,0.7-0.5,1.1c0,0.4,0.1,0.8,0.2,1.1c-0.3-0.2-0.7-0.4-1.1-0.5C248.6,354.1,248.2,354.2,247.8,354.2L247.8,354.2z
				 M293.8,296.2c0.2-0.3,0.4-0.7,0.5-1.1c0-0.4-0.1-0.8-0.2-1.1c0.3,0.2,0.7,0.4,1.1,0.5c0.4,0,0.8-0.1,1.2-0.2
				c-0.2,0.3-0.4,0.7-0.5,1.1c0,0.4,0.1,0.8,0.2,1.1c-0.3-0.2-0.7-0.3-1.1-0.5C294.6,296.1,294.2,296.2,293.8,296.2L293.8,296.2z
				 M281.6,318c0.2,0.2,0.1,0.6-0.1,0.7c0,0,0,0,0,0c-0.2,0.2-0.6,0.1-0.8-0.1c-0.2-0.2-0.1-0.6,0.1-0.7c0,0,0,0,0,0
				C281.1,317.8,281.4,317.8,281.6,318C281.6,318.1,281.6,318.1,281.6,318L281.6,318z M284.5,308.5c-0.5,0.3-0.6,0.9-0.3,1.4
				c0,0,0,0.1,0.1,0.1c0.4,0.5,1,0.5,1.5,0.2c0.5-0.3,0.6-0.9,0.3-1.4c0,0,0-0.1-0.1-0.1C285.6,308.3,285,308.3,284.5,308.5
				L284.5,308.5z M271.5,314.4c-0.9,0.7-1.1,2-0.4,2.9c0,0,0,0,0,0c0.7,0.9,2.1,1.1,3,0.4c0.9-0.7,1.1-2,0.4-2.9c0,0,0,0,0,0
				C273.7,313.9,272.4,313.8,271.5,314.4L271.5,314.4z M282.4,330.5c-0.5,0.3-0.6,0.9-0.3,1.4c0,0,0,0.1,0.1,0.1
				c0.4,0.5,1,0.5,1.5,0.2c0.5-0.3,0.6-0.9,0.3-1.4c0,0,0-0.1-0.1-0.1C283.5,330.3,282.8,330.3,282.4,330.5L282.4,330.5z
				 M287.6,276.5c1-0.7,2.3-0.4,3,0.6c0.6,1,0.4,2.2-0.6,2.9c0,0,0,0,0,0c-1,0.7-2.3,0.4-3-0.6c-0.6-1-0.3-2.2,0.7-2.8L287.6,276.5z
				 M174.9,323.2c0.2-0.3,0.4-0.7,0.5-1.1c0-0.4-0.1-0.8-0.2-1.1c0.3,0.2,0.7,0.3,1.1,0.5c0.4,0,0.8-0.1,1.2-0.2
				c-0.2,0.3-0.4,0.7-0.5,1.1c0,0.4,0.1,0.8,0.2,1.1c-0.3-0.2-0.7-0.3-1.1-0.5C175.7,323,175.3,323.1,174.9,323.2z M183.4,376.4
				c0.2-0.3,0.4-0.7,0.5-1.1c0-0.4-0.1-0.8-0.2-1.1c0.3,0.2,0.7,0.4,1.1,0.5c0.4,0,0.8-0.1,1.2-0.2c-0.2,0.3-0.4,0.7-0.5,1.1
				c0,0.4,0.1,0.8,0.2,1.1c-0.3-0.2-0.7-0.4-1.1-0.5C184.1,376.2,183.8,376.3,183.4,376.4z M229.4,318.4c0.2-0.3,0.4-0.7,0.5-1.1
				c0-0.4-0.1-0.8-0.2-1.1c0.3,0.2,0.7,0.4,1.1,0.5c0.4,0,0.8-0.1,1.2-0.2c-0.2,0.3-0.4,0.7-0.5,1.1c0,0.4,0.1,0.8,0.2,1.1
				c-0.3-0.2-0.7-0.3-1.1-0.5C230.2,318.2,229.8,318.3,229.4,318.4L229.4,318.4z M217.1,340.2c0.2,0.2,0.1,0.6-0.1,0.7c0,0,0,0,0,0
				c-0.2,0.2-0.6,0.1-0.8-0.1c-0.2-0.2-0.1-0.6,0.1-0.7C216.6,339.9,216.9,340,217.1,340.2C217.1,340.2,217.1,340.2,217.1,340.2
				L217.1,340.2z M220,330.7c-0.5,0.3-0.6,0.9-0.3,1.4c0,0,0,0.1,0.1,0.1c0.4,0.5,1,0.5,1.5,0.2c0.5-0.3,0.6-0.9,0.3-1.4
				c0,0,0-0.1-0.1-0.1C221.1,330.4,220.5,330.3,220,330.7L220,330.7z M207,336.5c-0.9,0.7-1.1,2-0.5,2.9c0,0,0,0.1,0.1,0.1
				c0.7,0.9,2.1,1.1,3,0.4c0.9-0.7,1.1-2,0.5-2.9c0,0,0-0.1-0.1-0.1C209.3,336,207.9,335.8,207,336.5L207,336.5z M217.9,352.7
				c-0.5,0.3-0.6,0.9-0.3,1.4c0,0,0,0.1,0.1,0.1c0.4,0.5,1,0.5,1.5,0.2c0.5-0.3,0.6-0.9,0.3-1.4c0,0,0-0.1-0.1-0.1
				C219,352.4,218.4,352.3,217.9,352.7L217.9,352.7z M215.7,297.7c-0.2-0.2-0.1-0.6,0.1-0.7c0,0,0,0,0,0c0.2-0.2,0.6-0.1,0.7,0.1
				c0.2,0.2,0.1,0.6-0.1,0.7c0,0,0,0,0,0C216.2,298.1,215.9,298,215.7,297.7L215.7,297.7z M212.1,307c0.5-0.3,0.6-0.9,0.4-1.4
				c0,0,0-0.1-0.1-0.1c-0.3-0.5-1-0.6-1.5-0.3c-0.5,0.3-0.7,0.9-0.4,1.4c0,0,0,0.1,0.1,0.1C210.9,307.2,211.6,307.3,212.1,307z
				 M225.5,302.2c1-0.6,1.3-1.9,0.7-2.9c0,0,0,0,0,0c-0.7-1-2-1.3-3-0.6c-1,0.6-1.3,1.9-0.7,2.9c0,0,0,0,0,0
				C223.2,302.6,224.5,302.9,225.5,302.2L225.5,302.2z M216.1,285.2c0.5-0.3,0.6-0.9,0.4-1.4c0,0,0-0.1-0.1-0.1
				c-0.3-0.5-1-0.6-1.5-0.3c-0.5,0.3-0.7,0.9-0.4,1.4c0,0,0,0.1,0.1,0.1C214.9,285.4,215.5,285.6,216.1,285.2
				C216.1,285.3,216.1,285.3,216.1,285.2L216.1,285.2z M248.1,358.3c0.4-0.2,0.7-0.4,1-0.6c-0.2,0.8,0,1.6,0.6,2.1
				c-0.4,0-0.8,0-1.2,0c-0.4,0.2-0.7,0.4-1,0.6c0-0.4,0-0.8,0-1.2c-0.2-0.4-0.4-0.7-0.6-1C247.3,358.4,247.7,358.4,248.1,358.3
				L248.1,358.3z M312.5,356c-0.3-0.1-0.4-0.4-0.2-0.7c0,0,0,0,0,0c0.1-0.3,0.5-0.4,0.7-0.2c0,0,0,0,0,0c0.3,0.1,0.4,0.4,0.2,0.7
				c0,0,0,0,0,0C313.1,356.1,312.8,356.2,312.5,356C312.5,356.1,312.5,356.1,312.5,356L312.5,356z M319.1,364.3
				c0.3-0.5,0.1-1.1-0.3-1.4c0,0-0.1,0-0.1,0c-0.5-0.3-1.2-0.1-1.5,0.4c-0.3,0.5-0.1,1.1,0.4,1.4c0,0,0,0,0,0
				C318.2,365,318.8,364.8,319.1,364.3L319.1,364.3z M306.8,360.2c0.6-1,0.2-2.3-0.8-2.8c0,0,0,0-0.1,0c-1-0.5-2.3-0.2-2.9,0.9
				c-0.5,1-0.2,2.3,0.9,2.8c0,0,0,0,0,0C304.9,361.6,306.2,361.2,306.8,360.2L306.8,360.2z M313.3,343c0.3-0.5,0.1-1.1-0.3-1.4
				c0,0-0.1,0-0.1,0c-0.5-0.3-1.2-0.1-1.5,0.4c-0.3,0.5-0.1,1.1,0.4,1.4c0,0,0,0,0,0C312.4,343.7,313.1,343.5,313.3,343z"/>
			<path class="st1" d="M202.6,411.5c0.4,0.1,0.7,0.3,1.1,0.5c-0.1-0.4-0.2-0.8-0.2-1.1c0.1-0.4,0.3-0.7,0.5-1.1
				c-0.4,0.1-0.8,0.2-1.2,0.2c-0.4-0.1-0.7-0.3-1.1-0.5c0.1,0.4,0.2,0.8,0.2,1.1c-0.1,0.4-0.3,0.7-0.5,1.1
				C201.8,411.6,202.2,411.5,202.6,411.5z M209.9,464.9c0.2-0.3,0.4-0.7,0.5-1.1c0-0.4-0.1-0.8-0.2-1.1c0.3,0.2,0.7,0.4,1.1,0.5
				c0.4,0,0.8-0.1,1.2-0.2c-0.2,0.3-0.4,0.7-0.5,1.1c0,0.4,0.1,0.8,0.2,1.1c-0.3-0.2-0.7-0.3-1.1-0.5
				C210.7,464.8,210.3,464.8,209.9,464.9L209.9,464.9z M255.9,406.9c0.2-0.3,0.4-0.7,0.5-1.1c0-0.4-0.1-0.8-0.2-1.1
				c0.3,0.2,0.7,0.3,1.1,0.5c0.4,0,0.8-0.1,1.2-0.2c-0.2,0.3-0.4,0.7-0.5,1.1c0,0.4,0.1,0.8,0.2,1.1c-0.3-0.2-0.7-0.4-1.1-0.5
				C256.7,406.8,256.3,406.9,255.9,406.9L255.9,406.9z M243.6,428.7c0.2,0.2,0.1,0.6-0.1,0.7c0,0,0,0,0,0c-0.2,0.2-0.6,0.1-0.8-0.1
				c-0.2-0.2-0.1-0.5,0.1-0.7c0,0,0,0,0,0C243.1,428.5,243.5,428.5,243.6,428.7C243.6,428.8,243.6,428.8,243.6,428.7L243.6,428.7z
				 M246.5,419.2c-0.5,0.3-0.6,0.9-0.3,1.4c0,0,0,0.1,0.1,0.1c0.4,0.5,1,0.5,1.5,0.2c0.5-0.3,0.6-0.9,0.3-1.4c0,0,0-0.1-0.1-0.1
				C247.7,419,247,418.9,246.5,419.2L246.5,419.2z M233.5,425.1c-0.9,0.7-1.1,2-0.4,2.9c0,0,0,0,0,0c0.7,0.9,2.1,1.1,3,0.4
				c0.9-0.7,1.1-2,0.4-2.9c0,0,0,0,0,0C235.8,424.6,234.5,424.4,233.5,425.1L233.5,425.1z M244.4,441.2c-0.5,0.3-0.6,0.9-0.3,1.4
				c0,0,0,0.1,0.1,0.1c0.4,0.5,1,0.5,1.5,0.2c0.5-0.4,0.5-1,0.2-1.5c0,0,0,0,0,0C245.5,441,244.9,440.9,244.4,441.2L244.4,441.2z
				 M249.7,387.2c1-0.7,2.3-0.4,3,0.6c0,0,0,0,0,0c0.6,1,0.4,2.3-0.6,2.9c0,0,0,0,0,0c-1,0.7-2.3,0.4-3-0.6c0,0,0,0,0,0
				C248.5,389.1,248.7,387.9,249.7,387.2L249.7,387.2z M134.3,391.5c0.2-0.3,0.4-0.7,0.5-1.1c0-0.4-0.1-0.8-0.2-1.1
				c0.3,0.2,0.7,0.4,1.1,0.5c0.4,0,0.8-0.1,1.2-0.2c-0.2,0.3-0.4,0.7-0.5,1.1c0,0.4,0.1,0.8,0.2,1.1c-0.3-0.2-0.7-0.4-1.1-0.5
				C135.1,391.3,134.7,391.4,134.3,391.5L134.3,391.5z M142.8,444.7c0.2-0.3,0.4-0.7,0.5-1.1c0-0.4-0.1-0.8-0.2-1.1
				c0.3,0.2,0.7,0.3,1.1,0.5c0.4,0,0.8-0.1,1.2-0.2c-0.2,0.3-0.4,0.7-0.5,1.1c0,0.4,0.1,0.8,0.2,1.1c-0.3-0.2-0.7-0.3-1.1-0.5
				C143.6,444.6,143.2,444.6,142.8,444.7L142.8,444.7z M188.8,386.7c0.2-0.3,0.4-0.7,0.5-1.1c0-0.4-0.1-0.8-0.2-1.1
				c0.3,0.2,0.7,0.3,1.1,0.5c0.4,0,0.8-0.1,1.2-0.2c-0.2,0.3-0.4,0.7-0.5,1.1c0,0.4,0.1,0.8,0.2,1.1c-0.3-0.2-0.7-0.4-1.1-0.5
				C189.6,386.6,189.2,386.7,188.8,386.7L188.8,386.7z M176.5,408.5c0.2,0.2,0.1,0.6-0.1,0.7c0,0,0,0,0,0c-0.2,0.2-0.6,0.1-0.8-0.1
				c-0.2-0.2-0.1-0.6,0.1-0.7c0,0,0,0,0,0C176.1,408.2,176.4,408.3,176.5,408.5C176.6,408.6,176.6,408.6,176.5,408.5L176.5,408.5z
				 M179.4,399c-0.5,0.3-0.6,0.9-0.3,1.4c0,0,0,0.1,0.1,0.1c0.4,0.5,1,0.5,1.5,0.2c0.5-0.3,0.6-0.9,0.3-1.4c0,0,0-0.1-0.1-0.1
				C180.6,398.8,179.9,398.7,179.4,399L179.4,399z M166.4,404.8c-0.9,0.7-1.1,2-0.4,2.9c0,0,0,0,0,0c0.7,0.9,2.1,1.1,3,0.4
				c0.9-0.7,1.1-2,0.4-2.9c0,0,0,0,0,0C168.7,404.4,167.4,404.2,166.4,404.8L166.4,404.8z M177.3,421c-0.5,0.3-0.6,0.9-0.3,1.4
				c0,0,0,0.1,0.1,0.1c0.4,0.5,1,0.5,1.5,0.2c0.5-0.3,0.6-0.9,0.3-1.4c0,0,0-0.1-0.1-0.1C178.4,420.8,177.8,420.7,177.3,421
				L177.3,421z M182.6,367c1-0.7,2.3-0.4,3,0.6c0,0,0,0,0,0c0.6,1,0.4,2.2-0.6,2.9c0,0,0,0,0,0c-1,0.7-2.3,0.4-3-0.6c0,0,0,0,0,0
				c-0.5-1-0.2-2.2,0.7-2.8L182.6,367z M69.9,413.6c0.2-0.3,0.4-0.7,0.5-1.1c0-0.4-0.1-0.8-0.2-1.1c0.3,0.2,0.7,0.4,1.1,0.5
				c0.4,0,0.8-0.1,1.2-0.2c-0.2,0.3-0.4,0.7-0.5,1.1c0,0.4,0.1,0.8,0.2,1.1c-0.3-0.2-0.7-0.4-1.1-0.5
				C70.7,413.5,70.3,413.5,69.9,413.6z M78.3,466.8c0.2-0.3,0.4-0.7,0.5-1.1c0-0.4-0.1-0.8-0.2-1.1c0.3,0.2,0.7,0.4,1.1,0.5
				c0.4,0,0.8-0.1,1.2-0.2c-0.2,0.3-0.4,0.7-0.5,1.1c0,0.4,0.1,0.8,0.2,1.1c-0.3-0.2-0.7-0.3-1.1-0.5
				C79.1,466.7,78.7,466.7,78.3,466.8z M124.3,408.8c0.2-0.3,0.4-0.7,0.5-1.1c0-0.4-0.1-0.8-0.2-1.1c0.3,0.2,0.7,0.3,1.1,0.5
				c0.4,0,0.8-0.1,1.2-0.2c-0.2,0.3-0.4,0.7-0.5,1.1c0,0.4,0.1,0.8,0.2,1.1c-0.3-0.2-0.7-0.4-1.1-0.5
				C125.1,408.7,124.7,408.8,124.3,408.8L124.3,408.8z M112.1,430.6c0.2,0.2,0.1,0.6-0.1,0.7c0,0,0,0,0,0c-0.2,0.2-0.6,0.1-0.8-0.1
				c-0.2-0.2-0.1-0.6,0.1-0.7C111.6,430.4,111.9,430.4,112.1,430.6L112.1,430.6z M115,421.1c-0.5,0.3-0.6,0.9-0.3,1.4
				c0,0,0,0.1,0.1,0.1c0.4,0.5,1,0.5,1.5,0.2c0.5-0.3,0.6-0.9,0.3-1.4c0,0,0-0.1-0.1-0.1C116.1,420.9,115.5,420.8,115,421.1
				L115,421.1z M102,427c-0.9,0.7-1.1,2-0.5,2.9c0,0,0,0.1,0.1,0.1c0.7,0.9,2.1,1.1,3,0.4c0.9-0.7,1.1-2,0.5-2.9c0,0,0-0.1-0.1-0.1
				C104.3,426.5,102.9,426.3,102,427z M112.9,443.1c-0.5,0.4-0.5,1-0.2,1.5c0,0,0,0,0,0c0.4,0.5,1,0.5,1.5,0.2
				c0.5-0.3,0.6-0.9,0.3-1.4c0,0,0-0.1-0.1-0.1C114,442.9,113.3,442.8,112.9,443.1L112.9,443.1z M110.7,388.2
				c-0.2-0.2-0.1-0.6,0.1-0.7c0,0,0,0,0,0c0.2-0.2,0.6-0.1,0.7,0.2c0,0,0,0,0,0c0.2,0.2,0.1,0.6-0.1,0.7c0,0,0,0,0,0
				C111.2,388.5,110.9,388.5,110.7,388.2L110.7,388.2z M107,397.5c0.5-0.3,0.7-0.9,0.4-1.4c0,0,0-0.1-0.1-0.1
				c-0.3-0.5-1-0.6-1.5-0.3c-0.5,0.3-0.6,0.9-0.4,1.4c0,0,0,0.1,0.1,0.1C105.8,397.7,106.5,397.8,107,397.5z M120.4,392.7
				c1-0.6,1.3-1.9,0.7-2.9c0,0,0,0,0,0c-0.7-1-2-1.3-3-0.6c-1,0.6-1.3,1.9-0.7,2.9c0,0,0,0,0,0C118.1,393.1,119.4,393.4,120.4,392.7
				C120.5,392.7,120.5,392.7,120.4,392.7L120.4,392.7z M111,375.7c0.5-0.3,0.7-0.9,0.4-1.4c0,0,0-0.1-0.1-0.1
				c-0.3-0.5-1-0.6-1.5-0.3c-0.5,0.3-0.6,0.9-0.4,1.4c0,0,0,0.1,0.1,0.1C109.8,375.9,110.5,376,111,375.7L111,375.7z M143,448.8
				c0.4-0.2,0.7-0.4,1-0.6c-0.2,0.8,0,1.6,0.6,2.1c-0.4,0-0.8,0-1.2,0c-0.4,0.2-0.7,0.4-1,0.6c0.2-0.8,0-1.6-0.6-2.1
				C142.2,448.9,142.6,448.9,143,448.8L143,448.8z M207.4,446.5c-0.3-0.1-0.4-0.4-0.2-0.7c0,0,0,0,0,0c0.1-0.3,0.5-0.4,0.7-0.2
				c0.3,0.1,0.4,0.4,0.2,0.7c0,0,0,0,0,0C208,446.6,207.7,446.7,207.4,446.5L207.4,446.5z M214.1,454.8c0.3-0.5,0.1-1.1-0.4-1.4
				c0,0,0,0,0,0c-0.5-0.3-1.2-0.1-1.4,0.4c-0.3,0.5-0.1,1.1,0.3,1.4c0,0,0.1,0,0.1,0C213.1,455.5,213.8,455.3,214.1,454.8
				L214.1,454.8z M201.7,450.7c0.6-1,0.2-2.3-0.8-2.8c0,0,0,0-0.1,0c-1-0.5-2.3-0.2-2.9,0.9c-0.5,1-0.2,2.3,0.9,2.8c0,0,0,0,0,0
				C199.9,452.1,201.2,451.7,201.7,450.7L201.7,450.7z M208.3,433.4c0.3-0.5,0.1-1.1-0.4-1.4c0,0,0,0,0,0c-0.5-0.3-1.2-0.1-1.4,0.4
				c-0.3,0.5-0.1,1.1,0.3,1.4c0,0,0.1,0,0.1,0C207.4,434.2,208,434,208.3,433.4L208.3,433.4z"/>
			<path class="st1" d="M379.5,428.1c0.4,0.1,0.7,0.3,1.1,0.5c-0.1-0.4-0.2-0.8-0.2-1.1c0.1-0.4,0.3-0.7,0.5-1.1
				c-0.4,0.1-0.8,0.2-1.2,0.2c-0.4-0.1-0.7-0.3-1.1-0.5c0.1,0.4,0.2,0.8,0.2,1.1c-0.1,0.4-0.3,0.7-0.5,1.1
				C378.7,428.2,379.1,428.1,379.5,428.1z M386.7,481.5c0.2-0.3,0.4-0.7,0.5-1.1c0-0.4-0.1-0.8-0.2-1.1c0.3,0.2,0.7,0.3,1.1,0.5
				c0.4,0,0.8-0.1,1.2-0.2c-0.2,0.3-0.4,0.7-0.5,1.1c0,0.4,0.1,0.8,0.2,1.1c-0.3-0.2-0.7-0.4-1.1-0.5
				C387.5,481.3,387.1,481.4,386.7,481.5L386.7,481.5z M432.7,423.5c0.2-0.3,0.4-0.7,0.5-1.1c0-0.4-0.1-0.8-0.2-1.1
				c0.3,0.2,0.7,0.4,1.1,0.5c0.4,0,0.8-0.1,1.2-0.2c-0.2,0.3-0.4,0.7-0.5,1.1c0,0.4,0.1,0.8,0.2,1.1c-0.3-0.2-0.7-0.4-1.1-0.5
				C433.5,423.3,433.1,423.4,432.7,423.5L432.7,423.5z M420.5,445.3c0.2,0.2,0.1,0.5-0.1,0.7c0,0,0,0,0,0c-0.2,0.2-0.6,0.1-0.8-0.1
				c-0.2-0.2-0.1-0.6,0.1-0.7C420,445,420.3,445.1,420.5,445.3C420.5,445.3,420.5,445.3,420.5,445.3L420.5,445.3z M423.4,435.8
				c-0.5,0.3-0.6,0.9-0.3,1.4c0,0,0,0.1,0.1,0.1c0.4,0.5,1,0.5,1.5,0.2c0.5-0.3,0.6-0.9,0.3-1.4c0,0,0-0.1-0.1-0.1
				C424.5,435.5,423.8,435.5,423.4,435.8L423.4,435.8z M410.4,441.6c-0.9,0.7-1.1,2-0.5,2.9c0,0,0,0.1,0.1,0.1
				c0.7,0.9,2.1,1.1,3,0.4c0.9-0.7,1.1-2,0.5-2.9c0,0,0-0.1-0.1-0.1C412.6,441.1,411.3,441,410.4,441.6L410.4,441.6z M421.2,457.8
				c-0.5,0.3-0.6,0.9-0.3,1.4c0,0,0,0.1,0.1,0.1c0.4,0.5,1,0.5,1.5,0.2c0.5-0.3,0.6-0.9,0.3-1.4c0,0,0-0.1-0.1-0.1
				C422.4,457.5,421.7,457.5,421.2,457.8L421.2,457.8z M426.5,403.8c1-0.7,2.3-0.4,3,0.6c0.6,1,0.4,2.3-0.6,2.9c0,0,0,0,0,0
				c-1,0.6-2.3,0.4-3-0.6C425.3,405.7,425.6,404.5,426.5,403.8L426.5,403.8z M311.2,408c0.2-0.3,0.4-0.7,0.5-1.1
				c0-0.4-0.1-0.8-0.2-1.1c0.3,0.2,0.7,0.3,1.1,0.5c0.4,0,0.8-0.1,1.2-0.2c-0.2,0.3-0.4,0.7-0.5,1.1c0,0.4,0.1,0.8,0.2,1.1
				c-0.3-0.2-0.7-0.3-1.1-0.5C312,407.9,311.6,408,311.2,408L311.2,408z M319.6,461.3c0.2-0.3,0.4-0.7,0.5-1.1
				c0-0.4-0.1-0.8-0.2-1.1c0.3,0.2,0.7,0.3,1.1,0.5c0.4,0,0.8-0.1,1.2-0.2c-0.2,0.3-0.4,0.7-0.5,1.1c0,0.4,0.1,0.8,0.2,1.1
				c-0.3-0.2-0.7-0.4-1.1-0.5C320.4,461.1,320,461.2,319.6,461.3L319.6,461.3z M365.6,403.3c0.2-0.3,0.4-0.7,0.5-1.1
				c0-0.4-0.1-0.8-0.2-1.1c0.3,0.2,0.7,0.4,1.1,0.5c0.4,0,0.8-0.1,1.2-0.2c-0.2,0.3-0.4,0.7-0.5,1.1c0,0.4,0.1,0.8,0.2,1.1
				c-0.3-0.2-0.7-0.3-1.1-0.5C366.4,403.1,366,403.2,365.6,403.3L365.6,403.3z M353.4,425.1c0.2,0.2,0.1,0.6-0.1,0.7
				c-0.2,0.2-0.6,0.1-0.8-0.1c-0.2-0.2-0.1-0.6,0.1-0.7C352.9,424.8,353.2,424.9,353.4,425.1C353.4,425.1,353.4,425.1,353.4,425.1
				L353.4,425.1z M356.3,415.5c-0.5,0.3-0.6,0.9-0.3,1.4c0,0,0,0.1,0.1,0.1c0.4,0.5,1,0.5,1.5,0.2c0.5-0.3,0.6-0.9,0.3-1.4
				c0,0,0-0.1-0.1-0.1C357.4,415.3,356.8,415.3,356.3,415.5L356.3,415.5z M343.3,421.4c-0.9,0.7-1.1,2-0.5,2.9c0,0,0,0.1,0.1,0.1
				c0.7,0.9,2.1,1.1,3,0.4c0.9-0.7,1.1-2,0.5-2.9c0,0,0-0.1-0.1-0.1C345.5,420.9,344.2,420.8,343.3,421.4L343.3,421.4z M354.1,437.5
				c-0.5,0.3-0.6,0.9-0.3,1.4c0,0,0,0.1,0.1,0.1c0.4,0.5,1,0.5,1.5,0.2c0.5-0.3,0.6-0.9,0.3-1.4c0,0,0-0.1-0.1-0.1
				C355.3,437.3,354.6,437.3,354.1,437.5L354.1,437.5z M359.4,383.5c1-0.7,2.3-0.4,3,0.6c0,0,0,0,0,0c0.6,1,0.4,2.3-0.6,2.9
				c0,0,0,0,0,0c-1,0.7-2.3,0.4-3-0.6c-0.5-1-0.2-2.2,0.7-2.8L359.4,383.5z M246.7,430.2c0.2-0.3,0.4-0.7,0.5-1.1
				c0-0.4-0.1-0.8-0.2-1.1c0.3,0.2,0.7,0.3,1.1,0.5c0.4,0,0.8-0.1,1.2-0.2c-0.2,0.3-0.4,0.7-0.5,1.1c0,0.4,0.1,0.8,0.2,1.1
				c-0.3-0.2-0.7-0.3-1.1-0.5C247.5,430,247.1,430.1,246.7,430.2z M255.2,483.4c0.2-0.3,0.4-0.7,0.5-1.1c0-0.4-0.1-0.8-0.2-1.1
				c0.3,0.2,0.7,0.3,1.1,0.5c0.4,0,0.8-0.1,1.2-0.2c-0.2,0.3-0.4,0.7-0.5,1.1c0,0.4,0.1,0.8,0.2,1.1c-0.3-0.2-0.7-0.4-1.1-0.5
				C255.9,483.2,255.6,483.3,255.2,483.4z M301.2,425.4c0.2-0.3,0.4-0.7,0.5-1.1c0-0.4-0.1-0.8-0.2-1.1c0.3,0.2,0.7,0.4,1.1,0.5
				c0.4,0,0.8-0.1,1.2-0.2c-0.2,0.3-0.4,0.7-0.5,1.1c0,0.4,0.1,0.8,0.2,1.1c-0.3-0.2-0.7-0.3-1.1-0.5
				C301.9,425.2,301.6,425.3,301.2,425.4L301.2,425.4z M288.9,447.2c0.2,0.2,0.1,0.5-0.1,0.7c0,0,0,0,0,0c-0.2,0.2-0.6,0.1-0.8-0.1
				c-0.2-0.2-0.1-0.6,0.1-0.7c0,0,0,0,0,0C288.4,446.9,288.7,447,288.9,447.2C288.9,447.2,288.9,447.2,288.9,447.2L288.9,447.2z
				 M291.8,437.7c-0.5,0.3-0.6,0.9-0.3,1.4c0,0,0,0.1,0.1,0.1c0.4,0.5,1,0.5,1.5,0.2c0.5-0.3,0.6-0.9,0.3-1.4c0,0,0-0.1-0.1-0.1
				C292.9,437.4,292.3,437.4,291.8,437.7L291.8,437.7z M278.8,443.5c-0.9,0.7-1.1,2-0.4,2.9c0,0,0,0.1,0.1,0.1
				c0.7,0.9,2.1,1.1,3,0.4c0.9-0.7,1.1-2,0.5-2.9c0,0,0-0.1-0.1-0.1C281.1,443,279.8,442.9,278.8,443.5L278.8,443.5z M289.7,459.7
				c-0.5,0.3-0.6,0.9-0.3,1.4c0,0,0,0.1,0.1,0.1c0.4,0.5,1,0.5,1.5,0.2c0.5-0.3,0.6-0.9,0.3-1.4c0,0,0-0.1-0.1-0.1
				C290.8,459.4,290.2,459.4,289.7,459.7L289.7,459.7z M287.5,404.8c-0.2-0.2-0.1-0.6,0.1-0.7c0,0,0,0,0,0c0.2-0.2,0.6-0.1,0.7,0.2
				c0,0,0,0,0,0c0.2,0.2,0.1,0.6-0.1,0.7c0,0,0,0,0,0C288,405.1,287.7,405,287.5,404.8L287.5,404.8z M283.8,414
				c0.5-0.3,0.6-0.9,0.4-1.4c0,0,0-0.1-0.1-0.1c-0.3-0.5-1-0.6-1.5-0.3c-0.5,0.3-0.7,0.9-0.4,1.4c0,0,0,0.1,0.1,0.1
				C282.7,414.2,283.3,414.4,283.8,414C283.8,414.1,283.8,414.1,283.8,414L283.8,414z M297.3,409.3c1-0.6,1.3-1.9,0.7-2.9
				c0,0,0,0,0,0c-0.6-1-2-1.3-3-0.6c0,0,0,0,0,0c-1,0.6-1.3,1.9-0.7,2.9c0,0,0,0,0,0C294.9,409.7,296.3,410,297.3,409.3
				C297.3,409.3,297.3,409.3,297.3,409.3L297.3,409.3z M287.8,392.3c0.5-0.3,0.6-0.9,0.4-1.4c0,0,0-0.1-0.1-0.1
				c-0.3-0.5-1-0.6-1.5-0.3c-0.5,0.3-0.7,0.9-0.4,1.4c0,0,0,0.1,0.1,0.1C286.7,392.5,287.3,392.6,287.8,392.3
				C287.8,392.3,287.8,392.3,287.8,392.3L287.8,392.3z M319.8,465.4c0.4-0.2,0.7-0.4,1-0.6c0,0.4,0,0.8,0,1.2c0.2,0.4,0.4,0.7,0.6,1
				c-0.4,0-0.8,0-1.2,0c-0.4,0.2-0.7,0.4-1,0.6c0-0.4,0-0.8,0-1.2c-0.2-0.4-0.4-0.7-0.6-1C319.1,465.4,319.5,465.5,319.8,465.4
				L319.8,465.4z M384.3,463.1c-0.3-0.1-0.4-0.4-0.2-0.7c0,0,0,0,0,0c0.1-0.3,0.5-0.4,0.7-0.2c0,0,0,0,0,0c0.3,0.1,0.4,0.4,0.2,0.7
				c0,0,0,0,0,0C384.9,463.1,384.6,463.2,384.3,463.1L384.3,463.1z M390.9,471.3c0.3-0.5,0.1-1.1-0.3-1.4c0,0-0.1,0-0.1-0.1
				c-0.5-0.3-1.2-0.1-1.5,0.4c-0.3,0.5-0.1,1.1,0.4,1.4c0,0,0,0,0,0C390,472.1,390.6,471.9,390.9,471.3L390.9,471.3z M378.6,467.2
				c0.5-1,0.2-2.3-0.8-2.8c0,0,0,0,0,0c-1-0.5-2.3-0.2-2.9,0.9c-0.6,1-0.2,2.3,0.8,2.8c0,0,0,0,0.1,0
				C376.7,468.7,378,468.3,378.6,467.2L378.6,467.2z M385.1,450c0.3-0.5,0.1-1.1-0.3-1.4c0,0-0.1,0-0.1-0.1
				c-0.5-0.3-1.2-0.1-1.5,0.4c-0.3,0.5-0.1,1.1,0.4,1.4c0,0,0,0,0,0C384.2,450.7,384.9,450.5,385.1,450z"/>
			<path class="st1" d="M68.5,243.6c-0.1,0.4-0.2,0.7-0.4,1.1c0.4-0.1,0.8-0.2,1.2-0.2c0.4,0.1,0.8,0.2,1.1,0.4
				c-0.1-0.4-0.2-0.8-0.2-1.1c0.1-0.4,0.2-0.7,0.4-1.1c-0.4,0.1-0.8,0.2-1.2,0.2c-0.4-0.1-0.7-0.2-1.1-0.4
				C68.3,242.8,68.4,243.2,68.5,243.6z M14.6,253.5c0.4,0.2,0.7,0.3,1.1,0.4c0.4,0,0.8-0.1,1.2-0.2c-0.2,0.3-0.3,0.7-0.4,1.1
				c0,0.4,0.1,0.8,0.2,1.1c-0.4-0.2-0.7-0.3-1.1-0.4c-0.4,0-0.8,0.1-1.1,0.2c0.2-0.3,0.3-0.7,0.4-1.1
				C14.8,254.2,14.7,253.8,14.6,253.5z M75.9,295.6c0.4,0.2,0.7,0.3,1.1,0.4c0.4,0,0.8-0.1,1.2-0.2c-0.2,0.3-0.3,0.7-0.4,1.1
				c0,0.4,0.1,0.8,0.3,1.1c-0.4-0.2-0.7-0.3-1.1-0.4c-0.4,0-0.8,0.1-1.2,0.2c0.2-0.3,0.3-0.7,0.4-1.1C76.1,296.4,76,296,75.9,295.6z
				 M53.1,284.7c-0.2,0.2-0.6,0.2-0.8-0.1c-0.2-0.2-0.2-0.5,0.1-0.7c0,0,0,0,0,0c0.2-0.2,0.6-0.2,0.8,0.1
				C53.3,284.2,53.3,284.5,53.1,284.7C53.1,284.7,53.1,284.7,53.1,284.7z M62.9,287.1c-0.4-0.5-1.1-0.5-1.5-0.1c0,0,0,0,0,0
				c-0.4,0.4-0.5,1-0.1,1.5c0,0,0,0,0,0c0.4,0.4,1.1,0.5,1.5,0.1C63.2,288.2,63.3,287.6,62.9,287.1
				C62.9,287.1,62.9,287.1,62.9,287.1L62.9,287.1z M56.3,274.6c-0.8-0.9-2.1-1-3-0.2c-0.9,0.7-1,2.1-0.3,2.9c0,0,0,0,0,0.1
				c0.8,0.9,2.1,1,3,0.2C56.9,276.9,57.1,275.6,56.3,274.6C56.3,274.7,56.3,274.6,56.3,274.6L56.3,274.6z M40.4,286.1
				c-0.4-0.4-1.1-0.5-1.5-0.1c-0.4,0.3-0.5,1-0.2,1.4c0,0,0,0.1,0.1,0.1c0.4,0.4,1.1,0.5,1.5,0.1C40.8,287.2,40.8,286.6,40.4,286.1
				C40.4,286.1,40.4,286.1,40.4,286.1L40.4,286.1z M95.5,288.5c0.7,0.9,0.5,2.2-0.5,2.9c0,0,0,0,0,0c-1,0.7-2.3,0.5-3-0.5
				c-0.7-0.9-0.5-2.2,0.5-2.9c0,0,0,0,0,0C93.5,287.3,94.8,287.6,95.5,288.5L95.5,288.5z M85.3,175.5c0.4,0.2,0.7,0.3,1.1,0.4
				c0.4,0,0.8-0.1,1.2-0.2c-0.2,0.3-0.3,0.7-0.4,1.1c0,0.4,0.1,0.8,0.2,1.1c-0.4-0.2-0.7-0.3-1.1-0.4c-0.4,0-0.8,0.1-1.2,0.2
				c0.2-0.3,0.3-0.7,0.4-1.1C85.5,176.3,85.4,175.9,85.3,175.5L85.3,175.5z M31.6,186.5c0.4,0.2,0.7,0.3,1.1,0.4
				c0.4,0,0.8-0.1,1.2-0.2c-0.2,0.3-0.3,0.7-0.4,1.1c0,0.4,0.1,0.8,0.2,1.2c-0.4-0.2-0.7-0.3-1.1-0.4c-0.4,0-0.8,0.1-1.2,0.2
				c0.2-0.3,0.3-0.7,0.4-1.1C31.8,187.4,31.7,187,31.6,186.5L31.6,186.5z M92.9,228.8c0.4,0.2,0.7,0.3,1.1,0.4
				c0.4,0,0.8-0.1,1.2-0.2c-0.2,0.3-0.3,0.7-0.4,1.1c0,0.4,0.1,0.8,0.2,1.1c-0.4-0.2-0.7-0.3-1.1-0.4c-0.4,0-0.8,0.1-1.2,0.2
				c0.2-0.3,0.3-0.7,0.4-1.1C93.1,229.5,93,229.1,92.9,228.8z M70.1,217.8c-0.2,0.2-0.6,0.2-0.8-0.1c-0.2-0.2-0.2-0.5,0.1-0.7
				c0,0,0,0,0,0c0.2-0.2,0.6-0.2,0.8,0.1C70.4,217.3,70.3,217.6,70.1,217.8z M79.9,220.2c-0.4-0.4-1.1-0.5-1.5-0.1
				c-0.4,0.3-0.5,1-0.2,1.4c0,0,0,0.1,0.1,0.1c0.4,0.4,1.1,0.5,1.5,0.1C80.3,221.3,80.3,220.6,79.9,220.2
				C79.9,220.2,79.9,220.2,79.9,220.2z M73.3,207.8c-0.8-0.9-2.1-1-3-0.2c-0.9,0.7-1,2-0.3,2.9c0,0,0,0,0.1,0.1c0.8,0.9,2.1,1,3,0.2
				C74,210,74.1,208.7,73.3,207.8C73.3,207.8,73.3,207.8,73.3,207.8z M57.5,219.2c-0.4-0.4-1.1-0.5-1.5-0.1c-0.4,0.4-0.5,1-0.1,1.5
				c0,0,0,0,0,0c0.4,0.4,1.1,0.5,1.5,0.1C57.8,220.4,57.9,219.8,57.5,219.2C57.5,219.3,57.5,219.3,57.5,219.2z M112.6,221.6
				c0.7,0.9,0.5,2.2-0.4,2.9c0,0,0,0,0,0c-1,0.7-2.3,0.5-3-0.5c-0.7-0.9-0.5-2.2,0.4-2.9c0,0,0,0,0.1,0
				C110.5,220.5,111.9,220.7,112.6,221.6z M59.5,113.4c0.4,0.2,0.7,0.3,1.1,0.4c0.4,0,0.8-0.1,1.2-0.2c-0.2,0.3-0.3,0.7-0.4,1.1
				c0,0.4,0.1,0.8,0.2,1.1c-0.4-0.2-0.7-0.3-1.1-0.4c-0.4,0-0.8,0.1-1.2,0.2c0.2-0.3,0.3-0.7,0.4-1.1
				C59.7,114.1,59.6,113.8,59.5,113.4z M5.9,124.4c0.4,0.2,0.7,0.3,1.1,0.4c0.4,0,0.8-0.1,1.2-0.2c-0.2,0.3-0.3,0.7-0.4,1.1
				c0,0.4,0.1,0.8,0.2,1.1c-0.4-0.2-0.7-0.3-1.1-0.4c-0.4,0-0.8,0.1-1.2,0.2c0.2-0.3,0.3-0.7,0.4-1.1C6.1,125.2,6,124.8,5.9,124.4
				L5.9,124.4z M67.1,166.6c0.4,0.2,0.7,0.3,1.1,0.4c0.4,0,0.8-0.1,1.2-0.2c-0.2,0.3-0.3,0.7-0.4,1.1c0,0.4,0.1,0.8,0.2,1.1
				c-0.4-0.2-0.7-0.3-1.1-0.4c-0.4,0-0.8,0.1-1.2,0.2c0.2-0.3,0.3-0.7,0.4-1.1C67.3,167.3,67.3,166.9,67.1,166.6L67.1,166.6z
				 M44.3,155.7c-0.2,0.2-0.6,0.2-0.8-0.1c-0.2-0.2-0.2-0.6,0.1-0.7c0,0,0,0,0,0c0.2-0.2,0.6-0.2,0.8,0.1
				C44.6,155.1,44.6,155.5,44.3,155.7C44.4,155.7,44.4,155.7,44.3,155.7z M54.2,158c-0.4-0.4-1.1-0.5-1.5-0.1
				c-0.4,0.3-0.5,1-0.2,1.4c0,0,0,0.1,0.1,0.1c0.4,0.4,1.1,0.5,1.5,0.1C54.5,159.1,54.6,158.5,54.2,158
				C54.2,158.1,54.2,158,54.2,158z M47.5,145.6c-0.8-0.9-2.1-1-3-0.2c-0.9,0.7-1,2-0.3,2.9c0,0,0,0,0.1,0.1c0.8,0.9,2.1,1,3,0.2
				C48.2,147.9,48.3,146.6,47.5,145.6C47.6,145.7,47.6,145.6,47.5,145.6z M31.7,157.1c-0.4-0.4-1.1-0.5-1.5-0.1
				c-0.4,0.3-0.5,1-0.2,1.4c0,0,0,0.1,0.1,0.1c0.4,0.4,1.1,0.5,1.5,0.1C32,158.2,32.1,157.6,31.7,157.1
				C31.8,157.1,31.7,157.1,31.7,157.1z M87.4,152.2c0.2-0.2,0.6-0.1,0.8,0.1c0.2,0.2,0.1,0.6-0.1,0.7c-0.2,0.2-0.6,0.1-0.8-0.1
				C87.1,152.6,87.1,152.3,87.4,152.2z M77.8,149c0.3,0.5,1,0.6,1.5,0.2c0.5-0.3,0.6-0.9,0.3-1.4c0,0,0-0.1-0.1-0.1
				c-0.3-0.5-1-0.6-1.5-0.2C77.6,147.8,77.4,148.4,77.8,149C77.8,148.9,77.8,149,77.8,149z M83.3,161.9c0.7,1,2,1.2,3,0.5
				c0.9-0.7,1.2-2,0.5-2.9c0,0,0,0,0,0c-0.7-0.9-2-1.2-3-0.5C82.9,159.7,82.7,161,83.3,161.9C83.3,161.9,83.3,161.9,83.3,161.9
				L83.3,161.9z M100.1,151.8c0.4,0.5,1,0.6,1.5,0.2c0.5-0.3,0.6-0.9,0.3-1.4c0,0,0-0.1-0.1-0.1c-0.3-0.5-1-0.6-1.5-0.2
				C99.9,150.7,99.7,151.3,100.1,151.8C100.1,151.8,100.1,151.8,100.1,151.8L100.1,151.8z M27.5,187c0.2,0.3,0.4,0.7,0.7,0.9
				c-0.4,0-0.8,0-1.1,0.1c-0.4,0.2-0.7,0.4-1,0.7c0-0.4,0-0.8-0.1-1.2c-0.2-0.3-0.4-0.7-0.7-0.9c0.4,0,0.8,0,1.2-0.1
				c0.4-0.2,0.7-0.4,1-0.7C27.4,186.2,27.4,186.6,27.5,187z M33.1,250.1c0.1-0.3,0.4-0.4,0.7-0.2c0.3,0.1,0.4,0.4,0.3,0.7
				c-0.1,0.3-0.5,0.4-0.7,0.2C33.1,250.7,33,250.4,33.1,250.1C33.1,250.1,33.1,250.1,33.1,250.1L33.1,250.1z M25.1,257
				c0.5,0.2,1.2,0,1.4-0.5c0.3-0.5,0.1-1.1-0.4-1.4c0,0-0.1,0-0.1-0.1c-0.5-0.2-1.2,0-1.4,0.5C24.3,256.1,24.5,256.7,25.1,257
				C25,257,25,257,25.1,257z M28.6,244.7c1.1,0.5,2.3,0.1,2.9-1c0.5-1,0.1-2.3-1-2.8c0,0,0,0,0,0c-1.1-0.5-2.3-0.1-2.9,1
				C27.1,242.9,27.5,244.2,28.6,244.7C28.6,244.7,28.6,244.7,28.6,244.7L28.6,244.7z M46.5,250.2c0.5,0.3,1.2,0,1.4-0.5
				c0.3-0.5,0.1-1.1-0.4-1.4c0,0-0.1,0-0.1,0c-0.5-0.3-1.2,0-1.4,0.5c-0.3,0.5-0.1,1.1,0.4,1.4C46.4,250.2,46.4,250.2,46.5,250.2
				L46.5,250.2z"/>
			<path class="st1" d="M51.4,353.1c0.1-0.4,0.2-0.7,0.4-1.1c-0.4,0.1-0.8,0.2-1.2,0.3c-0.4-0.1-0.8-0.2-1.1-0.4
				c0.1,0.4,0.2,0.8,0.3,1.2c-0.1,0.4-0.2,0.7-0.4,1.1c0.4-0.1,0.8-0.2,1.2-0.3c0.4,0.1,0.8,0.2,1.1,0.4
				C51.5,353.9,51.4,353.5,51.4,353.1z M105.1,342.3c-0.4-0.2-0.7-0.3-1.1-0.4c-0.4,0-0.8,0.1-1.2,0.3c0.2-0.3,0.3-0.7,0.4-1.1
				c0-0.4-0.1-0.8-0.2-1.1c0.4,0.2,0.7,0.3,1.1,0.4c0.4,0,0.8-0.1,1.2-0.3c-0.2,0.3-0.3,0.7-0.4,1.1
				C104.9,341.6,105,342,105.1,342.3L105.1,342.3z M43.2,301.1c-0.4-0.2-0.7-0.3-1.1-0.4c-0.4,0-0.8,0.1-1.2,0.2
				c0.2-0.3,0.3-0.7,0.4-1.1c0-0.4-0.1-0.8-0.3-1.1c0.4,0.2,0.7,0.3,1.1,0.4c0.4,0,0.8-0.1,1.2-0.2c-0.2,0.3-0.3,0.7-0.4,1.1
				C43,300.4,43,300.8,43.2,301.1z M66.2,311.7c0.2-0.2,0.6-0.2,0.8,0c0.2,0.2,0.2,0.6,0,0.8c-0.2,0.2-0.6,0.2-0.8,0
				C65.9,312.2,65.9,311.9,66.2,311.7C66.1,311.7,66.1,311.7,66.2,311.7L66.2,311.7z M56.3,309.5c0.4,0.4,1.1,0.5,1.5,0.1
				c0.4-0.3,0.5-1,0.2-1.4c0,0,0-0.1-0.1-0.1c-0.4-0.4-1.1-0.5-1.5-0.1c-0.4,0.3-0.5,1-0.2,1.4C56.2,309.4,56.2,309.4,56.3,309.5
				L56.3,309.5z M63.1,321.8c0.8,0.9,2.1,0.9,3,0.2c0.9-0.7,1-2.1,0.3-2.9c0,0,0,0-0.1-0.1c-0.8-0.8-2.1-0.9-3-0.2
				c-0.9,0.7-1,2-0.3,2.9C63.1,321.8,63.1,321.8,63.1,321.8L63.1,321.8z M78.8,310.1c0.4,0.4,1.1,0.5,1.5,0.1c0.4-0.3,0.5-1,0.2-1.4
				c0,0,0-0.1-0.1-0.1c-0.4-0.4-1.1-0.5-1.5-0.1c-0.4,0.3-0.5,1-0.2,1.4C78.7,310,78.7,310,78.8,310.1L78.8,310.1z M23.7,308.5
				c-0.7-0.9-0.5-2.2,0.4-2.9c0,0,0,0,0.1,0c0.9-0.7,2.3-0.5,3,0.4c0.7,0.9,0.5,2.2-0.4,2.9c0,0,0,0,0,0
				C25.7,309.7,24.3,309.5,23.7,308.5C23.6,308.5,23.6,308.5,23.7,308.5L23.7,308.5z M35.7,421.3c-0.4-0.2-0.7-0.3-1.1-0.4
				c-0.4,0-0.8,0.1-1.2,0.2c0.2-0.3,0.3-0.7,0.4-1.1c0-0.4-0.1-0.8-0.3-1.1c0.4,0.2,0.7,0.3,1.1,0.4c0.4,0,0.8-0.1,1.2-0.2
				c-0.2,0.3-0.3,0.7-0.4,1.1C35.5,420.6,35.6,421,35.7,421.3L35.7,421.3z M89.2,409.5c-0.4-0.2-0.7-0.3-1.1-0.4
				c-0.4,0-0.8,0.1-1.2,0.3c0.2-0.4,0.3-0.7,0.4-1.1c-0.1-0.4-0.2-0.8-0.3-1.1c0.4,0.2,0.7,0.3,1.1,0.4c0.4,0,0.8-0.1,1.2-0.3
				c-0.2,0.3-0.3,0.7-0.4,1.1C88.9,408.7,89,409.1,89.2,409.5L89.2,409.5z M27.2,368.2c-0.4-0.2-0.7-0.3-1.1-0.4
				c-0.4,0-0.8,0.1-1.1,0.3c0.2-0.3,0.3-0.7,0.4-1.1c0-0.4-0.1-0.8-0.3-1.1c0.4,0.2,0.7,0.3,1.1,0.4c0.4,0,0.8-0.1,1.1-0.3
				c-0.2,0.3-0.3,0.7-0.4,1.1C27,367.5,27.1,367.9,27.2,368.2z M50.2,378.8c0.2-0.2,0.5-0.2,0.8,0c0.2,0.2,0.2,0.5,0,0.7
				c0,0,0,0,0,0c-0.2,0.2-0.5,0.2-0.8,0C49.9,379.3,50,379,50.2,378.8C50.2,378.8,50.2,378.8,50.2,378.8L50.2,378.8z M40.3,376.6
				c0.4,0.4,1.1,0.5,1.5,0.1c0.4-0.3,0.5-1,0.2-1.4c0,0,0-0.1-0.1-0.1c-0.4-0.4-1.1-0.5-1.5-0.1c-0.4,0.3-0.5,1-0.2,1.4
				C40.3,376.5,40.3,376.6,40.3,376.6L40.3,376.6z M47.2,388.9c0.8,0.9,2.1,0.9,3,0.2c0.9-0.7,1-2.1,0.3-2.9c0,0,0,0-0.1-0.1
				c-0.8-0.9-2.1-0.9-3-0.2c-0.9,0.7-1,2-0.3,2.9C47.1,388.9,47.1,388.9,47.2,388.9L47.2,388.9z M62.8,377.2
				c0.4,0.4,1.1,0.5,1.5,0.1c0.4-0.3,0.5-1,0.2-1.4c0,0,0-0.1-0.1-0.1c-0.4-0.4-1.1-0.5-1.5-0.1C62.4,376.1,62.4,376.7,62.8,377.2
				C62.7,377.1,62.8,377.2,62.8,377.2z M7.6,375.7c-0.7-0.9-0.6-2.2,0.4-2.9c0,0,0.1,0,0.1-0.1c1-0.7,2.3-0.5,3,0.4
				c0.7,0.9,0.5,2.2-0.4,2.9c0,0,0,0-0.1,0C9.7,376.7,8.4,376.6,7.6,375.7z M62.4,483.1c-0.4-0.2-0.7-0.3-1.1-0.4
				c-0.4,0-0.8,0.1-1.2,0.2c0.2-0.3,0.3-0.7,0.4-1.1c0-0.4-0.1-0.8-0.3-1.1c0.4,0.2,0.7,0.3,1.1,0.4c0.4,0,0.8-0.1,1.2-0.2
				c-0.2,0.3-0.3,0.7-0.4,1.1C62.2,482.3,62.3,482.7,62.4,483.1L62.4,483.1z M115.9,471.2c-0.4-0.2-0.7-0.3-1.1-0.4
				c-0.4,0-0.8,0.1-1.2,0.2c0.2-0.3,0.3-0.7,0.4-1.1c0-0.4-0.1-0.8-0.3-1.1c0.4,0.2,0.7,0.3,1.1,0.4c0.4,0,0.8-0.1,1.2-0.3
				c-0.2,0.3-0.3,0.7-0.4,1.1C115.7,470.5,115.8,470.8,115.9,471.2L115.9,471.2z M54,430c-0.4-0.2-0.7-0.3-1.1-0.4
				c-0.4,0-0.8,0.1-1.2,0.3c0.2-0.3,0.3-0.7,0.4-1.1c0-0.4-0.1-0.8-0.3-1.1c0.4,0.2,0.7,0.3,1.1,0.4c0.4,0,0.8-0.1,1.2-0.3
				c-0.2,0.3-0.3,0.7-0.4,1.1C53.8,429.2,53.9,429.6,54,430z M77,440.6c0.2-0.2,0.5-0.2,0.8,0c0.2,0.2,0.2,0.5,0,0.7c0,0,0,0,0,0
				c-0.2,0.2-0.5,0.2-0.7,0c0,0,0,0,0,0c-0.2-0.2-0.3-0.5-0.1-0.7C76.9,440.6,76.9,440.6,77,440.6L77,440.6z M67.2,438.4
				c0.4,0.4,1.1,0.5,1.5,0.1c0.4-0.3,0.5-1,0.2-1.4c0,0,0-0.1-0.1-0.1c-0.4-0.4-1.1-0.5-1.5-0.1c-0.5,0.3-0.6,0.9-0.3,1.4
				C67,438.3,67,438.3,67.2,438.4L67.2,438.4z M74,450.7c0.8,0.8,2.1,0.9,3,0.2c0.9-0.7,1-2.1,0.2-2.9c0,0,0,0-0.1-0.1
				c-0.8-0.9-2.1-0.9-3-0.2c-0.9,0.7-1,2-0.3,2.9C73.8,450.6,73.9,450.7,74,450.7L74,450.7z M89.5,439c0.4,0.4,1.1,0.4,1.5,0
				c0.4-0.3,0.5-1,0.2-1.4c0,0,0-0.1-0.1-0.1c-0.4-0.4-1.1-0.5-1.5-0.1c-0.4,0.3-0.5,0.9-0.2,1.4C89.4,438.9,89.5,438.9,89.5,439z
				 M33.9,444.8c-0.2,0.2-0.6,0.1-0.8-0.1c-0.2-0.2-0.1-0.5,0.1-0.7c0,0,0,0,0,0c0.2-0.2,0.6-0.1,0.8,0.1
				C34.2,444.3,34.1,444.6,33.9,444.8L33.9,444.8z M43.6,447.8c-0.4-0.5-1-0.6-1.5-0.2c-0.5,0.3-0.6,0.9-0.3,1.4c0,0,0,0.1,0.1,0.1
				c0.4,0.5,1,0.6,1.5,0.2C43.8,449,44,448.3,43.6,447.8C43.6,447.8,43.6,447.8,43.6,447.8L43.6,447.8z M37.8,434.9
				c-0.7-0.9-2-1.1-3-0.4c-0.9,0.7-1.2,2-0.5,2.9c0,0,0.1,0.1,0.1,0.1c0.7,0.9,2.1,1.1,3,0.4c0.9-0.7,1.2-1.9,0.5-2.9
				C37.9,435,37.9,434.9,37.8,434.9z M21.2,445.3c-0.4-0.5-1-0.6-1.5-0.2c-0.5,0.3-0.6,1-0.2,1.5c0.4,0.5,1,0.6,1.5,0.2
				C21.5,446.5,21.6,445.8,21.2,445.3C21.3,445.3,21.3,445.3,21.2,445.3z M93.3,409c-0.2-0.3-0.4-0.6-0.7-0.9c0.4,0,0.8,0,1.2-0.1
				c0.3-0.2,0.7-0.4,0.9-0.7c0,0.4,0,0.8,0.1,1.2c0.2,0.3,0.4,0.6,0.7,0.9c-0.4,0-0.8,0-1.2,0.1c-0.3,0.2-0.6,0.4-0.9,0.7
				C93.4,409.8,93.4,409.4,93.3,409z M86.6,346c-0.1,0.3-0.4,0.4-0.7,0.3s-0.4-0.4-0.3-0.7c0.1-0.3,0.4-0.4,0.7-0.3
				C86.6,345.4,86.7,345.7,86.6,346C86.6,346,86.6,346,86.6,346z M94.6,338.9c-0.5-0.2-1.2,0-1.4,0.5c-0.3,0.5-0.1,1.1,0.4,1.3
				c0,0,0.1,0,0.1,0c0.5,0.2,1.2,0,1.4-0.5C95.4,339.8,95.2,339.2,94.6,338.9C94.6,338.9,94.6,338.9,94.6,338.9L94.6,338.9z
				 M91.3,351.3c-1.1-0.5-2.3,0-2.8,1c-0.5,1,0,2.3,1,2.8c0,0,0,0,0,0c1.1,0.5,2.3,0,2.8-1C92.8,353,92.3,351.8,91.3,351.3
				C91.2,351.3,91.2,351.3,91.3,351.3L91.3,351.3z M73.3,346c-0.5-0.2-1.2,0-1.4,0.5c-0.3,0.5-0.1,1.1,0.4,1.4c0,0,0.1,0,0.1,0
				c0.5,0.2,1.2,0,1.4-0.5C74,346.9,73.8,346.2,73.3,346C73.3,346,73.3,346,73.3,346z"/>
		</g>
	</g>
</g>
</svg>
