<svg version="1.1" id="Layer_1" xmlns="http://www.w3.org/2000/svg" x="0" y="0" viewBox="0 0 469.5 491" style="enable-background:new 0 0 469.5 491" xml:space="preserve"><style>.st1{fill:#cfeaff}.st2{fill:#f4f7fe}</style><g style="opacity:.75"><g id="Layer_2_1_"><g id="OBJECT"><path class="st1" d="m469.2 2-.8 197c-19.2 12.5-60.9 31.3-120.3 12.5 0 0-7.4 50.7-71.6 37.4 0 0-11.8 40-60.9 26.7 0 0-14.5 53.8-85.9 37.3 0 0-22.2 84-129.3 61.5L1.9 0"/><path class="st2" d="M413.9 33.9c-6.1-12-6.1-21.9 0-27.9 2.1-2 4.8-3.5 7.7-4.3l20.4.1c1.3.3 2.7.6 4 .9 8.2 2.3 16 5.4 23.2 9.3v2.9c-7.4-4.1-15.5-7.4-23.9-9.8-5-1.4-10.2-2.1-15.4-2.1-6 .1-10.7 1.7-13.8 4.7-5.4 5.2-5.2 14.2.5 25.3 5.8 11.4 16.7 23.6 30.7 34.3 6.7 5.2 14 9.8 21.7 13.8v2.8c-8.4-4.2-16.3-9.2-23.6-14.8-14.4-10.9-25.5-23.4-31.5-35.2zM135.2 62.3c8.5 16.7 8.6 30.5.1 38.7-5 4.8-12.5 7.3-21.9 7.5-6.7.1-14.3-.9-22.7-3.1-19.9-5.2-41.9-16.5-61.8-31.8C18.9 66 9.8 57.5 1.7 48.4v-4.1c8.5 10 18.3 19.3 29.1 27.5C50.5 86.9 72 98 91.6 103.1c19.2 5 33.9 3.7 41.6-3.7 7.7-7.4 7.5-20.2-.6-36C124.4 47.2 109.1 30 89.4 15 82.5 9.7 75.2 4.8 67.5.3h5.1c6.5 4 12.8 8.2 18.7 12.8 19.9 15.3 35.6 32.8 43.9 49.2z"/><path class="st2" d="M434.7 22c-7 6.8 2.2 24.1 20.1 37.8 4.4 3.4 9.1 6.4 14.1 9v2.8c-5.7-2.8-11.1-6.2-16-10-19.7-15.1-28.6-33.2-20.3-41.3 6.5-6.2 21.1-4.3 36.5 3.9v3c-14.6-8.1-28.8-10.6-34.4-5.2zM9.2 268.6c6.1-15.7 18.9-32.9 35.8-48.4s36.1-27.4 54-33.6c18.3-6.4 33.2-6 42 1.1 8.7 7.1 10.1 19.8 3.8 36-6.1 15.7-18.9 32.9-35.8 48.4s-36.1 27.4-54 33.6c-18.3 6.4-33.3 6-42-1.1-5.1-4.2-7.7-10.3-7.7-17.9.1-6.2 1.4-12.2 3.9-18.1zm6.3 33.7c7.6 6.2 21.1 6.3 38.1.5 17.4-6 36.1-17.7 52.7-32.9 16.6-15.1 29-31.9 35-47.2 2.3-5.5 3.6-11.3 3.7-17.1 0-6.7-2.2-12-6.5-15.6-7.6-6.2-21.1-6.3-38.1-.5-17.4 6-36.1 17.7-52.7 32.9-16.6 15.1-29 31.9-35 47.2-5.9 15-4.9 26.6 2.8 32.7zM6.2 2.1c2-1.3 4.4-2.1 7-2.1h2c-2.6.7-5 2-6.8 3.7C3 8.9 3.2 17.9 8.9 29c5.8 11.4 16.7 23.6 30.7 34.3s29.2 18.6 43.1 22.2c13.5 3.5 23.8 2.6 29.2-2.6s5.2-14.2-.5-25.3C105.6 46.2 94.7 34 80.7 23.3 66.7 12.7 51.4 4.8 37.6 1.2 36 .8 34.5.4 33 .1h10c13 4.2 26.9 11.6 39.6 21.4C96.8 32.4 108 44.9 114 56.6c6.1 12 6.1 21.9 0 27.9-3.6 3.5-9.1 5.3-15.9 5.5-5.5 0-11-.7-16.3-2.2C67.5 84.1 51.9 76 37.6 65.1S12.2 41.7 6.2 30c-2.3-4.3-3.8-8.9-4.4-13.6v-5.2c.4-3.4 1.9-6.5 4.4-9.1z"/><path class="st2" d="M55.8 229.1c23.4-21.4 51.1-30.6 62.9-21s2.8 33.9-20.7 55.3c-11 10.1-23.5 17.8-35.1 21.9-12.1 4.2-22 3.9-27.8-.8-3.5-2.8-5.2-6.9-5.2-12 .1-4 1-8 2.6-11.9 4-10.3 12.3-21.5 23.3-31.5zm-18.1 53c4.7 3.8 13.2 3.9 23.9.2 11.1-3.9 23.1-11.4 33.8-21.1 21.3-19.4 30.8-42.7 20.8-50.8s-36.4 1.5-57.7 20.9C47.8 241 39.8 251.7 36 261.5c-3.6 9.4-3.1 16.7 1.7 20.6z"/><path class="st2" d="M44.3 326.3c24.5-8.5 50.9-25 74.3-46.3s40.9-45 49.3-66.6c8.3-21.2 6.8-37.7-4.1-46.6-10.9-8.9-30.2-9.1-54.3-.8-24.5 8.5-50.9 25-74.3 46.3-13.2 11.9-24.7 25-34.4 39.1v-6.2c9.2-12.5 19.8-24.3 31.7-35.1 23.7-21.6 50.6-38.4 75.6-47.1 25.5-8.9 46.2-8.4 58.2 1.4s13.9 27.5 5.1 50c-8.6 22-26.4 46.1-50.1 67.8-23.7 21.7-50.6 38.4-75.6 47.1-17.9 6.2-33.4 7.8-45.2 4.8v-3.3c11.1 3.2 26.1 1.7 43.8-4.5z"/><path class="st2" d="M25.2 202.9c28.7-26.2 61.1-46.5 91.3-56.9 30.7-10.7 55.6-10.1 70 1.6 14.5 11.7 16.6 33.1 6 60.1-10.4 26.6-31.9 55.7-60.6 81.9-28.7 26.2-61.1 46.4-91.3 56.9-15 5.2-28.6 7.7-40.3 7.6v-3.2c11.2.2 24.3-2.3 38.9-7.4 29.7-10.3 61.7-30.3 90-56.2 28.3-25.9 49.5-54.6 59.8-80.7 4.3-10.9 6.4-20.8 6.4-29.4 0-11.7-3.8-21.1-11.5-27.3-13.3-10.8-36.8-11.2-66.1-1-29.7 10.3-61.7 30.3-90 56.2C18.1 214 9 223.3.7 233.2v-5.4c7.8-8.7 15.9-17 24.5-24.9zM95.3 51.8c4.1 7.9 4 14.5-.1 18.5-2.4 2.3-6.1 3.6-10.6 3.7-3.6 0-7.3-.5-10.7-1.4-9.3-2.5-19.5-7.7-28.7-14.8-19.7-15.2-28.6-33.3-20.3-41.4s30.3-2.6 50 12.5c9.3 7.1 16.5 15.2 20.4 22.9zM27.1 18c-7 6.8 2.2 24.1 20.1 37.8 9 6.9 18.8 11.9 27.6 14.3 8.5 2.2 15 1.7 18.3-1.5 3.3-3.2 3.2-8.8-.4-15.9C89 45.5 82 37.6 73 30.8 55.1 17.1 34.1 11.2 27.1 18zM286 232c.1-4 1-8 2.6-11.9 4-10.2 12.3-21.4 23.3-31.5 23.4-21.4 51.1-30.6 62.9-21 10.4 8.5 4.6 28.3-12.9 47.5l-3.9-.9c16.6-17.9 23.1-37.1 14.3-44.3-10-8.1-36.4 1.5-57.7 20.9-10.6 9.7-18.6 20.5-22.4 30.3-3.7 9.4-3.1 16.7 1.6 20.5 4.7 3.8 13.2 3.9 23.9.2 8.4-3.1 16.2-7.3 23.1-12.5-2 3.1-4.5 6-7.3 8.7-4.5 2.6-9.4 4.9-14.4 6.7-12.1 4.2-22 3.9-27.8-.8-3.6-2.6-5.3-6.7-5.3-11.9z"/><path class="st2" d="M265.2 228.3c6.1-15.7 18.9-32.9 35.7-48.4 16.9-15.5 36.1-27.4 54-33.6 18.3-6.4 33.2-6 42 1.1 8.7 7.1 10.1 19.9 3.8 36-4.4 11.3-12.2 23.2-22.4 34.8l-4.2-.6c10.6-11.7 18.6-23.9 23-35.2 2.3-5.5 3.6-11.3 3.8-17.1 0-6.7-2.2-12-6.5-15.6-7.6-6.2-21.1-6.3-38.1-.5-17.4 6-36.1 17.7-52.7 32.9-16.6 15.1-29 31.9-35 47.2-5.5 14-4.9 25 1.4 31.4l-2.1 2.7c-4.5-4.1-6.8-9.9-6.7-17.1.3-6.1 1.6-12.2 4-18z"/><path class="st2" d="M238.4 237.6c8.6-22 26.4-46.1 50.1-67.8s50.6-38.4 75.6-47.1c25.5-8.9 46.2-8.4 58.2 1.4s13.8 27.5 5.1 50c-5.8 14.6-15.5 30.2-28.4 45.3h-4.6c13.5-15.5 23.7-31.4 29.5-46.3 8.3-21.2 6.8-37.7-4.1-46.6-10.9-8.9-30.2-9.1-54.3-.8-24.5 8.5-50.9 25-74.3 46.3s-40.9 45-49.3 66.6c-6.4 16.3-7 29.9-1.9 39.3l-3.9.3c-2.2-4.9-3.3-10.1-3.2-15.4.1-7.4 1.9-15.9 5.5-25.2zM392.6 28.3c-5.2-10.2-7.2-19.3-6.1-26.7h2.9c-1.2 7 .8 15.8 5.9 25.7 8.2 16.1 23.6 33.3 43.2 48.3 9.4 7.2 19.6 13.7 30.4 19.3v2.8c-11.5-5.8-22.3-12.6-32.3-20.3-20-15.2-35.6-32.7-44-49.1zM24.4 76.7c23.8 18.2 50 31.7 73.7 37.9 23.3 6.1 41.3 4.5 50.7-4.6s9.2-24.7-.6-43.9c-10-19.5-28.6-40.3-52.4-58.6-3.3-2.5-6.7-5-10.1-7.3h4.5c2.5 1.8 5 3.6 7.4 5.4 24.1 18.5 43 39.6 53.2 59.4 10.3 20.2 10.3 36.7.2 46.5-6 5.8-15 8.8-26.3 9-8 .2-17.2-1.1-27.4-3.7-24.1-6.3-50.6-20-74.7-38.5-7.5-5.4-14.4-11.3-21-17.6V57c7.1 6.9 14.7 13.5 22.8 19.7z"/><path class="st2" d="M412.7 218.6c14.7-17.5 25.8-35.4 32.4-52.2 4.3-10.9 6.4-20.8 6.4-29.4 0-11.7-3.8-21.1-11.5-27.3-13.3-10.8-36.8-11.2-66.1-1-29.7 10.3-61.7 30.3-90 56.2s-49.6 54.6-59.8 80.7c-4.5 11.4-6.6 21.8-6.4 30.7-.7-.2-1.5-.4-2.2-.6 0 0-.4 1.4-1.3 3.7-.1-1.4-.2-2.9-.2-4.4 0-9 2.2-19.2 6.6-30.4 10.4-26.6 31.9-55.7 60.6-81.9s61.1-46.4 91.3-56.9c30.7-10.7 55.6-10.1 70 1.6 14.5 11.7 16.6 33.1 6 60.1-6.4 16.3-17 33.6-30.8 50.6-1.5.1-3.2.3-5 .5zm-98-183.2c6.1 12 6.1 21.9 0 27.9-3.6 3.5-9 5.3-15.9 5.5-5.5 0-11-.7-16.3-2.2-14.3-3.7-29.9-11.8-44.2-22.7-14.2-11-25.3-23.4-31.3-35.1-1.3-2.6-2.4-5.2-3.2-7.9h3c.8 2.4 1.7 4.7 2.9 6.9 5.8 11.4 16.7 23.6 30.7 34.3 13.9 10.7 29.2 18.6 43.1 22.2 13.5 3.5 23.8 2.6 29.2-2.6s5.2-14.2-.5-25.3c-5.8-11.4-16.7-23.6-30.7-34.3l-1.3-1h4.3c13.6 10.8 24.4 22.9 30.2 34.3z"/><path class="st2" d="M296.1 30.5c4.1 7.9 4 14.5-.1 18.5-2.4 2.3-6.1 3.6-10.6 3.7-3.6 0-7.2-.5-10.7-1.5-9.3-2.5-19.5-7.7-28.7-14.8-15.9-12.2-24.8-26.3-23.3-35.6h3C224.1 9 233 23 247.9 34.5c9 6.9 18.8 11.9 27.6 14.3 8.5 2.2 15 1.7 18.3-1.5 3.3-3.2 3.2-8.8-.4-15.9-3.8-7.3-10.7-15.1-19.7-22-4.1-3.2-8.5-6-13.3-8.5h5.4c3.4 2 6.7 4.2 9.8 6.6 9.4 7.3 16.6 15.4 20.5 23z"/><path class="st2" d="M336.1 79.7c-5 4.8-12.5 7.3-21.9 7.5-6.7.1-14.3-.9-22.7-3.1-19.9-5.2-41.9-16.5-61.8-31.8-20-15.3-35.6-32.7-43.9-49.1L184.6.8h3.1c.2.5.4.9.7 1.4 8.2 16.1 23.6 33.3 43.2 48.3s41.2 26.2 60.8 31.3c19.2 5 33.9 3.7 41.6-3.7s7.5-20.3-.6-36c-6.9-13.5-18.8-27.7-34-40.8h4C317.9 14.1 329.3 27.9 336 41c8.5 16.8 8.6 30.5.1 38.7z"/><path class="st2" d="M351.6 90.5c-6 5.8-15 8.8-26.3 9-8 .2-17.2-1.1-27.4-3.7-24.1-6.3-50.6-20-74.7-38.5-23-17.6-41.2-37.6-51.6-56.6h3.2c10.4 18.4 28.1 37.7 50.4 54.8 23.8 18.2 50 31.7 73.7 37.9 23.3 6.1 41.3 4.5 50.7-4.6 9.4-9.1 9.2-24.7-.7-43.9-7.3-14.3-19.4-29.4-34.7-43.6h3.9c14.7 13.9 26.3 28.6 33.4 42.7 10.3 20.1 10.3 36.6.1 46.5zm25.5-67.4c-3.6-6.9-6.1-14.1-7.3-21.6h2.9c1.2 7.1 3.6 14 7.1 20.6 10 19.5 28.6 40.3 52.4 58.5 11.4 8.7 23.6 16.6 36.7 23.4v2.8c-13.8-7.1-26.7-15.2-38.6-24.4C406 64 387.2 42.9 377.1 23.1z"/><path class="st1" d="M422.5 131.2c-.1.3-.3.6-.5.9.4-.1.7-.1 1.1-.1.4.1.7.2 1 .4-.1-.3-.2-.6-.2-.9.1-.3.3-.6.4-.9-.4.1-.7.1-1.1.1-.4-.1-.7-.2-1-.4.3.3.3.6.3.9zm-50.8 5.7c.3.2.7.3 1 .4.4 0 .7-.1 1.1-.1-.2.3-.3.6-.5.9 0 .3.1.6.2.9-.3-.2-.7-.3-1-.4-.4 0-.7.1-1.1.1.2-.3.3-.6.5-.9-.1-.3-.1-.6-.2-.9zm55 37.3c.3.2.7.3 1 .4.4 0 .7-.1 1.1-.1-.2.3-.3.6-.4.9 0 .3.1.6.2.9-.3-.2-.7-.3-1-.4-.4 0-.7.1-1.1.1.2-.3.3-.6.4-.9 0-.3-.1-.6-.2-.9zm-20.7-10c-.2.1-.5.1-.7-.1-.2-.2-.1-.5.1-.6.2-.1.5-.1.7.1.2.2.1.5-.1.6zm9.1 2.4c-.3-.4-.9-.5-1.3-.2 0 0-.1 0-.1.1-.4.3-.5.8-.2 1.2.3.4.9.5 1.3.2 0 0 .1 0 .1-.1.4-.3.5-.9.2-1.2zm-5.5-10.5c-.7-.7-1.9-.9-2.8-.3-.9.6-1 1.7-.4 2.4.6.8 1.9.9 2.8.4 0 0 .1 0 .1-.1.8-.6.9-1.7.3-2.4zm-15.4 8.7c-.3-.4-.9-.5-1.3-.2 0 0-.1 0-.1.1-.4.3-.5.8-.2 1.2.3.4.9.5 1.3.2 0 0 .1 0 .1-.1.4-.3.5-.8.2-1.2zm51.3 4.4c.6.8.3 1.9-.6 2.4-.9.5-2.1.3-2.7-.5-.6-.8-.4-1.9.6-2.4.9-.5 2.1-.2 2.7.5zm-3.7-92.9c.3.2.7.3 1 .4.4 0 .7-.1 1.1-.1-.2.3-.3.6-.5.9 0 .3.1.6.2.9-.3-.2-.7-.3-1-.4-.4 0-.7.1-1.1.1.2-.3.3-.6.5-.9 0-.2-.1-.5-.2-.9zM391.1 83c.3.2.7.3 1 .4.4 0 .7-.1 1.1-.1-.2.3-.3.6-.5.9 0 .3.1.6.2.9-.3-.2-.7-.3-1-.4-.4 0-.7.1-1.1.1.2-.3.3-.6.4-.9.1-.3 0-.6-.1-.9zm55.1 37.2c.3.2.7.3 1 .4.4 0 .7-.1 1.1-.1-.2.3-.3.6-.4.9 0 .3.1.6.2.9-.3-.2-.7-.3-1-.4-.4 0-.7.1-1.1.1.2-.3.3-.6.5-.9-.2-.2-.3-.5-.3-.9zm-20.7-9.9c-.2.1-.5.1-.7-.1-.2-.2-.1-.5.1-.6.2-.1.5-.1.7.1.1.2 0 .4-.1.6zm9 2.4c-.3-.4-.9-.5-1.3-.2h-.1c-.4.3-.5.8-.2 1.2.3.4.9.5 1.3.2h.1c.5-.3.5-.9.2-1.2 0-.1 0-.1 0 0zm-5.5-10.5c-.6-.8-1.9-.9-2.8-.4 0 0-.1 0-.1.1-.9.6-1 1.7-.4 2.4s1.9.9 2.8.4c0 0 .1 0 .1-.1.9-.6 1-1.7.4-2.4zm-15.4 8.6c-.3-.4-.9-.5-1.3-.2 0 0-.1 0-.1.1-.4.3-.5.8-.2 1.2.3.4.9.5 1.3.2 0 0 .1 0 .1-.1.4-.2.5-.8.2-1.2zm51.3 4.5c.6.8.4 1.9-.6 2.4-.9.5-2.2.3-2.8-.5-.6-.8-.4-1.9.6-2.4s2.2-.3 2.8.5zm-43.9-91c.3.2.7.3 1 .4.4 0 .7-.1 1.1-.1-.2.3-.3.6-.5.9 0 .3.1.6.2.9-.3-.2-.7-.3-1-.4-.4 0-.7.1-1.1.1.2-.3.3-.6.5-.9 0-.3-.1-.6-.2-.9zm-50.7 6.6c.3.2.7.3 1 .4.4 0 .7-.1 1.1-.1-.2.3-.3.6-.5.9 0 .3.1.6.2.9-.3-.2-.7-.3-1-.4-.4 0-.7.1-1.1.1.2-.3.3-.6.4-.9.1-.3 0-.6-.1-.9zm55.1 37.3c.3.2.6.3 1 .4.4 0 .7-.1 1.1-.1-.2.3-.3.6-.4.9 0 .3.1.6.2.9-.3-.2-.7-.3-1-.4-.4 0-.7.1-1.1.1.2-.3.3-.6.5-.9-.2-.3-.3-.6-.3-.9zm-20.8-10c-.2.1-.5.1-.7-.1-.2-.2-.1-.5.1-.6.2-.1.5-.1.7.1.2.2.2.5-.1.6zm9.1 2.4c-.3-.4-.9-.5-1.3-.2h-.1c-.4.3-.5.8-.2 1.2.3.4.9.5 1.3.2h.1c.4-.3.5-.8.2-1.2zm-5.6-10.5c-.6-.8-1.9-.9-2.8-.4 0 0-.1 0-.1.1-.9.6-1 1.7-.4 2.4s1.9.9 2.8.4c0 0 .1 0 .1-.1.9-.5 1.1-1.6.4-2.4zm-15.3 8.7c-.3-.4-.9-.5-1.3-.2 0 0-.1 0-.1.1-.4.3-.5.8-.2 1.2.3.4 1 .4 1.4.2.4-.4.5-.9.2-1.3zm52.2-1.5c.2-.1.5-.1.7.1.1.2.1.5-.2.6-.2.1-.6.1-.7-.1-.1-.2 0-.5.2-.6zm-8.8-3c.3.4.8.5 1.3.3h.1c.5-.3.6-.8.3-1.2-.3-.4-.8-.5-1.3-.3h-.1c-.4.3-.6.8-.3 1.2zm4.5 10.8c.6.8 1.8 1 2.7.5 1-.5 1.2-1.6.6-2.4-.6-.8-1.8-1-2.7-.5-.9.6-1.2 1.6-.6 2.4zm16.2-7.5c.3.4.8.5 1.3.3 0 0 .1 0 .1-.1.5-.3.6-.8.3-1.2-.3-.4-.9-.5-1.4-.3-.5.4-.6.9-.3 1.3zm-69.7 25.5c.2.3.4.6.6.8h-1.1c-.3.1-.7.3-1 .5v-1c-.2-.3-.4-.6-.6-.8h1.1c.3-.1.7-.3 1-.5v1zm2 51.9c.1-.2.4-.3.7-.2.2.1.3.4.2.6-.1.2-.4.3-.7.2-.2-.1-.3-.4-.2-.6zm-7.9 5.3c.4.2 1 .1 1.3-.3v-.1c.3-.4.1-.9-.4-1.2-.5-.2-1-.1-1.3.3v.1c-.2.4-.1 1 .4 1.2zm4-9.9c1 .4 2.2.1 2.7-.7.5-.8.2-1.9-.8-2.3-1-.5-2.2-.2-2.7.7-.6.8-.2 1.8.8 2.3zm16.4 5.3c.5.2 1 .1 1.3-.3.3-.4.1-.9-.4-1.2-.4-.2-1-.1-1.3.3v.1c-.3.4-.2.9.4 1.1zM162.6 248.4c-.1.3-.3.6-.4.9.4-.1.7-.1 1.1-.1.4.1.7.2 1 .4-.1-.3-.2-.6-.2-.9.1-.3.3-.6.4-.9-.4.1-.7.1-1.1.1-.4-.1-.7-.2-1-.4.1.3.2.6.2.9zm-50.9 5.7c.3.2.7.3 1 .4.4 0 .7-.1 1.1-.1-.2.3-.3.6-.4.9 0 .3.1.6.2.9-.3-.2-.7-.3-1-.4-.4 0-.7.1-1.1.1.2-.3.3-.6.5-.9l-.3-.9zm55.1 37.3c.3.2.7.3 1 .4.4 0 .7-.1 1.1-.1-.2.3-.3.6-.5.9 0 .3.1.6.2.9-.3-.2-.7-.3-1-.4-.4 0-.7.1-1.1.1.2-.3.3-.6.5-.9-.1-.3-.1-.6-.2-.9zm-20.8-10c-.2.1-.5.1-.7 0-.2-.2-.1-.5.1-.6.2-.1.5-.1.7.1.2.1.2.4-.1.5zm9.1 2.4c-.3-.4-1-.4-1.4-.2-.4.3-.5.8-.2 1.2.3.4.9.5 1.3.2 0 0 .1 0 .1-.1.4-.2.5-.7.2-1.1zm-5.5-10.5c-.6-.8-1.9-.9-2.8-.4h-.1c-.9.6-1 1.7-.4 2.4.6.8 1.9.9 2.8.4h.1c.8-.6 1-1.6.4-2.4zm-15.4 8.7c-.3-.4-.9-.5-1.3-.2h-.1c-.4.3-.5.8-.2 1.2.3.4.9.5 1.3.2h.1c.4-.3.5-.8.2-1.2zm51.3 4.4c.6.8.4 1.9-.6 2.4-.9.5-2.2.3-2.8-.5-.6-.8-.3-1.9.6-2.4 1-.5 2.2-.2 2.8.5 0 .1 0 .1 0 0zm-3.6-92.9c.3.2.7.3 1 .4.4 0 .7-.1 1.1-.1-.2.3-.3.6-.4.9 0 .3.1.6.2.9-.3-.2-.7-.3-1-.4-.4 0-.7.1-1.1.1.2-.3.3-.6.5-.9-.2-.2-.3-.5-.3-.9zm-50.7 6.6c.3.2.7.3 1 .4.4 0 .7-.1 1.1-.1-.2.3-.3.6-.5.9 0 .3.1.6.2.9-.3-.2-.7-.3-1-.4-.4 0-.7.1-1.1.1.2-.3.3-.6.5-.9-.1-.2-.1-.5-.2-.9zm55 37.3c.3.2.7.3 1 .4.4 0 .7-.1 1.1-.1-.2.3-.3.6-.5.9 0 .3.1.6.2.9-.3-.2-.7-.3-1-.4-.4 0-.7.1-1.1.1.2-.3.3-.6.4-.9.1-.3 0-.6-.1-.9zm-20.7-9.9c-.2.1-.5.1-.7-.1-.2-.2-.1-.5.1-.6.2-.1.5-.1.7.1.2.2.1.4-.1.6zm9.1 2.3c-.3-.4-.9-.5-1.3-.2 0 0-.1 0-.1.1-.4.3-.5.8-.2 1.2.3.4.9.5 1.3.2 0 0 .1 0 .1-.1.4-.3.4-.8.2-1.2zm-5.6-10.5c-.7-.7-1.9-.9-2.8-.3-.9.6-1.1 1.7-.4 2.4.7.7 1.9.9 2.8.3.9-.5 1.1-1.6.4-2.4zm-15.4 8.7c-.3-.4-.9-.5-1.3-.2h-.1c-.4.3-.5.8-.2 1.2.3.4.9.5 1.3.2h.1c.5-.3.5-.8.2-1.2zm51.4 4.5c.6.8.4 1.9-.6 2.4-.9.5-2.1.3-2.7-.5-.6-.8-.4-1.9.6-2.4.9-.4 2.1-.2 2.7.6v-.1zm-44-91c.3.2.7.3 1 .4.4 0 .7-.1 1.1-.1-.2.3-.3.6-.4.9 0 .3.1.6.2.9-.3-.2-.7-.3-1-.4-.4 0-.7.1-1.1.1.2-.3.3-.6.4-.9 0-.2-.1-.6-.2-.9zm-50.6 6.6c.3.2.7.3 1 .4.4 0 .7-.1 1.1-.1-.2.3-.3.6-.5.9 0 .3.1.6.2.9-.3-.2-.7-.3-1-.4-.4 0-.7.1-1.1.1.2-.3.3-.6.5-.9-.1-.2-.1-.6-.2-.9zm55 37.3c.3.2.7.3 1 .4.4 0 .7-.1 1.1-.1-.2.3-.3.6-.5.9 0 .3.1.6.2.9-.3-.2-.7-.3-1-.4-.4 0-.7.1-1.1.1.2-.3.3-.6.4-.9.1-.3 0-.6-.1-.9zm-20.7-10c-.2.1-.5.1-.7-.1-.2-.2-.1-.5.1-.6.2-.1.5-.1.7.1.2.2.1.5-.1.6 0 0 0 .1 0 0zm9 2.4c-.3-.4-.9-.5-1.3-.2 0 0-.1 0-.1.1-.4.3-.5.8-.2 1.2.3.4.9.5 1.3.2 0 0 .1 0 .1-.1.5-.3.6-.8.2-1.2zm-5.5-10.5c-.6-.8-1.9-.9-2.8-.4h-.1c-.9.6-1 1.7-.4 2.4.6.8 1.9.9 2.8.4h.1c.9-.6 1.1-1.6.4-2.4zm-15.4 8.7c-.3-.4-.9-.5-1.3-.2h-.1c-.4.3-.5.8-.2 1.2.3.4.9.5 1.3.2h.1c.4-.3.5-.8.2-1.2zm52.3-1.5c.2-.1.5-.1.7.1.2.2.1.5-.1.6-.2.1-.5.1-.7-.1-.2-.2-.2-.4.1-.6zm-8.8-3c.3.4.8.5 1.3.3h.1c.5-.3.6-.8.3-1.2-.3-.4-.8-.5-1.3-.3 0 0-.1 0-.1.1-.5.2-.6.7-.3 1.1zm4.5 10.9c.6.8 1.8 1 2.7.5.9-.5 1.2-1.6.6-2.4-.6-.8-1.8-1-2.7-.5-1 .5-1.3 1.5-.6 2.4zm16.2-7.6c.3.4.8.5 1.3.3h.1c.5-.3.6-.8.3-1.2-.3-.4-.8-.5-1.3-.3 0 0-.1 0-.1.1-.5.2-.6.7-.3 1.1-.1 0-.1 0 0 0zm-69.7 25.5c.2.3.4.6.6.8-.7-.2-1.5 0-2 .5v-1c-.2-.3-.4-.6-.6-.8h1.1c.3-.1.7-.3 1-.5-.1.4-.2.7-.1 1zm2 51.9c.1-.2.4-.3.7-.2.2.1.3.4.2.6-.1.2-.4.3-.6.2-.4-.1-.5-.4-.3-.6-.1 0-.1 0 0 0zm-7.9 5.3c.5.2 1 .1 1.3-.3v-.1c.3-.4.1-.9-.4-1.2-.5-.2-1.1-.1-1.4.3-.2.5 0 1.1.5 1.3zm3.9-9.9c1 .4 2.2.2 2.7-.7.5-.8.2-1.9-.8-2.3-1-.4-2.2-.1-2.7.7-.5.8-.2 1.8.8 2.3zm16.4 5.3c.5.2 1 .1 1.3-.3v-.1c.3-.4.1-.9-.4-1.2-.5-.2-1.1-.1-1.4.3-.2.6 0 1.1.5 1.3zm-64.9-89.4c-.1.3-.3.6-.5.9.4-.1.7-.1 1.1-.1.4.1.7.2 1 .4-.1-.3-.2-.6-.2-.9.1-.3.3-.6.5-.9-.4.1-.7.1-1.1.1-.4-.1-.7-.2-1-.4.2.3.2.6.2.9zM26 169.1c.3.2.7.3 1 .4.4 0 .7-.1 1.1-.1-.2.3-.3.6-.5.9 0 .3.1.6.2.9-.3-.2-.7-.3-1-.4-.4 0-.7.1-1.1.1.2-.3.3-.6.4-.9 0-.2 0-.5-.1-.9zm55 37.3c.3.2.7.3 1 .4.4 0 .7-.1 1.1-.1-.2.3-.3.6-.4.9 0 .3.1.6.2.9-.3-.2-.7-.3-1-.4-.4 0-.7.1-1.1.1.2-.3.3-.6.5-.9l-.3-.9zm-20.7-9.9c-.2.1-.5.1-.7-.1-.2-.2-.1-.5.1-.6.2-.1.5-.1.7.1.2.1.1.4-.1.6zm9.1 2.3c-.3-.4-.9-.5-1.3-.2H68c-.4.3-.5.8-.2 1.2.3.4.9.5 1.3.2h.1c.4-.3.5-.8.2-1.2zm-5.6-10.5c-.7-.7-1.9-.9-2.8-.3-.9.6-1 1.7-.4 2.4.7.7 1.9.9 2.8.3.9-.5 1.1-1.6.4-2.4zM48.4 197c-.3-.4-.9-.5-1.3-.2 0 0-.1 0-.1.1-.4.3-.5.8-.2 1.2.3.4 1 .4 1.4.2.5-.4.5-.9.2-1.3zm51.4 4.5c.6.8.4 1.9-.6 2.4-.9.5-2.2.3-2.8-.5-.6-.8-.4-1.9.6-2.4s2.2-.3 2.8.5zm-3.6-92.9c.3.2.7.3 1 .4.4 0 .7-.1 1.1-.1-.2.3-.3.6-.5.9 0 .3.1.6.2.9-.3-.2-.7-.3-1-.4-.4 0-.7.1-1.1.1.2-.3.3-.6.5-.9-.1-.3-.2-.6-.2-.9zm-50.7 6.6c.3.2.7.3 1 .4.4 0 .7-.1 1.1-.1-.2.3-.3.6-.4.9 0 .3.1.6.2.9-.3-.2-.7-.3-1-.4-.4 0-.7.1-1.1.1.2-.3.3-.6.4-.9-.1-.3-.2-.6-.2-.9zm55 37.3c.3.2.7.3 1 .4.4 0 .7-.1 1.1-.1-.2.3-.3.6-.4.9 0 .3.1.6.2.9-.3-.2-.7-.3-1-.4-.4 0-.7.1-1.1.1.2-.3.3-.6.5-.9-.2-.3-.2-.6-.3-.9zm-20.7-10c-.2.1-.5.1-.7-.1-.2-.2-.1-.5.1-.6.2-.1.5-.1.7.1.2.2.1.5-.1.6-.1 0-.1 0 0 0zm9 2.4c-.3-.4-.9-.5-1.3-.2h-.1c-.4.3-.5.8-.2 1.2.3.4.9.5 1.3.2h.1c.5-.3.5-.8.2-1.2zm-5.5-10.5c-.7-.7-1.9-.9-2.8-.3-.9.6-1 1.7-.4 2.4.7.7 1.9.9 2.8.3.9-.6 1-1.6.4-2.4zm-15.4 8.7c-.3-.4-.9-.5-1.3-.2 0 0-.1 0-.1.1-.4.3-.5.8-.2 1.2.3.4.9.5 1.3.2 0 0 .1 0 .1-.1.4-.3.5-.8.2-1.2zm51.4 4.4c.6.8.4 1.9-.6 2.4-.9.5-2.1.3-2.7-.5-.6-.8-.4-1.9.6-2.4.9-.4 2.1-.2 2.6.6l.1-.1zm-44-90.9c.3.2.7.3 1 .4.4 0 .7-.1 1.1-.1-.2.3-.3.6-.5.9 0 .3.1.6.2.9-.3-.2-.7-.3-1-.4-.4 0-.7.1-1.1.1.2-.3.3-.6.5-.9-.1-.3-.1-.6-.2-.9zm-50.7 6.6c.3.2.7.3 1 .4.4 0 .7-.1 1.1-.1-.2.3-.3.6-.5.9 0 .3.1.6.2.9-.3-.2-.7-.3-1-.4-.4 0-.7.1-1.1.1.2-.3.3-.6.4-.9.1-.3 0-.6-.1-.9zm55.1 37.3c.3.2.7.3 1 .4.4 0 .7-.1 1.1-.1-.2.3-.3.6-.4.9 0 .3.1.6.2.9-.3-.2-.7-.3-1-.4-.4 0-.7.1-1.1.1.2-.3.3-.6.5-.9-.2-.3-.3-.6-.3-.9zm-20.8-10c-.2.1-.5.1-.7-.1-.2-.2-.1-.5.1-.6.2-.1.5-.1.7.1.2.2.1.5-.1.6zm9.1 2.4c-.3-.4-.9-.5-1.3-.2h-.1c-.4.3-.5.8-.2 1.2.3.4.9.5 1.3.2h.1c.4-.3.5-.8.2-1.2zm-5.6-10.5c-.6-.8-1.9-.9-2.8-.4 0 0-.1 0-.1.1-.9.6-1 1.7-.4 2.4.6.8 1.9.9 2.8.4 0 0 .1 0 .1-.1 1-.6 1.1-1.6.4-2.4zm-15.3 8.7c-.3-.4-1-.4-1.4-.2-.4.3-.5.8-.2 1.2.3.4.9.5 1.3.2 0 0 .1 0 .1-.1.4-.2.5-.7.2-1.1zm52.2-1.5c.2-.1.5-.1.7.1.2.2.1.5-.1.6-.2.1-.5.1-.7-.1-.2-.2-.1-.5.1-.6zm-8.8-3.1c.3.4.8.5 1.3.3 0 0 .1 0 .1-.1.5-.3.6-.8.3-1.2-.3-.4-.8-.5-1.3-.3h-.1c-.4.4-.6.9-.3 1.3zM95 97.4c.6.8 1.8 1 2.7.5 1-.5 1.2-1.6.6-2.4-.6-.8-1.8-1-2.7-.5-.9.5-1.2 1.6-.6 2.4zm16.2-7.5c.3.4.8.5 1.3.3 0 0 .1 0 .1-.1.5-.3.6-.8.3-1.2-.3-.4-.8-.5-1.3-.3h-.1c-.4.3-.6.8-.3 1.3zm-69.7 25.4c.2.3.4.6.6.8-.7-.2-1.5 0-2 .5v-1c-.2-.3-.4-.6-.6-.8.7.2 1.5 0 2-.5v1zm2 51.9c.1-.2.4-.3.7-.2.2.1.3.4.2.6-.1.2-.4.3-.7.2-.2-.1-.3-.3-.2-.6zm-7.9 5.3c.5.2 1.1.1 1.4-.3.3-.4.1-.9-.4-1.2-.5-.2-1-.1-1.3.3v.1c-.4.4-.2.9.3 1.1zm4-9.9c1 .4 2.2.2 2.7-.7.5-.8.2-1.9-.8-2.3-1-.4-2.2-.1-2.7.7-.6.8-.2 1.9.8 2.3zM56 168c.5.2 1.1.1 1.4-.3.3-.4.1-.9-.4-1.2-.5-.2-1-.1-1.3.3v.1c-.4.3-.3.8.3 1.1zm4.5 137.8c-.1.3-.3.6-.4.9.4-.1.7-.1 1.1-.1.4.1.7.2 1 .4-.1-.3-.2-.6-.2-.9.1-.3.3-.6.5-.9-.4.1-.7.1-1.1.1-.4-.1-.7-.2-1-.4 0 .3 0 .6.1.9zm-50.9 5.7c.3.2.7.3 1 .4.4 0 .7-.1 1.1-.1-.2.3-.3.6-.4.9 0 .3.1.6.2.9-.3-.2-.7-.3-1-.4-.4 0-.7.1-1.1.1.2-.3.3-.6.5-.9l-.3-.9zm55.1 37.3c.3.2.7.3 1 .4.4 0 .7-.1 1.1-.1-.2.3-.3.6-.5.9 0 .3.1.6.2.9-.3-.2-.7-.3-1-.4-.4 0-.7.1-1.1.1.2-.3.3-.6.5-.9-.1-.3-.2-.6-.2-.9zm-20.8-10c-.2.1-.5.1-.7-.1-.2-.2-.1-.5.1-.6.2-.1.5-.1.7.1.2.2.2.5-.1.6zm9.1 2.4c-.3-.4-.9-.5-1.3-.2 0 0-.1 0-.1.1-.4.3-.5.8-.2 1.2.3.4.9.5 1.3.2 0 0 .1 0 .1-.1.4-.3.5-.9.2-1.2zm-5.5-10.5c-.6-.8-1.9-.9-2.8-.4h-.1c-.9.6-1 1.7-.4 2.4.6.8 1.9.9 2.8.4h.1c.8-.6 1-1.7.4-2.4zm-15.4 8.7c-.3-.4-.9-.5-1.3-.2h-.1c-.4.3-.5.8-.2 1.2.3.4.9.5 1.3.2h.1c.4-.3.5-.8.2-1.2zm51.3 4.4c.6.8.3 1.9-.6 2.4-.9.5-2.2.3-2.8-.5-.6-.8-.3-1.9.6-2.4 1-.5 2.2-.2 2.8.5zm-3.6-92.9c.3.2.7.3 1 .4.4 0 .7-.1 1.1-.1-.2.3-.3.6-.4.9 0 .3.1.6.2.9-.3-.2-.7-.3-1-.4-.4 0-.7.1-1.1.1.2-.3.3-.6.4-.9-.1-.2-.2-.6-.2-.9zm-50.7 6.6c.3.2.7.3 1 .4.4 0 .7-.1 1.1-.1-.2.3-.3.6-.4.9 0 .3.1.6.2.9-.3-.2-.7-.3-1-.4-.4 0-.7.1-1.1.1.2-.3.3-.6.5-.9-.2-.2-.2-.6-.3-.9zm55.1 37.3c.3.2.7.3 1 .4.4 0 .7-.1 1.1-.1-.2.3-.3.6-.5.9 0 .3.1.6.2.9-.3-.2-.7-.3-1-.4-.4 0-.7.1-1.1.1.2-.3.3-.6.4-.9 0-.3-.1-.6-.1-.9zm-20.8-10c-.2.1-.5.1-.7-.1-.2-.2-.1-.5.1-.6.2-.1.5-.1.7.1.2.2.1.5-.1.6 0 .1 0 .1 0 0zm9.1 2.4c-.3-.4-.9-.5-1.3-.2 0 0-.1 0-.1.1-.4.3-.5.8-.2 1.2.3.4.9.5 1.3.2 0 0 .1 0 .1-.1.4-.3.4-.8.2-1.2zM67 276.7c-.6-.8-1.9-.9-2.8-.4h-.1c-.9.6-1 1.7-.4 2.4.6.8 1.9.9 2.8.4h.1c.8-.6.9-1.6.4-2.4zm-15.4 8.7c-.3-.4-.9-.5-1.3-.2h-.1c-.4.3-.5.8-.2 1.2.3.4.9.5 1.3.2h.1c.4-.3.4-.8.2-1.2zm51.3 4.5c.6.8.4 1.9-.6 2.4-.9.5-2.1.3-2.7-.5-.6-.8-.4-1.9.6-2.4.9-.4 2.1-.2 2.6.6l.1-.1zm-44-91c.3.2.7.3 1 .4.4 0 .7-.1 1.1-.1-.2.3-.3.6-.4.9 0 .3.1.6.2.9-.3-.2-.7-.3-1-.4-.4 0-.7.1-1.1.1.2-.3.3-.6.4-.9 0-.2-.1-.6-.2-.9zm-50.7 6.6c.3.2.7.3 1 .4.4 0 .7-.1 1.1-.1-.2.3-.3.6-.4.9 0 .3.1.6.2.9-.3-.2-.7-.3-1-.4-.4 0-.7.1-1.1.1.2-.3.3-.6.5-.9l-.3-.9zm55.1 37.3c.3.2.7.3 1 .4.4 0 .7-.1 1.1-.1-.2.3-.3.6-.5.9 0 .3.1.6.2.9-.3-.2-.7-.3-1-.4-.4 0-.7.1-1.1.1.2-.3.3-.6.4-.9 0-.3 0-.6-.1-.9zm-20.7-10c-.2.1-.5.1-.7-.1-.2-.2-.1-.5.1-.6.2-.1.5-.1.7.1.1.2.1.5-.1.6zm9 2.4c-.3-.4-.9-.5-1.3-.2 0 0-.1 0-.1.1-.4.3-.5.8-.2 1.2.3.4.9.5 1.3.2 0 0 .1 0 .1-.1.5-.3.5-.8.2-1.2zm-5.5-10.5c-.6-.8-1.9-.9-2.8-.4h-.1c-.9.6-1 1.7-.4 2.4.6.8 1.9.9 2.8.4h.1c.9-.6 1-1.6.4-2.4zm-15.4 8.7c-.3-.4-.9-.5-1.3-.2h-.1c-.4.3-.5.8-.2 1.2.3.4.9.5 1.3.2h.1c.4-.3.5-.8.2-1.2zm52.3-1.5c.2-.1.5-.1.7.1.2.2.1.5-.1.6-.2.1-.5.1-.7-.1-.2-.2-.2-.4.1-.6zm-8.8-3c.3.4.8.5 1.3.3h.1c.5-.3.6-.8.3-1.2-.3-.4-.8-.5-1.3-.3 0 0-.1 0-.1.1-.5.1-.7.7-.3 1.1-.1 0 0 0 0 0zm4.5 10.8c.6.8 1.8 1 2.7.6 1-.5 1.2-1.6.6-2.4-.6-.8-1.8-1-2.7-.5-1 .4-1.3 1.5-.6 2.3-.1 0-.1 0 0 0zm16.2-7.5c.3.4.8.5 1.3.3h.1c.5-.3.6-.8.3-1.2-.3-.4-.8-.5-1.3-.3 0 0-.1 0-.1.1-.5.1-.7.7-.3 1.1-.1 0-.1 0 0 0zm-69.7 25.5c.2.3.4.6.6.8h-1.1c-.3.1-.7.3-1 .5v-1c-.2-.3-.4-.6-.6-.8h1.1c.3-.1.7-.3 1-.5-.1.3-.1.7 0 1zm2 51.9c.1-.2.4-.3.7-.2.2.1.3.4.2.6-.1.2-.4.3-.7.2-.3-.1-.4-.4-.2-.6zm-7.9 5.3c.4.2 1 .1 1.3-.3 0 0 0-.1.1-.1.3-.4.1-.9-.4-1.2-.5-.2-1.1-.1-1.4.3-.3.5-.2 1 .4 1.3zm3.9-9.9c1 .4 2.2.1 2.7-.7.5-.8.2-1.9-.8-2.3-1-.4-2.2-.2-2.7.7-.5.7-.2 1.8.8 2.3zm16.4 5.3c.4.2 1 .1 1.3-.3 0 0 0-.1.1-.1.3-.4.1-.9-.4-1.2-.5-.2-1.1-.1-1.4.3-.3.6-.1 1.1.4 1.3zM237.2 56.1c-.4-.1-.7-.2-1-.3.1.3.2.6.2.9-.1.3-.2.6-.4.9.4-.1.7-.2 1.1-.2.4.1.7.2 1 .3-.1-.3-.2-.6-.2-.9.1-.3.2-.6.4-.9-.4.1-.8.2-1.1.2zm-9.3-43.4c-.2.3-.3.6-.4.9 0 .3.1.6.2.9-.3-.1-.7-.3-1-.3-.4 0-.7.1-1.1.2.2-.3.3-.6.4-.9 0-.3-.1-.6-.2-.9.3.1.7.3 1 .3.4 0 .8-.1 1.1-.2zm-40.3 49.2c-.2.3-.3.6-.4.9 0 .3.1.6.2.9-.3-.1-.7-.3-1-.3-.4 0-.7.1-1.1.2.2-.3.3-.6.4-.9 0-.3-.1-.6-.2-.9.3.1.7.3 1 .3.4 0 .7-.1 1.1-.2zM198 43.6c-.2-.2-.1-.4.1-.6.2-.2.5-.1.7 0 .2.2.1.4-.1.6-.2.2-.5.1-.7 0zm-2.2 7.9c.4-.3.5-.9.1-1.2-.4-.4-1-.4-1.4-.1-.4.3-.5.9-.1 1.2.3.3.9.4 1.4.1-.1 0-.1 0 0 0zm11.8-5.3c.8-.6.9-1.7.2-2.4s-2-.8-2.8-.2h-.1c-.8.6-.9 1.7-.2 2.4.8.7 2 .8 2.9.2zm-10.9-12.8c.4-.3.5-.9.1-1.2-.3-.4-.9-.4-1.3-.1l-.1.1c-.4.3-.5.9-.1 1.2.4.2 1 .3 1.4 0zm-2.4 44.3c-.9.5-2.1.4-2.8-.4-.7-.8-.4-1.9.5-2.4s2.1-.4 2.8.4c.6.8.4 1.9-.5 2.4zm107.6-7.8c-.2.3-.3.6-.4.9 0 .3.1.6.2.9-.3-.1-.7-.3-1-.3-.4 0-.7.1-1.1.2.2-.3.3-.6.4-.9 0-.3-.1-.6-.2-.9.3.1.7.3 1 .3.3 0 .7-.1 1.1-.2zm-10.3-43.2c-.2.3-.3.6-.4.9 0 .3.1.6.2.9-.3-.1-.7-.3-1-.3-.4 0-.8.1-1.2.2.2-.3.3-.6.4-.9 0-.3-.1-.6-.2-.9.3.1.7.3 1 .3.4-.1.8-.1 1.2-.2zm-40.4 49.2c-.2.3-.3.6-.4.9 0 .3.1.6.2.9-.3-.1-.7-.3-1-.3-.4 0-.7.1-1.1.2.2-.3.3-.6.4-.9 0-.3-.1-.6-.2-.9.3.1.7.3 1 .3.4-.1.7-.1 1.1-.2zm10.4-18.3c-.2-.2-.1-.5.1-.6.2-.2.5-.1.7 0 .2.2.2.5-.1.6-.2.2-.5.1-.7 0zm-2.2 7.8c.4-.3.5-.9.1-1.2-.3-.4-.9-.4-1.3-.2 0 0-.1 0-.1.1-.4.3-.5.8-.1 1.2.3.4.9.5 1.4.1 0 .1 0 .1 0 0zm11.8-5.2c.8-.6.9-1.7.2-2.4s-1.9-.8-2.8-.2l-.1.1c-.8.6-.9 1.7-.2 2.4.8.6 2 .7 2.9.1zm-10.9-12.8c.4-.3.5-.8.1-1.2-.4-.4-1-.4-1.4-.1-.4.3-.5.9-.1 1.2.3.3.9.4 1.4.1zm-2.4 44.3c-.9.5-2.1.4-2.8-.4-.6-.8-.4-1.8.5-2.4.9-.5 2.1-.4 2.8.4.6.8.4 1.9-.5 2.4zm103.2-42.3c-.2.3-.3.6-.4.9 0 .3.1.6.2.9-.3-.1-.7-.3-1-.3-.4 0-.7.1-1.1.2.2-.3.3-.6.4-.9 0-.3-.1-.6-.2-.9.3.1.7.3 1 .3.4 0 .7-.1 1.1-.2zM350.8 6.2c-.2.3-.3.6-.4.9 0 .3.1.6.2.9-.3-.1-.7-.3-1-.3-.4 0-.7.1-1.1.2.2-.3.3-.6.4-.9 0-.3-.1-.6-.2-.9.3.1.7.3 1 .3.4-.1.7-.1 1.1-.2zm-40.3 49.2c-.2.3-.3.6-.4.9 0 .3.1.6.2.9-.3-.1-.7-.3-1-.3-.4 0-.7.1-1.1.2.2-.3.3-.6.4-.9 0-.3-.1-.6-.2-.9.3.1.7.3 1 .3.3-.1.7-.1 1.1-.2zm10.4-18.3c-.2-.2-.2-.5.1-.6.2-.2.5-.1.7 0 .2.2.1.4-.1.6-.2.1-.5.1-.7 0zm-2.3 7.8c.4-.3.5-.8.1-1.2-.3-.4-.9-.4-1.3-.2 0 0-.1 0-.1.1-.4.3-.5.9-.1 1.2.4.4 1 .5 1.4.1 0 .1 0 .1 0 0zm11.9-5.2c.8-.6.9-1.7.2-2.4s-1.9-.8-2.8-.3l-.1.1c-.8.6-.9 1.7-.2 2.4s1.9.8 2.9.2c-.1 0-.1 0 0 0zm-10.9-12.8c.4-.3.5-.9.1-1.2-.3-.4-.9-.4-1.3-.2 0 0-.1 0-.1.1-.4.3-.5.9-.1 1.2.3.3.9.4 1.4.1-.1 0 0 0 0 0zm4.5 44.8c.2.2.1.5-.1.6-.2.1-.5.1-.7-.1-.2-.2-.1-.5.1-.6.2-.1.5-.1.7.1zm3-7.7c-.5.3-.6.8-.2 1.2.3.4.9.5 1.3.3 0 0 .1 0 .1-.1.4-.3.6-.8.2-1.2-.2-.4-.8-.5-1.4-.2.1 0 .1 0 0 0zm-12.3 4.4c-.9.6-1.1 1.6-.5 2.4.6.8 1.9 1 2.8.4.9-.6 1.1-1.6.5-2.4-.6-.7-1.9-.9-2.8-.4zm9.6 13.6c-.4.3-.5.8-.2 1.2.3.4.9.5 1.3.3 0 0 .1 0 .1-.1.5-.3.6-.8.2-1.2-.3-.4-.9-.5-1.4-.2 0-.1 0-.1 0 0zm-33.3-58.7c-.3.2-.6.3-.9.6 0-.3 0-.6-.1-.9-.2-.3-.4-.6-.7-.8.4 0 .7 0 1.1-.1.3-.2.6-.3.9-.6 0 .3 0 .6.1.9.2.3.4.6.6.8-.2.1-.6.1-1 .1zM231 27.6c.2.1.4.4.2.6-.1.2-.4.3-.7.2-.2-.1-.4-.4-.2-.6.2-.2.5-.3.7-.2zm-6.5-6.5c-.2.4 0 .9.5 1.1.5.2 1 .1 1.3-.3 0 0 0-.1.1-.1.2-.4 0-.9-.5-1.1-.5-.2-1.1 0-1.4.4zm11.7 2.9c-.5.9-.1 1.9.9 2.3 1 .4 2.2.1 2.7-.8s.1-1.9-.9-2.3c-1-.4-2.2-.1-2.7.8zm-5.3 14.4c-.2.4 0 .9.5 1.1.5.2 1 .1 1.3-.3v-.1c.2-.4 0-.9-.5-1.2-.5-.2-1-.1-1.3.3v.2zM133 41.9c.4.1.7.2 1 .3-.1-.3-.2-.6-.2-.9.1-.3.2-.6.4-.9-.4.1-.7.2-1.1.2-.4-.1-.7-.2-1-.3.1.3.2.6.2.9-.1.3-.2.6-.4.9.3-.1.7-.1 1.1-.2zm10 43.3c.2-.3.3-.6.4-.9 0-.3-.1-.6-.2-.9.3.1.7.3 1 .3.4 0 .7-.1 1.1-.2-.2.3-.3.6-.4.9 0 .3.1.6.2.9-.3-.1-.7-.2-1-.3-.4.1-.7.2-1.1.2zm39.5-49.7c.2-.3.3-.6.4-.9 0-.3-.1-.6-.2-.9.3.1.7.3 1 .3.4 0 .7-.1 1.1-.2-.2.3-.3.6-.4.9 0 .3.1.6.2.9-.3-.1-.7-.2-1-.3-.4 0-.8.1-1.1.2zM172.3 54c.2.2.2.4 0 .6-.2.2-.5.1-.7 0-.2-.2-.2-.5.1-.6.1-.2.4-.2.6 0zm2.2-7.9c-.4.3-.5.9-.1 1.2.3.3.9.4 1.3.1l.1-.1c.4-.3.5-.9.1-1.2-.3-.3-.9-.4-1.4 0 0-.1 0-.1 0 0zm-11.8 5.4c-.8.6-.9 1.7-.2 2.4s1.9.8 2.8.2h.1c.8-.6.9-1.7.2-2.4s-2-.8-2.9-.2zm11.1 12.7c-.4.3-.5.9-.1 1.2.3.4.9.4 1.3.1 0 0 .1 0 .1-.1.4-.3.5-.9.1-1.2-.3-.3-.9-.4-1.4 0 .1-.1 0-.1 0 0zm1.7-44.4c.9-.6 2.1-.4 2.8.3.7.8.5 1.8-.4 2.4-.9.6-2.1.4-2.8-.3-.7-.8-.5-1.9.4-2.4 0-.1 0-.1 0 0zM68.1 29.1c.2-.3.3-.6.4-.9 0-.3-.1-.6-.2-.9.3.1.7.2 1 .3.4 0 .7-.1 1.1-.2-.2.3-.3.6-.4.9 0 .3.1.6.2.9-.3-.1-.7-.2-1-.3-.4 0-.8 0-1.1.2zm11.1 43.1c.2-.3.3-.6.4-.9 0-.3-.1-.6-.2-.9.3.1.7.2 1 .3.4-.1.7-.1 1.1-.3-.2.3-.3.6-.4.9 0 .3.1.6.2.9-.3-.1-.7-.3-1-.3-.4 0-.8.1-1.1.3zm39.4-49.8c.2-.3.3-.6.4-.9 0-.3-.1-.6-.2-.9.3.1.7.2 1 .3.4 0 .7-.1 1.1-.2-.2.3-.3.6-.4.9 0 .3.1.6.2.9-.3-.1-.7-.3-1-.3-.4 0-.7.1-1.1.2zm-10.1 18.5c.2.2.2.4 0 .6-.2.2-.5.1-.7 0-.2-.2-.2-.4 0-.6.2-.2.5-.2.7 0 0-.1 0-.1 0 0zm2.1-7.9c-.4.3-.5.9-.1 1.2.3.3.9.4 1.3.1l.1-.1c.4-.3.5-.9.1-1.2-.3-.3-.9-.4-1.4 0 .1-.1 0-.1 0 0zm-11.7 5.4c-.9.6-.9 1.7-.2 2.4s1.9.8 2.8.2h.1c.8-.6.9-1.7.2-2.4-.8-.8-2-.9-2.9-.2 0-.1 0-.1 0 0zM110 51c-.4.3-.5.9-.1 1.2.3.4.9.4 1.3.1 0 0 .1 0 .1-.1.4-.3.5-.9.1-1.2-.3-.3-.9-.3-1.4 0zm1.6-44.4c.9-.6 2.1-.4 2.8.3l.1.1c.7.8.5 1.8-.4 2.4-.9.6-2.1.4-2.8-.3-.7-.8-.5-1.9.3-2.5zM9.2 50.3c.2-.3.3-.6.4-.9 0-.3-.1-.6-.2-.9.3.1.7.2 1 .3.4 0 .7-.1 1.1-.2-.2.3-.3.6-.4.9 0 .3.1.6.2.9-.3-.1-.7-.2-1-.3-.4 0-.8.1-1.1.2zm11.1 43.1c.2-.3.3-.6.4-.9 0-.3-.1-.6-.2-.9.3.1.7.2 1 .3.4 0 .7-.1 1.1-.2-.2.3-.3.6-.4.9 0 .3.1.6.2.9-.3-.1-.7-.2-1-.3-.4 0-.7.1-1.1.2zm39.5-49.7c.2-.3.3-.6.4-.9 0-.3-.1-.6-.2-.9.3.1.7.2 1 .3.4 0 .7-.1 1.1-.2-.2.3-.3.6-.4.9 0 .3.1.6.2.9-.3-.1-.7-.2-1-.3-.4.1-.8.1-1.1.2zM49.6 62.2c.2.2.2.4 0 .6-.2.2-.5.2-.7 0-.2-.2-.2-.4 0-.6.2-.2.5-.2.7 0 0-.1 0-.1 0 0zm2.2-7.9c-.4.3-.5.9-.1 1.2.3.3.9.4 1.3.1l.1-.1c.4-.3.5-.9.1-1.2-.3-.4-.9-.5-1.3-.2-.1.1-.1.1-.1.2zM40 59.7c-.8.6-.9 1.7-.2 2.4s2 .8 2.8.2h.1c.8-.6.9-1.7.2-2.4s-1.9-.9-2.8-.3c-.1 0-.1 0-.1.1zm11.1 12.6c-.4.3-.4.8 0 1.2.3.4.9.4 1.3.1 0 0 .1 0 .1-.1.4-.3.5-.9.1-1.2-.3-.4-.9-.4-1.3-.2l-.2.2zm-5.4-44.8c-.2-.2-.1-.5.1-.6.2-.1.5-.1.7.1.2.2.1.5-.1.6-.2.1-.5.1-.7-.1zm-2.8 7.8c.4-.3.5-.8.2-1.2-.3-.4-.9-.5-1.3-.2h-.1c-.4.3-.5.8-.2 1.2.2.4.8.5 1.4.2-.1 0-.1 0 0 0zm12.2-4.6c.9-.6 1.1-1.6.4-2.4-.6-.8-1.9-1-2.8-.4 0 0-.1 0-.1.1-.9.6-1.1 1.6-.4 2.4.6.8 1.8 1 2.7.4l.2-.1zm-9.8-13.4c.4-.3.5-.8.2-1.2-.3-.4-1-.5-1.4-.2-.4.3-.5.8-.2 1.2.3.4.9.5 1.4.2zm34.3 58.2.9-.6c0 .3 0 .6.1 1 .2.3.4.5.7.8-.4 0-.7 0-1.1.1l-.9.6c0-.3 0-.6-.1-1-.2-.3-.4-.5-.7-.8.4-.1.7-.1 1.1-.1zm60-5.2c-.3-.1-.4-.4-.3-.6.1-.2.4-.3.7-.2.3.1.4.4.2.6 0 .2-.3.3-.6.2zm6.7 6.5c.2-.4 0-.9-.5-1.1-.5-.2-1 0-1.3.3v.1c-.2.4 0 .9.5 1.1.5.2 1.1 0 1.3-.4zm-11.8-2.7c.5-.9.1-1.9-.9-2.3-1-.4-2.2 0-2.6.8-.5.9 0 1.9 1 2.3.9.4 2.1 0 2.5-.8 0-.1 0-.1 0 0zm5.1-14.5c.2-.4 0-.9-.5-1.1-.5-.2-1-.1-1.3.3v.1c-.2.4 0 .9.5 1.1.5.2 1.1 0 1.3-.4z"/></g></g></g></svg>