<svg version="1.1" id="Layer_1" xmlns="http://www.w3.org/2000/svg" x="0" y="0" viewBox="0 0 469.5 491" style="enable-background:new 0 0 469.5 491" xml:space="preserve"><style>.st1{fill:#cfeaff}.st2{fill:#f4f7fe}</style><g style="opacity:.8"><g id="Layer_2_1_"><g id="OBJECT"><path class="st1" d="M0 0h244.7c15.7 20.1 39.2 63.8 16.2 126.4 0 0 63 7.5 46.8 75.1 0 0 49.7 12.2 33.4 63.8 0 0 66.9 15 46.8 90.1 0 0 104.4 22.9 77 135.6H0"/><path class="st2" d="M40 58c-14.9 6.5-27.2 6.6-34.6.1C2.9 55.9 1 53.1 0 50V28.6c.3-1.4.7-2.8 1.1-4.2C3.9 15.8 7.7 7.6 12.5 0H16C11 7.8 6.9 16.3 4 25.2c-1.7 5.2-2.6 10.7-2.5 16.2.2 6.3 2.2 11.3 5.9 14.5 6.5 5.6 17.6 5.4 31.4-.6C52.9 49.1 68 37.6 81.2 22.9c6.4-7.1 12.1-14.7 17-22.9h3.5c-5.2 8.9-11.3 17.2-18.2 24.8C70 39.9 54.5 51.6 40 58zm36.6 292.6c20.7-9 37.8-9.1 48-.3 6 5.2 9.2 13.1 9.5 23 .2 7-1 15-3.7 23.9-6.4 21-20.3 44.1-39.2 65.1-9.5 10.6-19.9 20.2-31.2 28.7h-5.1c12.4-9 23.8-19.3 34-30.7 18.6-20.7 32.3-43.5 38.6-64 6.2-20.1 4.4-35.7-4.8-43.7s-25.2-7.8-44.8.8c-20 8.7-41.2 24.9-59.8 45.6-6.5 7.3-12.6 15-18.1 23v-5.3c4.9-6.9 10.2-13.5 15.8-19.7 18.9-21 40.5-37.5 60.8-46.4z"/><path class="st2" d="M25.1 36.1C33.6 43.4 55 33.7 72 14.9c4.1-4.6 7.8-9.6 11-14.9h3.5C83 6 78.9 11.7 74.2 16.9 55.6 37.7 33.1 47.1 23 38.4c-7.8-6.8-5.5-22.1 4.6-38.4h3.7c-9.9 15.3-12.9 30.3-6.2 36.1zm308.4 446.1c-19.6-6.4-41-19.7-60.2-37.4s-34.2-37.8-42-56.5c-8-19.2-7.6-34.9 1.1-44.1s24.6-10.7 44.7-4.1c19.6 6.4 41 19.7 60.2 37.4s34.2 37.8 42 56.5c8 19.2 7.6 34.9-1.1 44.1-5.1 5.4-12.8 8.1-22.2 8.1-7.7-.2-15.2-1.5-22.5-4zm41.8-6.8c7.6-8 7.8-22.2.4-40-7.6-18.2-22.2-37.8-41.1-55.2-18.9-17.4-39.8-30.3-58.8-36.5-6.8-2.4-14-3.7-21.2-3.9-8.3 0-14.9 2.3-19.3 6.9-7.6 8-7.8 22.2-.4 40 7.6 18.2 22.2 37.8 41.1 55.2s39.8 30.3 58.8 36.5c18.5 6.1 32.9 5 40.5-3zm-372.7 11c-1.7-2.1-2.6-4.7-2.6-7.3V477c.9 2.7 2.5 5.2 4.6 7.1 6.5 5.6 17.6 5.4 31.4-.6 14.1-6.2 29.2-17.7 42.4-32.4s22.9-30.8 27.3-45.4c4.3-14.2 3.2-25.1-3.3-30.7s-17.6-5.4-31.4.6c-14.1 6.2-29.2 17.7-42.4 32.4S5.7 438.8 1.3 453.4c-.5 1.7-.9 3.3-1.3 4.9v-10.5c5.1-13.6 14.3-28.3 26.4-41.7 13.5-15 28.9-26.8 43.4-33.1 14.9-6.5 27.2-6.5 34.6-.1 4.4 3.8 6.7 9.5 6.9 16.7 0 5.8-.9 11.6-2.7 17.1-4.6 15-14.5 31.5-28 46.5S51.8 480 37.2 486.3c-5.4 2.4-11.1 4-16.9 4.7h-6.4c-4.2-.3-8.1-1.9-11.3-4.6z"/><path class="st2" d="M284.2 433.4c-26.7-24.5-38.3-53.5-26.5-66s42.1-3 68.8 21.5c12.5 11.5 22.2 24.6 27.3 36.8 5.3 12.7 5 23.1-.9 29.2-3.5 3.6-8.5 5.5-14.9 5.5-5-.1-10-1-14.7-2.6-12.7-4.3-26.6-12.9-39.1-24.4zm65.8 18.8c4.7-5 4.8-13.9.1-25.1-4.9-11.7-14.2-24.3-26.4-35.4-24.2-22.3-53.2-32.2-63.2-21.7s2 38.2 26.3 60.5c12.1 11.2 25.5 19.5 37.7 23.5 11.8 3.8 20.8 3.1 25.5-1.8z"/><path class="st2" d="M405 445c-10.7-25.7-31.3-53.4-57.9-77.8s-56.1-42.8-82.9-51.5c-26.3-8.6-46.9-7-57.8 4.5s-11.2 31.8-.7 57c10.7 25.7 31.3 53.4 57.9 77.8 14.9 13.8 31.2 25.8 48.7 36h-7.7c-15.6-9.6-30.3-20.7-43.8-33.2-27-24.8-48-53-58.9-79.2-11.1-26.7-10.6-48.5 1.4-61.1s34.1-14.7 62-5.6c27.4 9 57.4 27.5 84.4 52.4s48 53 58.9 79.2c7.8 18.8 9.9 35.1 6.2 47.5h-4.1c3.9-11.7 2-27.5-5.7-46z"/><path class="st2" d="M251.8 465.6c-32.7-30-58-64-71.2-95.7-13.4-32.2-12.8-58.3 1.7-73.6s41-17.6 74.6-6.6c33.1 10.8 69.3 33.3 102 63.3s58 64 71.2 95.7c6.6 15.8 9.8 30 9.6 42.3h-3.9c.1-11.8-3-25.5-9.4-40.9-13-31.2-37.9-64.7-70.2-94.3s-68-51.8-100.5-62.5c-13.6-4.4-25.9-6.6-36.5-6.6-14.6 0-26.2 4.1-33.9 12.2-13.4 14.1-13.7 38.7-.9 69.4 13 31.2 37.9 64.7 70.2 94.3 11 10.2 22.7 19.6 35 28.3h-6.7c-10.9-7.8-21.2-16.3-31.1-25.3zm-188-73c9.8-4.3 18-4.3 23 0 2.9 2.5 4.5 6.4 4.6 11.1 0 3.8-.6 7.6-1.7 11.3-3 9.7-9.4 20.5-18.2 30.2-18.6 20.8-41.1 30.2-51.2 21.5s-3.3-31.8 15.3-52.6c8.7-9.7 18.7-17.4 28.2-21.5zm-41.5 71.9c8.5 7.4 29.9-2.4 46.9-21.2 8.5-9.4 14.7-19.8 17.6-29.1 2.7-8.9 2-15.8-2-19.3s-11-3.3-19.7.5c-9 4-18.7 11.3-27.2 20.8-17 18.8-24.1 40.9-15.6 48.3zm264.4-273c-5-.1-10-1-14.7-2.6-12.7-4.2-26.6-12.8-39.2-24.3-26.7-24.5-38.3-53.5-26.4-66 10.4-11 35.1-5 59.1 13.3-.4 1.4-.7 2.7-1.1 4.1-22.3-17.3-46.2-24.2-55.1-14.8-10 10.5 2 38.2 26.3 60.5 12.1 11.1 25.5 19.5 37.7 23.4 11.7 3.8 20.7 3.2 25.5-1.8s4.8-13.9.1-25.1c-3.9-8.8-9.2-17-15.6-24.3 3.9 2.1 7.5 4.7 10.8 7.6 3.3 4.8 6.1 9.8 8.4 15.1 5.3 12.7 5 23.1-.9 29.2-3.5 3.8-8.6 5.7-14.9 5.7z"/><path class="st2" d="M282.1 213.3c-19.6-6.3-41-19.7-60.3-37.3s-34.2-37.8-42-56.6c-8-19.2-7.6-34.9 1.1-44.1s24.6-10.7 44.7-4.1c14 4.6 28.9 12.7 43.3 23.4-.2 1.4-.4 2.9-.7 4.4-14.6-11.1-29.8-19.4-43.9-24.1-6.8-2.4-14-3.7-21.3-3.9-8.3 0-14.9 2.3-19.3 6.9-7.6 8-7.8 22.2-.4 40 7.6 18.2 22.2 37.8 41.1 55.2s39.8 30.3 58.8 36.5c17.4 5.7 31.1 5.1 39-1.6 1.1.7 2.2 1.4 3.3 2.2-5.1 4.7-12.3 7.1-21.2 7.1-7.4-.1-14.9-1.5-22.2-4z"/><path class="st2" d="M293.8 241.4c-27.4-8.9-57.4-27.6-84.4-52.4s-47.9-53-58.9-79.2c-11.1-26.7-10.6-48.5 1.4-61.2s34.1-14.7 62-5.6c18.2 6 37.5 16.2 56.4 29.7v4.8c-19.3-14.1-39.1-24.7-57.7-30.8-26.3-8.6-46.9-7-57.8 4.5s-11.2 31.8-.7 57c10.7 25.7 31.3 53.4 57.9 77.8s56.1 42.8 82.9 51.5c20.3 6.6 37.1 7.2 48.8 1.8.2 1.3.3 2.7.4 4.1-6.1 2.4-12.6 3.5-19.1 3.4-9.1.3-19.6-1.6-31.2-5.4zM33.2 80.4c-12.7 5.5-24 7.7-33.2 6.5v-3c8.7 1.2 19.6-.9 31.9-6.3C51.8 68.9 73.1 52.7 91.7 32c8.9-9.9 16.9-20.6 23.8-32h3.5c-7.2 12.1-15.6 23.5-25 34-18.9 21-40.5 37.5-60.8 46.4zM95.1 467c22.5-25.1 39.1-52.7 46.7-77.6 7.5-24.5 5.4-43.4-5.9-53.2s-30.7-9.5-54.5.9C57.2 347.6 31.5 367.3 9 392.4c-3.1 3.5-6.1 7-9 10.6v-4.8c2.2-2.6 4.4-5.2 6.7-7.8C29.5 365 55.6 345 80.2 334.3c25-10.9 45.5-11 57.8-.4 7.2 6.2 11 15.7 11.4 27.6.2 8.4-1.2 18.1-4.5 28.8-7.7 25.3-24.6 53.2-47.4 78.7-6.9 7.7-14.3 15.1-22.1 22h-4.6c8.6-7.5 16.7-15.5 24.3-24z"/><path class="st2" d="M269.3 58.4c-21.8-15.3-44.1-27-65-33.8-13.6-4.4-25.9-6.6-36.5-6.6-14.6 0-26.2 4.1-33.9 12.2-13.4 14.1-13.7 38.7-.9 69.4 13 31.2 37.9 64.7 70.2 94.3s68 51.8 100.5 62.4c14.2 4.7 27.1 6.8 38.1 6.6-.2.8-.5 1.5-.7 2.3 0 0 1.8.4 4.6 1.4-1.8.1-3.6.2-5.5.2-11.1 0-23.9-2.3-37.8-6.8-33.1-10.8-69.3-33.3-102-63.3s-57.9-64-71.2-95.7c-13.4-32.2-12.8-58.3 1.7-73.6s41-17.6 74.6-6.6c20.3 6.6 41.8 17.7 63 32.2.3 1.8.5 3.6.8 5.4zM42.4 162.2c14.9-6.5 27.2-6.6 34.6-.1 4.4 3.8 6.7 9.5 6.9 16.7 0 5.8-.9 11.6-2.7 17.1-4.6 15-14.5 31.5-28 46.5s-28.9 26.8-43.4 33.1c-3.2 1.4-6.5 2.6-9.8 3.4v-3.1c2.9-.8 5.8-1.9 8.6-3.1 14.1-6.2 29.2-17.7 42.4-32.4s22.9-30.8 27.4-45.4c4.3-14.2 3.2-25.1-3.3-30.7s-17.6-5.4-31.4.6c-14.1 6.2-29.2 17.7-42.4 32.4L0 198.7v-4.5c13.2-14.5 28.2-25.8 42.4-32z"/><path class="st2" d="M36.4 181.8c9.8-4.3 18-4.3 23 0 2.9 2.5 4.5 6.4 4.6 11.1 0 3.8-.6 7.6-1.8 11.2-3 9.7-9.4 20.5-18.2 30.2-15 16.8-32.5 26.2-44 24.7v-3.1c10.2 1.7 27.6-7.7 41.7-23.5 8.5-9.4 14.7-19.8 17.6-29.1 2.7-8.9 2-15.8-2-19.3s-11-3.3-19.7.5c-9.1 4-18.7 11.3-27.2 20.8-3.9 4.3-7.4 9-10.4 14v-5.7c2.5-3.6 5.2-7 8.2-10.3 8.7-9.8 18.7-17.4 28.2-21.5z"/><path class="st2" d="M97.2 139.5c6 5.2 9.2 13.1 9.5 23 .2 7-1 15-3.7 23.9-6.4 20.9-20.3 44.1-39.2 65.1S23.3 289 3 297.9l-3 1.2v-3.3c.6-.2 1.1-.5 1.7-.7 20-8.7 41.2-24.9 59.8-45.6s32.3-43.4 38.6-64c6.2-20.1 4.4-35.7-4.8-43.7s-25.3-7.8-44.8.7c-16.7 7.3-34.3 19.8-50.5 35.9v-4.2c15.9-15.3 32.9-27.3 49.2-34.4 20.8-9 37.8-9.2 48-.3z"/><path class="st2" d="M110.6 123.1c7.2 6.2 11 15.7 11.4 27.6.2 8.4-1.2 18.1-4.5 28.8-7.7 25.3-24.6 53.3-47.4 78.7-21.7 24.2-46.5 43.5-70 54.5v-3.3c22.8-11 46.7-29.7 67.7-53.1 22.5-25.1 39.1-52.7 46.7-77.6 7.5-24.5 5.4-43.4-6-53.2s-30.7-9.5-54.5.9c-17.7 7.7-36.4 20.5-54 36.7V159c17.2-15.5 35.4-27.7 52.8-35.3 25-11.1 45.5-11.2 57.8-.6zM26.7 96.7c-8.5 3.9-17.5 6.5-26.7 7.8v-3c8.8-1.3 17.4-3.8 25.5-7.5 24.2-10.6 49.9-30.2 72.4-55.3 10.8-12 20.5-24.9 28.8-38.7h3.5c-8.7 14.5-18.8 28.1-30.1 40.7-22.7 25.4-48.8 45.3-73.4 56z"/><path class="st1" d="M160.8 48.5c.4.1.7.3 1.1.5-.1-.4-.2-.8-.2-1.2.1-.4.3-.7.5-1.1-.4.1-.8.2-1.2.2-.4-.1-.7-.3-1.1-.5.1.4.2.8.2 1.1-.1.4-.3.7-.5 1.1.4-.1.8-.1 1.2-.1zm7.2 53.4c.2-.3.4-.7.5-1.1 0-.4-.1-.8-.2-1.2.3.2.7.4 1.1.5.4 0 .8-.1 1.2-.2-.2.3-.4.7-.5 1.1 0 .4.1.8.2 1.2-.3-.2-.7-.4-1.1-.5-.4 0-.8.1-1.2.2zm46-58c.2-.3.4-.7.5-1.1 0-.4-.1-.8-.2-1.1.3.2.7.3 1.1.5.4 0 .8-.1 1.2-.2-.2.3-.4.7-.5 1.1 0 .4.1.8.2 1.1-.3-.2-.7-.3-1.1-.5-.4 0-.8.1-1.2.2zm-12.2 21.8c.2.2.1.6-.1.7-.2.2-.6.1-.8-.1-.2-.2-.1-.6.1-.7.3-.2.6-.2.8.1zm2.9-9.5c-.5.3-.6.9-.3 1.4 0 0 0 .1.1.1.4.5 1 .5 1.5.2s.6-.9.3-1.4c0 0 0-.1-.1-.1-.4-.5-1.1-.6-1.5-.2zm-13 5.8c-.9.7-1.1 2-.4 2.9.7.9 2.1 1.1 3 .4.9-.7 1.1-2 .5-2.9 0 0 0-.1-.1-.1-.7-.9-2.1-1-3-.3zm10.9 16.1c-.5.3-.6.9-.3 1.4 0 0 0 .1.1.1.4.5 1 .5 1.5.2s.6-.9.3-1.4c0 0 0-.1-.1-.1-.4-.4-1.1-.5-1.5-.2zm5.2-54c1-.7 2.3-.4 3 .6.6 1 .4 2.2-.6 2.9-1 .7-2.3.4-3-.6-.6-.9-.3-2.2.6-2.9zM92.5 28.5c.2-.3.4-.7.5-1.1 0-.4-.1-.8-.2-1.1.3.2.7.4 1.1.5.4 0 .8-.1 1.2-.2-.2.3-.4.7-.5 1.1 0 .4.1.8.2 1.1-.3-.2-.7-.4-1.1-.5-.4 0-.8.1-1.2.2zm8.5 53.2c.2-.3.4-.7.5-1.1 0-.4-.1-.8-.2-1.2.3.2.7.4 1.1.5.4 0 .8-.1 1.2-.2-.2.3-.4.7-.5 1.1 0 .4.1.8.2 1.1-.3-.2-.7-.3-1.1-.5l-1.2.3zm46-58c.2-.3.4-.7.5-1.1 0-.4-.1-.8-.2-1.1.3.2.7.3 1.1.5.4 0 .8-.1 1.2-.2-.2.3-.4.7-.5 1.1 0 .4.1.8.2 1.1-.3-.2-.7-.4-1.1-.5-.4 0-.8.1-1.2.2zm-12.3 21.8c.2.2.1.6-.1.7-.2.2-.6.1-.8-.1-.2-.2-.1-.5.1-.7.3-.2.6-.1.8.1zm2.9-9.5c-.5.3-.6.9-.3 1.4 0 0 0 .1.1.1.4.5 1 .5 1.5.2s.6-.9.3-1.4c0 0 0-.1-.1-.1-.3-.5-1-.6-1.5-.2zm-13 5.8c-.9.7-1.1 2-.5 2.9 0 0 0 .1.1.1.7.9 2.1 1.1 3 .4.9-.7 1.1-2 .5-2.9 0 0 0-.1-.1-.1-.7-.9-2-1-3-.4zM135.5 58c-.5.3-.6.9-.3 1.4 0 0 0 .1.1.1.4.5 1 .5 1.5.2s.6-.9.3-1.4c0 0 0-.1-.1-.1-.4-.5-1-.6-1.5-.2zm5.3-54c1-.7 2.3-.4 3 .6.6 1 .4 2.3-.6 2.9-1 .7-2.3.4-3-.6-.7-.9-.4-2.2.6-2.9-.1 0-.1 0 0 0zM28 50.5c.2-.3.4-.7.5-1.1 0-.4-.1-.8-.2-1.2.3.2.7.4 1.1.5.4 0 .8-.1 1.2-.2-.2.3-.4.7-.5 1.1 0 .4.1.8.2 1.2-.3-.2-.7-.4-1.1-.5-.4.1-.8.1-1.2.2zm8.5 53.3c.2-.3.4-.7.5-1.1 0-.4-.1-.8-.2-1.2.3.2.7.4 1.1.5.4 0 .8-.1 1.2-.2-.2.3-.4.7-.5 1.1 0 .4.1.8.2 1.1-.3-.2-.7-.3-1.1-.5-.5.1-.8.2-1.2.3zm45.9-58c.2-.3.4-.7.6-1 0-.4-.1-.8-.2-1.1.3.2.7.3 1.1.5.4 0 .7-.1 1.1-.2-.2.3-.4.7-.5 1.1 0 .4.1.8.2 1.2-.3-.2-.7-.4-1.1-.5-.4-.2-.7-.1-1.2 0zM70.2 67.6c.2.2.1.6-.1.7-.2.2-.6.1-.8-.1-.2-.2-.1-.5.1-.7.3-.2.6-.1.8.1zm2.9-9.5c-.5.3-.6.9-.3 1.4 0 0 0 .1.1.1.4.5 1 .5 1.5.2s.6-.9.3-1.4c0 0 0-.1-.1-.1-.3-.5-1-.6-1.5-.2zm-13 5.9c-.9.7-1.1 2-.5 2.9 0 0 0 .1.1.1.7.9 2.1 1.1 3 .4.9-.7 1.1-2 .5-2.9 0 0 0-.1-.1-.1-.7-.9-2-1.1-3-.4zM71 80.1c-.5.3-.6.9-.3 1.4 0 0 0 .1.1.1.4.5 1 .5 1.5.2.5-.4.5-1 .2-1.5-.4-.5-1-.6-1.5-.2zm-2.1-54.9c-.2-.2-.1-.6.1-.7.2-.2.6-.1.7.2.2.2.1.6-.2.7s-.5 0-.6-.2zm-3.8 9.2c.5-.3.6-.9.4-1.4v-.1c-.3-.5-1-.7-1.5-.3-.5.3-.6.9-.4 1.4 0 0 0 .1.1.1.3.5 1 .6 1.4.3zm13.5-4.7c1-.6 1.3-1.9.7-2.9-.6-1-2-1.3-3-.6-1 .6-1.2 1.9-.6 2.9.6.9 1.9 1.2 2.9.6zm-9.4-17c.5-.3.7-.9.4-1.4 0 0 0-.1-.1-.1-.3-.5-1-.6-1.5-.3s-.6 1-.3 1.4c.3.6 1 .7 1.5.4zm32 73.1c.4-.2.7-.4 1-.6v1.2c.2.4.4.7.7 1h-1.2c-.4.2-.7.4-1 .6v-1.2c-.2-.4-.4-.7-.7-1h1.2zm64.4-2.3c-.3-.1-.4-.4-.2-.7.1-.3.5-.3.7-.2.3.1.4.4.2.7-.1.2-.4.3-.7.2zm6.6 8.2c.3-.5.1-1.1-.3-1.4h-.1c-.5-.3-1.2-.1-1.4.4-.3.5-.1 1.1.3 1.4h.1c.5.3 1.1.2 1.4-.4zm-12.3-4.1c.6-1 .2-2.3-.8-2.8s-2.3-.2-2.9.9c-.6 1-.2 2.3.8 2.8h.1c.9.5 2.2.2 2.8-.9zm6.5-17.2c.3-.5.1-1.1-.4-1.4-.5-.3-1.2-.1-1.4.4-.3.5-.1 1.1.3 1.4h.1c.5.3 1.2.1 1.4-.4zm141.2 250.7c.4.1.7.3 1.1.5-.1-.4-.2-.8-.2-1.1.1-.4.3-.7.5-1.1-.4.1-.8.2-1.2.2-.4-.1-.7-.3-1.1-.5.1.4.2.8.2 1.1-.1.4-.3.7-.5 1.1.5-.2.9-.2 1.2-.2zm7.3 53.4c.2-.3.4-.7.5-1.1 0-.4-.1-.8-.2-1.1.3.2.7.3 1.1.5.4 0 .8-.1 1.2-.2-.2.3-.4.7-.5 1.1 0 .4.1.8.2 1.1-.3-.2-.7-.4-1.1-.5-.4 0-.8.1-1.2.2zm46-58c.2-.3.4-.7.5-1.1 0-.4-.1-.8-.2-1.1.3.2.7.4 1.1.5.4 0 .8-.1 1.2-.2-.2.3-.4.7-.5 1.1 0 .4.1.8.2 1.1-.3-.2-.7-.4-1.1-.5-.4 0-.7.1-1.2.2zm-12.2 21.8c.2.2.2.5-.1.7-.2.2-.6.1-.8-.1-.2-.2-.1-.6.1-.7.3-.2.6-.1.8.1zm2.9-9.5c-.5.4-.5 1-.2 1.5.4.5 1 .5 1.5.2s.6-.9.3-1.4c0 0 0-.1-.1-.1-.4-.5-1-.6-1.5-.2zm-13 5.8c-.9.7-1.1 2-.5 2.9 0 0 0 .1.1.1.7.9 2.1 1.1 3 .4.9-.7 1.1-2 .4-2.9 0 0 0-.1-.1-.1-.7-.9-2-1.1-2.9-.4zm10.8 16.2c-.5.3-.6.9-.3 1.4 0 0 0 .1.1.1.4.5 1 .5 1.5.2s.6-.9.3-1.4v-.1c-.4-.5-1-.6-1.6-.2.1 0 .1 0 0 0zm5.3-54c1-.7 2.3-.4 3 .6.6 1 .4 2.3-.6 2.9-1 .7-2.3.4-3-.6-.6-1-.3-2.3.6-2.9zM239.4 301c.2-.3.4-.7.5-1.1 0-.4-.1-.8-.2-1.1.3.2.7.3 1.1.5.4 0 .8-.1 1.2-.2-.2.3-.4.7-.5 1.1 0 .4.1.8.2 1.1-.3-.2-.7-.4-1.1-.5-.4.1-.8.2-1.2.2zm8.4 53.2c.2-.3.4-.7.5-1.1 0-.4-.1-.8-.2-1.1.3.2.7.4 1.1.5.4 0 .8-.1 1.2-.2-.2.3-.4.7-.5 1.1 0 .4.1.8.2 1.1-.3-.2-.7-.4-1.1-.5-.4.1-.8.2-1.2.2zm46-58c.2-.3.4-.7.5-1.1 0-.4-.1-.8-.2-1.1.3.2.7.4 1.1.5.4 0 .8-.1 1.2-.2-.2.3-.4.7-.5 1.1 0 .4.1.8.2 1.1-.3-.2-.7-.3-1.1-.5-.4.1-.8.2-1.2.2zM281.6 318c.2.2.1.6-.1.7-.2.2-.6.1-.8-.1-.2-.2-.1-.6.1-.7.3-.1.6-.1.8.1 0 .1 0 .1 0 0zm2.9-9.5c-.5.3-.6.9-.3 1.4 0 0 0 .1.1.1.4.5 1 .5 1.5.2s.6-.9.3-1.4c0 0 0-.1-.1-.1-.4-.4-1-.4-1.5-.2zm-13 5.9c-.9.7-1.1 2-.4 2.9.7.9 2.1 1.1 3 .4.9-.7 1.1-2 .4-2.9-.8-.9-2.1-1-3-.4zm10.9 16.1c-.5.3-.6.9-.3 1.4 0 0 0 .1.1.1.4.5 1 .5 1.5.2s.6-.9.3-1.4c0 0 0-.1-.1-.1-.4-.4-1.1-.4-1.5-.2zm5.2-54c1-.7 2.3-.4 3 .6.6 1 .4 2.2-.6 2.9-1 .7-2.3.4-3-.6-.6-1-.3-2.2.7-2.8l-.1-.1zm-112.7 46.7c.2-.3.4-.7.5-1.1 0-.4-.1-.8-.2-1.1.3.2.7.3 1.1.5.4 0 .8-.1 1.2-.2-.2.3-.4.7-.5 1.1 0 .4.1.8.2 1.1-.3-.2-.7-.3-1.1-.5-.4 0-.8.1-1.2.2zm8.5 53.2c.2-.3.4-.7.5-1.1 0-.4-.1-.8-.2-1.1.3.2.7.4 1.1.5.4 0 .8-.1 1.2-.2-.2.3-.4.7-.5 1.1 0 .4.1.8.2 1.1-.3-.2-.7-.4-1.1-.5-.5 0-.8.1-1.2.2zm46-58c.2-.3.4-.7.5-1.1 0-.4-.1-.8-.2-1.1.3.2.7.4 1.1.5.4 0 .8-.1 1.2-.2-.2.3-.4.7-.5 1.1 0 .4.1.8.2 1.1-.3-.2-.7-.3-1.1-.5-.4 0-.8.1-1.2.2zm-12.3 21.8c.2.2.1.6-.1.7-.2.2-.6.1-.8-.1-.2-.2-.1-.6.1-.7.3-.2.6-.1.8.1zm2.9-9.5c-.5.3-.6.9-.3 1.4 0 0 0 .1.1.1.4.5 1 .5 1.5.2s.6-.9.3-1.4c0 0 0-.1-.1-.1-.4-.5-1-.6-1.5-.2zm-13 5.8c-.9.7-1.1 2-.5 2.9 0 0 0 .1.1.1.7.9 2.1 1.1 3 .4.9-.7 1.1-2 .5-2.9 0 0 0-.1-.1-.1-.7-.9-2.1-1.1-3-.4zm10.9 16.2c-.5.3-.6.9-.3 1.4 0 0 0 .1.1.1.4.5 1 .5 1.5.2s.6-.9.3-1.4c0 0 0-.1-.1-.1-.4-.5-1-.6-1.5-.2zm-2.2-55c-.2-.2-.1-.6.1-.7.2-.2.6-.1.7.1.2.2.1.6-.1.7-.2.3-.5.2-.7-.1zm-3.6 9.3c.5-.3.6-.9.4-1.4 0 0 0-.1-.1-.1-.3-.5-1-.6-1.5-.3s-.7.9-.4 1.4c0 0 0 .1.1.1.3.5 1 .6 1.5.3zm13.4-4.8c1-.6 1.3-1.9.7-2.9-.7-1-2-1.3-3-.6-1 .6-1.3 1.9-.7 2.9.7 1 2 1.3 3 .6zm-9.4-17c.5-.3.6-.9.4-1.4 0 0 0-.1-.1-.1-.3-.5-1-.6-1.5-.3s-.7.9-.4 1.4c0 0 0 .1.1.1.3.5.9.7 1.5.3 0 .1 0 .1 0 0zm32 73.1c.4-.2.7-.4 1-.6-.2.8 0 1.6.6 2.1h-1.2c-.4.2-.7.4-1 .6v-1.2c-.2-.4-.4-.7-.6-1 .4.2.8.2 1.2.1zm64.4-2.3c-.3-.1-.4-.4-.2-.7.1-.3.5-.4.7-.2.3.1.4.4.2.7-.1.3-.4.4-.7.2 0 .1 0 .1 0 0zm6.6 8.3c.3-.5.1-1.1-.3-1.4h-.1c-.5-.3-1.2-.1-1.5.4-.3.5-.1 1.1.4 1.4.6.3 1.2.1 1.5-.4zm-12.3-4.1c.6-1 .2-2.3-.8-2.8h-.1c-1-.5-2.3-.2-2.9.9-.5 1-.2 2.3.9 2.8 1 .5 2.3.1 2.9-.9zm6.5-17.2c.3-.5.1-1.1-.3-1.4h-.1c-.5-.3-1.2-.1-1.5.4-.3.5-.1 1.1.4 1.4.6.3 1.3.1 1.5-.4zm-110.7 68.5c.4.1.7.3 1.1.5-.1-.4-.2-.8-.2-1.1.1-.4.3-.7.5-1.1-.4.1-.8.2-1.2.2-.4-.1-.7-.3-1.1-.5.1.4.2.8.2 1.1-.1.4-.3.7-.5 1.1.4-.1.8-.2 1.2-.2zm7.3 53.4c.2-.3.4-.7.5-1.1 0-.4-.1-.8-.2-1.1.3.2.7.4 1.1.5.4 0 .8-.1 1.2-.2-.2.3-.4.7-.5 1.1 0 .4.1.8.2 1.1-.3-.2-.7-.3-1.1-.5-.4.1-.8.1-1.2.2zm46-58c.2-.3.4-.7.5-1.1 0-.4-.1-.8-.2-1.1.3.2.7.3 1.1.5.4 0 .8-.1 1.2-.2-.2.3-.4.7-.5 1.1 0 .4.1.8.2 1.1-.3-.2-.7-.4-1.1-.5-.4.1-.8.2-1.2.2zm-12.3 21.8c.2.2.1.6-.1.7-.2.2-.6.1-.8-.1-.2-.2-.1-.5.1-.7.3-.1.7-.1.8.1 0 .1 0 .1 0 0zm2.9-9.5c-.5.3-.6.9-.3 1.4 0 0 0 .1.1.1.4.5 1 .5 1.5.2s.6-.9.3-1.4c0 0 0-.1-.1-.1-.3-.4-1-.5-1.5-.2zm-13 5.9c-.9.7-1.1 2-.4 2.9.7.9 2.1 1.1 3 .4.9-.7 1.1-2 .4-2.9-.7-.9-2-1.1-3-.4zm10.9 16.1c-.5.3-.6.9-.3 1.4 0 0 0 .1.1.1.4.5 1 .5 1.5.2.5-.4.5-1 .2-1.5-.4-.4-1-.5-1.5-.2zm5.3-54c1-.7 2.3-.4 3 .6.6 1 .4 2.3-.6 2.9-1 .7-2.3.4-3-.6-.6-1-.4-2.2.6-2.9zm-115.4 4.3c.2-.3.4-.7.5-1.1 0-.4-.1-.8-.2-1.1.3.2.7.4 1.1.5.4 0 .8-.1 1.2-.2-.2.3-.4.7-.5 1.1 0 .4.1.8.2 1.1-.3-.2-.7-.4-1.1-.5-.4 0-.8.1-1.2.2zm8.5 53.2c.2-.3.4-.7.5-1.1 0-.4-.1-.8-.2-1.1.3.2.7.3 1.1.5.4 0 .8-.1 1.2-.2-.2.3-.4.7-.5 1.1 0 .4.1.8.2 1.1-.3-.2-.7-.3-1.1-.5-.4.1-.8.1-1.2.2zm46-58c.2-.3.4-.7.5-1.1 0-.4-.1-.8-.2-1.1.3.2.7.3 1.1.5.4 0 .8-.1 1.2-.2-.2.3-.4.7-.5 1.1 0 .4.1.8.2 1.1-.3-.2-.7-.4-1.1-.5-.4.1-.8.2-1.2.2zm-12.3 21.8c.2.2.1.6-.1.7-.2.2-.6.1-.8-.1-.2-.2-.1-.6.1-.7.4-.2.7-.1.8.1.1.1.1.1 0 0zm2.9-9.5c-.5.3-.6.9-.3 1.4 0 0 0 .1.1.1.4.5 1 .5 1.5.2s.6-.9.3-1.4c0 0 0-.1-.1-.1-.3-.4-1-.5-1.5-.2zm-13 5.8c-.9.7-1.1 2-.4 2.9.7.9 2.1 1.1 3 .4.9-.7 1.1-2 .4-2.9-.7-.8-2-1-3-.4zm10.9 16.2c-.5.3-.6.9-.3 1.4 0 0 0 .1.1.1.4.5 1 .5 1.5.2s.6-.9.3-1.4c0 0 0-.1-.1-.1-.4-.4-1-.5-1.5-.2zm5.3-54c1-.7 2.3-.4 3 .6.6 1 .4 2.2-.6 2.9-1 .7-2.3.4-3-.6-.5-1-.2-2.2.7-2.8l-.1-.1zM69.9 413.6c.2-.3.4-.7.5-1.1 0-.4-.1-.8-.2-1.1.3.2.7.4 1.1.5.4 0 .8-.1 1.2-.2-.2.3-.4.7-.5 1.1 0 .4.1.8.2 1.1-.3-.2-.7-.4-1.1-.5-.4.1-.8.1-1.2.2zm8.4 53.2c.2-.3.4-.7.5-1.1 0-.4-.1-.8-.2-1.1.3.2.7.4 1.1.5.4 0 .8-.1 1.2-.2-.2.3-.4.7-.5 1.1 0 .4.1.8.2 1.1-.3-.2-.7-.3-1.1-.5-.4.1-.8.1-1.2.2zm46-58c.2-.3.4-.7.5-1.1 0-.4-.1-.8-.2-1.1.3.2.7.3 1.1.5.4 0 .8-.1 1.2-.2-.2.3-.4.7-.5 1.1 0 .4.1.8.2 1.1-.3-.2-.7-.4-1.1-.5-.4.1-.8.2-1.2.2zm-12.2 21.8c.2.2.1.6-.1.7-.2.2-.6.1-.8-.1-.2-.2-.1-.6.1-.7.3-.1.6-.1.8.1zm2.9-9.5c-.5.3-.6.9-.3 1.4 0 0 0 .1.1.1.4.5 1 .5 1.5.2s.6-.9.3-1.4c0 0 0-.1-.1-.1-.4-.4-1-.5-1.5-.2zm-13 5.9c-.9.7-1.1 2-.5 2.9 0 0 0 .1.1.1.7.9 2.1 1.1 3 .4.9-.7 1.1-2 .5-2.9 0 0 0-.1-.1-.1-.7-.9-2.1-1.1-3-.4zm10.9 16.1c-.5.4-.5 1-.2 1.5.4.5 1 .5 1.5.2s.6-.9.3-1.4c0 0 0-.1-.1-.1-.4-.4-1.1-.5-1.5-.2zm-2.2-54.9c-.2-.2-.1-.6.1-.7.2-.2.6-.1.7.2.2.2.1.6-.1.7-.2.1-.5.1-.7-.2zm-3.7 9.3c.5-.3.7-.9.4-1.4 0 0 0-.1-.1-.1-.3-.5-1-.6-1.5-.3s-.6.9-.4 1.4c0 0 0 .1.1.1.3.5 1 .6 1.5.3zm13.4-4.8c1-.6 1.3-1.9.7-2.9-.7-1-2-1.3-3-.6-1 .6-1.3 1.9-.7 2.9.7 1 2 1.3 3 .6.1 0 .1 0 0 0zm-9.4-17c.5-.3.7-.9.4-1.4 0 0 0-.1-.1-.1-.3-.5-1-.6-1.5-.3s-.6.9-.4 1.4c0 0 0 .1.1.1.3.5 1 .6 1.5.3zm32 73.1c.4-.2.7-.4 1-.6-.2.8 0 1.6.6 2.1h-1.2c-.4.2-.7.4-1 .6.2-.8 0-1.6-.6-2.1.4.1.8.1 1.2 0zm64.4-2.3c-.3-.1-.4-.4-.2-.7.1-.3.5-.4.7-.2.3.1.4.4.2.7-.1.3-.4.4-.7.2zm6.7 8.3c.3-.5.1-1.1-.4-1.4-.5-.3-1.2-.1-1.4.4-.3.5-.1 1.1.3 1.4h.1c.4.3 1.1.1 1.4-.4zm-12.4-4.1c.6-1 .2-2.3-.8-2.8h-.1c-1-.5-2.3-.2-2.9.9-.5 1-.2 2.3.9 2.8s2.4.1 2.9-.9zm6.6-17.3c.3-.5.1-1.1-.4-1.4-.5-.3-1.2-.1-1.4.4-.3.5-.1 1.1.3 1.4h.1c.5.4 1.1.2 1.4-.4zm171.2-5.3c.4.1.7.3 1.1.5-.1-.4-.2-.8-.2-1.1.1-.4.3-.7.5-1.1-.4.1-.8.2-1.2.2-.4-.1-.7-.3-1.1-.5.1.4.2.8.2 1.1-.1.4-.3.7-.5 1.1.4-.1.8-.2 1.2-.2zm7.2 53.4c.2-.3.4-.7.5-1.1 0-.4-.1-.8-.2-1.1.3.2.7.3 1.1.5.4 0 .8-.1 1.2-.2-.2.3-.4.7-.5 1.1 0 .4.1.8.2 1.1-.3-.2-.7-.4-1.1-.5-.4 0-.8.1-1.2.2zm46-58c.2-.3.4-.7.5-1.1 0-.4-.1-.8-.2-1.1.3.2.7.4 1.1.5.4 0 .8-.1 1.2-.2-.2.3-.4.7-.5 1.1 0 .4.1.8.2 1.1-.3-.2-.7-.4-1.1-.5-.4 0-.8.1-1.2.2zm-12.2 21.8c.2.2.1.5-.1.7-.2.2-.6.1-.8-.1-.2-.2-.1-.6.1-.7.3-.2.6-.1.8.1zm2.9-9.5c-.5.3-.6.9-.3 1.4 0 0 0 .1.1.1.4.5 1 .5 1.5.2s.6-.9.3-1.4c0 0 0-.1-.1-.1-.4-.5-1.1-.5-1.5-.2zm-13 5.8c-.9.7-1.1 2-.5 2.9 0 0 0 .1.1.1.7.9 2.1 1.1 3 .4.9-.7 1.1-2 .5-2.9 0 0 0-.1-.1-.1-.8-.9-2.1-1-3-.4zm10.8 16.2c-.5.3-.6.9-.3 1.4 0 0 0 .1.1.1.4.5 1 .5 1.5.2s.6-.9.3-1.4c0 0 0-.1-.1-.1-.3-.5-1-.5-1.5-.2zm5.3-54c1-.7 2.3-.4 3 .6.6 1 .4 2.3-.6 2.9-1 .6-2.3.4-3-.6-.6-1-.3-2.2.6-2.9zM311.2 408c.2-.3.4-.7.5-1.1 0-.4-.1-.8-.2-1.1.3.2.7.3 1.1.5.4 0 .8-.1 1.2-.2-.2.3-.4.7-.5 1.1 0 .4.1.8.2 1.1-.3-.2-.7-.3-1.1-.5-.4.1-.8.2-1.2.2zm8.4 53.3c.2-.3.4-.7.5-1.1 0-.4-.1-.8-.2-1.1.3.2.7.3 1.1.5.4 0 .8-.1 1.2-.2-.2.3-.4.7-.5 1.1 0 .4.1.8.2 1.1-.3-.2-.7-.4-1.1-.5-.4 0-.8.1-1.2.2zm46-58c.2-.3.4-.7.5-1.1 0-.4-.1-.8-.2-1.1.3.2.7.4 1.1.5.4 0 .8-.1 1.2-.2-.2.3-.4.7-.5 1.1 0 .4.1.8.2 1.1-.3-.2-.7-.3-1.1-.5-.4 0-.8.1-1.2.2zm-12.2 21.8c.2.2.1.6-.1.7-.2.2-.6.1-.8-.1-.2-.2-.1-.6.1-.7.3-.2.6-.1.8.1zm2.9-9.6c-.5.3-.6.9-.3 1.4 0 0 0 .1.1.1.4.5 1 .5 1.5.2s.6-.9.3-1.4c0 0 0-.1-.1-.1-.4-.4-1-.4-1.5-.2zm-13 5.9c-.9.7-1.1 2-.5 2.9 0 0 0 .1.1.1.7.9 2.1 1.1 3 .4.9-.7 1.1-2 .5-2.9 0 0 0-.1-.1-.1-.8-.9-2.1-1-3-.4zm10.8 16.1c-.5.3-.6.9-.3 1.4 0 0 0 .1.1.1.4.5 1 .5 1.5.2s.6-.9.3-1.4c0 0 0-.1-.1-.1-.3-.4-1-.4-1.5-.2zm5.3-54c1-.7 2.3-.4 3 .6.6 1 .4 2.3-.6 2.9-1 .7-2.3.4-3-.6-.5-1-.2-2.2.7-2.8l-.1-.1zm-112.7 46.7c.2-.3.4-.7.5-1.1 0-.4-.1-.8-.2-1.1.3.2.7.3 1.1.5.4 0 .8-.1 1.2-.2-.2.3-.4.7-.5 1.1 0 .4.1.8.2 1.1-.3-.2-.7-.3-1.1-.5-.4 0-.8.1-1.2.2zm8.5 53.2c.2-.3.4-.7.5-1.1 0-.4-.1-.8-.2-1.1.3.2.7.3 1.1.5.4 0 .8-.1 1.2-.2-.2.3-.4.7-.5 1.1 0 .4.1.8.2 1.1-.3-.2-.7-.4-1.1-.5-.5 0-.8.1-1.2.2zm46-58c.2-.3.4-.7.5-1.1 0-.4-.1-.8-.2-1.1.3.2.7.4 1.1.5.4 0 .8-.1 1.2-.2-.2.3-.4.7-.5 1.1 0 .4.1.8.2 1.1-.3-.2-.7-.3-1.1-.5-.5 0-.8.1-1.2.2zm-12.3 21.8c.2.2.1.5-.1.7-.2.2-.6.1-.8-.1-.2-.2-.1-.6.1-.7.3-.2.6-.1.8.1zm2.9-9.5c-.5.3-.6.9-.3 1.4 0 0 0 .1.1.1.4.5 1 .5 1.5.2s.6-.9.3-1.4c0 0 0-.1-.1-.1-.4-.5-1-.5-1.5-.2zm-13 5.8c-.9.7-1.1 2-.4 2.9 0 0 0 .1.1.1.7.9 2.1 1.1 3 .4.9-.7 1.1-2 .5-2.9 0 0 0-.1-.1-.1-.8-.9-2.1-1-3.1-.4zm10.9 16.2c-.5.3-.6.9-.3 1.4 0 0 0 .1.1.1.4.5 1 .5 1.5.2s.6-.9.3-1.4c0 0 0-.1-.1-.1-.4-.5-1-.5-1.5-.2zm-2.2-54.9c-.2-.2-.1-.6.1-.7.2-.2.6-.1.7.2.2.2.1.6-.1.7-.2.1-.5 0-.7-.2zm-3.7 9.2c.5-.3.6-.9.4-1.4 0 0 0-.1-.1-.1-.3-.5-1-.6-1.5-.3s-.7.9-.4 1.4c0 0 0 .1.1.1.4.5 1 .7 1.5.3 0 .1 0 .1 0 0zm13.5-4.7c1-.6 1.3-1.9.7-2.9-.6-1-2-1.3-3-.6-1 .6-1.3 1.9-.7 2.9.6 1 2 1.3 3 .6zm-9.5-17c.5-.3.6-.9.4-1.4 0 0 0-.1-.1-.1-.3-.5-1-.6-1.5-.3s-.7.9-.4 1.4c0 0 0 .1.1.1.4.5 1 .6 1.5.3zm32 73.1c.4-.2.7-.4 1-.6v1.2c.2.4.4.7.6 1h-1.2c-.4.2-.7.4-1 .6v-1.2c-.2-.4-.4-.7-.6-1 .5 0 .9.1 1.2 0zm64.5-2.3c-.3-.1-.4-.4-.2-.7.1-.3.5-.4.7-.2.3.1.4.4.2.7-.1.2-.4.3-.7.2zm6.6 8.2c.3-.5.1-1.1-.3-1.4 0 0-.1 0-.1-.1-.5-.3-1.2-.1-1.5.4-.3.5-.1 1.1.4 1.4.6.5 1.2.3 1.5-.3zm-12.3-4.1c.5-1 .2-2.3-.8-2.8s-2.3-.2-2.9.9c-.6 1-.2 2.3.8 2.8h.1c.9.6 2.2.2 2.8-.9zm6.5-17.2c.3-.5.1-1.1-.3-1.4 0 0-.1 0-.1-.1-.5-.3-1.2-.1-1.5.4-.3.5-.1 1.1.4 1.4.6.4 1.3.2 1.5-.3zM68.5 243.6c-.1.4-.2.7-.4 1.1.4-.1.8-.2 1.2-.2.4.1.8.2 1.1.4-.1-.4-.2-.8-.2-1.1.1-.4.2-.7.4-1.1-.4.1-.8.2-1.2.2-.4-.1-.7-.2-1.1-.4 0 .3.1.7.2 1.1zm-53.9 9.9c.4.2.7.3 1.1.4.4 0 .8-.1 1.2-.2-.2.3-.3.7-.4 1.1 0 .4.1.8.2 1.1-.4-.2-.7-.3-1.1-.4-.4 0-.8.1-1.1.2.2-.3.3-.7.4-1.1-.1-.4-.2-.8-.3-1.1zm61.3 42.1c.4.2.7.3 1.1.4.4 0 .8-.1 1.2-.2-.2.3-.3.7-.4 1.1 0 .4.1.8.3 1.1-.4-.2-.7-.3-1.1-.4-.4 0-.8.1-1.2.2.2-.3.3-.7.4-1.1-.1-.3-.2-.7-.3-1.1zm-22.8-10.9c-.2.2-.6.2-.8-.1-.2-.2-.2-.5.1-.7.2-.2.6-.2.8.1.1.2.1.5-.1.7zm9.8 2.4c-.4-.5-1.1-.5-1.5-.1-.4.4-.5 1-.1 1.5.4.4 1.1.5 1.5.1.4-.4.5-1 .1-1.5zm-6.6-12.5c-.8-.9-2.1-1-3-.2-.9.7-1 2.1-.3 2.9v.1c.8.9 2.1 1 3 .2.9-.7 1.1-2 .3-3 0 .1 0 0 0 0zm-15.9 11.5c-.4-.4-1.1-.5-1.5-.1-.4.3-.5 1-.2 1.4 0 0 0 .1.1.1.4.4 1.1.5 1.5.1.5-.4.5-1 .1-1.5zm55.1 2.4c.7.9.5 2.2-.5 2.9-1 .7-2.3.5-3-.5-.7-.9-.5-2.2.5-2.9 1-.7 2.3-.4 3 .5zm-10.2-113c.4.2.7.3 1.1.4.4 0 .8-.1 1.2-.2-.2.3-.3.7-.4 1.1 0 .4.1.8.2 1.1-.4-.2-.7-.3-1.1-.4-.4 0-.8.1-1.2.2.2-.3.3-.7.4-1.1 0-.3-.1-.7-.2-1.1zm-53.7 11c.4.2.7.3 1.1.4.4 0 .8-.1 1.2-.2-.2.3-.3.7-.4 1.1 0 .4.1.8.2 1.2-.4-.2-.7-.3-1.1-.4-.4 0-.8.1-1.2.2.2-.3.3-.7.4-1.1 0-.3-.1-.7-.2-1.2zm61.3 42.3c.4.2.7.3 1.1.4.4 0 .8-.1 1.2-.2-.2.3-.3.7-.4 1.1 0 .4.1.8.2 1.1-.4-.2-.7-.3-1.1-.4-.4 0-.8.1-1.2.2.2-.3.3-.7.4-1.1 0-.4-.1-.8-.2-1.1zm-22.8-11c-.2.2-.6.2-.8-.1-.2-.2-.2-.5.1-.7.2-.2.6-.2.8.1.2.2.1.5-.1.7zm9.8 2.4c-.4-.4-1.1-.5-1.5-.1-.4.3-.5 1-.2 1.4 0 0 0 .1.1.1.4.4 1.1.5 1.5.1.5-.4.5-1.1.1-1.5zm-6.6-12.4c-.8-.9-2.1-1-3-.2-.9.7-1 2-.3 2.9l.1.1c.8.9 2.1 1 3 .2.9-.8 1-2.1.2-3zm-15.8 11.4c-.4-.4-1.1-.5-1.5-.1-.4.4-.5 1-.1 1.5.4.4 1.1.5 1.5.1.4-.3.5-.9.1-1.5 0 .1 0 .1 0 0zm55.1 2.4c.7.9.5 2.2-.4 2.9-1 .7-2.3.5-3-.5-.7-.9-.5-2.2.4-2.9h.1c.8-.6 2.2-.4 2.9.5zM59.5 113.4c.4.2.7.3 1.1.4.4 0 .8-.1 1.2-.2-.2.3-.3.7-.4 1.1 0 .4.1.8.2 1.1-.4-.2-.7-.3-1.1-.4-.4 0-.8.1-1.2.2.2-.3.3-.7.4-1.1 0-.4-.1-.7-.2-1.1zm-53.6 11c.4.2.7.3 1.1.4.4 0 .8-.1 1.2-.2-.2.3-.3.7-.4 1.1 0 .4.1.8.2 1.1-.4-.2-.7-.3-1.1-.4-.4 0-.8.1-1.2.2.2-.3.3-.7.4-1.1 0-.3-.1-.7-.2-1.1zm61.2 42.2c.4.2.7.3 1.1.4.4 0 .8-.1 1.2-.2-.2.3-.3.7-.4 1.1 0 .4.1.8.2 1.1-.4-.2-.7-.3-1.1-.4-.4 0-.8.1-1.2.2.2-.3.3-.7.4-1.1 0-.4 0-.8-.2-1.1zm-22.8-10.9c-.2.2-.6.2-.8-.1-.2-.2-.2-.6.1-.7.2-.2.6-.2.8.1.2.1.2.5-.1.7.1 0 .1 0 0 0zm9.9 2.3c-.4-.4-1.1-.5-1.5-.1-.4.3-.5 1-.2 1.4 0 0 0 .1.1.1.4.4 1.1.5 1.5.1.4-.4.5-1 .1-1.5 0 .1 0 0 0 0zm-6.7-12.4c-.8-.9-2.1-1-3-.2-.9.7-1 2-.3 2.9l.1.1c.8.9 2.1 1 3 .2.9-.7 1-2 .2-3 .1.1.1 0 0 0zm-15.8 11.5c-.4-.4-1.1-.5-1.5-.1-.4.3-.5 1-.2 1.4 0 0 0 .1.1.1.4.4 1.1.5 1.5.1.4-.4.5-1 .1-1.5.1 0 0 0 0 0zm55.7-4.9c.2-.2.6-.1.8.1.2.2.1.6-.1.7-.2.2-.6.1-.8-.1-.2-.3-.2-.6.1-.7zm-9.6-3.2c.3.5 1 .6 1.5.2.5-.3.6-.9.3-1.4 0 0 0-.1-.1-.1-.3-.5-1-.6-1.5-.2-.4.3-.6.9-.2 1.5 0-.1 0 0 0 0zm5.5 12.9c.7 1 2 1.2 3 .5.9-.7 1.2-2 .5-2.9-.7-.9-2-1.2-3-.5-.9.7-1.1 2-.5 2.9zm16.8-10.1c.4.5 1 .6 1.5.2.5-.3.6-.9.3-1.4 0 0 0-.1-.1-.1-.3-.5-1-.6-1.5-.2-.4.4-.6 1-.2 1.5zM27.5 187c.2.3.4.7.7.9-.4 0-.8 0-1.1.1-.4.2-.7.4-1 .7 0-.4 0-.8-.1-1.2-.2-.3-.4-.7-.7-.9.4 0 .8 0 1.2-.1.4-.2.7-.4 1-.7-.1.4-.1.8 0 1.2zm5.6 63.1c.1-.3.4-.4.7-.2.3.1.4.4.3.7-.1.3-.5.4-.7.2-.3-.1-.4-.4-.3-.7zm-8 6.9c.5.2 1.2 0 1.4-.5.3-.5.1-1.1-.4-1.4 0 0-.1 0-.1-.1-.5-.2-1.2 0-1.4.5-.3.6-.1 1.2.5 1.5-.1 0-.1 0 0 0zm3.5-12.3c1.1.5 2.3.1 2.9-1 .5-1 .1-2.3-1-2.8s-2.3-.1-2.9 1c-.5 1-.1 2.3 1 2.8zm17.9 5.5c.5.3 1.2 0 1.4-.5.3-.5.1-1.1-.4-1.4h-.1c-.5-.3-1.2 0-1.4.5-.3.5-.1 1.1.4 1.4h.1zm4.9 102.9c.1-.4.2-.7.4-1.1l-1.2.3c-.4-.1-.8-.2-1.1-.4l.3 1.2c-.1.4-.2.7-.4 1.1l1.2-.3c.4.1.8.2 1.1.4-.2-.4-.3-.8-.3-1.2zm53.7-10.8c-.4-.2-.7-.3-1.1-.4-.4 0-.8.1-1.2.3.2-.3.3-.7.4-1.1 0-.4-.1-.8-.2-1.1.4.2.7.3 1.1.4.4 0 .8-.1 1.2-.3-.2.3-.3.7-.4 1.1 0 .4.1.8.2 1.1zm-61.9-41.2c-.4-.2-.7-.3-1.1-.4-.4 0-.8.1-1.2.2.2-.3.3-.7.4-1.1 0-.4-.1-.8-.3-1.1.4.2.7.3 1.1.4.4 0 .8-.1 1.2-.2-.2.3-.3.7-.4 1.1.1.4.1.8.3 1.1zm23 10.6c.2-.2.6-.2.8 0 .2.2.2.6 0 .8-.2.2-.6.2-.8 0-.3-.3-.3-.6 0-.8-.1 0-.1 0 0 0zm-9.9-2.2c.4.4 1.1.5 1.5.1.4-.3.5-1 .2-1.4 0 0 0-.1-.1-.1-.4-.4-1.1-.5-1.5-.1-.4.3-.5 1-.2 1.4l.1.1zm6.8 12.3c.8.9 2.1.9 3 .2.9-.7 1-2.1.3-2.9l-.1-.1c-.8-.8-2.1-.9-3-.2-.9.7-1 2-.3 2.9l.1.1zm15.7-11.7c.4.4 1.1.5 1.5.1.4-.3.5-1 .2-1.4 0 0 0-.1-.1-.1-.4-.4-1.1-.5-1.5-.1-.4.3-.5 1-.2 1.4l.1.1zm-55.1-1.6c-.7-.9-.5-2.2.4-2.9h.1c.9-.7 2.3-.5 3 .4.7.9.5 2.2-.4 2.9-1.1.8-2.5.6-3.1-.4-.1 0-.1 0 0 0zm12 112.8c-.4-.2-.7-.3-1.1-.4-.4 0-.8.1-1.2.2.2-.3.3-.7.4-1.1 0-.4-.1-.8-.3-1.1.4.2.7.3 1.1.4.4 0 .8-.1 1.2-.2-.2.3-.3.7-.4 1.1.1.4.2.8.3 1.1zm53.5-11.8c-.4-.2-.7-.3-1.1-.4-.4 0-.8.1-1.2.3.2-.4.3-.7.4-1.1-.1-.4-.2-.8-.3-1.1.4.2.7.3 1.1.4.4 0 .8-.1 1.2-.3-.2.3-.3.7-.4 1.1 0 .3.1.7.3 1.1zm-62-41.3c-.4-.2-.7-.3-1.1-.4-.4 0-.8.1-1.1.3.2-.3.3-.7.4-1.1 0-.4-.1-.8-.3-1.1.4.2.7.3 1.1.4.4 0 .8-.1 1.1-.3-.2.3-.3.7-.4 1.1.1.4.2.8.3 1.1zm23 10.6c.2-.2.5-.2.8 0 .2.2.2.5 0 .7-.2.2-.5.2-.8 0-.3-.2-.2-.5 0-.7zm-9.9-2.2c.4.4 1.1.5 1.5.1.4-.3.5-1 .2-1.4 0 0 0-.1-.1-.1-.4-.4-1.1-.5-1.5-.1-.4.3-.5 1-.2 1.4.1 0 .1.1.1.1zm6.9 12.3c.8.9 2.1.9 3 .2.9-.7 1-2.1.3-2.9l-.1-.1c-.8-.9-2.1-.9-3-.2-.9.7-1 2-.3 2.9 0 .1 0 .1.1.1zm15.6-11.7c.4.4 1.1.5 1.5.1.4-.3.5-1 .2-1.4 0 0 0-.1-.1-.1-.4-.4-1.1-.5-1.5-.1-.5.4-.5 1-.1 1.5-.1-.1 0 0 0 0zm-55.2-1.5c-.7-.9-.6-2.2.4-2.9 0 0 .1 0 .1-.1 1-.7 2.3-.5 3 .4.7.9.5 2.2-.4 2.9h-.1c-.9.7-2.2.6-3-.3zm54.8 107.4c-.4-.2-.7-.3-1.1-.4-.4 0-.8.1-1.2.2.2-.3.3-.7.4-1.1 0-.4-.1-.8-.3-1.1.4.2.7.3 1.1.4.4 0 .8-.1 1.2-.2-.2.3-.3.7-.4 1.1.1.3.2.7.3 1.1zm53.5-11.9c-.4-.2-.7-.3-1.1-.4-.4 0-.8.1-1.2.2.2-.3.3-.7.4-1.1 0-.4-.1-.8-.3-1.1.4.2.7.3 1.1.4.4 0 .8-.1 1.2-.3-.2.3-.3.7-.4 1.1.1.5.2.8.3 1.2zM54 430c-.4-.2-.7-.3-1.1-.4-.4 0-.8.1-1.2.3.2-.3.3-.7.4-1.1 0-.4-.1-.8-.3-1.1.4.2.7.3 1.1.4.4 0 .8-.1 1.2-.3-.2.3-.3.7-.4 1.1.1.3.2.7.3 1.1zm23 10.6c.2-.2.5-.2.8 0 .2.2.2.5 0 .7-.2.2-.5.2-.7 0-.2-.2-.3-.5-.1-.7-.1 0-.1 0 0 0zm-9.8-2.2c.4.4 1.1.5 1.5.1.4-.3.5-1 .2-1.4 0 0 0-.1-.1-.1-.4-.4-1.1-.5-1.5-.1-.5.3-.6.9-.3 1.4l.2.1zm6.8 12.3c.8.8 2.1.9 3 .2.9-.7 1-2.1.2-2.9l-.1-.1c-.8-.9-2.1-.9-3-.2-.9.7-1 2-.3 2.9 0 0 .1.1.2.1zM89.5 439c.4.4 1.1.4 1.5 0 .4-.3.5-1 .2-1.4 0 0 0-.1-.1-.1-.4-.4-1.1-.5-1.5-.1-.4.3-.5.9-.2 1.4 0 .1.1.1.1.2zm-55.6 5.8c-.2.2-.6.1-.8-.1-.2-.2-.1-.5.1-.7.2-.2.6-.1.8.1.2.2.1.5-.1.7zm9.7 3c-.4-.5-1-.6-1.5-.2-.5.3-.6.9-.3 1.4 0 0 0 .1.1.1.4.5 1 .6 1.5.2.4-.3.6-1 .2-1.5zm-5.8-12.9c-.7-.9-2-1.1-3-.4-.9.7-1.2 2-.5 2.9l.1.1c.7.9 2.1 1.1 3 .4.9-.7 1.2-1.9.5-2.9 0 0 0-.1-.1-.1zm-16.6 10.4c-.4-.5-1-.6-1.5-.2-.5.3-.6 1-.2 1.5.4.5 1 .6 1.5.2.5-.3.6-1 .2-1.5.1 0 .1 0 0 0zM93.3 409c-.2-.3-.4-.6-.7-.9.4 0 .8 0 1.2-.1.3-.2.7-.4.9-.7 0 .4 0 .8.1 1.2.2.3.4.6.7.9-.4 0-.8 0-1.2.1-.3.2-.6.4-.9.7 0-.4 0-.8-.1-1.2zm-6.7-63c-.1.3-.4.4-.7.3s-.4-.4-.3-.7c.1-.3.4-.4.7-.3.3.1.4.4.3.7zm8-7.1c-.5-.2-1.2 0-1.4.5-.3.5-.1 1.1.4 1.3h.1c.5.2 1.2 0 1.4-.5.3-.4.1-1-.5-1.3zm-3.3 12.4c-1.1-.5-2.3 0-2.8 1s0 2.3 1 2.8c1.1.5 2.3 0 2.8-1 .5-1.1 0-2.3-1-2.8-.1 0-.1 0 0 0zm-18-5.3c-.5-.2-1.2 0-1.4.5-.3.5-.1 1.1.4 1.4h.1c.5.2 1.2 0 1.4-.5.2-.5 0-1.2-.5-1.4z"/></g></g></g></svg>