<?xml version="1.0" encoding="utf-8"?>
<!-- Generator: Adobe Illustrator 25.2.1, SVG Export Plug-In . SVG Version: 6.00 Build 0)  -->
<svg version="1.1" id="Layer_1" xmlns="http://www.w3.org/2000/svg" xmlns:xlink="http://www.w3.org/1999/xlink" x="0px" y="0px"
	 viewBox="0 0 469.5 491" style="enable-background:new 0 0 469.5 491;" xml:space="preserve">
<style type="text/css">
	.st0{opacity:0.75;}
	.st1{fill:#CFEAFF;}
	.st2{fill:#FFFFFF;}
</style>
<g class="st0">
	<g id="Layer_2_1_">
		<g id="OBJECT">
			<path class="st1" d="M469.2,2l-0.8,197c-19.2,12.5-60.9,31.3-120.3,12.5c0,0-7.4,50.7-71.6,37.4c0,0-11.8,40-60.9,26.7
				c0,0-14.5,53.8-85.9,37.3c0,0-22.2,84-129.3,61.5L1.9,0"/>
			<path class="st2" d="M413.9,33.9c-6.1-12-6.1-21.9,0-27.9c2.1-2,4.8-3.5,7.7-4.3L442,1.8c1.3,0.3,2.7,0.6,4,0.9
				C454.2,5,462,8.1,469.2,12l0,2.9c-7.4-4.1-15.5-7.4-23.9-9.8c-5-1.4-10.2-2.1-15.4-2.1c-6,0.1-10.7,1.7-13.8,4.7
				c-5.4,5.2-5.2,14.2,0.5,25.3c5.8,11.4,16.7,23.6,30.7,34.3c6.7,5.2,14,9.8,21.7,13.8l0,2.8c-8.4-4.2-16.3-9.2-23.6-14.8
				C431,58.2,419.9,45.7,413.9,33.9z"/>
			<path class="st2" d="M135.2,62.3c8.5,16.7,8.6,30.5,0.1,38.7c-5,4.8-12.5,7.3-21.9,7.5c-6.7,0.1-14.3-0.9-22.7-3.1
				c-19.9-5.2-41.9-16.5-61.8-31.8c-10-7.6-19.1-16.1-27.2-25.2l0-4.1c8.5,10,18.3,19.3,29.1,27.5c19.7,15.1,41.2,26.2,60.8,31.3
				c19.2,5,33.9,3.7,41.6-3.7c7.7-7.4,7.5-20.2-0.6-36C124.4,47.2,109.1,30,89.4,15C82.5,9.7,75.2,4.8,67.5,0.3l5.1,0
				c6.5,4,12.8,8.2,18.7,12.8C111.2,28.4,126.9,45.9,135.2,62.3z"/>
			<path class="st2" d="M434.7,22c-7,6.8,2.2,24.1,20.1,37.8c4.4,3.4,9.1,6.4,14.1,9l0,2.8c-5.7-2.8-11.1-6.2-16-10
				c-19.7-15.1-28.6-33.2-20.3-41.3c6.5-6.2,21.1-4.3,36.5,3.9l0,3C454.5,19.1,440.3,16.6,434.7,22z"/>
			<path class="st2" d="M9.2,268.6c6.1-15.7,18.9-32.9,35.8-48.4s36.1-27.4,54-33.6c18.3-6.4,33.2-6,42,1.1
				c8.7,7.1,10.1,19.8,3.8,36c-6.1,15.7-18.9,32.9-35.8,48.4s-36.1,27.4-54,33.6c-18.3,6.4-33.3,6-42-1.1
				c-5.1-4.2-7.7-10.3-7.7-17.9C5.4,280.5,6.7,274.5,9.2,268.6z M15.5,302.3c7.6,6.2,21.1,6.3,38.1,0.5c17.4-6,36.1-17.7,52.7-32.9
				l0,0c16.6-15.1,29-31.9,35-47.2c2.3-5.5,3.6-11.3,3.7-17.1c0-6.7-2.2-12-6.5-15.6c-7.6-6.2-21.1-6.3-38.1-0.5
				c-17.4,6-36.1,17.7-52.7,32.9c-16.6,15.1-29,31.9-35,47.2C6.8,284.6,7.8,296.2,15.5,302.3L15.5,302.3z"/>
			<path class="st2" d="M6.2,2.1L6.2,2.1c2-1.3,4.4-2.1,7-2.1l2,0c-2.6,0.7-5,2-6.8,3.7C3,8.9,3.2,17.9,8.9,29
				c5.8,11.4,16.7,23.6,30.7,34.3s29.2,18.6,43.1,22.2c13.5,3.5,23.8,2.6,29.2-2.6s5.2-14.2-0.5-25.3c-5.8-11.4-16.7-23.6-30.7-34.3
				l0,0C66.7,12.7,51.4,4.8,37.6,1.2c-1.6-0.4-3.1-0.8-4.6-1.1l10,0c13,4.2,26.9,11.6,39.6,21.4c14.2,10.9,25.4,23.4,31.4,35.1
				c6.1,12,6.1,21.9,0,27.9c-3.6,3.5-9.1,5.3-15.9,5.5c-5.5,0-11-0.7-16.3-2.2C67.5,84.1,51.9,76,37.6,65.1S12.2,41.7,6.2,30
				c-2.3-4.3-3.8-8.9-4.4-13.6l0-5.2C2.2,7.8,3.7,4.7,6.2,2.1z"/>
			<path class="st2" d="M55.8,229.1c23.4-21.4,51.1-30.6,62.9-21s2.8,33.9-20.7,55.3c-11,10.1-23.5,17.8-35.1,21.9
				c-12.1,4.2-22,3.9-27.8-0.8c-3.5-2.8-5.2-6.9-5.2-12c0.1-4,1-8,2.6-11.9C36.5,250.3,44.8,239.1,55.8,229.1z M37.7,282.1
				c4.7,3.8,13.2,3.9,23.9,0.2c11.1-3.9,23.1-11.4,33.8-21.1c21.3-19.4,30.8-42.7,20.8-50.8s-36.4,1.5-57.7,20.9
				C47.8,241,39.8,251.7,36,261.5C32.4,270.9,32.9,278.2,37.7,282.1z"/>
			<path class="st2" d="M44.3,326.3c24.5-8.5,50.9-25,74.3-46.3s40.9-45,49.3-66.6c8.3-21.2,6.8-37.7-4.1-46.6
				c-10.9-8.9-30.2-9.1-54.3-0.8c-24.5,8.5-50.9,25-74.3,46.3c-13.2,11.9-24.7,25-34.4,39.1l0-6.2c9.2-12.5,19.8-24.3,31.7-35.1
				c23.7-21.6,50.6-38.4,75.6-47.1c25.5-8.9,46.2-8.4,58.2,1.4c12,9.8,13.9,27.5,5.1,50c-8.6,22-26.4,46.1-50.1,67.8
				c-23.7,21.7-50.6,38.4-75.6,47.1c-17.9,6.2-33.4,7.8-45.2,4.8l0-3.3C11.6,334,26.6,332.5,44.3,326.3z"/>
			<path class="st2" d="M25.2,202.9c28.7-26.2,61.1-46.5,91.3-56.9c30.7-10.7,55.6-10.1,70,1.6c14.5,11.7,16.6,33.1,6,60.1
				c-10.4,26.6-31.9,55.7-60.6,81.9c-28.7,26.2-61.1,46.4-91.3,56.9c-15,5.2-28.6,7.7-40.3,7.6l0-3.2c11.2,0.2,24.3-2.3,38.9-7.4
				c29.7-10.3,61.7-30.3,90-56.2c28.3-25.9,49.5-54.6,59.8-80.7c4.3-10.9,6.4-20.8,6.4-29.4c0-11.7-3.8-21.1-11.5-27.3
				c-13.3-10.8-36.8-11.2-66.1-1c-29.7,10.3-61.7,30.3-90,56.2c-9.7,8.9-18.8,18.2-27.1,28.1l0-5.4C8.5,219.1,16.6,210.8,25.2,202.9
				z"/>
			<path class="st2" d="M95.3,51.8c4.1,7.9,4,14.5-0.1,18.5c-2.4,2.3-6.1,3.6-10.6,3.7c-3.6,0-7.3-0.5-10.7-1.4
				c-9.3-2.5-19.5-7.7-28.7-14.8C25.5,42.6,16.6,24.5,24.9,16.4s30.3-2.6,50,12.5C84.2,36,91.4,44.1,95.3,51.8z M27.1,18
				c-7,6.8,2.2,24.1,20.1,37.8c9,6.9,18.8,11.9,27.6,14.3c8.5,2.2,15,1.7,18.3-1.5c3.3-3.2,3.2-8.8-0.4-15.9
				C89,45.5,82,37.6,73,30.8C55.1,17.1,34.1,11.2,27.1,18z"/>
			<path class="st2" d="M286,232c0.1-4,1-8,2.6-11.9c4-10.2,12.3-21.4,23.3-31.5c23.4-21.4,51.1-30.6,62.9-21
				c10.4,8.5,4.6,28.3-12.9,47.5c-1.3-0.3-2.6-0.6-3.9-0.9c16.6-17.9,23.1-37.1,14.3-44.3c-10-8.1-36.4,1.5-57.7,20.9
				c-10.6,9.7-18.6,20.5-22.4,30.3c-3.7,9.4-3.1,16.7,1.6,20.5c4.7,3.8,13.2,3.9,23.9,0.2c8.4-3.1,16.2-7.3,23.1-12.5
				c-2,3.1-4.5,6-7.3,8.7c-4.5,2.6-9.4,4.9-14.4,6.7c-12.1,4.2-22,3.9-27.8-0.8C287.7,241.3,286,237.2,286,232z"/>
			<path class="st2" d="M265.2,228.3c6.1-15.7,18.9-32.9,35.7-48.4c16.9-15.5,36.1-27.4,54-33.6c18.3-6.4,33.2-6,42,1.1
				c8.7,7.1,10.1,19.9,3.8,36c-4.4,11.3-12.2,23.2-22.4,34.8c-1.4-0.2-2.8-0.4-4.2-0.6c10.6-11.7,18.6-23.9,23-35.2
				c2.3-5.5,3.6-11.3,3.8-17.1c0-6.7-2.2-12-6.5-15.6c-7.6-6.2-21.1-6.3-38.1-0.5c-17.4,6-36.1,17.7-52.7,32.9
				c-16.6,15.1-29,31.9-35,47.2c-5.5,14-4.9,25,1.4,31.4c-0.7,0.9-1.4,1.8-2.1,2.7c-4.5-4.1-6.8-9.9-6.7-17.1
				C261.5,240.2,262.8,234.1,265.2,228.3z"/>
			<path class="st2" d="M238.4,237.6c8.6-22,26.4-46.1,50.1-67.8s50.6-38.4,75.6-47.1c25.5-8.9,46.2-8.4,58.2,1.4s13.8,27.5,5.1,50
				c-5.8,14.6-15.5,30.2-28.4,45.3c-1.5,0-3,0-4.6,0c13.5-15.5,23.7-31.4,29.5-46.3c8.3-21.2,6.8-37.7-4.1-46.6
				c-10.9-8.9-30.2-9.1-54.3-0.8c-24.5,8.5-50.9,25-74.3,46.3s-40.9,45-49.3,66.6c-6.4,16.3-7,29.9-1.9,39.3
				c-1.3,0.1-2.6,0.2-3.9,0.3c-2.2-4.9-3.3-10.1-3.2-15.4C233,255.4,234.8,246.9,238.4,237.6z"/>
			<path class="st2" d="M392.6,28.3c-5.2-10.2-7.2-19.3-6.1-26.7l2.9,0c-1.2,7,0.8,15.8,5.9,25.7c8.2,16.1,23.6,33.3,43.2,48.3
				c9.4,7.2,19.6,13.7,30.4,19.3l0,2.8c-11.5-5.8-22.3-12.6-32.3-20.3C416.6,62.2,401,44.7,392.6,28.3z"/>
			<path class="st2" d="M24.4,76.7c23.8,18.2,50,31.7,73.7,37.9c23.3,6.1,41.3,4.5,50.7-4.6s9.2-24.7-0.6-43.9
				c-10-19.5-28.6-40.3-52.4-58.6c-3.3-2.5-6.7-5-10.1-7.3l4.5,0c2.5,1.8,5,3.6,7.4,5.4c24.1,18.5,43,39.6,53.2,59.4
				c10.3,20.2,10.3,36.7,0.2,46.5c-6,5.8-15,8.8-26.3,9c-8,0.2-17.2-1.1-27.4-3.7c-24.1-6.3-50.6-20-74.7-38.5
				C15.1,72.9,8.2,67,1.6,60.7l0-3.7C8.7,63.9,16.3,70.5,24.4,76.7z"/>
			<path class="st2" d="M412.7,218.6c14.7-17.5,25.8-35.4,32.4-52.2c4.3-10.9,6.4-20.8,6.4-29.4c0-11.7-3.8-21.1-11.5-27.3
				c-13.3-10.8-36.8-11.2-66.1-1c-29.7,10.3-61.7,30.3-90,56.2s-49.6,54.6-59.8,80.7c-4.5,11.4-6.6,21.8-6.4,30.7
				c-0.7-0.2-1.5-0.4-2.2-0.6c0,0-0.4,1.4-1.3,3.7c-0.1-1.4-0.2-2.9-0.2-4.4c0-9,2.2-19.2,6.6-30.4c10.4-26.6,31.9-55.7,60.6-81.9
				s61.1-46.4,91.3-56.9c30.7-10.7,55.6-10.1,70,1.6c14.5,11.7,16.6,33.1,6,60.1c-6.4,16.3-17,33.6-30.8,50.6
				C416.2,218.2,414.5,218.4,412.7,218.6z"/>
			<path class="st2" d="M314.7,35.4c6.1,12,6.1,21.9,0,27.9c-3.6,3.5-9,5.3-15.9,5.5c-5.5,0-11-0.7-16.3-2.2
				c-14.3-3.7-29.9-11.8-44.2-22.7C224.1,32.9,213,20.5,207,8.8c-1.3-2.6-2.4-5.2-3.2-7.9l3,0c0.8,2.4,1.7,4.7,2.9,6.9
				c5.8,11.4,16.7,23.6,30.7,34.3c13.9,10.7,29.2,18.6,43.1,22.2c13.5,3.5,23.8,2.6,29.2-2.6s5.2-14.2-0.5-25.3
				c-5.8-11.4-16.7-23.6-30.7-34.3l0,0l-1.3-1l4.3,0C298.1,11.9,308.9,24,314.7,35.4z"/>
			<path class="st2" d="M296.1,30.5c4.1,7.9,4,14.5-0.1,18.5c-2.4,2.3-6.1,3.6-10.6,3.7c-3.6,0-7.2-0.5-10.7-1.5
				c-9.3-2.5-19.5-7.7-28.7-14.8c-15.9-12.2-24.8-26.3-23.3-35.6l3,0c-1.6,8.2,7.3,22.2,22.2,33.7c9,6.9,18.8,11.9,27.6,14.3
				c8.5,2.2,15,1.7,18.3-1.5c3.3-3.2,3.2-8.8-0.4-15.9c-3.8-7.3-10.7-15.1-19.7-22c-4.1-3.2-8.5-6-13.3-8.5l5.4,0
				c3.4,2,6.7,4.2,9.8,6.6C285,14.8,292.2,22.9,296.1,30.5z"/>
			<path class="st2" d="M336.1,79.7c-5,4.8-12.5,7.3-21.9,7.5c-6.7,0.1-14.3-0.9-22.7-3.1c-19.9-5.2-41.9-16.5-61.8-31.8
				c-20-15.3-35.6-32.7-43.9-49.1c-0.4-0.8-0.8-1.6-1.2-2.4l3.1,0c0.2,0.5,0.4,0.9,0.7,1.4c8.2,16.1,23.6,33.3,43.2,48.3
				s41.2,26.2,60.8,31.3c19.2,5,33.9,3.7,41.6-3.7s7.5-20.3-0.6-36c-6.9-13.5-18.8-27.7-34-40.8l4,0C317.9,14.1,329.3,27.9,336,41
				C344.5,57.8,344.6,71.5,336.1,79.7z"/>
			<path class="st2" d="M351.6,90.5c-6,5.8-15,8.8-26.3,9c-8,0.2-17.2-1.1-27.4-3.7c-24.1-6.3-50.6-20-74.7-38.5
				c-23-17.6-41.2-37.6-51.6-56.6l3.2,0c10.4,18.4,28.1,37.7,50.4,54.8c23.8,18.2,50,31.7,73.7,37.9c23.3,6.1,41.3,4.5,50.7-4.6
				c9.4-9.1,9.2-24.7-0.7-43.9c-7.3-14.3-19.4-29.4-34.7-43.6l3.9,0c14.7,13.9,26.3,28.6,33.4,42.7
				C361.8,64.1,361.8,80.6,351.6,90.5z"/>
			<path class="st2" d="M377.1,23.1c-3.6-6.9-6.1-14.1-7.3-21.6l2.9,0c1.2,7.1,3.6,14,7.1,20.6c10,19.5,28.6,40.3,52.4,58.5
				c11.4,8.7,23.6,16.6,36.7,23.4l0,2.8c-13.8-7.1-26.7-15.2-38.6-24.4C406,64,387.2,42.9,377.1,23.1z"/>
			<path class="st1" d="M422.5,131.2c-0.1,0.3-0.3,0.6-0.5,0.9c0.4-0.1,0.7-0.1,1.1-0.1c0.4,0.1,0.7,0.2,1,0.4
				c-0.1-0.3-0.2-0.6-0.2-0.9c0.1-0.3,0.3-0.6,0.4-0.9c-0.4,0.1-0.7,0.1-1.1,0.1c-0.4-0.1-0.7-0.2-1-0.4
				C422.5,130.6,422.5,130.9,422.5,131.2z M371.7,136.9c0.3,0.2,0.7,0.3,1,0.4c0.4,0,0.7-0.1,1.1-0.1c-0.2,0.3-0.3,0.6-0.5,0.9
				c0,0.3,0.1,0.6,0.2,0.9c-0.3-0.2-0.7-0.3-1-0.4c-0.4,0-0.7,0.1-1.1,0.1c0.2-0.3,0.3-0.6,0.5-0.9
				C371.8,137.5,371.8,137.2,371.7,136.9L371.7,136.9z M426.7,174.2c0.3,0.2,0.7,0.3,1,0.4c0.4,0,0.7-0.1,1.1-0.1
				c-0.2,0.3-0.3,0.6-0.4,0.9c0,0.3,0.1,0.6,0.2,0.9c-0.3-0.2-0.7-0.3-1-0.4c-0.4,0-0.7,0.1-1.1,0.1c0.2-0.3,0.3-0.6,0.4-0.9
				C426.9,174.8,426.8,174.5,426.7,174.2L426.7,174.2z M406,164.2c-0.2,0.1-0.5,0.1-0.7-0.1c0,0,0,0,0,0c-0.2-0.2-0.1-0.5,0.1-0.6
				c0.2-0.1,0.5-0.1,0.7,0.1c0,0,0,0,0,0C406.3,163.8,406.2,164.1,406,164.2C406,164.2,406,164.2,406,164.2L406,164.2z M415.1,166.6
				c-0.3-0.4-0.9-0.5-1.3-0.2c0,0-0.1,0-0.1,0.1c-0.4,0.3-0.5,0.8-0.2,1.2c0.3,0.4,0.9,0.5,1.3,0.2c0,0,0.1,0,0.1-0.1
				C415.3,167.5,415.4,166.9,415.1,166.6L415.1,166.6z M409.6,156.1c-0.7-0.7-1.9-0.9-2.8-0.3c0,0,0,0,0,0c-0.9,0.6-1,1.7-0.4,2.4
				c0.6,0.8,1.9,0.9,2.8,0.4c0,0,0.1,0,0.1-0.1C410.1,157.9,410.2,156.8,409.6,156.1z M394.2,164.8c-0.3-0.4-0.9-0.5-1.3-0.2
				c0,0-0.1,0-0.1,0.1c-0.4,0.3-0.5,0.8-0.2,1.2c0.3,0.4,0.9,0.5,1.3,0.2c0,0,0.1,0,0.1-0.1C394.4,165.7,394.5,165.2,394.2,164.8
				L394.2,164.8z M445.5,169.2c0.6,0.8,0.3,1.9-0.6,2.4c-0.9,0.5-2.1,0.3-2.7-0.5c0,0,0,0,0,0c-0.6-0.8-0.4-1.9,0.6-2.4c0,0,0,0,0,0
				C443.7,168.2,444.9,168.5,445.5,169.2L445.5,169.2z M441.8,76.3c0.3,0.2,0.7,0.3,1,0.4c0.4,0,0.7-0.1,1.1-0.1
				c-0.2,0.3-0.3,0.6-0.5,0.9c0,0.3,0.1,0.6,0.2,0.9c-0.3-0.2-0.7-0.3-1-0.4c-0.4,0-0.7,0.1-1.1,0.1c0.2-0.3,0.3-0.6,0.5-0.9
				C442,77,441.9,76.7,441.8,76.3z M391.1,83c0.3,0.2,0.7,0.3,1,0.4c0.4,0,0.7-0.1,1.1-0.1c-0.2,0.3-0.3,0.6-0.5,0.9
				c0,0.3,0.1,0.6,0.2,0.9c-0.3-0.2-0.7-0.3-1-0.4c-0.4,0-0.7,0.1-1.1,0.1c0.2-0.3,0.3-0.6,0.4-0.9C391.3,83.6,391.2,83.3,391.1,83z
				 M446.2,120.2c0.3,0.2,0.7,0.3,1,0.4c0.4,0,0.7-0.1,1.1-0.1c-0.2,0.3-0.3,0.6-0.4,0.9c0,0.3,0.1,0.6,0.2,0.9
				c-0.3-0.2-0.7-0.3-1-0.4c-0.4,0-0.7,0.1-1.1,0.1c0.2-0.3,0.3-0.6,0.5-0.9C446.3,120.9,446.2,120.6,446.2,120.2L446.2,120.2z
				 M425.5,110.3c-0.2,0.1-0.5,0.1-0.7-0.1c-0.2-0.2-0.1-0.5,0.1-0.6c0.2-0.1,0.5-0.1,0.7,0.1c0,0,0,0,0,0
				C425.7,109.9,425.6,110.1,425.5,110.3L425.5,110.3z M434.5,112.7c-0.3-0.4-0.9-0.5-1.3-0.2c0,0-0.1,0-0.1,0
				c-0.4,0.3-0.5,0.8-0.2,1.2c0.3,0.4,0.9,0.5,1.3,0.2c0,0,0.1,0,0.1,0C434.8,113.6,434.8,113,434.5,112.7
				C434.5,112.6,434.5,112.6,434.5,112.7L434.5,112.7z M429,102.2c-0.6-0.8-1.9-0.9-2.8-0.4c0,0-0.1,0-0.1,0.1
				c-0.9,0.6-1,1.7-0.4,2.4c0.6,0.7,1.9,0.9,2.8,0.4c0,0,0.1,0,0.1-0.1C429.5,104,429.6,102.9,429,102.2L429,102.2z M413.6,110.8
				c-0.3-0.4-0.9-0.5-1.3-0.2c0,0-0.1,0-0.1,0.1c-0.4,0.3-0.5,0.8-0.2,1.2c0.3,0.4,0.9,0.5,1.3,0.2c0,0,0.1,0,0.1-0.1
				C413.8,111.8,413.9,111.2,413.6,110.8z M464.9,115.3c0.6,0.8,0.4,1.9-0.6,2.4c0,0,0,0,0,0c-0.9,0.5-2.2,0.3-2.8-0.5c0,0,0,0,0,0
				c-0.6-0.8-0.4-1.9,0.6-2.4c0,0,0,0,0,0C463.1,114.3,464.3,114.5,464.9,115.3C464.9,115.3,464.9,115.3,464.9,115.3z M421,24.3
				c0.3,0.2,0.7,0.3,1,0.4c0.4,0,0.7-0.1,1.1-0.1c-0.2,0.3-0.3,0.6-0.5,0.9c0,0.3,0.1,0.6,0.2,0.9c-0.3-0.2-0.7-0.3-1-0.4
				c-0.4,0-0.7,0.1-1.1,0.1c0.2-0.3,0.3-0.6,0.5-0.9C421.2,24.9,421.1,24.6,421,24.3z M370.3,30.9c0.3,0.2,0.7,0.3,1,0.4
				c0.4,0,0.7-0.1,1.1-0.1c-0.2,0.3-0.3,0.6-0.5,0.9c0,0.3,0.1,0.6,0.2,0.9c-0.3-0.2-0.7-0.3-1-0.4c-0.4,0-0.7,0.1-1.1,0.1
				c0.2-0.3,0.3-0.6,0.4-0.9C370.5,31.5,370.4,31.2,370.3,30.9L370.3,30.9z M425.4,68.2c0.3,0.2,0.6,0.3,1,0.4
				c0.4,0,0.7-0.1,1.1-0.1c-0.2,0.3-0.3,0.6-0.4,0.9c0,0.3,0.1,0.6,0.2,0.9c-0.3-0.2-0.7-0.3-1-0.4c-0.4,0-0.7,0.1-1.1,0.1
				c0.2-0.3,0.3-0.6,0.5-0.9C425.5,68.8,425.4,68.5,425.4,68.2L425.4,68.2z M404.6,58.2c-0.2,0.1-0.5,0.1-0.7-0.1c0,0,0,0,0,0
				c-0.2-0.2-0.1-0.5,0.1-0.6c0.2-0.1,0.5-0.1,0.7,0.1c0,0,0,0,0,0C404.9,57.8,404.9,58.1,404.6,58.2z M413.7,60.6
				c-0.3-0.4-0.9-0.5-1.3-0.2c0,0-0.1,0-0.1,0c-0.4,0.3-0.5,0.8-0.2,1.2c0.3,0.4,0.9,0.5,1.3,0.2c0,0,0.1,0,0.1,0
				C413.9,61.5,414,61,413.7,60.6z M408.1,50.1c-0.6-0.8-1.9-0.9-2.8-0.4c0,0-0.1,0-0.1,0.1c-0.9,0.6-1,1.7-0.4,2.4
				c0.6,0.7,1.9,0.9,2.8,0.4c0,0,0.1,0,0.1-0.1C408.6,52,408.8,50.9,408.1,50.1z M392.8,58.8c-0.3-0.4-0.9-0.5-1.3-0.2
				c0,0-0.1,0-0.1,0.1c-0.4,0.3-0.5,0.8-0.2,1.2c0.3,0.4,1,0.4,1.4,0.2c0,0,0,0,0,0C393,59.7,393.1,59.2,392.8,58.8z M445,57.3
				c0.2-0.1,0.5-0.1,0.7,0.1c0,0,0,0,0,0c0.1,0.2,0.1,0.5-0.2,0.6c-0.2,0.1-0.6,0.1-0.7-0.1C444.7,57.7,444.8,57.4,445,57.3z
				 M436.2,54.3c0.3,0.4,0.8,0.5,1.3,0.3c0,0,0,0,0.1,0c0.5-0.3,0.6-0.8,0.3-1.2c-0.3-0.4-0.8-0.5-1.3-0.3c0,0-0.1,0-0.1,0
				C436.1,53.4,435.9,53.9,436.2,54.3L436.2,54.3z M440.7,65.1c0.6,0.8,1.8,1,2.7,0.5c0,0,0,0,0,0c1-0.5,1.2-1.6,0.6-2.4
				c0,0,0,0,0,0c-0.6-0.8-1.8-1-2.7-0.5c0,0,0,0,0,0C440.4,63.3,440.1,64.3,440.7,65.1z M456.9,57.6c0.3,0.4,0.8,0.5,1.3,0.3
				c0,0,0.1,0,0.1-0.1c0.5-0.3,0.6-0.8,0.3-1.2c-0.3-0.4-0.9-0.5-1.4-0.3c0,0,0,0,0,0C456.7,56.7,456.6,57.2,456.9,57.6L456.9,57.6z
				 M387.2,83.1c0.2,0.3,0.4,0.6,0.6,0.8c-0.4,0-0.7,0-1.1,0c-0.3,0.1-0.7,0.3-1,0.5c0-0.3,0-0.6,0-1c-0.2-0.3-0.4-0.6-0.6-0.8
				c0.4,0,0.7,0,1.1,0c0.3-0.1,0.7-0.3,1-0.5C387.2,82.4,387.2,82.8,387.2,83.1L387.2,83.1z M389.2,135c0.1-0.2,0.4-0.3,0.7-0.2
				c0,0,0,0,0,0c0.2,0.1,0.3,0.4,0.2,0.6c-0.1,0.2-0.4,0.3-0.7,0.2c0,0,0,0,0,0C389.2,135.5,389.1,135.2,389.2,135
				C389.2,135,389.2,135,389.2,135L389.2,135z M381.3,140.3c0.4,0.2,1,0.1,1.3-0.3c0,0,0,0,0-0.1c0.3-0.4,0.1-0.9-0.4-1.2
				c-0.5-0.2-1-0.1-1.3,0.3c0,0,0,0,0,0.1C380.7,139.5,380.8,140.1,381.3,140.3L381.3,140.3z M385.3,130.4c1,0.4,2.2,0.1,2.7-0.7
				c0,0,0,0,0,0c0.5-0.8,0.2-1.9-0.8-2.3c-1-0.5-2.2-0.2-2.7,0.7c0,0,0,0,0,0C383.9,128.9,384.3,129.9,385.3,130.4L385.3,130.4z
				 M401.7,135.7c0.5,0.2,1,0.1,1.3-0.3c0,0,0,0,0,0c0.3-0.4,0.1-0.9-0.4-1.2c0,0,0,0,0,0c-0.4-0.2-1-0.1-1.3,0.3c0,0,0,0,0,0.1
				C401,135,401.1,135.5,401.7,135.7C401.7,135.7,401.7,135.7,401.7,135.7L401.7,135.7z"/>
			<path class="st1" d="M162.6,248.4c-0.1,0.3-0.3,0.6-0.4,0.9c0.4-0.1,0.7-0.1,1.1-0.1c0.4,0.1,0.7,0.2,1,0.4
				c-0.1-0.3-0.2-0.6-0.2-0.9c0.1-0.3,0.3-0.6,0.4-0.9c-0.4,0.1-0.7,0.1-1.1,0.1c-0.4-0.1-0.7-0.2-1-0.4
				C162.5,247.8,162.6,248.1,162.6,248.4z M111.7,254.1c0.3,0.2,0.7,0.3,1,0.4c0.4,0,0.7-0.1,1.1-0.1c-0.2,0.3-0.3,0.6-0.4,0.9
				c0,0.3,0.1,0.6,0.2,0.9c-0.3-0.2-0.7-0.3-1-0.4c-0.4,0-0.7,0.1-1.1,0.1c0.2-0.3,0.3-0.6,0.5-0.9
				C111.9,254.7,111.8,254.4,111.7,254.1z M166.8,291.4c0.3,0.2,0.7,0.3,1,0.4c0.4,0,0.7-0.1,1.1-0.1c-0.2,0.3-0.3,0.6-0.5,0.9
				c0,0.3,0.1,0.6,0.2,0.9c-0.3-0.2-0.7-0.3-1-0.4c-0.4,0-0.7,0.1-1.1,0.1c0.2-0.3,0.3-0.6,0.5-0.9
				C166.9,292,166.9,291.7,166.8,291.4L166.8,291.4z M146,281.4c-0.2,0.1-0.5,0.1-0.7,0c0,0,0,0,0,0c-0.2-0.2-0.1-0.5,0.1-0.6
				c0.2-0.1,0.5-0.1,0.7,0.1C146.3,281,146.3,281.3,146,281.4z M155.1,283.8c-0.3-0.4-1-0.4-1.4-0.2c0,0,0,0,0,0
				c-0.4,0.3-0.5,0.8-0.2,1.2c0.3,0.4,0.9,0.5,1.3,0.2c0,0,0.1,0,0.1-0.1C155.3,284.7,155.4,284.2,155.1,283.8z M149.6,273.3
				c-0.6-0.8-1.9-0.9-2.8-0.4c0,0-0.1,0-0.1,0c-0.9,0.6-1,1.7-0.4,2.4c0.6,0.8,1.9,0.9,2.8,0.4c0,0,0,0,0.1,0
				C150,275.1,150.2,274.1,149.6,273.3L149.6,273.3z M134.2,282c-0.3-0.4-0.9-0.5-1.3-0.2c0,0-0.1,0-0.1,0c-0.4,0.3-0.5,0.8-0.2,1.2
				c0.3,0.4,0.9,0.5,1.3,0.2c0,0,0,0,0.1,0C134.4,282.9,134.5,282.4,134.2,282C134.2,282,134.2,282,134.2,282L134.2,282z
				 M185.5,286.4c0.6,0.8,0.4,1.9-0.6,2.4c0,0,0,0,0,0c-0.9,0.5-2.2,0.3-2.8-0.5c0,0,0,0,0,0c-0.6-0.8-0.3-1.9,0.6-2.4
				C183.7,285.4,184.9,285.7,185.5,286.4C185.5,286.5,185.5,286.5,185.5,286.4L185.5,286.4z M181.9,193.5c0.3,0.2,0.7,0.3,1,0.4
				c0.4,0,0.7-0.1,1.1-0.1c-0.2,0.3-0.3,0.6-0.4,0.9c0,0.3,0.1,0.6,0.2,0.9c-0.3-0.2-0.7-0.3-1-0.4c-0.4,0-0.7,0.1-1.1,0.1
				c0.2-0.3,0.3-0.6,0.5-0.9C182,194.2,181.9,193.9,181.9,193.5L181.9,193.5z M131.2,200.1c0.3,0.2,0.7,0.3,1,0.4
				c0.4,0,0.7-0.1,1.1-0.1c-0.2,0.3-0.3,0.6-0.5,0.9c0,0.3,0.1,0.6,0.2,0.9c-0.3-0.2-0.7-0.3-1-0.4c-0.4,0-0.7,0.1-1.1,0.1
				c0.2-0.3,0.3-0.6,0.5-0.9C131.3,200.8,131.3,200.5,131.2,200.1L131.2,200.1z M186.2,237.4c0.3,0.2,0.7,0.3,1,0.4
				c0.4,0,0.7-0.1,1.1-0.1c-0.2,0.3-0.3,0.6-0.5,0.9c0,0.3,0.1,0.6,0.2,0.9c-0.3-0.2-0.7-0.3-1-0.4c-0.4,0-0.7,0.1-1.1,0.1
				c0.2-0.3,0.3-0.6,0.4-0.9C186.4,238,186.3,237.7,186.2,237.4L186.2,237.4z M165.5,227.5c-0.2,0.1-0.5,0.1-0.7-0.1c0,0,0,0,0,0
				c-0.2-0.2-0.1-0.5,0.1-0.6c0.2-0.1,0.5-0.1,0.7,0.1c0,0,0,0,0,0C165.8,227.1,165.7,227.3,165.5,227.5
				C165.5,227.5,165.5,227.5,165.5,227.5L165.5,227.5z M174.6,229.8c-0.3-0.4-0.9-0.5-1.3-0.2c0,0-0.1,0-0.1,0.1
				c-0.4,0.3-0.5,0.8-0.2,1.2c0.3,0.4,0.9,0.5,1.3,0.2c0,0,0.1,0,0.1-0.1C174.8,230.7,174.8,230.2,174.6,229.8L174.6,229.8z
				 M169,219.3c-0.7-0.7-1.9-0.9-2.8-0.3c0,0,0,0,0,0c-0.9,0.6-1.1,1.7-0.4,2.4c0.7,0.7,1.9,0.9,2.8,0.3c0,0,0,0,0,0
				C169.5,221.2,169.7,220.1,169,219.3L169,219.3z M153.6,228c-0.3-0.4-0.9-0.5-1.3-0.2c0,0-0.1,0-0.1,0c-0.4,0.3-0.5,0.8-0.2,1.2
				c0.3,0.4,0.9,0.5,1.3,0.2c0,0,0.1,0,0.1,0C153.9,228.9,153.9,228.4,153.6,228L153.6,228z M205,232.5c0.6,0.8,0.4,1.9-0.6,2.4
				c-0.9,0.5-2.1,0.3-2.7-0.5c0,0,0,0,0,0c-0.6-0.8-0.4-1.9,0.6-2.4c0.9-0.4,2.1-0.2,2.7,0.6L205,232.5z M161,141.5
				c0.3,0.2,0.7,0.3,1,0.4c0.4,0,0.7-0.1,1.1-0.1c-0.2,0.3-0.3,0.6-0.4,0.9c0,0.3,0.1,0.6,0.2,0.9c-0.3-0.2-0.7-0.3-1-0.4
				c-0.4,0-0.7,0.1-1.1,0.1c0.2-0.3,0.3-0.6,0.4-0.9C161.2,142.2,161.1,141.8,161,141.5z M110.4,148.1c0.3,0.2,0.7,0.3,1,0.4
				c0.4,0,0.7-0.1,1.1-0.1c-0.2,0.3-0.3,0.6-0.5,0.9c0,0.3,0.1,0.6,0.2,0.9c-0.3-0.2-0.7-0.3-1-0.4c-0.4,0-0.7,0.1-1.1,0.1
				c0.2-0.3,0.3-0.6,0.5-0.9C110.5,148.8,110.5,148.4,110.4,148.1z M165.4,185.4c0.3,0.2,0.7,0.3,1,0.4c0.4,0,0.7-0.1,1.1-0.1
				c-0.2,0.3-0.3,0.6-0.5,0.9c0,0.3,0.1,0.6,0.2,0.9c-0.3-0.2-0.7-0.3-1-0.4c-0.4,0-0.7,0.1-1.1,0.1c0.2-0.3,0.3-0.6,0.4-0.9
				C165.6,186,165.5,185.7,165.4,185.4L165.4,185.4z M144.7,175.4c-0.2,0.1-0.5,0.1-0.7-0.1c0,0,0,0,0,0c-0.2-0.2-0.1-0.5,0.1-0.6
				c0.2-0.1,0.5-0.1,0.7,0.1C145,175,144.9,175.3,144.7,175.4C144.7,175.4,144.7,175.5,144.7,175.4L144.7,175.4z M153.7,177.8
				c-0.3-0.4-0.9-0.5-1.3-0.2c0,0-0.1,0-0.1,0.1c-0.4,0.3-0.5,0.8-0.2,1.2c0.3,0.4,0.9,0.5,1.3,0.2c0,0,0.1,0,0.1-0.1
				C154,178.7,154.1,178.2,153.7,177.8L153.7,177.8z M148.2,167.3c-0.6-0.8-1.9-0.9-2.8-0.4c0,0-0.1,0-0.1,0c-0.9,0.6-1,1.7-0.4,2.4
				c0.6,0.8,1.9,0.9,2.8,0.4c0,0,0.1,0,0.1,0C148.7,169.1,148.9,168.1,148.2,167.3L148.2,167.3z M132.8,176
				c-0.3-0.4-0.9-0.5-1.3-0.2c0,0-0.1,0-0.1,0c-0.4,0.3-0.5,0.8-0.2,1.2c0.3,0.4,0.9,0.5,1.3,0.2c0,0,0.1,0,0.1,0
				C133,176.9,133.1,176.4,132.8,176L132.8,176z M185.1,174.5c0.2-0.1,0.5-0.1,0.7,0.1c0,0,0,0,0,0c0.2,0.2,0.1,0.5-0.1,0.6
				c-0.2,0.1-0.5,0.1-0.7-0.1c0,0,0,0,0,0C184.8,174.9,184.8,174.7,185.1,174.5L185.1,174.5z M176.3,171.5c0.3,0.4,0.8,0.5,1.3,0.3
				c0,0,0.1,0,0.1,0c0.5-0.3,0.6-0.8,0.3-1.2c-0.3-0.4-0.8-0.5-1.3-0.3c0,0-0.1,0-0.1,0.1C176.1,170.6,176,171.1,176.3,171.5z
				 M180.8,182.4c0.6,0.8,1.8,1,2.7,0.5c0,0,0,0,0,0c0.9-0.5,1.2-1.6,0.6-2.4c-0.6-0.8-1.8-1-2.7-0.5c0,0,0,0,0,0
				C180.4,180.5,180.1,181.5,180.8,182.4L180.8,182.4z M197,174.8c0.3,0.4,0.8,0.5,1.3,0.3c0,0,0.1,0,0.1,0c0.5-0.3,0.6-0.8,0.3-1.2
				c-0.3-0.4-0.8-0.5-1.3-0.3c0,0-0.1,0-0.1,0.1C196.8,173.9,196.7,174.4,197,174.8C196.9,174.8,196.9,174.8,197,174.8L197,174.8z
				 M127.3,200.3c0.2,0.3,0.4,0.6,0.6,0.8c-0.7-0.2-1.5,0-2,0.5c0-0.3,0-0.6,0-1c-0.2-0.3-0.4-0.6-0.6-0.8c0.4,0,0.7,0,1.1,0
				c0.3-0.1,0.7-0.3,1-0.5C127.3,199.7,127.2,200,127.3,200.3L127.3,200.3z M129.3,252.2c0.1-0.2,0.4-0.3,0.7-0.2c0,0,0,0,0,0
				c0.2,0.1,0.3,0.4,0.2,0.6c0,0,0,0,0,0c-0.1,0.2-0.4,0.3-0.6,0.2c0,0,0,0,0,0C129.2,252.7,129.1,252.4,129.3,252.2
				C129.2,252.2,129.2,252.2,129.3,252.2L129.3,252.2z M121.4,257.5c0.5,0.2,1,0.1,1.3-0.3c0,0,0,0,0-0.1c0.3-0.4,0.1-0.9-0.4-1.2
				c-0.5-0.2-1.1-0.1-1.4,0.3c0,0,0,0,0,0C120.7,256.7,120.9,257.3,121.4,257.5L121.4,257.5z M125.3,247.6c1,0.4,2.2,0.2,2.7-0.7
				c0,0,0,0,0,0c0.5-0.8,0.2-1.9-0.8-2.3c-1-0.4-2.2-0.1-2.7,0.7c0,0,0,0,0,0C124,246.1,124.3,247.1,125.3,247.6L125.3,247.6z
				 M141.7,252.9c0.5,0.2,1,0.1,1.3-0.3c0,0,0,0,0-0.1c0.3-0.4,0.1-0.9-0.4-1.2c-0.5-0.2-1.1-0.1-1.4,0.3c0,0,0,0,0,0
				C141,252.2,141.2,252.7,141.7,252.9z"/>
			<path class="st1" d="M76.8,163.5c-0.1,0.3-0.3,0.6-0.5,0.9c0.4-0.1,0.7-0.1,1.1-0.1c0.4,0.1,0.7,0.2,1,0.4
				c-0.1-0.3-0.2-0.6-0.2-0.9c0.1-0.3,0.3-0.6,0.5-0.9c-0.4,0.1-0.7,0.1-1.1,0.1c-0.4-0.1-0.7-0.2-1-0.4
				C76.8,162.9,76.8,163.2,76.8,163.5z M26,169.1c0.3,0.2,0.7,0.3,1,0.4c0.4,0,0.7-0.1,1.1-0.1c-0.2,0.3-0.3,0.6-0.5,0.9
				c0,0.3,0.1,0.6,0.2,0.9c-0.3-0.2-0.7-0.3-1-0.4c-0.4,0-0.7,0.1-1.1,0.1c0.2-0.3,0.3-0.6,0.4-0.9C26.1,169.8,26.1,169.5,26,169.1
				L26,169.1z M81,206.4c0.3,0.2,0.7,0.3,1,0.4c0.4,0,0.7-0.1,1.1-0.1c-0.2,0.3-0.3,0.6-0.4,0.9c0,0.3,0.1,0.6,0.2,0.9
				c-0.3-0.2-0.7-0.3-1-0.4c-0.4,0-0.7,0.1-1.1,0.1c0.2-0.3,0.3-0.6,0.5-0.9C81.2,207,81.1,206.7,81,206.4L81,206.4z M60.3,196.5
				c-0.2,0.1-0.5,0.1-0.7-0.1c0,0,0,0,0,0c-0.2-0.2-0.1-0.5,0.1-0.6c0.2-0.1,0.5-0.1,0.7,0.1c0,0,0,0,0,0
				C60.6,196,60.5,196.3,60.3,196.5C60.3,196.5,60.3,196.5,60.3,196.5L60.3,196.5z M69.4,198.8c-0.3-0.4-0.9-0.5-1.3-0.2
				c0,0-0.1,0-0.1,0c-0.4,0.3-0.5,0.8-0.2,1.2c0.3,0.4,0.9,0.5,1.3,0.2c0,0,0.1,0,0.1,0C69.6,199.7,69.7,199.2,69.4,198.8
				L69.4,198.8z M63.8,188.3c-0.7-0.7-1.9-0.9-2.8-0.3c0,0,0,0,0,0c-0.9,0.6-1,1.7-0.4,2.4c0.7,0.7,1.9,0.9,2.8,0.3c0,0,0,0,0,0
				C64.3,190.2,64.5,189.1,63.8,188.3L63.8,188.3z M48.4,197c-0.3-0.4-0.9-0.5-1.3-0.2c0,0-0.1,0-0.1,0.1c-0.4,0.3-0.5,0.8-0.2,1.2
				c0.3,0.4,1,0.4,1.4,0.2c0,0,0,0,0,0C48.7,197.9,48.7,197.4,48.4,197L48.4,197z M99.8,201.5c0.6,0.8,0.4,1.9-0.6,2.4c0,0,0,0,0,0
				c-0.9,0.5-2.2,0.3-2.8-0.5c0,0,0,0,0,0c-0.6-0.8-0.4-1.9,0.6-2.4c0,0,0,0,0,0C98,200.5,99.2,200.7,99.8,201.5L99.8,201.5z
				 M96.2,108.6c0.3,0.2,0.7,0.3,1,0.4c0.4,0,0.7-0.1,1.1-0.1c-0.2,0.3-0.3,0.6-0.5,0.9c0,0.3,0.1,0.6,0.2,0.9
				c-0.3-0.2-0.7-0.3-1-0.4c-0.4,0-0.7,0.1-1.1,0.1c0.2-0.3,0.3-0.6,0.5-0.9C96.3,109.2,96.2,108.9,96.2,108.6L96.2,108.6z
				 M45.5,115.2c0.3,0.2,0.7,0.3,1,0.4c0.4,0,0.7-0.1,1.1-0.1c-0.2,0.3-0.3,0.6-0.4,0.9c0,0.3,0.1,0.6,0.2,0.9
				c-0.3-0.2-0.7-0.3-1-0.4c-0.4,0-0.7,0.1-1.1,0.1c0.2-0.3,0.3-0.6,0.4-0.9C45.6,115.8,45.5,115.5,45.5,115.2L45.5,115.2z
				 M100.5,152.5c0.3,0.2,0.7,0.3,1,0.4c0.4,0,0.7-0.1,1.1-0.1c-0.2,0.3-0.3,0.6-0.4,0.9c0,0.3,0.1,0.6,0.2,0.9
				c-0.3-0.2-0.7-0.3-1-0.4c-0.4,0-0.7,0.1-1.1,0.1c0.2-0.3,0.3-0.6,0.5-0.9C100.6,153.1,100.6,152.8,100.5,152.5L100.5,152.5z
				 M79.8,142.5c-0.2,0.1-0.5,0.1-0.7-0.1c0,0,0,0,0,0c-0.2-0.2-0.1-0.5,0.1-0.6c0.2-0.1,0.5-0.1,0.7,0.1c0,0,0,0,0,0
				C80.1,142.1,80,142.4,79.8,142.5C79.7,142.5,79.7,142.5,79.8,142.5L79.8,142.5z M88.8,144.9c-0.3-0.4-0.9-0.5-1.3-0.2
				c0,0-0.1,0-0.1,0c-0.4,0.3-0.5,0.8-0.2,1.2c0.3,0.4,0.9,0.5,1.3,0.2c0,0,0.1,0,0.1,0C89.1,145.8,89.1,145.3,88.8,144.9
				L88.8,144.9z M83.3,134.4c-0.7-0.7-1.9-0.9-2.8-0.3c0,0,0,0,0,0c-0.9,0.6-1,1.7-0.4,2.4c0.7,0.7,1.9,0.9,2.8,0.3c0,0,0,0,0,0
				C83.8,136.2,83.9,135.2,83.3,134.4L83.3,134.4z M67.9,143.1c-0.3-0.4-0.9-0.5-1.3-0.2c0,0-0.1,0-0.1,0.1
				c-0.4,0.3-0.5,0.8-0.2,1.2c0.3,0.4,0.9,0.5,1.3,0.2c0,0,0.1,0,0.1-0.1C68.1,144,68.2,143.5,67.9,143.1L67.9,143.1z M119.3,147.5
				c0.6,0.8,0.4,1.9-0.6,2.4c0,0,0,0,0,0c-0.9,0.5-2.1,0.3-2.7-0.5c0,0,0,0,0,0c-0.6-0.8-0.4-1.9,0.6-2.4c0,0,0,0,0,0
				c0.9-0.4,2.1-0.2,2.6,0.6L119.3,147.5z M75.3,56.6c0.3,0.2,0.7,0.3,1,0.4c0.4,0,0.7-0.1,1.1-0.1c-0.2,0.3-0.3,0.6-0.5,0.9
				c0,0.3,0.1,0.6,0.2,0.9c-0.3-0.2-0.7-0.3-1-0.4c-0.4,0-0.7,0.1-1.1,0.1c0.2-0.3,0.3-0.6,0.5-0.9C75.4,57.2,75.4,56.9,75.3,56.6z
				 M24.6,63.2c0.3,0.2,0.7,0.3,1,0.4c0.4,0,0.7-0.1,1.1-0.1c-0.2,0.3-0.3,0.6-0.5,0.9c0,0.3,0.1,0.6,0.2,0.9
				c-0.3-0.2-0.7-0.3-1-0.4c-0.4,0-0.7,0.1-1.1,0.1c0.2-0.3,0.3-0.6,0.4-0.9C24.8,63.8,24.7,63.5,24.6,63.2z M79.7,100.5
				c0.3,0.2,0.7,0.3,1,0.4c0.4,0,0.7-0.1,1.1-0.1c-0.2,0.3-0.3,0.6-0.4,0.9c0,0.3,0.1,0.6,0.2,0.9c-0.3-0.2-0.7-0.3-1-0.4
				c-0.4,0-0.7,0.1-1.1,0.1c0.2-0.3,0.3-0.6,0.5-0.9C79.8,101.1,79.7,100.8,79.7,100.5L79.7,100.5z M58.9,90.5
				c-0.2,0.1-0.5,0.1-0.7-0.1c0,0,0,0,0,0c-0.2-0.2-0.1-0.5,0.1-0.6c0.2-0.1,0.5-0.1,0.7,0.1C59.2,90.1,59.1,90.4,58.9,90.5
				L58.9,90.5z M68,92.9c-0.3-0.4-0.9-0.5-1.3-0.2c0,0-0.1,0-0.1,0c-0.4,0.3-0.5,0.8-0.2,1.2c0.3,0.4,0.9,0.5,1.3,0.2
				c0,0,0.1,0,0.1,0C68.2,93.8,68.3,93.3,68,92.9L68,92.9z M62.4,82.4c-0.6-0.8-1.9-0.9-2.8-0.4c0,0-0.1,0-0.1,0.1
				c-0.9,0.6-1,1.7-0.4,2.4c0.6,0.8,1.9,0.9,2.8,0.4c0,0,0.1,0,0.1-0.1C63,84.2,63.1,83.2,62.4,82.4z M47.1,91.1
				c-0.3-0.4-1-0.4-1.4-0.2c0,0,0,0,0,0c-0.4,0.3-0.5,0.8-0.2,1.2c0.3,0.4,0.9,0.5,1.3,0.2c0,0,0.1,0,0.1-0.1
				C47.3,92,47.4,91.5,47.1,91.1L47.1,91.1z M99.3,89.6c0.2-0.1,0.5-0.1,0.7,0.1c0,0,0,0,0,0c0.2,0.2,0.1,0.5-0.1,0.6c0,0,0,0,0,0
				c-0.2,0.1-0.5,0.1-0.7-0.1c0,0,0,0,0,0C99,90,99.1,89.7,99.3,89.6L99.3,89.6z M90.5,86.5c0.3,0.4,0.8,0.5,1.3,0.3
				c0,0,0.1,0,0.1-0.1c0.5-0.3,0.6-0.8,0.3-1.2c-0.3-0.4-0.8-0.5-1.3-0.3c0,0-0.1,0-0.1,0C90.4,85.6,90.2,86.1,90.5,86.5z M95,97.4
				c0.6,0.8,1.8,1,2.7,0.5c0,0,0,0,0,0c1-0.5,1.2-1.6,0.6-2.4c-0.6-0.8-1.8-1-2.7-0.5c0,0,0,0,0,0C94.7,95.5,94.4,96.6,95,97.4
				C95,97.4,95,97.4,95,97.4L95,97.4z M111.2,89.9c0.3,0.4,0.8,0.5,1.3,0.3c0,0,0.1,0,0.1-0.1c0.5-0.3,0.6-0.8,0.3-1.2
				c-0.3-0.4-0.8-0.5-1.3-0.3c0,0-0.1,0-0.1,0C111.1,88.9,110.9,89.4,111.2,89.9L111.2,89.9z M41.5,115.3c0.2,0.3,0.4,0.6,0.6,0.8
				c-0.7-0.2-1.5,0-2,0.5c0-0.3,0-0.6,0-1c-0.2-0.3-0.4-0.6-0.6-0.8c0.7,0.2,1.5,0,2-0.5C41.5,114.7,41.5,115,41.5,115.3L41.5,115.3
				z M43.5,167.2c0.1-0.2,0.4-0.3,0.7-0.2c0,0,0,0,0,0c0.2,0.1,0.3,0.4,0.2,0.6c-0.1,0.2-0.4,0.3-0.7,0.2c0,0,0,0,0,0
				C43.5,167.7,43.4,167.5,43.5,167.2L43.5,167.2z M35.6,172.5c0.5,0.2,1.1,0.1,1.4-0.3c0,0,0,0,0,0c0.3-0.4,0.1-0.9-0.4-1.2
				c-0.5-0.2-1-0.1-1.3,0.3c0,0,0,0,0,0.1C34.9,171.8,35.1,172.3,35.6,172.5L35.6,172.5z M39.6,162.6c1,0.4,2.2,0.2,2.7-0.7
				c0,0,0,0,0,0c0.5-0.8,0.2-1.9-0.8-2.3c-1-0.4-2.2-0.1-2.7,0.7c0,0,0,0,0,0C38.2,161.1,38.6,162.2,39.6,162.6L39.6,162.6z M56,168
				c0.5,0.2,1.1,0.1,1.4-0.3c0,0,0,0,0,0c0.3-0.4,0.1-0.9-0.4-1.2c-0.5-0.2-1-0.1-1.3,0.3c0,0,0,0,0,0.1
				C55.3,167.2,55.4,167.7,56,168L56,168z"/>
			<path class="st1" d="M60.5,305.8c-0.1,0.3-0.3,0.6-0.4,0.9c0.4-0.1,0.7-0.1,1.1-0.1c0.4,0.1,0.7,0.2,1,0.4
				c-0.1-0.3-0.2-0.6-0.2-0.9c0.1-0.3,0.3-0.6,0.5-0.9c-0.4,0.1-0.7,0.1-1.1,0.1c-0.4-0.1-0.7-0.2-1-0.4
				C60.4,305.2,60.4,305.5,60.5,305.8z M9.6,311.5c0.3,0.2,0.7,0.3,1,0.4c0.4,0,0.7-0.1,1.1-0.1c-0.2,0.3-0.3,0.6-0.4,0.9
				c0,0.3,0.1,0.6,0.2,0.9c-0.3-0.2-0.7-0.3-1-0.4c-0.4,0-0.7,0.1-1.1,0.1c0.2-0.3,0.3-0.6,0.5-0.9C9.8,312.1,9.7,311.8,9.6,311.5
				L9.6,311.5z M64.7,348.8c0.3,0.2,0.7,0.3,1,0.4c0.4,0,0.7-0.1,1.1-0.1c-0.2,0.3-0.3,0.6-0.5,0.9c0,0.3,0.1,0.6,0.2,0.9
				c-0.3-0.2-0.7-0.3-1-0.4c-0.4,0-0.7,0.1-1.1,0.1c0.2-0.3,0.3-0.6,0.5-0.9C64.8,349.4,64.7,349.1,64.7,348.8L64.7,348.8z
				 M43.9,338.8c-0.2,0.1-0.5,0.1-0.7-0.1c0,0,0,0,0,0c-0.2-0.2-0.1-0.5,0.1-0.6c0.2-0.1,0.5-0.1,0.7,0.1
				C44.2,338.4,44.2,338.7,43.9,338.8C43.9,338.8,43.9,338.8,43.9,338.8L43.9,338.8z M53,341.2c-0.3-0.4-0.9-0.5-1.3-0.2
				c0,0-0.1,0-0.1,0.1c-0.4,0.3-0.5,0.8-0.2,1.2c0.3,0.4,0.9,0.5,1.3,0.2c0,0,0.1,0,0.1-0.1C53.2,342.1,53.3,341.5,53,341.2
				L53,341.2z M47.5,330.7c-0.6-0.8-1.9-0.9-2.8-0.4c0,0-0.1,0-0.1,0c-0.9,0.6-1,1.7-0.4,2.4c0.6,0.8,1.9,0.9,2.8,0.4
				c0,0,0.1,0,0.1,0C47.9,332.5,48.1,331.4,47.5,330.7L47.5,330.7z M32.1,339.4c-0.3-0.4-0.9-0.5-1.3-0.2c0,0-0.1,0-0.1,0
				c-0.4,0.3-0.5,0.8-0.2,1.2c0.3,0.4,0.9,0.5,1.3,0.2c0,0,0.1,0,0.1,0C32.3,340.3,32.4,339.8,32.1,339.4L32.1,339.4z M83.4,343.8
				c0.6,0.8,0.3,1.9-0.6,2.4c-0.9,0.5-2.2,0.3-2.8-0.5c0,0,0,0,0,0c-0.6-0.8-0.3-1.9,0.6-2.4C81.6,342.8,82.8,343.1,83.4,343.8
				L83.4,343.8z M79.8,250.9c0.3,0.2,0.7,0.3,1,0.4c0.4,0,0.7-0.1,1.1-0.1c-0.2,0.3-0.3,0.6-0.4,0.9c0,0.3,0.1,0.6,0.2,0.9
				c-0.3-0.2-0.7-0.3-1-0.4c-0.4,0-0.7,0.1-1.1,0.1c0.2-0.3,0.3-0.6,0.4-0.9C79.9,251.6,79.8,251.2,79.8,250.9L79.8,250.9z
				 M29.1,257.5c0.3,0.2,0.7,0.3,1,0.4c0.4,0,0.7-0.1,1.1-0.1c-0.2,0.3-0.3,0.6-0.4,0.9c0,0.3,0.1,0.6,0.2,0.9
				c-0.3-0.2-0.7-0.3-1-0.4c-0.4,0-0.7,0.1-1.1,0.1c0.2-0.3,0.3-0.6,0.5-0.9C29.2,258.2,29.2,257.8,29.1,257.5L29.1,257.5z
				 M84.2,294.8c0.3,0.2,0.7,0.3,1,0.4c0.4,0,0.7-0.1,1.1-0.1c-0.2,0.3-0.3,0.6-0.5,0.9c0,0.3,0.1,0.6,0.2,0.9
				c-0.3-0.2-0.7-0.3-1-0.4c-0.4,0-0.7,0.1-1.1,0.1c0.2-0.3,0.3-0.6,0.4-0.9C84.3,295.4,84.2,295.1,84.2,294.8L84.2,294.8z
				 M63.4,284.8c-0.2,0.1-0.5,0.1-0.7-0.1c-0.2-0.2-0.1-0.5,0.1-0.6c0.2-0.1,0.5-0.1,0.7,0.1C63.7,284.4,63.6,284.7,63.4,284.8
				C63.4,284.9,63.4,284.9,63.4,284.8L63.4,284.8z M72.5,287.2c-0.3-0.4-0.9-0.5-1.3-0.2c0,0-0.1,0-0.1,0.1
				c-0.4,0.3-0.5,0.8-0.2,1.2c0.3,0.4,0.9,0.5,1.3,0.2c0,0,0.1,0,0.1-0.1C72.7,288.1,72.7,287.6,72.5,287.2L72.5,287.2z M67,276.7
				c-0.6-0.8-1.9-0.9-2.8-0.4c0,0-0.1,0-0.1,0c-0.9,0.6-1,1.7-0.4,2.4c0.6,0.8,1.9,0.9,2.8,0.4c0,0,0.1,0,0.1,0
				C67.4,278.5,67.5,277.5,67,276.7L67,276.7z M51.6,285.4c-0.3-0.4-0.9-0.5-1.3-0.2c0,0-0.1,0-0.1,0c-0.4,0.3-0.5,0.8-0.2,1.2
				c0.3,0.4,0.9,0.5,1.3,0.2c0,0,0.1,0,0.1,0C51.8,286.3,51.8,285.8,51.6,285.4L51.6,285.4z M102.9,289.9c0.6,0.8,0.4,1.9-0.6,2.4
				c0,0,0,0,0,0c-0.9,0.5-2.1,0.3-2.7-0.5c0,0,0,0,0,0c-0.6-0.8-0.4-1.9,0.6-2.4c0.9-0.4,2.1-0.2,2.6,0.6L102.9,289.9z M58.9,198.9
				c0.3,0.2,0.7,0.3,1,0.4c0.4,0,0.7-0.1,1.1-0.1c-0.2,0.3-0.3,0.6-0.4,0.9c0,0.3,0.1,0.6,0.2,0.9c-0.3-0.2-0.7-0.3-1-0.4
				c-0.4,0-0.7,0.1-1.1,0.1c0.2-0.3,0.3-0.6,0.4-0.9C59.1,199.6,59,199.2,58.9,198.9z M8.2,205.5c0.3,0.2,0.7,0.3,1,0.4
				c0.4,0,0.7-0.1,1.1-0.1c-0.2,0.3-0.3,0.6-0.4,0.9c0,0.3,0.1,0.6,0.2,0.9c-0.3-0.2-0.7-0.3-1-0.4c-0.4,0-0.7,0.1-1.1,0.1
				c0.2-0.3,0.3-0.6,0.5-0.9C8.4,206.1,8.3,205.8,8.2,205.5z M63.3,242.8c0.3,0.2,0.7,0.3,1,0.4c0.4,0,0.7-0.1,1.1-0.1
				c-0.2,0.3-0.3,0.6-0.5,0.9c0,0.3,0.1,0.6,0.2,0.9c-0.3-0.2-0.7-0.3-1-0.4c-0.4,0-0.7,0.1-1.1,0.1c0.2-0.3,0.3-0.6,0.4-0.9
				C63.4,243.4,63.4,243.1,63.3,242.8L63.3,242.8z M42.6,232.8c-0.2,0.1-0.5,0.1-0.7-0.1c0,0,0,0,0,0c-0.2-0.2-0.1-0.5,0.1-0.6
				c0.2-0.1,0.5-0.1,0.7,0.1c0,0,0,0,0,0C42.8,232.4,42.8,232.7,42.6,232.8C42.6,232.8,42.6,232.8,42.6,232.8L42.6,232.8z
				 M51.6,235.2c-0.3-0.4-0.9-0.5-1.3-0.2c0,0-0.1,0-0.1,0.1c-0.4,0.3-0.5,0.8-0.2,1.2c0.3,0.4,0.9,0.5,1.3,0.2c0,0,0.1,0,0.1-0.1
				C51.9,236.1,51.9,235.6,51.6,235.2L51.6,235.2z M46.1,224.7c-0.6-0.8-1.9-0.9-2.8-0.4c0,0,0,0-0.1,0c-0.9,0.6-1,1.7-0.4,2.4
				c0.6,0.8,1.9,0.9,2.8,0.4c0,0,0.1,0,0.1,0C46.6,226.5,46.7,225.5,46.1,224.7L46.1,224.7z M30.7,233.4c-0.3-0.4-0.9-0.5-1.3-0.2
				c0,0-0.1,0-0.1,0c-0.4,0.3-0.5,0.8-0.2,1.2c0.3,0.4,0.9,0.5,1.3,0.2c0,0,0.1,0,0.1,0C30.9,234.3,31,233.8,30.7,233.4L30.7,233.4z
				 M83,231.9c0.2-0.1,0.5-0.1,0.7,0.1c0,0,0,0,0,0c0.2,0.2,0.1,0.5-0.1,0.6c0,0,0,0,0,0c-0.2,0.1-0.5,0.1-0.7-0.1c0,0,0,0,0,0
				C82.7,232.3,82.7,232.1,83,231.9L83,231.9z M74.2,228.9c0.3,0.4,0.8,0.5,1.3,0.3c0,0,0.1,0,0.1,0c0.5-0.3,0.6-0.8,0.3-1.2
				c-0.3-0.4-0.8-0.5-1.3-0.3c0,0-0.1,0-0.1,0.1C74,227.9,73.8,228.5,74.2,228.9C74.1,228.9,74.2,228.9,74.2,228.9L74.2,228.9z
				 M78.7,239.7c0.6,0.8,1.8,1,2.7,0.6c0,0,0,0,0,0c1-0.5,1.2-1.6,0.6-2.4c0,0,0,0,0,0c-0.6-0.8-1.8-1-2.7-0.5c0,0,0,0,0,0
				C78.3,237.8,78,238.9,78.7,239.7C78.6,239.7,78.6,239.7,78.7,239.7L78.7,239.7z M94.9,232.2c0.3,0.4,0.8,0.5,1.3,0.3
				c0,0,0.1,0,0.1,0c0.5-0.3,0.6-0.8,0.3-1.2c-0.3-0.4-0.8-0.5-1.3-0.3c0,0-0.1,0-0.1,0.1C94.7,231.2,94.5,231.8,94.9,232.2
				C94.8,232.2,94.8,232.2,94.9,232.2L94.9,232.2z M25.2,257.7c0.2,0.3,0.4,0.6,0.6,0.8c-0.4,0-0.7,0-1.1,0c-0.3,0.1-0.7,0.3-1,0.5
				c0-0.3,0-0.6,0-1c-0.2-0.3-0.4-0.6-0.6-0.8c0.4,0,0.7,0,1.1,0c0.3-0.1,0.7-0.3,1-0.5C25.1,257,25.1,257.4,25.2,257.7L25.2,257.7z
				 M27.2,309.6c0.1-0.2,0.4-0.3,0.7-0.2c0,0,0,0,0,0c0.2,0.1,0.3,0.4,0.2,0.6c0,0,0,0,0,0c-0.1,0.2-0.4,0.3-0.7,0.2c0,0,0,0,0,0
				C27.1,310.1,27,309.8,27.2,309.6L27.2,309.6z M19.3,314.9c0.4,0.2,1,0.1,1.3-0.3c0,0,0-0.1,0.1-0.1c0.3-0.4,0.1-0.9-0.4-1.2
				c-0.5-0.2-1.1-0.1-1.4,0.3c0,0,0,0,0,0C18.6,314.1,18.7,314.6,19.3,314.9L19.3,314.9z M23.2,305c1,0.4,2.2,0.1,2.7-0.7
				c0,0,0,0,0,0c0.5-0.8,0.2-1.9-0.8-2.3c-1-0.4-2.2-0.2-2.7,0.7c0,0,0,0,0,0C21.9,303.4,22.2,304.5,23.2,305L23.2,305z M39.6,310.3
				c0.4,0.2,1,0.1,1.3-0.3c0,0,0-0.1,0.1-0.1c0.3-0.4,0.1-0.9-0.4-1.2c-0.5-0.2-1.1-0.1-1.4,0.3c0,0,0,0,0,0
				C38.9,309.6,39.1,310.1,39.6,310.3z"/>
			<path class="st1" d="M237.2,56.1c-0.4-0.1-0.7-0.2-1-0.3c0.1,0.3,0.2,0.6,0.2,0.9c-0.1,0.3-0.2,0.6-0.4,0.9
				c0.4-0.1,0.7-0.2,1.1-0.2c0.4,0.1,0.7,0.2,1,0.3c-0.1-0.3-0.2-0.6-0.2-0.9c0.1-0.3,0.2-0.6,0.4-0.9
				C237.9,56,237.5,56.1,237.2,56.1z M227.9,12.7c-0.2,0.3-0.3,0.6-0.4,0.9c0,0.3,0.1,0.6,0.2,0.9c-0.3-0.1-0.7-0.3-1-0.3
				c-0.4,0-0.7,0.1-1.1,0.2c0.2-0.3,0.3-0.6,0.4-0.9c0-0.3-0.1-0.6-0.2-0.9c0.3,0.1,0.7,0.3,1,0.3C227.2,12.9,227.6,12.8,227.9,12.7
				z M187.6,61.9c-0.2,0.3-0.3,0.6-0.4,0.9c0,0.3,0.1,0.6,0.2,0.9c-0.3-0.1-0.7-0.3-1-0.3c-0.4,0-0.7,0.1-1.1,0.2
				c0.2-0.3,0.3-0.6,0.4-0.9c0-0.3-0.1-0.6-0.2-0.9c0.3,0.1,0.7,0.3,1,0.3C186.9,62.1,187.2,62,187.6,61.9z M198,43.6
				c-0.2-0.2-0.1-0.4,0.1-0.6c0.2-0.2,0.5-0.1,0.7,0c0,0,0,0,0,0c0.2,0.2,0.1,0.4-0.1,0.6C198.5,43.8,198.2,43.7,198,43.6
				C198,43.6,198,43.6,198,43.6z M195.8,51.5c0.4-0.3,0.5-0.9,0.1-1.2c0,0,0,0,0,0c-0.4-0.4-1-0.4-1.4-0.1c0,0,0,0,0,0
				c-0.4,0.3-0.5,0.9-0.1,1.2C194.7,51.7,195.3,51.8,195.8,51.5C195.7,51.5,195.7,51.5,195.8,51.5L195.8,51.5z M207.6,46.2
				c0.8-0.6,0.9-1.7,0.2-2.4c-0.7-0.7-2-0.8-2.8-0.2c0,0,0,0-0.1,0c-0.8,0.6-0.9,1.7-0.2,2.4C205.5,46.7,206.7,46.8,207.6,46.2
				C207.6,46.2,207.6,46.2,207.6,46.2L207.6,46.2z M196.7,33.4c0.4-0.3,0.5-0.9,0.1-1.2c-0.3-0.4-0.9-0.4-1.3-0.1c0,0,0,0-0.1,0.1
				c-0.4,0.3-0.5,0.9-0.1,1.2C195.7,33.6,196.3,33.7,196.7,33.4C196.7,33.4,196.7,33.4,196.7,33.4L196.7,33.4z M194.3,77.7
				c-0.9,0.5-2.1,0.4-2.8-0.4c0,0,0,0,0,0c-0.7-0.8-0.4-1.9,0.5-2.4c0.9-0.5,2.1-0.4,2.8,0.4c0,0,0,0,0,0
				C195.4,76.1,195.2,77.2,194.3,77.7L194.3,77.7z M301.9,69.9c-0.2,0.3-0.3,0.6-0.4,0.9c0,0.3,0.1,0.6,0.2,0.9
				c-0.3-0.1-0.7-0.3-1-0.3c-0.4,0-0.7,0.1-1.1,0.2c0.2-0.3,0.3-0.6,0.4-0.9c0-0.3-0.1-0.6-0.2-0.9c0.3,0.1,0.7,0.3,1,0.3
				C301.1,70.1,301.5,70,301.9,69.9L301.9,69.9z M291.6,26.7c-0.2,0.3-0.3,0.6-0.4,0.9c0,0.3,0.1,0.6,0.2,0.9
				c-0.3-0.1-0.7-0.3-1-0.3c-0.4,0-0.8,0.1-1.2,0.2c0.2-0.3,0.3-0.6,0.4-0.9c0-0.3-0.1-0.6-0.2-0.9c0.3,0.1,0.7,0.3,1,0.3
				C290.8,26.8,291.2,26.8,291.6,26.7L291.6,26.7z M251.2,75.9c-0.2,0.3-0.3,0.6-0.4,0.9c0,0.3,0.1,0.6,0.2,0.9
				c-0.3-0.1-0.7-0.3-1-0.3c-0.4,0-0.7,0.1-1.1,0.2c0.2-0.3,0.3-0.6,0.4-0.9c0-0.3-0.1-0.6-0.2-0.9c0.3,0.1,0.7,0.3,1,0.3
				C250.5,76,250.8,76,251.2,75.9z M261.6,57.6c-0.2-0.2-0.1-0.5,0.1-0.6c0.2-0.2,0.5-0.1,0.7,0c0,0,0,0,0,0
				c0.2,0.2,0.2,0.5-0.1,0.6C262.1,57.8,261.8,57.7,261.6,57.6z M259.4,65.4c0.4-0.3,0.5-0.9,0.1-1.2c-0.3-0.4-0.9-0.4-1.3-0.2
				c0,0-0.1,0-0.1,0.1c-0.4,0.3-0.5,0.8-0.1,1.2C258.3,65.7,258.9,65.8,259.4,65.4C259.4,65.5,259.4,65.5,259.4,65.4z M271.2,60.2
				c0.8-0.6,0.9-1.7,0.2-2.4c-0.7-0.7-1.9-0.8-2.8-0.2c0,0,0,0-0.1,0.1c-0.8,0.6-0.9,1.7-0.2,2.4C269.1,60.7,270.3,60.8,271.2,60.2
				C271.2,60.2,271.2,60.2,271.2,60.2z M260.3,47.4c0.4-0.3,0.5-0.8,0.1-1.2c-0.4-0.4-1-0.4-1.4-0.1c0,0,0,0,0,0
				c-0.4,0.3-0.5,0.9-0.1,1.2C259.2,47.6,259.8,47.7,260.3,47.4C260.3,47.4,260.3,47.4,260.3,47.4z M257.9,91.7
				c-0.9,0.5-2.1,0.4-2.8-0.4c0,0,0,0,0,0c-0.6-0.8-0.4-1.8,0.5-2.4c0.9-0.5,2.1-0.4,2.8,0.4c0,0,0,0,0,0
				C259,90.1,258.8,91.2,257.9,91.7z M361.1,49.4c-0.2,0.3-0.3,0.6-0.4,0.9c0,0.3,0.1,0.6,0.2,0.9c-0.3-0.1-0.7-0.3-1-0.3
				c-0.4,0-0.7,0.1-1.1,0.2c0.2-0.3,0.3-0.6,0.4-0.9c0-0.3-0.1-0.6-0.2-0.9c0.3,0.1,0.7,0.3,1,0.3C360.4,49.6,360.7,49.5,361.1,49.4
				z M350.8,6.2c-0.2,0.3-0.3,0.6-0.4,0.9c0,0.3,0.1,0.6,0.2,0.9c-0.3-0.1-0.7-0.3-1-0.3c-0.4,0-0.7,0.1-1.1,0.2
				c0.2-0.3,0.3-0.6,0.4-0.9c0-0.3-0.1-0.6-0.2-0.9c0.3,0.1,0.7,0.3,1,0.3C350.1,6.3,350.4,6.3,350.8,6.2L350.8,6.2z M310.5,55.4
				c-0.2,0.3-0.3,0.6-0.4,0.9c0,0.3,0.1,0.6,0.2,0.9c-0.3-0.1-0.7-0.3-1-0.3c-0.4,0-0.7,0.1-1.1,0.2c0.2-0.3,0.3-0.6,0.4-0.9
				c0-0.3-0.1-0.6-0.2-0.9c0.3,0.1,0.7,0.3,1,0.3C309.7,55.5,310.1,55.5,310.5,55.4L310.5,55.4z M320.9,37.1
				c-0.2-0.2-0.2-0.5,0.1-0.6c0.2-0.2,0.5-0.1,0.7,0c0,0,0,0,0,0c0.2,0.2,0.1,0.4-0.1,0.6C321.4,37.2,321.1,37.2,320.9,37.1
				C320.9,37.1,320.9,37.1,320.9,37.1z M318.6,44.9c0.4-0.3,0.5-0.8,0.1-1.2c-0.3-0.4-0.9-0.4-1.3-0.2c0,0-0.1,0-0.1,0.1
				c-0.4,0.3-0.5,0.9-0.1,1.2C317.6,45.2,318.2,45.3,318.6,44.9C318.6,45,318.6,45,318.6,44.9z M330.5,39.7c0.8-0.6,0.9-1.7,0.2-2.4
				c-0.7-0.7-1.9-0.8-2.8-0.3c0,0,0,0-0.1,0.1c-0.8,0.6-0.9,1.7-0.2,2.4C328.3,40.2,329.5,40.3,330.5,39.7
				C330.4,39.7,330.4,39.7,330.5,39.7z M319.6,26.9c0.4-0.3,0.5-0.9,0.1-1.2c-0.3-0.4-0.9-0.4-1.3-0.2c0,0-0.1,0-0.1,0.1
				c-0.4,0.3-0.5,0.9-0.1,1.2C318.5,27.1,319.1,27.2,319.6,26.9C319.5,26.9,319.6,26.9,319.6,26.9z M324.1,71.7
				c0.2,0.2,0.1,0.5-0.1,0.6c-0.2,0.1-0.5,0.1-0.7-0.1c-0.2-0.2-0.1-0.5,0.1-0.6C323.6,71.5,323.9,71.5,324.1,71.7z M327.1,64
				c-0.5,0.3-0.6,0.8-0.2,1.2c0.3,0.4,0.9,0.5,1.3,0.3c0,0,0.1,0,0.1-0.1c0.4-0.3,0.6-0.8,0.2-1.2C328.3,63.8,327.7,63.7,327.1,64
				C327.2,64,327.2,64,327.1,64z M314.8,68.4c-0.9,0.6-1.1,1.6-0.5,2.4c0.6,0.8,1.9,1,2.8,0.4c0,0,0,0,0,0c0.9-0.6,1.1-1.6,0.5-2.4
				C317,68.1,315.7,67.9,314.8,68.4C314.8,68.4,314.8,68.4,314.8,68.4L314.8,68.4z M324.4,82c-0.4,0.3-0.5,0.8-0.2,1.2
				c0.3,0.4,0.9,0.5,1.3,0.3c0,0,0.1,0,0.1-0.1c0.5-0.3,0.6-0.8,0.2-1.2C325.5,81.8,324.9,81.7,324.4,82
				C324.4,81.9,324.4,81.9,324.4,82L324.4,82z M291.1,23.3c-0.3,0.2-0.6,0.3-0.9,0.6c0-0.3,0-0.6-0.1-0.9c-0.2-0.3-0.4-0.6-0.7-0.8
				c0.4,0,0.7,0,1.1-0.1c0.3-0.2,0.6-0.3,0.9-0.6c0,0.3,0,0.6,0.1,0.9c0.2,0.3,0.4,0.6,0.6,0.8C291.9,23.3,291.5,23.3,291.1,23.3z
				 M231,27.6c0.2,0.1,0.4,0.4,0.2,0.6c-0.1,0.2-0.4,0.3-0.7,0.2c-0.2-0.1-0.4-0.4-0.2-0.6C230.5,27.6,230.8,27.5,231,27.6
				C231,27.6,231,27.6,231,27.6L231,27.6z M224.5,21.1c-0.2,0.4,0,0.9,0.5,1.1c0.5,0.2,1,0.1,1.3-0.3c0,0,0-0.1,0.1-0.1
				c0.2-0.4,0-0.9-0.5-1.1C225.4,20.5,224.8,20.7,224.5,21.1C224.5,21.1,224.5,21.1,224.5,21.1z M236.2,24c-0.5,0.9-0.1,1.9,0.9,2.3
				c1,0.4,2.2,0.1,2.7-0.8c0,0,0,0,0,0c0.5-0.9,0.1-1.9-0.9-2.3C237.9,22.8,236.7,23.1,236.2,24C236.2,24,236.2,24,236.2,24
				L236.2,24z M230.9,38.4c-0.2,0.4,0,0.9,0.5,1.1c0.5,0.2,1,0.1,1.3-0.3c0,0,0-0.1,0-0.1c0.2-0.4,0-0.9-0.5-1.2
				c-0.5-0.2-1-0.1-1.3,0.3C230.9,38.3,230.9,38.3,230.9,38.4L230.9,38.4z"/>
			<path class="st1" d="M133,41.9c0.4,0.1,0.7,0.2,1,0.3c-0.1-0.3-0.2-0.6-0.2-0.9c0.1-0.3,0.2-0.6,0.4-0.9
				c-0.4,0.1-0.7,0.2-1.1,0.2c-0.4-0.1-0.7-0.2-1-0.3c0.1,0.3,0.2,0.6,0.2,0.9c-0.1,0.3-0.2,0.6-0.4,0.9C132.2,42,132.6,42,133,41.9
				z M143,85.2c0.2-0.3,0.3-0.6,0.4-0.9c0-0.3-0.1-0.6-0.2-0.9c0.3,0.1,0.7,0.3,1,0.3c0.4,0,0.7-0.1,1.1-0.2
				c-0.2,0.3-0.3,0.6-0.4,0.9c0,0.3,0.1,0.6,0.2,0.9c-0.3-0.1-0.7-0.2-1-0.3C143.7,85.1,143.4,85.2,143,85.2L143,85.2z M182.5,35.5
				c0.2-0.3,0.3-0.6,0.4-0.9c0-0.3-0.1-0.6-0.2-0.9c0.3,0.1,0.7,0.3,1,0.3c0.4,0,0.7-0.1,1.1-0.2c-0.2,0.3-0.3,0.6-0.4,0.9
				c0,0.3,0.1,0.6,0.2,0.9c-0.3-0.1-0.7-0.2-1-0.3C183.2,35.3,182.8,35.4,182.5,35.5z M172.3,54c0.2,0.2,0.2,0.4,0,0.6
				c-0.2,0.2-0.5,0.1-0.7,0c-0.2-0.2-0.2-0.5,0.1-0.6C171.8,53.8,172.1,53.8,172.3,54C172.3,54,172.3,54,172.3,54L172.3,54z
				 M174.5,46.1c-0.4,0.3-0.5,0.9-0.1,1.2c0.3,0.3,0.9,0.4,1.3,0.1c0,0,0,0,0.1-0.1c0.4-0.3,0.5-0.9,0.1-1.2
				C175.6,45.8,175,45.7,174.5,46.1C174.5,46,174.5,46,174.5,46.1L174.5,46.1z M162.7,51.5c-0.8,0.6-0.9,1.7-0.2,2.4
				c0.7,0.7,1.9,0.8,2.8,0.2c0,0,0,0,0.1,0c0.8-0.6,0.9-1.7,0.2-2.4C164.9,51,163.6,50.9,162.7,51.5
				C162.7,51.5,162.7,51.5,162.7,51.5L162.7,51.5z M173.8,64.2c-0.4,0.3-0.5,0.9-0.1,1.2c0.3,0.4,0.9,0.4,1.3,0.1c0,0,0.1,0,0.1-0.1
				c0.4-0.3,0.5-0.9,0.1-1.2C174.9,63.9,174.3,63.8,173.8,64.2C173.9,64.1,173.8,64.1,173.8,64.2L173.8,64.2z M175.5,19.8
				c0.9-0.6,2.1-0.4,2.8,0.3c0,0,0,0,0,0c0.7,0.8,0.5,1.8-0.4,2.4c-0.9,0.6-2.1,0.4-2.8-0.3c0,0,0,0,0,0
				C174.4,21.4,174.6,20.3,175.5,19.8C175.5,19.7,175.5,19.7,175.5,19.8L175.5,19.8z M68.1,29.1c0.2-0.3,0.3-0.6,0.4-0.9
				c0-0.3-0.1-0.6-0.2-0.9c0.3,0.1,0.7,0.2,1,0.3c0.4,0,0.7-0.1,1.1-0.2c-0.2,0.3-0.3,0.6-0.4,0.9c0,0.3,0.1,0.6,0.2,0.9
				c-0.3-0.1-0.7-0.2-1-0.3C68.8,28.9,68.4,28.9,68.1,29.1L68.1,29.1z M79.2,72.2c0.2-0.3,0.3-0.6,0.4-0.9c0-0.3-0.1-0.6-0.2-0.9
				c0.3,0.1,0.7,0.2,1,0.3c0.4-0.1,0.7-0.1,1.1-0.3c-0.2,0.3-0.3,0.6-0.4,0.9c0,0.3,0.1,0.6,0.2,0.9c-0.3-0.1-0.7-0.3-1-0.3
				C79.9,71.9,79.5,72,79.2,72.2L79.2,72.2z M118.6,22.4c0.2-0.3,0.3-0.6,0.4-0.9c0-0.3-0.1-0.6-0.2-0.9c0.3,0.1,0.7,0.2,1,0.3
				c0.4,0,0.7-0.1,1.1-0.2c-0.2,0.3-0.3,0.6-0.4,0.9c0,0.3,0.1,0.6,0.2,0.9c-0.3-0.1-0.7-0.3-1-0.3C119.3,22.2,119,22.3,118.6,22.4z
				 M108.5,40.9c0.2,0.2,0.2,0.4,0,0.6c-0.2,0.2-0.5,0.1-0.7,0c0,0,0,0,0,0c-0.2-0.2-0.2-0.4,0-0.6C108,40.7,108.3,40.7,108.5,40.9
				C108.5,40.8,108.5,40.8,108.5,40.9L108.5,40.9z M110.6,33c-0.4,0.3-0.5,0.9-0.1,1.2c0.3,0.3,0.9,0.4,1.3,0.1c0,0,0,0,0.1-0.1
				c0.4-0.3,0.5-0.9,0.1-1.2C111.7,32.7,111.1,32.6,110.6,33C110.7,32.9,110.6,32.9,110.6,33L110.6,33z M98.9,38.4
				C98,39,98,40.1,98.7,40.8c0.7,0.7,1.9,0.8,2.8,0.2c0,0,0,0,0.1,0c0.8-0.6,0.9-1.7,0.2-2.4C101,37.8,99.8,37.7,98.9,38.4
				C98.9,38.3,98.9,38.3,98.9,38.4L98.9,38.4z M110,51c-0.4,0.3-0.5,0.9-0.1,1.2c0.3,0.4,0.9,0.4,1.3,0.1c0,0,0.1,0,0.1-0.1
				c0.4-0.3,0.5-0.9,0.1-1.2C111.1,50.7,110.5,50.7,110,51C110,51,110,51,110,51z M111.6,6.6c0.9-0.6,2.1-0.4,2.8,0.3
				c0,0,0,0,0.1,0.1c0.7,0.8,0.5,1.8-0.4,2.4c-0.9,0.6-2.1,0.4-2.8-0.3c0,0,0,0,0,0C110.6,8.3,110.8,7.2,111.6,6.6z M9.2,50.3
				c0.2-0.3,0.3-0.6,0.4-0.9c0-0.3-0.1-0.6-0.2-0.9c0.3,0.1,0.7,0.2,1,0.3c0.4,0,0.7-0.1,1.1-0.2c-0.2,0.3-0.3,0.6-0.4,0.9
				c0,0.3,0.1,0.6,0.2,0.9c-0.3-0.1-0.7-0.2-1-0.3C9.9,50.1,9.5,50.2,9.2,50.3L9.2,50.3z M20.3,93.4c0.2-0.3,0.3-0.6,0.4-0.9
				c0-0.3-0.1-0.6-0.2-0.9c0.3,0.1,0.7,0.2,1,0.3c0.4,0,0.7-0.1,1.1-0.2c-0.2,0.3-0.3,0.6-0.4,0.9c0,0.3,0.1,0.6,0.2,0.9
				c-0.3-0.1-0.7-0.2-1-0.3C21,93.2,20.7,93.3,20.3,93.4L20.3,93.4z M59.8,43.7c0.2-0.3,0.3-0.6,0.4-0.9c0-0.3-0.1-0.6-0.2-0.9
				c0.3,0.1,0.7,0.2,1,0.3c0.4,0,0.7-0.1,1.1-0.2c-0.2,0.3-0.3,0.6-0.4,0.9c0,0.3,0.1,0.6,0.2,0.9c-0.3-0.1-0.7-0.2-1-0.3
				C60.5,43.6,60.1,43.6,59.8,43.7z M49.6,62.2c0.2,0.2,0.2,0.4,0,0.6c-0.2,0.2-0.5,0.2-0.7,0c0,0,0,0,0,0c-0.2-0.2-0.2-0.4,0-0.6
				c0,0,0,0,0,0C49.1,62,49.4,62,49.6,62.2C49.6,62.1,49.6,62.1,49.6,62.2L49.6,62.2z M51.8,54.3c-0.4,0.3-0.5,0.9-0.1,1.2
				c0.3,0.3,0.9,0.4,1.3,0.1c0,0,0,0,0.1-0.1c0.4-0.3,0.5-0.9,0.1-1.2c-0.3-0.4-0.9-0.5-1.3-0.2C51.8,54.2,51.8,54.2,51.8,54.3
				L51.8,54.3z M40,59.7c-0.8,0.6-0.9,1.7-0.2,2.4c0.7,0.7,2,0.8,2.8,0.2c0,0,0,0,0.1,0c0.8-0.6,0.9-1.7,0.2-2.4
				c-0.7-0.7-1.9-0.9-2.8-0.3C40,59.6,40,59.6,40,59.7L40,59.7z M51.1,72.3c-0.4,0.3-0.4,0.8,0,1.2c0.3,0.4,0.9,0.4,1.3,0.1
				c0,0,0.1,0,0.1-0.1c0.4-0.3,0.5-0.9,0.1-1.2c-0.3-0.4-0.9-0.4-1.3-0.2C51.2,72.2,51.1,72.3,51.1,72.3z M45.7,27.5
				c-0.2-0.2-0.1-0.5,0.1-0.6c0.2-0.1,0.5-0.1,0.7,0.1c0,0,0,0,0,0c0.2,0.2,0.1,0.5-0.1,0.6C46.2,27.7,45.9,27.7,45.7,27.5
				L45.7,27.5z M42.9,35.3c0.4-0.3,0.5-0.8,0.2-1.2c-0.3-0.4-0.9-0.5-1.3-0.2c0,0-0.1,0-0.1,0c-0.4,0.3-0.5,0.8-0.2,1.2
				C41.7,35.5,42.3,35.6,42.9,35.3C42.8,35.3,42.8,35.3,42.9,35.3L42.9,35.3z M55.1,30.7c0.9-0.6,1.1-1.6,0.4-2.4
				c-0.6-0.8-1.9-1-2.8-0.4c0,0-0.1,0-0.1,0.1c-0.9,0.6-1.1,1.6-0.4,2.4c0.6,0.8,1.8,1,2.7,0.4C55.1,30.7,55.1,30.7,55.1,30.7z
				 M45.3,17.3c0.4-0.3,0.5-0.8,0.2-1.2c-0.3-0.4-1-0.5-1.4-0.2c-0.4,0.3-0.5,0.8-0.2,1.2C44.2,17.5,44.8,17.6,45.3,17.3
				C45.3,17.3,45.3,17.3,45.3,17.3z M79.6,75.5c0.3-0.2,0.6-0.4,0.9-0.6c0,0.3,0,0.6,0.1,1c0.2,0.3,0.4,0.5,0.7,0.8
				c-0.4,0-0.7,0-1.1,0.1c-0.3,0.2-0.6,0.4-0.9,0.6c0-0.3,0-0.6-0.1-1c-0.2-0.3-0.4-0.5-0.7-0.8C78.9,75.5,79.2,75.5,79.6,75.5z
				 M139.6,70.3c-0.3-0.1-0.4-0.4-0.3-0.6c0.1-0.2,0.4-0.3,0.7-0.2c0.3,0.1,0.4,0.4,0.2,0.6C140.2,70.3,139.9,70.4,139.6,70.3
				C139.6,70.3,139.6,70.3,139.6,70.3z M146.3,76.8c0.2-0.4,0-0.9-0.5-1.1c-0.5-0.2-1,0-1.3,0.3c0,0,0,0.1,0,0.1
				c-0.2,0.4,0,0.9,0.5,1.1C145.5,77.4,146.1,77.2,146.3,76.8C146.3,76.8,146.3,76.8,146.3,76.8L146.3,76.8z M134.5,74.1
				c0.5-0.9,0.1-1.9-0.9-2.3c-1-0.4-2.2,0-2.6,0.8c0,0,0,0,0,0c-0.5,0.9,0,1.9,1,2.3C132.9,75.3,134.1,74.9,134.5,74.1
				C134.5,74,134.5,74,134.5,74.1L134.5,74.1z M139.6,59.6c0.2-0.4,0-0.9-0.5-1.1c-0.5-0.2-1-0.1-1.3,0.3c0,0,0,0.1,0,0.1
				c-0.2,0.4,0,0.9,0.5,1.1C138.8,60.2,139.4,60,139.6,59.6C139.6,59.6,139.6,59.6,139.6,59.6z"/>
		</g>
	</g>
</g>
</svg>
