<svg id="ehnmpfkKOqC1" xmlns="http://www.w3.org/2000/svg" xmlns:xlink="http://www.w3.org/1999/xlink" viewBox="0 0 400 400" shape-rendering="geometricPrecision" text-rendering="geometricPrecision"><style><![CDATA[#ehnmpfkKOqC3_to {animation: ehnmpfkKOqC3_to__to 2000ms linear infinite normal forwards}@keyframes ehnmpfkKOqC3_to__to { 0% {transform: translate(89.144997px,90.519997px)} 50% {transform: translate(109.896162px,73.045330px)} 100% {transform: translate(89.144997px,90.519997px)}} #ehnmpfkKOqC5_ts {animation: ehnmpfkKOqC5_ts__ts 2000ms linear infinite normal forwards}@keyframes ehnmpfkKOqC5_ts__ts { 0% {transform: translate(75.255131px,285.957008px) scale(1,1)} 50% {transform: translate(75.255131px,285.957008px) scale(1.060947,0.795444)} 100% {transform: translate(75.255131px,285.957008px) scale(1,1)}} #ehnmpfkKOqC6_to {animation: ehnmpfkKOqC6_to__to 2000ms linear infinite normal forwards}@keyframes ehnmpfkKOqC6_to__to { 0% {transform: translate(48.359015px,-83.798662px)} 50% {transform: translate(43.683008px,-83.105688px)} 100% {transform: translate(48.359015px,-83.798662px)}}]]></style><g id="ehnmpfkKOqC2"><g id="ehnmpfkKOqC3_to" transform="translate(89.144997,90.519997)"><g id="ehnmpfkKOqC3" transform="translate(-61.808131,-82.062846)"><g id="ehnmpfkKOqC4"><g id="ehnmpfkKOqC5_ts" transform="translate(75.255131,285.957008) scale(1,1)"><g id="ehnmpfkKOqC5" transform="translate(-25.015465,-148.344012)"><g id="ehnmpfkKOqC6_to" transform="translate(48.359015,-83.798662)"><g id="ehnmpfkKOqC6" transform="translate(-48.359015,83.798662)"><path id="ehnmpfkKOqC7" d="M126.670000,65.740000C126.140000,61.370000,121.430000,25.830000,105.210000,12.740000L93.350000,5.160000L76.940000,18.340000L107.290000,73.410000Z" fill="rgb(230,230,230)" stroke="none" stroke-width="1"/><path id="ehnmpfkKOqC8" d="M172.560000,98.440000C172.560000,98.440000,157.340000,74.760000,125.710000,64.260000C125.710000,64.260000,125.590000,63.170000,125.320000,61.260000L104.730000,68.660000L106.370000,71.660000C106.370000,71.660000,160.900000,119.860000,161.570000,119.380000C162.240000,118.900000,174.930000,111.820000,174.930000,111.820000Z" fill="rgb(230,230,230)" stroke="none" stroke-width="1"/></g></g><polygon id="ehnmpfkKOqC9" points="178.290000,118.460000 124.120000,74.450000 26.150000,144.930000 83.410000,181.040000 178.290000,118.460000" transform="matrix(1 0 0 1 0.01325075172169 -0.02719363201221)" fill="rgb(47,54,85)" stroke="none" stroke-width="1"/><polygon id="ehnmpfkKOqC10" points="89.390000,0 115.530000,63.830000 17.550000,134.310000 0,69.960000 89.390000,0" fill="rgb(47,54,85)" stroke="none" stroke-width="1"/><polygon id="ehnmpfkKOqC11" points="27.450000,146.910000 17.570000,133.480000 115.690000,62.040000 125.570000,75.460000 27.450000,146.910000" fill="rgb(26,33,56)" stroke="none" stroke-width="1"/></g></g></g></g></g></g></svg>