<svg version="1.1" id="Layer_1" xmlns="http://www.w3.org/2000/svg" x="0" y="0" viewBox="0 0 277.8 154.7" style="enable-background:new 0 0 277.8 154.7" xml:space="preserve"><style>.st1{fill:#cfeaff}.st2{fill:#fff}</style><filter id="blurMe"><feGaussianBlur in="SourceGraphic" stdDeviation="1"/></filter><g style="opacity:.2;filter:url(#blurMe)"><g id="Layer_2_2_"><g id="OBJECT_1_"><path class="st1" d="M107.2 145.9H30.8s0-14.3 12.1-14 11.3 4.4 11.3 4.4S49 121.4 71.8 122c19.6.5 14.5 14.4 14.5 14.4s16.5-1.6 20.9 9.5z"/><path class="st2" d="M31.3 142.2c.1-.5.3-1.1.5-1.7 4.4-2.4 8.6-5.2 12.2-8.6.7 0 1.2.1 1.8.1-4.3 4.1-9.2 7.6-14.5 10.2zm7.2 3.7h-2.4c5.6-3.6 10.7-7.9 15.3-12.6.5.2.9.4 1.2.6-4.2 4.4-8.9 8.4-14.1 12zm33.1-14.5c-3.5 3.5-5 8.4-4.5 14.5h-1.8c-.5-6.5 1.2-11.9 5.1-15.6 3-3 7.3-4.8 12.4-5.5.7.4 1.2.9 1.8 1.5-5.5.3-9.9 2.1-13 5.1zm-17.8 1.4c0-.8.1-1.5.3-2.2 2-2.1 3.8-4.3 5.5-6.5.8-.4 1.5-.6 2.4-.9-2.6 3.3-5.3 6.5-8.2 9.6zm2.6 3c-3.4 3.5-7 6.9-10.9 10h-2.1c4.3-3.4 8.1-7 11.8-10.8 3.9-4 7.4-8.2 10.6-12.8.6-.1 1.1-.1 1.8-.2-3.3 5-7.1 9.6-11.2 13.8zm30.2-.3c-.1.5-.3.8-.3.8 1.5-.1 3-.1 4.5 0-3.6.3-7 1.7-9.5 4.1-1.5 1.5-2.6 3.4-3.2 5.4h-1.9c.6-2.5 1.9-4.7 3.7-6.6 1.8-1.7 4.1-3 6.7-3.7z"/><path class="st1" d="M63.6 85.1H7.8s0-10.5 8.8-10.2 8.3 3.3 8.3 3.3-3.8-10.8 12.8-10.5c14.3.4 10.6 10.5 10.6 10.5s12-1.2 15.3 6.9z"/><path class="st2" d="M12.1 75.9c1-.6 2.2-1 3.4-1.1-2.6 1.9-4.9 4.1-7.2 6.3.4-1.2.9-2.5 1.8-3.5.8-.6 1.4-1.1 2-1.7zm21.8 8.7c1.2-3.8.9-6.7-.9-8.2-1.9-1.5-4.7-1.4-8.5 0v-1.3c4.1-1.4 7.4-1.3 9.4.4 1.4 1.2 2.2 3 2.1 4.8 0 1.6-.3 3.3-.8 4.8v.1h-1.5c.2-.3.2-.4.2-.6zm-11.2-8.7c.5.2 1 .4 1.4.8-4.5 2-8.6 4.9-11.9 8.4h-1.9l.3-.4c3.4-3.7 7.5-6.6 12.1-8.8zm26.4 9.2c1.1-2.2 2.2-4.5 3-6.9.5 0 .9.1 1.4.2-.9 2.3-1.8 4.5-2.9 6.7h-1.5zm8-5.9c.5.2.9.4 1.2.5-.8 1.8-1.6 3.5-2.6 5.3h-1.6c1.2-1.9 2.1-3.8 3-5.8zm-14.5 1.9c2-6 1.4-10.6-1.5-13 .9.2 1.6.4 2.4.6 1.1 1.7 1.7 3.5 1.7 5.5 0 2.5-.4 5-1.2 7.3-.4 1.2-.9 2.4-1.4 3.6H41c.6-1.4 1.2-2.7 1.6-4z"/><path class="st1" d="M270.2 46H150.9s0-22.2 18.8-21.8 17.8 6.9 17.8 6.9-8-23.3 27.4-22.3c30.5.9 22.5 22.2 22.5 22.2s25.8-2.4 32.8 15z"/><path class="st2" d="M254.3 45.5c-5.8-1.8-12.1-5.5-17.9-10.4-10.4-8.9-15.8-19.3-13.7-25.4.6.1 1.2.3 1.8.4-1.9 5.4 3.5 15.5 13.1 23.8 5.5 4.8 11.6 8.3 17.2 10 5.3 1.6 9.4 1.3 11.6-.8.5-.5.9-1.1 1-1.8.4.5.8 1.1 1.1 1.7l-.9 1.2c-.8.8-1.8 1.3-2.8 1.7h-8.7c-.5-.1-1.1-.3-1.8-.4zM165.6 34c2 1.6 3 4.1 3.1 7.1 0 1.6-.2 3.2-.6 4.8h-1.4c1.2-5.1.5-8.9-2.1-11-2.5-1.9-6.3-2.2-11.1-.8.2-.5.5-1.1.8-1.6 4.8-1 8.8-.6 11.3 1.5zm10.5 10c2.8-8.6 2-15.2-2.2-18.6-.5-.4-1-.8-1.7-1.1.9.1 1.9.1 2.6.2 2.6 2.2 4.1 5.5 4.2 9.7 0 3.5-.6 6.9-1.7 10.2l-.6 1.6h-1.5c.5-.7.7-1.3.9-2zm-16.5 2h-1.4c-.2-1-.7-1.9-1.5-2.6-1.2-1.1-3.2-1.3-5.5-.8.1-.4.1-.9.2-1.3 2.6-.4 4.7 0 6.2 1.2 1.1.9 1.8 2.2 2 3.5zm32.8-32.2c.5-.4.9-.7 1.5-1 6 11.1 15.5 22.6 27.3 33.1h-2.6c-11.3-10.2-20.4-21.3-26.2-32.1zm-9.7 27.3c1.8-5.4 2.4-10.1 1.8-14 .6.3 1 .7 1.5 1.1 0 .4.1.7.1 1.1 0 4.2-.7 8.3-2.1 12.3-.5 1.5-1 3-1.7 4.5h-1.5c.8-1.8 1.4-3.4 1.9-5zm50.1-2.4c3 2.7 6.2 5.1 9.5 7.3h-3c-2.7-1.9-5.3-3.9-7.7-6-8.8-7.5-15.6-16.1-19.1-24.1-1-2.2-1.8-4.6-2.3-7h1.8c.5 2.2 1.1 4.3 2.1 6.4 3.5 7.7 10.1 16.1 18.7 23.4zm-34.1-28.1 1.7-.5c.1.4.3.6.4 1 4.9 11 14.3 22.8 26.4 33.2l2 1.7h-2.6l-.5-.4C213.8 35 204.3 23 199.3 11.8c-.3-.5-.5-.8-.6-1.2z"/></g></g></g></svg>