<?xml version="1.0" encoding="utf-8"?>
<!-- Generator: Adobe Illustrator 25.2.1, SVG Export Plug-In . SVG Version: 6.00 Build 0)  -->
<svg version="1.1" id="Layer_1" xmlns="http://www.w3.org/2000/svg" xmlns:xlink="http://www.w3.org/1999/xlink" x="0px" y="0px"
	 viewBox="0 0 277.8 154.7" style="enable-background:new 0 0 277.8 154.7;" xml:space="preserve">
<style type="text/css">
	.st0{opacity:0.1;}
	.st1{fill:#CFEAFF;}
	.st2{fill:#FFFFFF;}
</style>
<g class="st0">
	<g id="Layer_2_1_">
		<g id="OBJECT">
			<path class="st1" d="M105.3,154.7H24.4c0,0,0-16.1,12.8-15.8s12,5,12,5s-5.5-16.8,18.6-16.1c20.8,0.6,15.3,16.2,15.3,16.2
				S100.6,142.2,105.3,154.7z"/>
			<path class="st2" d="M24.9,150.6c0.1-0.6,0.3-1.2,0.5-1.9c4.7-2.7,9.1-5.9,12.9-9.7c0.7,0,1.3,0.1,1.9,0.1
				C35.7,143.7,30.5,147.6,24.9,150.6z"/>
			<path class="st2" d="M32.5,154.7H30c5.9-4.1,11.3-8.9,16.2-14.2c0.5,0.2,0.9,0.4,1.3,0.7C43,146.2,38,150.7,32.5,154.7z"/>
			<path class="st2" d="M67.6,138.4c-3.7,3.9-5.3,9.5-4.8,16.4h-1.9c-0.5-7.3,1.3-13.4,5.4-17.6c3.2-3.4,7.7-5.4,13.1-6.2
				c0.7,0.5,1.3,1,1.9,1.7C75.5,133,70.8,135,67.6,138.4z"/>
			<path class="st2" d="M48.7,140c0-0.9,0.1-1.7,0.3-2.5c2.1-2.4,4-4.9,5.8-7.3c0.8-0.4,1.6-0.7,2.5-1
				C54.6,132.9,51.8,136.5,48.7,140z"/>
			<path class="st2" d="M51.5,143.4c-3.6,4-7.4,7.8-11.5,11.3h-2.2c4.5-3.8,8.6-7.9,12.5-12.2c4.1-4.5,7.8-9.3,11.2-14.4
				c0.6-0.1,1.2-0.1,1.9-0.2C59.8,133.4,55.8,138.6,51.5,143.4z"/>
			<path class="st2" d="M83.4,143c-0.1,0.6-0.3,0.9-0.3,0.9c1.6-0.1,3.2-0.1,4.8,0c-3.8,0.3-7.4,1.9-10.1,4.6
				c-1.6,1.7-2.8,3.8-3.4,6.1h-2c0.6-2.8,2-5.3,3.9-7.4C78.3,145.3,80.7,143.8,83.4,143z"/>
			<path class="st1" d="M59.1,86.1H0c0,0,0-11.8,9.3-11.5s8.8,3.7,8.8,3.7s-4-12.2,13.6-11.8c15.1,0.4,11.2,11.8,11.2,11.8
				S55.6,77,59.1,86.1z"/>
			<path class="st2" d="M4.6,75.8c1.1-0.7,2.3-1.1,3.6-1.2c-2.7,2.2-5.2,4.6-7.6,7.1c0.4-1.4,1-2.8,1.9-4C3.3,77,3.9,76.4,4.6,75.8z
				"/>
			<path class="st2" d="M27.7,85.6c1.3-4.3,1-7.6-1-9.3s-5-1.6-9,0c0-0.5,0-1,0-1.5c4.3-1.6,7.8-1.5,10,0.4c1.5,1.4,2.3,3.4,2.2,5.4
				c0,1.8-0.3,3.7-0.8,5.4v0.1h-1.6C27.6,85.9,27.7,85.8,27.7,85.6z"/>
			<path class="st2" d="M15.8,75.7c0.5,0.2,1.1,0.5,1.5,0.9c-4.8,2.3-9.1,5.5-12.6,9.5h-2L3,85.6C6.6,81.5,10.9,78.2,15.8,75.7z"/>
			<path class="st2" d="M43.7,86.1c1.2-2.5,2.3-5.1,3.2-7.8c0.5,0,1,0.1,1.5,0.2c-0.9,2.6-1.9,5.1-3.1,7.6
				C45.3,86.1,43.7,86.1,43.7,86.1z"/>
			<path class="st2" d="M52.2,79.5c0.5,0.2,0.9,0.4,1.3,0.6c-0.8,2-1.7,4-2.7,6h-1.7C50.3,83.9,51.3,81.7,52.2,79.5z"/>
			<path class="st2" d="M36.9,81.6c2.1-6.8,1.5-12-1.6-14.7c0.9,0.2,1.7,0.4,2.5,0.7c1.2,1.9,1.8,4,1.8,6.2c0,2.8-0.4,5.6-1.3,8.2
				c-0.4,1.4-0.9,2.7-1.5,4.1h-1.6C35.8,84.6,36.4,83.1,36.9,81.6z"/>
			<path class="st1" d="M277.8,42H151.5c0,0,0-25.1,19.9-24.6s18.8,7.8,18.8,7.8s-8.5-26.3,29-25.2c32.3,1,23.9,25.1,23.9,25.1
				S270.4,22.4,277.8,42z"/>
			<path class="st2" d="M261,41.4c-6.1-2-12.8-6.2-18.9-11.7c-11-10.1-16.7-21.8-14.5-28.7c0.6,0.1,1.3,0.3,1.9,0.4
				c-2,6.1,3.7,17.5,13.9,26.9c5.8,5.4,12.3,9.4,18.2,11.3c5.6,1.8,10,1.5,12.3-0.9c0.5-0.6,0.9-1.2,1.1-2c0.4,0.6,0.8,1.2,1.2,1.9
				c-0.3,0.5-0.6,0.9-1,1.3c-0.8,0.9-1.9,1.5-3,1.9H263C262.3,41.8,261.7,41.6,261,41.4z"/>
			<path class="st2" d="M167.1,28.5c2.1,1.8,3.2,4.6,3.3,8c0,1.8-0.2,3.6-0.6,5.4h-1.5c1.3-5.7,0.5-10-2.2-12.4
				c-2.6-2.2-6.7-2.5-11.8-0.9c0.2-0.6,0.5-1.2,0.8-1.8C160.2,25.6,164.4,26.1,167.1,28.5z"/>
			<path class="st2" d="M178.2,39.8c3-9.7,2.1-17.2-2.3-21c-0.5-0.5-1.1-0.9-1.8-1.2c1,0.1,2,0.1,2.8,0.2c2.8,2.5,4.3,6.2,4.4,11
				c0,3.9-0.6,7.8-1.8,11.5c-0.2,0.6-0.4,1.2-0.6,1.8h-1.6C177.8,41.2,178,40.5,178.2,39.8z"/>
			<path class="st2" d="M160.7,42h-1.5c-0.2-1.1-0.7-2.1-1.6-2.9c-1.3-1.2-3.4-1.5-5.8-0.9c0.1-0.5,0.1-1,0.2-1.5
				c2.7-0.5,5,0,6.6,1.4C159.8,39.1,160.5,40.5,160.7,42z"/>
			<path class="st2" d="M195.4,5.7c0.5-0.4,1-0.8,1.6-1.1c6.4,12.5,16.4,25.5,28.9,37.4h-2.7C211.2,30.4,201.6,17.9,195.4,5.7z"/>
			<path class="st2" d="M185.2,36.5c1.9-6.1,2.5-11.4,1.9-15.8c0.6,0.3,1.1,0.8,1.6,1.2c0,0.4,0.1,0.8,0.1,1.2
				c0,4.7-0.7,9.4-2.2,13.9c-0.5,1.7-1.1,3.4-1.8,5.1h-1.6C184,40.1,184.6,38.3,185.2,36.5z"/>
			<path class="st2" d="M238.2,33.8c3.2,3,6.6,5.7,10.1,8.2h-3.2c-2.9-2.1-5.6-4.4-8.2-6.8C227.6,26.7,220.4,17,216.7,8
				c-1.1-2.5-1.9-5.2-2.4-7.9c0.6,0,1.3,0,1.9,0c0.5,2.5,1.2,4.9,2.2,7.2C222.1,16,229.1,25.5,238.2,33.8z"/>
			<path class="st2" d="M202.1,2.1c0.6-0.2,1.2-0.4,1.8-0.6c0.1,0.4,0.3,0.7,0.4,1.1c5.2,12.4,15.1,25.7,27.9,37.5l2.1,1.9h-2.8
				l-0.5-0.5c-13-12-23.1-25.5-28.4-38.1C202.4,2.9,202.2,2.5,202.1,2.1z"/>
		</g>
	</g>
</g>
</svg>
