<svg version="1.1" id="Layer_1" xmlns="http://www.w3.org/2000/svg" x="0" y="0" viewBox="0 0 277.8 154.7" style="enable-background:new 0 0 277.8 154.7" xml:space="preserve"><style>.st1{fill:#cfeaff}.st2{fill:#fff}</style><filter id="blurMe"><feGaussianBlur in="SourceGraphic" stdDeviation="1"/></filter><g filter="url(#blurMe)" style="opacity:.2"><g id="Layer_2_1_"><g id="OBJECT"><path class="st1" d="M105.3 154.7H24.4s0-16.1 12.8-15.8 12 5 12 5-5.5-16.8 18.6-16.1c20.8.6 15.3 16.2 15.3 16.2s17.5-1.8 22.2 10.7z"/><path class="st2" d="M24.9 150.6c.1-.6.3-1.2.5-1.9 4.7-2.7 9.1-5.9 12.9-9.7.7 0 1.3.1 1.9.1-4.5 4.6-9.7 8.5-15.3 11.5zM32.5 154.7H30c5.9-4.1 11.3-8.9 16.2-14.2.5.2.9.4 1.3.7-4.5 5-9.5 9.5-15 13.5zM67.6 138.4c-3.7 3.9-5.3 9.5-4.8 16.4h-1.9c-.5-7.3 1.3-13.4 5.4-17.6 3.2-3.4 7.7-5.4 13.1-6.2.7.5 1.3 1 1.9 1.7-5.8.3-10.5 2.3-13.7 5.7zM48.7 140c0-.9.1-1.7.3-2.5 2.1-2.4 4-4.9 5.8-7.3.8-.4 1.6-.7 2.5-1-2.7 3.7-5.5 7.3-8.6 10.8zM51.5 143.4c-3.6 4-7.4 7.8-11.5 11.3h-2.2c4.5-3.8 8.6-7.9 12.5-12.2 4.1-4.5 7.8-9.3 11.2-14.4.6-.1 1.2-.1 1.9-.2-3.6 5.5-7.6 10.7-11.9 15.5zM83.4 143c-.1.6-.3.9-.3.9 1.6-.1 3.2-.1 4.8 0-3.8.3-7.4 1.9-10.1 4.6-1.6 1.7-2.8 3.8-3.4 6.1h-2c.6-2.8 2-5.3 3.9-7.4 2-1.9 4.4-3.4 7.1-4.2z"/><path class="st1" d="M59.1 86.1H0s0-11.8 9.3-11.5 8.8 3.7 8.8 3.7-4-12.2 13.6-11.8c15.1.4 11.2 11.8 11.2 11.8s12.7-1.3 16.2 7.8z"/><path class="st2" d="M4.6 75.8c1.1-.7 2.3-1.1 3.6-1.2C5.5 76.8 3 79.2.6 81.7c.4-1.4 1-2.8 1.9-4 .8-.7 1.4-1.3 2.1-1.9zM27.7 85.6c1.3-4.3 1-7.6-1-9.3s-5-1.6-9 0v-1.5c4.3-1.6 7.8-1.5 10 .4 1.5 1.4 2.3 3.4 2.2 5.4 0 1.8-.3 3.7-.8 5.4v.1h-1.6c.1-.2.2-.3.2-.5zM15.8 75.7c.5.2 1.1.5 1.5.9-4.8 2.3-9.1 5.5-12.6 9.5h-2l.3-.5c3.6-4.1 7.9-7.4 12.8-9.9zM43.7 86.1c1.2-2.5 2.3-5.1 3.2-7.8.5 0 1 .1 1.5.2-.9 2.6-1.9 5.1-3.1 7.6h-1.6zM52.2 79.5c.5.2.9.4 1.3.6-.8 2-1.7 4-2.7 6h-1.7c1.2-2.2 2.2-4.4 3.1-6.6zM36.9 81.6c2.1-6.8 1.5-12-1.6-14.7.9.2 1.7.4 2.5.7 1.2 1.9 1.8 4 1.8 6.2 0 2.8-.4 5.6-1.3 8.2-.4 1.4-.9 2.7-1.5 4.1h-1.6c.6-1.5 1.2-3 1.7-4.5z"/><path class="st1" d="M277.8 42H151.5s0-25.1 19.9-24.6 18.8 7.8 18.8 7.8-8.5-26.3 29-25.2c32.3 1 23.9 25.1 23.9 25.1s27.3-2.7 34.7 16.9z"/><path class="st2" d="M261 41.4c-6.1-2-12.8-6.2-18.9-11.7-11-10.1-16.7-21.8-14.5-28.7.6.1 1.3.3 1.9.4-2 6.1 3.7 17.5 13.9 26.9 5.8 5.4 12.3 9.4 18.2 11.3 5.6 1.8 10 1.5 12.3-.9.5-.6.9-1.2 1.1-2 .4.6.8 1.2 1.2 1.9-.3.5-.6.9-1 1.3-.8.9-1.9 1.5-3 1.9H263c-.7 0-1.3-.2-2-.4zM167.1 28.5c2.1 1.8 3.2 4.6 3.3 8 0 1.8-.2 3.6-.6 5.4h-1.5c1.3-5.7.5-10-2.2-12.4-2.6-2.2-6.7-2.5-11.8-.9.2-.6.5-1.2.8-1.8 5.1-1.2 9.3-.7 12 1.7zM178.2 39.8c3-9.7 2.1-17.2-2.3-21-.5-.5-1.1-.9-1.8-1.2 1 .1 2 .1 2.8.2 2.8 2.5 4.3 6.2 4.4 11 0 3.9-.6 7.8-1.8 11.5l-.6 1.8h-1.6c.5-.9.7-1.6.9-2.3zM160.7 42h-1.5c-.2-1.1-.7-2.1-1.6-2.9-1.3-1.2-3.4-1.5-5.8-.9.1-.5.1-1 .2-1.5 2.7-.5 5 0 6.6 1.4 1.2 1 1.9 2.4 2.1 3.9zM195.4 5.7c.5-.4 1-.8 1.6-1.1 6.4 12.5 16.4 25.5 28.9 37.4h-2.7c-12-11.6-21.6-24.1-27.8-36.3zM185.2 36.5c1.9-6.1 2.5-11.4 1.9-15.8.6.3 1.1.8 1.6 1.2 0 .4.1.8.1 1.2 0 4.7-.7 9.4-2.2 13.9-.5 1.7-1.1 3.4-1.8 5.1h-1.6c.8-2 1.4-3.8 2-5.6zM238.2 33.8c3.2 3 6.6 5.7 10.1 8.2h-3.2c-2.9-2.1-5.6-4.4-8.2-6.8-9.3-8.5-16.5-18.2-20.2-27.2-1.1-2.5-1.9-5.2-2.4-7.9h1.9c.5 2.5 1.2 4.9 2.2 7.2 3.7 8.7 10.7 18.2 19.8 26.5zM202.1 2.1l1.8-.6c.1.4.3.7.4 1.1 5.2 12.4 15.1 25.7 27.9 37.5l2.1 1.9h-2.8l-.5-.5c-13-12-23.1-25.5-28.4-38.1-.2-.5-.4-.9-.5-1.3z"/></g></g></g></svg>