<svg version="1.1" id="Layer_1" xmlns="http://www.w3.org/2000/svg" x="0" y="0" viewBox="0 0 256 256" style="enable-background:new 0 0 256 256" xml:space="preserve"><style>.st0{fill:#82bfe1}</style><path class="st0" d="M160.7 56.3c16.5 6.6 29 4.5 35.4-5.9 4.2-6.7 5.3-16.6 3.7-28.7-5.5-3.7-11.2-7-17.3-9.8.4 7.4-.7 13.7-3.5 18.3-3 5-7.5 7.6-13.5 7.9-4.1.3-8.8-.7-14-2.8-12.3-5-25.9-15.7-38.3-30.5-1.1-1.3-2.1-2.6-3.1-3.9-3.7.5-7.4 1.2-11 2 2.8 3.8 5.7 7.5 8.8 11.2 17.3 20.7 36 35.6 52.8 42.2zM25.3 83.5c4.9-8 5.7-20.4 2.5-35.5C17.3 61.2 9.3 76.5 4.6 93.1c9.2.7 16.3-2.5 20.7-9.6zm198.8 32.2c-20.8 12.3-42.8 35.7-62.3 65.6-15.5 24-27.8 50.1-35.6 75h3.7c4-.1 8-.3 11.9-.7 5.2-20.7 15.1-43 28.2-63.2 14-21.7 30.2-38.7 45.2-47.7 15.5-9.3 28.2-9 35.8.7 1.2 1.5 2.2 3.2 3.1 5.1 1.4-7.9 2.1-16 1.9-24.4-.1-6.5-.7-12.9-1.7-19.1-8.3-1.1-18.6 1.9-30.2 8.7z"/><path class="st0" d="M230.9 176.9c-8.8-11-31.1 2.6-48.6 30.2-8.9 13.7-15.3 28.8-18.4 42.4-.1.6-.2 1.2-.4 1.8 28.9-8.3 53.5-26.4 70.1-50.5 1.8-10.5 1-19.2-2.7-23.9zM160.7 8.7c.7-1.2 1.2-2.6 1.5-4.3-10.7-3-22-4.6-33.6-4.6 5.6 5.3 11.3 9.1 16.5 11.3 7.3 2.8 12.9 2.1 15.6-2.4zM77.6 151.9c-9.6-12.1-26-12-46.3-.1-8 4.7-16.1 11.1-24.3 18.8 1.9 5.5 4.3 10.9 6.9 16 2.9-2.2 5.8-4.2 8.6-5.9 15.5-9.3 28.2-9 35.8.7 7.7 9.8 9 27.3 4.1 49.7-.4 2-.9 4.1-1.5 6.1 4.2 2.6 8.6 5 13.1 7.1 3.3-9.5 6.1-18.8 8.1-27.9 6.7-29.4 4.9-52.4-4.5-64.5z"/><path class="st0" d="M96.2 125c12.6 15.9 14.9 45.5 6.6 83.2-3 13.7-7.4 27.9-12.8 42.3 6.7 2.1 13.7 3.6 20.9 4.6 9.5-29 24-59 42-86.8 23.8-36.6 51-65.4 76.6-80.4 6-3.6 11.8-6.3 17.3-8.2-6.8-16.7-17-31.7-29.8-44 .9 13-1 23.8-5.8 31.7-4.9 8-12.5 12.4-22.2 13-6.9.3-14.7-1.1-23.5-4.6-20.7-8.3-43.7-26.8-64.7-51.8-4.8-5.7-9.3-11.6-13.5-17.6-18.4 6.1-34.9 16.3-48.5 29.5 0 .1.1.2.1.2 9.3 27.8 9.7 50.5 1.3 64.4-4.9 8-12.5 12.4-22.2 13-5.2.2-10.9-.5-17.2-2.4-.8 6.2-1.2 12.5-1.1 18.8.1 7.4.9 14.7 2.2 21.8 11.6-11.6 23.2-21 34.5-27.8 26-15.3 47.2-15 59.8 1.1z"/><path class="st0" d="M50.7 190.1c-6.6-6.7-15.9-8.6-33.6 4.9 9.9 13.7 22.5 25.4 37.3 34.4 3.2-8.8 2.9-32.6-3.7-39.3z"/></svg>