<svg xmlns="http://www.w3.org/2000/svg" viewBox="0 0 144.94 229.88"><defs><style>.cls-1{isolation:isolate;}.cls-2{fill:#4f64b1;}.cls-3{fill:#fed4d5;}.cls-4{fill:#2c5099;}.cls-5{fill:#d87a1d;}.cls-6{fill:#f7931e;}.cls-7{fill:#4e93fc;}.cls-8{opacity:0.25;}.cls-13,.cls-14,.cls-8{mix-blend-mode:overlay;}.cls-13,.cls-14,.cls-9{fill:#231f20;}.cls-10{fill:#2f3655;}.cls-11{fill:#fff;}.cls-12{fill:#859ce8;}.cls-13{opacity:0.46;}</style></defs><g class="cls-1"><g id="Layer_2" data-name="Layer 2"><g id="Layer_1-2" data-name="Layer 1"><polygon class="cls-2" points="60.24 147.53 9.87 147.05 10.65 95.78 61.02 96.27 60.24 147.53"/><polygon class="cls-3" points="45.07 213.51 43.89 223.99 48.73 224.78 52.2 214.96 45.07 213.51"/><path class="cls-4" d="M91.05,67.42s-12.38,20.19-16.48,21-13.34-6.78-13.34-6.78L64,34.7s9.17,1.09,10.79,6.93,0,31.13,0,31.13l13.9-7.86Z"/><polygon class="cls-5" points="70.75 172.27 7.8 171.66 7.9 165.01 70.85 165.61 70.75 172.27"/><polygon class="cls-6" points="73.44 219.9 66.97 219.84 68.07 147.27 74.53 147.33 73.44 219.9"/><polygon class="cls-6" points="12.18 219.31 5.71 219.25 6.81 146.68 13.28 146.75 12.18 219.31"/><path class="cls-6" d="M69,104.33a9,9,0,0,0,.77-3.49L70,89.53a9.2,9.2,0,0,0-9.22-9.25L10,79.8A9.32,9.32,0,0,0,.54,88.87L.37,100.19a8.87,8.87,0,0,0,.66,3.5Z"/><path class="cls-6" d="M81.23,151.73a7.58,7.58,0,0,0,1.12-3.82,7.85,7.85,0,0,0-7.87-7.9l-66.36-.64A8,8,0,0,0,0,147.12,7.62,7.62,0,0,0,1,151Z"/><path class="cls-7" d="M15.53,34.39s5.36-3,8.93-3,14.7-1.6,14.7-1.6l15.93,1.89s17.53,5.65,18.26,7.91-3,30.93-4.87,35.16-3.42,23.69-3.42,23.69L7.8,120.9s6.55-28.4,7.94-35.63S15.53,34.39,15.53,34.39Z"/><g class="cls-8"><path class="cls-9" d="M49.22,46.58S62.41,58.71,72,55.82c1-7.75,1.74-15.1,1.38-16.2-.73-2.26-18.26-7.91-18.26-7.91L41.83,30.58l-.39,0Z"/><path class="cls-9" d="M26.45,97.27c3.12-4.13,22.35-15.1,22.35-15.1l4.9-20.26s-18.65,6.48-21.78-.38,2.3-16.79-6-20.53a33.32,33.32,0,0,1-6.3-3.85c-.64,10.05-2.74,42-3.9,48.12C14.35,92.5,7.8,120.9,7.8,120.9L37,109.45C31.22,105.24,24.62,99.68,26.45,97.27Z"/></g><path class="cls-10" d="M67.51,122S76,135.28,74.8,146.75s-22,70.21-22,70.21l-8.91-2.08S54.56,151.3,49,145.76s-25.12-10-25.12-10S43,106.5,67.51,122Z"/><path class="cls-3" d="M115.57,185.09l7.75,10.81s4.62-2,4.4-3.7S120,181.39,120,181.39Z"/><path class="cls-10" d="M121.43,194.39s5.63-.95,6-3.44-.21-3.25,1.57-2.48,9.55,1.34,13.9.75.35,1.88-.55,2.62-18.5,7.69-18.5,7.69A3.84,3.84,0,0,1,121.43,194.39Z"/><path class="cls-11" d="M94.36,51.39l2.52,2.19S84.22,68.94,83.54,69.1,64,67.25,64,67.25l.88-13.48,2.79-4s15,6.14,15.06,5.64S94.36,51.39,94.36,51.39Z"/><polygon class="cls-12" points="84.73 58.12 64.73 52.27 51.16 72.45 71.49 78.3 85.7 72.78 97.73 53.42 84.73 58.12"/><path class="cls-10" d="M50.21,227.72c-.52,1.79-3.14,2.63-5.85,1.89s-4.49-2.79-4-4.58,3.5-3.8,6.21-3.05S50.73,225.93,50.21,227.72Z"/><path class="cls-3" d="M57.19,61.69s1.1-5.48,5.45-6.19,9.7.09,8.38,3.07-7.43,1.93-7.43,1.93-4.68,6-6.45,4.68S57.19,61.69,57.19,61.69Z"/><path class="cls-7" d="M16.51,33.84s7.23-4.93,10.67,3.59-2.34,36.69-2.34,36.69L58.27,57.79l3.4,5.61S23.58,106.57,9,90.2,8.29,37.25,16.51,33.84Z"/><path class="cls-10" d="M68.89,13.61,70.14,10s-3.55-1.53-4.71-3.54S61.78.22,56.16,0,44.47,8.22,46.58,14.9,57.1,16.66,57.1,16.66,67.62,18.76,68.89,13.61Z"/><path class="cls-3" d="M48.15,17.91,37,30.29S40.8,48.05,49,46.63s3.71-8.7,3.71-8.7l5.22-7.45Z"/><polygon class="cls-2" points="84.73 58.12 84.67 58.11 71.82 78.18 85.7 72.78 97.73 53.42 84.73 58.12"/><path class="cls-13" d="M48.39,215.93c2-12.16,6.29-36.54,10.23-51.77,3.2-12.32,9.43-23.77,14-31.34A59,59,0,0,0,67.51,122C43,106.5,23.91,135.78,23.91,135.78s19.59,4.43,25.12,10-5.13,69.12-5.13,69.12Z"/><path class="cls-14" d="M57.92,30.48,48.15,17.91,45.3,21.07c0,6.08.39,20,3.92,25.51,7.85-1.53,3.48-8.65,3.48-8.65Z"/><path class="cls-3" d="M94.87,62.3s-1.44-5.84-4.71-3.54-.1,6.65-.1,6.65l-1.92,3.15S95,68.79,94.87,62.3Z"/><path class="cls-3" d="M47.87,19.65s-4-6.53-.65-7.75,4,4.54,4,4.54,4.62-2,4.94-6.2c0,0,8.8,8.58,12.71,3.37,0,0-2.61,21-11.52,19.12S47.78,25.64,47.87,19.65Z"/><path class="cls-14" d="M58.55,22.25c0,.69-1.16,1.24-2.57,1.22s-2.54-.58-2.53-1.27S54.61,21,56,21,58.56,21.56,58.55,22.25Z"/><path class="cls-14" d="M66.46,22.51c0,.59-.7,1.06-1.55,1s-1.52-.49-1.51-1.08.7-1.05,1.54-1S66.47,21.93,66.46,22.51Z"/><path class="cls-13" d="M16,89.85C-2.18,86.6,13.59,43.6,17.69,33.21a7.79,7.79,0,0,0-1.18.63c-8.22,3.41-22,40-7.48,56.36,5.05,5.68,12.9,4.1,21-.38A41.08,41.08,0,0,1,16,89.85Z"/><path class="cls-10" d="M123.33,184.09S72.6,95.71,60.71,93.93,20.84,97.55,9.34,115.08s2.26,30.32,16.22,29.79,32.86-12,32.86-12l58.37,55.5Z"/><path class="cls-13" d="M59.58,123.39s-30.33,13.44-40,12.1c-6.93-1-9.64-13-10.61-19.8-10.78,17.22,2.8,29.7,16.6,29.18,14-.54,32.86-12,32.86-12l58.37,55.5,3.59-2.35Z"/></g></g></g></svg>