<svg xmlns="http://www.w3.org/2000/svg" viewBox="0 0 204.35 214.65"><defs><style>.cls-2{fill:#f15a24}.cls-3{opacity:.34}.cls-3,.cls-9{mix-blend-mode:overlay}.cls-4{fill:#4d4d4d}.cls-5{fill:#edb49f}.cls-7{fill:#fed4d5}.cls-9{opacity:.76}</style></defs><g style="isolation:isolate"><g id="Layer_2" data-name="Layer 2"><g id="Layer_1-2" data-name="Layer 1"><path class="cls-2" d="m91.6 144 2.81-80.74c.11-3.26 2.08-5.69 4.64-5.72l22-.23c1.41 0 12.12.13 14.83 4.94l29.2 60.52c4.57 7.46-6.69 18.17-11.25 10.71L133.41 100l8 43.56c.51 2.79-.37 5.55-2.22 6.83-13.89 9.54-28.59 10.06-44.21.56A7.9 7.9 0 0 1 91.6 144z"/><path class="cls-3" d="M121.58 149.32c-5.22-1.78-4.11-14.87-4.19-18.27s11.91-5.36 14.27-8.52S130 91.15 130 91.15c4.77 6.11 9.51 16.64 12.34 23.51L133.41 100l8 43.56c.51 2.79-.37 5.55-2.22 6.83-7.36 5.06-14.95 7.55-22.79 7.39 3.33-2.48 8.97-7.17 5.18-8.46z"/><path class="cls-2" d="m160.67 135.14-34.83 11.18-3.92-16.32 35.49-10.84c7.5-1.56 10.77 14.38 3.26 15.98z"/><path class="cls-4" d="M126.48 149.65s56-9 68.77.13 17.12 34.51-21.15 45.2-74.81 3.64-74.81 3.64L81.84 213.5s-4.74-.15-4.09-8.43S88 192 88 192l4.89-4.59 34.87-2.89-27.23-.52s-.23-31.23 1-31.59 24.95-2.76 24.95-2.76z"/><path class="cls-5" d="M99.42 198.64a14.36 14.36 0 0 1-1-3.62c-.35-2.57.67-6.32 1.27-8.23l13-1.07a83.92 83.92 0 0 0-.46 14.51c-7.31-.61-12.02-1.44-12.81-1.59z"/><path class="cls-3" d="m88 192 4.89-4.59 34.87-2.89-27.23-.52v-5.84l3.19.33c10.5 1.11 35.92-2.86 46.64-8.59s21.94-2.23 21.94-2.23c-12.42.94-23 11.42-35.54 16s-39.5 7.75-42.67 7.92S83.28 200 83.12 205a16 16 0 0 0 1.17 6.38l-2.45 2.09s-4.74-.15-4.09-8.43S88 192 88 192z"/><path class="cls-4" d="M78.84 148.19s-55.35-12.36-68.65-4.08S-9 177.52 28.53 190.52s74.47 8.21 74.47 8.21l16.51 15.92s4.74.15 4.6-8.16-9.46-13.73-9.46-13.73l-4.6-4.88-34.63-5 27.24 1.23s2.14-31.16 1-31.59-24.82-4.33-24.82-4.33z"/><path class="cls-2" d="m135 144.82-10.12-81.6a6.74 6.74 0 0 0-6.48-5.91l-28.56-.87C88 56.38 74.1 56.21 71 61l-33.09 60.25c-5.34 7.4 10.13 18.54 15.47 11.14l23.8-33.22-6.83 43.75a6.71 6.71 0 0 0 3.43 7c18.79 10 37.93 11 57.44 1.85a6.7 6.7 0 0 0 3.78-6.95z"/><path d="M119.68 21.79c.58-.1 11.29-14.25 1.06-21.79 0 0-1.13 5.39-4.15 6.48 0 0-1.67-4.13-4-5.15 0 0-3.82 4.82-9.79 5s-10.65-3.68-15.43-1.1-4.18 6.28-4.18 6.28-6.73 1.69-6.62 7.28 7.18 15.84 7.18 15.84 5.25 2.75 9.54.85 1.18-10 3.26-11.93 23.13-1.76 23.13-1.76z" style="fill:#f7931e"/><path class="cls-7" d="m94.29 39.25-3.15 18.87c-.74 9.85 21.54 11.52 22.28 1.67L111 43.51l-15.88-4"/><path d="M121.44.57c.79 2.9 1.57 8.48-2.71 11.68l-1.9-2.53s-2.53 5.16-10.68 6.79-16.29-.4-17.38 2.92a4.07 4.07 0 0 0 1.72 4.9s-5.09-1.44-6.75 1.18a6 6 0 0 0-.94 4.81s-5-6-4.72-10.52 5.11-8.29 5.11-8.29-6.73 1.69-6.62 7.28 7.18 15.84 7.18 15.84 5.25 2.75 9.54.85 1.18-10 3.26-11.93 23.13-1.76 23.13-1.76c.57-.1 10.76-13.56 1.76-21.22z" style="opacity:.32;mix-blend-mode:overlay"/><path class="cls-9" d="M112.5 53.72 111 43.51l-15.88-4-.78-.22L93 46.72a30.13 30.13 0 0 0 19.5 7z"/><path class="cls-7" d="M118.31 16.43s7.32 22.83 3 28.33-5.87 7-13.37 6.38-14.68-9-14.68-9-5.93-2-8.13-5.68-.87-9.07 2.15-7.76a10.06 10.06 0 0 1 4.4 3.69s4 1.15 3.52-3-3.2-4.89-1.33-8.19 22.13 3.02 24.44-4.77z"/><path class="cls-9" d="M118.31 16.43a4.91 4.91 0 0 1-3.18 3.14c2.32 7 6.18 19.86 4.74 23.34-1.58 3.8-5 6.93-6.51 8.14 3.28-.58 5-2.45 8-6.29 4.27-5.5-3.05-28.33-3.05-28.33z"/><path class="cls-3" d="M96.48 149.31c6.64-1.64 4.15-14.89 4-18.32s-15.9-5.76-19.22-9-.35-31.63-.35-31.63c-5.71 6-11 16.52-14.14 23.38l10.41-14.57-6.83 43.75a6.71 6.71 0 0 0 3.43 7c10 5.32 20 8.06 30.17 8.13-4.58-2.64-12.28-7.55-7.47-8.74z"/><path class="cls-5" d="m83.38 129.36 14.18 3.35s-1-3.41 3.49-3.58 4.67 5.47 4.67 5.47 8.6.36 9.86 6.23-2.32 12-7.28 10.81-12.76-3.24-14.68-5.34l-1.91-2.09-12-4.32z"/><path class="cls-2" d="m44.59 133.86 46.13 12.3 3.78-16.33-46.95-12C37.69 116 34.72 132 44.59 133.86z"/><path class="cls-5" d="M102.85 198.75a14.74 14.74 0 0 0 1.19-3.56c.5-2.55-.28-6.35-.77-8.29L90.38 185a85.42 85.42 0 0 1-.38 14.55c7.3-.16 12.05-.71 12.85-.8z"/><path class="cls-3" d="m114.63 192.76-4.6-4.88-34.63-5 27.24 1.23s.16-2.39.37-5.83l-3.2.13c-10.55.46-35.68-5.05-46-11.43S32 163.41 32 163.41c12.34 1.7 22.27 12.8 34.49 18.18s38.95 10.15 42.1 10.51 10.27 9 10.11 14a15.82 15.82 0 0 1-1.55 6.29l2.32 2.24s4.74.15 4.6-8.16-9.44-13.71-9.44-13.71z"/><path d="m153.73 130.1-10.63 47.72a6.92 6.92 0 0 1-6.92 5.42c-14.73-.33-54-1.25-68.84-1.9a6.92 6.92 0 0 1-6.54-5.93l-7-48.07a6.93 6.93 0 0 1 7-7.92l86.3 2.24a6.94 6.94 0 0 1 6.63 8.44z" style="fill:#e6e6e6"/><rect x="59.6" y="181.68" width="84.55" height="6.61" rx="1.17" transform="rotate(1.75 102.05 185.418)" style="fill:#b3b3b3"/><path d="M109.71 153.8a5.53 5.53 0 0 0-1.61-3.8 5 5 0 0 1-4.22 2.13 4.72 4.72 0 0 1-4.81-3.55 6 6 0 0 0-3.53 5.26c0 3.37 3.18 6.1 7.09 6.09s7.09-2.76 7.08-6.13z" style="fill:#fff"/><path class="cls-9" d="M110 35.76c0 .56-1.91 1-4.22.88s-4.17-.58-4.15-1.14 1.9-1 4.21-.88 4.16.58 4.16 1.14z"/></g></g></g></svg>