<svg xmlns="http://www.w3.org/2000/svg" viewBox="0 0 144.94 229.88"><defs><style>.cls-2{fill:#4f64b1}.cls-3{fill:#fed4d5}.cls-6{fill:#f7931e}.cls-7{fill:#4e93fc}.cls-13,.cls-14{mix-blend-mode:overlay;fill:#231f20}.cls-10{fill:#2f3655}.cls-13{opacity:.46}</style></defs><g style="isolation:isolate"><g id="Layer_2" data-name="Layer 2"><g id="Layer_1-2" data-name="Layer 1"><path class="cls-2" d="m60.24 147.53-50.37-.48.78-51.27 50.37.49-.78 51.26z"/><path class="cls-3" d="m45.07 213.51-1.18 10.48 4.84.79 3.47-9.82-7.13-1.45z"/><path d="M91.05 67.42s-12.38 20.19-16.48 21-13.34-6.78-13.34-6.78L64 34.7s9.17 1.09 10.79 6.93 0 31.13 0 31.13l13.9-7.86z" style="fill:#2c5099"/><path style="fill:#d87a1d" d="m70.75 172.27-62.95-.61.1-6.65 62.95.6-.1 6.66z"/><path class="cls-6" d="m73.44 219.9-6.47-.06 1.1-72.57 6.46.06-1.09 72.57zm-61.26-.59-6.47-.06 1.1-72.57 6.47.07-1.1 72.56zM69 104.33a9 9 0 0 0 .77-3.49L70 89.53a9.2 9.2 0 0 0-9.22-9.25L10 79.8a9.32 9.32 0 0 0-9.46 9.07l-.17 11.32a8.87 8.87 0 0 0 .66 3.5z"/><path class="cls-6" d="M81.23 151.73a7.58 7.58 0 0 0 1.12-3.82 7.85 7.85 0 0 0-7.87-7.9l-66.36-.64A8 8 0 0 0 0 147.12 7.62 7.62 0 0 0 1 151z"/><path class="cls-7" d="M15.53 34.39s5.36-3 8.93-3 14.7-1.6 14.7-1.6l15.93 1.89s17.53 5.65 18.26 7.91-3 30.93-4.87 35.16-3.42 23.69-3.42 23.69L7.8 120.9s6.55-28.4 7.94-35.63-.21-50.88-.21-50.88z"/><g style="mix-blend-mode:overlay;opacity:.25"><path d="M49.22 46.58S62.41 58.71 72 55.82c1-7.75 1.74-15.1 1.38-16.2-.73-2.26-18.26-7.91-18.26-7.91l-13.29-1.13h-.39zM26.45 97.27c3.12-4.13 22.35-15.1 22.35-15.1l4.9-20.26s-18.65 6.48-21.78-.38 2.3-16.79-6-20.53a33.32 33.32 0 0 1-6.3-3.85c-.64 10.05-2.74 42-3.9 48.12C14.35 92.5 7.8 120.9 7.8 120.9L37 109.45c-5.78-4.21-12.38-9.77-10.55-12.18z" style="fill:#231f20"/></g><path class="cls-10" d="M67.51 122s8.49 13.28 7.29 24.75-22 70.21-22 70.21l-8.91-2.08S54.56 151.3 49 145.76s-25.12-10-25.12-10S43 106.5 67.51 122z"/><path class="cls-3" d="m115.57 185.09 7.75 10.81s4.62-2 4.4-3.7-7.72-10.81-7.72-10.81z"/><path class="cls-10" d="M121.43 194.39s5.63-.95 6-3.44-.21-3.25 1.57-2.48 9.55 1.34 13.9.75.35 1.88-.55 2.62-18.5 7.69-18.5 7.69a3.84 3.84 0 0 1-2.42-5.14z"/><path d="m94.36 51.39 2.52 2.19S84.22 68.94 83.54 69.1 64 67.25 64 67.25l.88-13.48 2.79-4s15 6.14 15.06 5.64 11.63-4.02 11.63-4.02z" style="fill:#fff"/><path style="fill:#859ce8" d="m84.73 58.12-20-5.85-13.57 20.18 20.33 5.85 14.21-5.52 12.03-19.36-13 4.7z"/><path class="cls-10" d="M50.21 227.72c-.52 1.79-3.14 2.63-5.85 1.89s-4.49-2.79-4-4.58 3.5-3.8 6.21-3.05 4.16 3.95 3.64 5.74z"/><path class="cls-3" d="M57.19 61.69s1.1-5.48 5.45-6.19 9.7.09 8.38 3.07-7.43 1.93-7.43 1.93-4.68 6-6.45 4.68.05-3.49.05-3.49z"/><path class="cls-7" d="M16.51 33.84s7.23-4.93 10.67 3.59-2.34 36.69-2.34 36.69l33.43-16.33 3.4 5.61S23.58 106.57 9 90.2s-.71-52.95 7.51-56.36z"/><path class="cls-10" d="M68.89 13.61 70.14 10s-3.55-1.53-4.71-3.54S61.78.22 56.16 0s-11.69 8.22-9.58 14.9 10.52 1.76 10.52 1.76 10.52 2.1 11.79-3.05z"/><path class="cls-3" d="M48.15 17.91 37 30.29s3.8 17.76 12 16.34 3.71-8.7 3.71-8.7l5.22-7.45z"/><path class="cls-2" d="m84.73 58.12-.06-.01-12.85 20.07 13.88-5.4 12.03-19.36-13 4.7z"/><path class="cls-13" d="M48.39 215.93c2-12.16 6.29-36.54 10.23-51.77 3.2-12.32 9.43-23.77 14-31.34A59 59 0 0 0 67.51 122c-24.51-15.5-43.6 13.78-43.6 13.78s19.59 4.43 25.12 10-5.13 69.12-5.13 69.12z"/><path class="cls-14" d="m57.92 30.48-9.77-12.57-2.85 3.16c0 6.08.39 20 3.92 25.51 7.85-1.53 3.48-8.65 3.48-8.65z"/><path class="cls-3" d="M94.87 62.3s-1.44-5.84-4.71-3.54-.1 6.65-.1 6.65l-1.92 3.15s6.86.23 6.73-6.26zm-47-42.65s-4-6.53-.65-7.75 4 4.54 4 4.54 4.62-2 4.94-6.2c0 0 8.8 8.58 12.71 3.37 0 0-2.61 21-11.52 19.12s-9.57-7.09-9.48-13.08z"/><path class="cls-14" d="M58.55 22.25c0 .69-1.16 1.24-2.57 1.22s-2.54-.58-2.53-1.27S54.61 21 56 21s2.56.56 2.55 1.25zm7.91.26c0 .59-.7 1.06-1.55 1s-1.52-.49-1.51-1.08.7-1.05 1.54-1 1.53.5 1.52 1.08z"/><path class="cls-13" d="M16 89.85c-18.18-3.25-2.41-46.25 1.69-56.64a7.79 7.79 0 0 0-1.18.63c-8.22 3.41-22 40-7.48 56.36 5.05 5.68 12.9 4.1 21-.38a41.08 41.08 0 0 1-14.03.03z"/><path class="cls-10" d="M123.33 184.09S72.6 95.71 60.71 93.93s-39.87 3.62-51.37 21.15 2.26 30.32 16.22 29.79 32.86-12 32.86-12l58.37 55.5z"/><path class="cls-13" d="M59.58 123.39s-30.33 13.44-40 12.1c-6.93-1-9.64-13-10.61-19.8-10.78 17.22 2.8 29.7 16.6 29.18 14-.54 32.86-12 32.86-12l58.37 55.5 3.59-2.35z"/></g></g></g></svg>