<svg xmlns="http://www.w3.org/2000/svg" xmlns:xlink="http://www.w3.org/1999/xlink" viewBox="0 0 405.54 467.48"><defs><style>.cls-1{isolation:isolate;}.cls-11,.cls-2{fill:#fff;}.cls-2,.cls-49{opacity:0;}.cls-3,.cls-4,.cls-5,.cls-6,.cls-7,.cls-8,.cls-9{fill-rule:evenodd;}.cls-3{fill:url(#_142);}.cls-4,.cls-5,.cls-6,.cls-7,.cls-8{opacity:0.3;}.cls-10,.cls-4,.cls-5,.cls-6,.cls-7,.cls-8{mix-blend-mode:multiply;}.cls-4{fill:url(#_559);}.cls-5{fill:url(#_559-2);}.cls-6{fill:url(#_559-3);}.cls-7{fill:url(#_559-4);}.cls-8{fill:url(#_559-5);}.cls-9{fill:url(#_159);}.cls-10{opacity:0.65;fill:url(#radial-gradient);}.cls-12{fill:#4f64b1;}.cls-13{fill:#cae0ff;}.cls-14{fill:#162659;}.cls-15{fill:#a29b00;}.cls-16{fill:#00f7e5;}.cls-17{fill:#859ce8;}.cls-18{fill:#fb9844;}.cls-19{fill:#2f3655;}.cls-20{fill:#fed4d5;}.cls-21{fill:#2c5099;}.cls-22{fill:#d87a1d;}.cls-23{fill:#f7931e;}.cls-24{fill:#4e93fc;}.cls-25{opacity:0.25;}.cls-25,.cls-27,.cls-28,.cls-35,.cls-37,.cls-46,.cls-47,.cls-48{mix-blend-mode:overlay;}.cls-26,.cls-27,.cls-28,.cls-35,.cls-37{fill:#231f20;}.cls-27{opacity:0.46;}.cls-29{fill:#662d91;}.cls-30{fill:#eff4f4;}.cls-31{fill:#ccc;}.cls-32{fill:#fc6b76;}.cls-33{fill:#f15a24;}.cls-34{fill:#e8863d;}.cls-35{opacity:0.41;}.cls-36{fill:#212638;}.cls-37{opacity:0.58;}.cls-38{fill:#d67432;}.cls-39{fill:#f2b3bb;}.cls-40{fill:#e6e6e6;}.cls-41{fill:#b3b3b3;}.cls-42{fill:#1a2138;}.cls-43{fill:#f04665;}.cls-44{fill:#4d4d4d;}.cls-45{fill:#edb49f;}.cls-46{opacity:0.34;}.cls-47{opacity:0.32;}.cls-48{opacity:0.76;}.cls-49{fill:none;}</style><radialGradient id="_142" cx="-558.76" cy="4329.08" r="224.4" gradientTransform="translate(-1983.45 -3532.4) rotate(-35.79)" gradientUnits="userSpaceOnUse"><stop offset="0.01" stop-color="#4fb1ff"/><stop offset="0.21" stop-color="#4eaefc"/><stop offset="0.37" stop-color="#49a6f3"/><stop offset="0.5" stop-color="#4298e3"/><stop offset="0.63" stop-color="#3883cc"/><stop offset="0.75" stop-color="#2b69af"/><stop offset="0.86" stop-color="#1a498b"/><stop offset="0.96" stop-color="#072462"/><stop offset="1" stop-color="#001652"/></radialGradient><linearGradient id="_559" x1="259.29" y1="2124.85" x2="259.29" y2="1851.68" gradientTransform="translate(-520.84 -1556.4) rotate(-14.34)" gradientUnits="userSpaceOnUse"><stop offset="0" stop-color="#e8ddff"/><stop offset="1" stop-color="#aa8ad8"/></linearGradient><linearGradient id="_559-2" x1="-546.95" y1="4359.12" x2="-546.95" y2="4322.76" gradientTransform="translate(-1983.45 -3532.4) rotate(-35.79)" xlink:href="#_559"/><linearGradient id="_559-3" x1="-551.89" y1="4369.64" x2="-551.89" y2="4364.35" gradientTransform="translate(-1983.45 -3532.4) rotate(-35.79)" xlink:href="#_559"/><linearGradient id="_559-4" x1="-483.72" y1="4417.08" x2="-483.72" y2="4297.77" gradientTransform="translate(-1983.45 -3532.4) rotate(-35.79)" xlink:href="#_559"/><linearGradient id="_559-5" x1="-401.79" y1="4504.12" x2="-401.79" y2="4389.14" gradientTransform="translate(-1983.45 -3532.4) rotate(-35.79)" xlink:href="#_559"/><radialGradient id="_159" cx="-565.99" cy="4311.79" r="89.55" gradientTransform="translate(-1983.45 -3532.4) rotate(-35.79)" gradientUnits="userSpaceOnUse"><stop offset="0" stop-color="#a9faff"/><stop offset="1" stop-color="#70b7f8"/></radialGradient><radialGradient id="radial-gradient" cx="208.75" cy="539.84" fx="295.62292055002627" fy="539.8367273046952" r="87.75" gradientTransform="translate(10.53 -515.49) scale(0.97 1.4)" gradientUnits="userSpaceOnUse"><stop offset="0" stop-color="#0069b0"/><stop offset="1" stop-color="#0091d6"/></radialGradient></defs><g class="cls-1"><g id="Layer_2" data-name="Layer 2"><g id="OBJECT"><rect class="cls-2" y="14.91" width="405.54" height="452.57"/><path class="cls-3" d="M316.68,226.38c.84,1.15,1.64,2.31,2.41,3.47a138.2,138.2,0,0,1,17.78,36.94,139.74,139.74,0,0,1-207.15,160c-2.41-1.48-4.79-3.05-7.11-4.71a139.78,139.78,0,0,1-11.55-218.86c2.64-2.34,5.38-4.58,8.26-6.72a0,0,0,0,0,0,0c.76-.61,1.55-1.17,2.33-1.74a140.59,140.59,0,0,1,26.69-15.11A131.46,131.46,0,0,1,166,173.43a139.72,139.72,0,0,1,150.68,52.95Z"/><path class="cls-4" d="M255.41,178.42l-1.09-.06a30.34,30.34,0,0,0-6,.51c-1.66.36-3.07,1.23-4.54,1.65a36.43,36.43,0,0,1-8,1.14c-3.29.16-6.26,1.11-9.52,1.35-8.52.59-16.73-3.59-24.6-6.32a36,36,0,0,1-4.9-1.89,11,11,0,0,0-3.7-.89c-2.84-.39-6.06-.59-8.69.84-1.59.85-2.22,2.56-3.16,4.11-1.3,2.1-1.76,2.87.51,3.78,4,1.59,9,2.6,8.64,8.06a71.63,71.63,0,0,1-.89,10.26c-.8,3.77-.56,8.45-3.26,11.59-2,2.33-5.63,2.21-8.47,3-2.5.68-5.26,1-7.52,2.38-1.77,1.05-2.74,2.64-4.2,4.05-2.24,2.16-5.35,3.7-8.23,2.16-1.11-.57-1-1-2.42-1a12,12,0,0,0-4.06,1.28c-3.47,1.48-6.47,4-9.93,5.46a66.65,66.65,0,0,1-7.37,2.1c-1.59.41-3.16,1.49-4.67,1.62-.87.08-2-.15-2.94-.12a9.93,9.93,0,0,0-6.77,2.21,45.8,45.8,0,0,0-12.16,14.28c-1.68,3.34-.59,4.85,2.12,6.76,2.32,1.64,6.21,3,7.36,5.73,1,2.29.55,5,1.22,7.34s1.24,4.5,3.42,5.78c3.65,2.17,8.3,2.5,12.15,4.2,4.32,1.94,9.41,6.81,7.63,11.84-.89,2.47-.62,4.9-.58,7.5,0,1.77.58,4.18-1.47,5.05-1.36.57-3.41-.27-4.8.18a5,5,0,0,0-3,3.3c-.91,2.25-2.45,4.9-2.72,7.34-.52,4.46,3.72,10,7.43,12,4.45,2.42,8.78,5.11,14,4.21,3.34-.57,6.41-2.76,9.82-1.09,2.09,1,3,2.88,4.64,4.34s3.46,2.42,5,4.13a33.57,33.57,0,0,0,4.5,4.34,69.16,69.16,0,0,0,7.18,5.45c3,1.81,6.39,2.19,9.59,3.28,2.87.95,5.38.65,8.31,1.25,3.19.65,6.65.57,9.57,2.12,2.21,1.17,4.3,2.6,6.58,3.68,6.38,2.93,9.08-4,10.91-8.88a40.15,40.15,0,0,0,2.87-10,42.13,42.13,0,0,1,1.36-8.42,58.21,58.21,0,0,1,2.88-8,9.45,9.45,0,0,0,1.32-3,7.74,7.74,0,0,0-1.59-5.18c-2.32-3.38-4.79-8.14-7.9-10.8-3.37-2.95-7.07.24-9.89,2.19-1.62,1.11-3.82,2.29-5.68,1.36s-2.58-2.61-4.57-3.39a4.7,4.7,0,0,0-5.59,1.42c-.66.74-.95,1.56-1.69,2.26s-1.71.77-1.88,1.91c-.38,2.37,3.26,2.62,4.92,3.11,3,.86,3.42,1.19,3.92,4.23.28,1.75.57,4.58-1.6,5.1-1.55.36-4.31-1.62-5.75-2-6.12-1.66-12.31-3.32-12.35-11,0-2.4,1.14-3,1.85-5.05s-.06-4.61.81-6.78c1.17-2.84,4.9-4.52,7.32-6.29a56.26,56.26,0,0,1,9.57-5.53c2.31-1.06,4-1.07,6.4-1.28s3.71-2.27,5.8-3.16c3.85-1.62,7-.23,10.86.56s5.63,2.57,8.57,5c5.89,5,11.8,10.6,16.32,16.9,3.89,5.5,7.54,11.44,12.55,15.9a54.93,54.93,0,0,0,7.63,5.6c.87.54,1,.08,1.53,1.25a16.35,16.35,0,0,1,.71,4c0,2.14-1.29,4.84-1.69,7s-1.4,3.89-2.11,5.89c-1,2.86-2.23,5.52-3.35,8.33-1.8,4.53,1.47,9,.53,13.81-1.36,6.87-5.65,11.07-9.46,16.71-3,4.52-6.36,8.69-8.83,13.49-1.55,3-2.26,6-4.12,8.92-2.34,3.67-5.49,6.64-8.24,10a28.54,28.54,0,0,1-7.68,6.67c-1.95,1.08-3.69,1.49-5.6,2.9-3.38,2.44-6.76,5-10.21,7.36-1.85,1.27-4,1.51-6.18,2.1s-4.46,1-6.67,1.64c-5.77,1.55-12.81,5.35-18.84,3.45-1.75-.56-3.42-1.54-5.22-2a27.84,27.84,0,0,0-4.47-.15,25.37,25.37,0,0,0-3.58-.13,18.2,18.2,0,0,1-5.36-.66,16.68,16.68,0,0,0-4.94-.13c-.84.08-2.2.64-3,.46-1.05-.22-1-.82-1.69-1.54s-1.74-1.24-2.6-2c-2.27-2-5.71-3.95-9.13-3.64-1.85.17-2.86.66-4.75.46a13.27,13.27,0,0,1-8.12-3c0,.1,0,.21.05.27a140,140,0,0,0,94.74,19.37c.56-.93,1.1-1.84,1.58-2.74,1.52-2.81,3.62-4.27,6.16-6.07a64.55,64.55,0,0,0,9.12-8,58,58,0,0,1,8.26-6.77c3.7-2.6,6.66-6,10.39-8.63,3.56-2.47,7.52-3.76,11.47-5.44,5.66-2.43,9.85-7.54,13.95-12,1.86-2,3-4.68,5-6.59,1.2-1.16,2.55-2,3.7-3.28a44,44,0,0,1,10.46-8.18c2.47-1.29,4.63-.2,7.09-.29s4.27-2.73,6.37-3.89c2.45-1.36,5.61-.76,8,.64a140.1,140.1,0,0,0,10.84-108.17c-3.14,2.3-6,8.26-7.94,9.41-1.17.71-2.57.75-3.77,1.62a17.34,17.34,0,0,0-2.67,2.82c-1.39,1.5-3.17,3.34-5.16,2.42s-2.56-5-5.24-3.63c-1.33.7-1.78,2.41-3.31,3.14a18.08,18.08,0,0,0-3.51,1.91,47.29,47.29,0,0,0-4.95,4.74,7.18,7.18,0,0,1-2.87,1.46c-.85.35-2.25,1.51-3.08,1.61-3,.41-2.69-3.17-2.77-5.09a25.11,25.11,0,0,0-.08-3.25c-.19-1.17-.71-1.47-1.17-2.47-1.22-2.55-.83-5.36-.19-8.05.94-3.94,1.85-8.14,1.64-12.17-.08-1.82.15-3-.64-4.65-.58-1.21-1.13-2.41-1.68-3.64a29.41,29.41,0,0,1-1.47-4.36c-.59-2.07-1.84-3.83-2.5-5.88-.56-1.74-1.08-5.76-.34-7.51.37-.82,1.23-1.29,1.51-2.22s-.08-1.66.46-2.51c1.23-2,5.57-2.8,7.57-3.36a25.3,25.3,0,0,1,10-.58c3.41.5,6.06,1.67,9.23,2.72a11.79,11.79,0,0,0,5.2.58c-.77-1.16-1.57-2.32-2.41-3.47A139,139,0,0,0,255.41,178.42Zm-20.57,94.69c.29.95-1,2.49-1.75,2.88-1.61.84-3.94,0-5.67-.14a7,7,0,0,1-4.85-2.17l1.59,0c-2.11-.72-4.83-.91-5-3.78-.06-1.62,1-2.42,2.45-2.73,2.36-.48,5-1.08,7.38-.4,1.63.45,2.49,1.8,3.42,3.13C233.07,270.72,234.51,272.07,234.84,273.11Zm-22.36-81.43a7.81,7.81,0,0,1-1.33,5A14.74,14.74,0,0,1,208,200c-2.44,1.78-6.08,1.48-8.86,1.33-1.62-.06-5.55-.81-1.61-2.1a7.14,7.14,0,0,1-2.59-2.07,15,15,0,0,1-1-2.33c-.73-1.72-.72-3.56-1.3-5.29a20.08,20.08,0,0,0-1.75-4.11c-.66-1.09-1.61-1.77-1.2-3.17a1.54,1.54,0,0,1,1.59-1.26c.87-.08,2.12.56,3,.76s2,.48,3,.77c2.92.78,5.41,2.66,8.23,3.68a15.82,15.82,0,0,1,4.34,1.82A5.65,5.65,0,0,1,212.48,191.68Zm83.76,25c.28,2.85-2.31,5.61-4.23,7.43-2.83,2.69-7.25,4.45-10.87,5.87a9.59,9.59,0,0,1-4.36.79c-1.71-.06-3.5.52-1.43-.6a57,57,0,0,1-5.1-4.29c-2-1.9-4.53-3.35-6.75-5.05-3.68-2.85-8.14-6.22-9.87-10.72-1.13-2.94-1.13-7,.83-9.52a12.68,12.68,0,0,1,5.69-4.11c2.67-.88,5.57-.68,8.34-.49a14.77,14.77,0,0,1,7.72,2.71c1.57,1.19,2.87,2.72,4.52,3.8.84.56,1.62,1,2.41,1.66a11.24,11.24,0,0,0,3.35,1.45c1.74.66,3.18,1,4.34,2.48s2,2.88,3.08,4.31S296.07,214.91,296.24,216.64Z"/><path class="cls-5" d="M124.34,315.33c.27,1.34,1.09,4.35.32,5.75-.86,1.58-3.53,1.28-5,1.49a20.37,20.37,0,0,0-3.59.44,22.69,22.69,0,0,1-2.8,1.07,9.22,9.22,0,0,1-2.81.17,6.57,6.57,0,0,1-2.1-1.26c-1.75-1.16-3.15-3-4.71-4.42a6.84,6.84,0,0,1-1.82-3.09c-.59-1.64-1.31-3.23-1.84-4.88a32.59,32.59,0,0,1-1.89-7.37,9.42,9.42,0,0,1,1.62-6c.49-.82,1.19-1.45,1.67-2.27a14.78,14.78,0,0,1,1.9-2.92,6.34,6.34,0,0,1,1.55-1.27,4.9,4.9,0,0,1,2.08-.34,5.25,5.25,0,0,1,2.78,0,7.67,7.67,0,0,1,2.39,1.2c1.46,1.13,3.16,2,4.52,3.23a10.73,10.73,0,0,1,3.59,5.59,39.29,39.29,0,0,0,2.32,6c.75,1.64,1.83,4,1.89,5.85C124.49,313.75,124.14,314.94,124.34,315.33Z"/><path class="cls-6" d="M120.57,330.71a4.28,4.28,0,0,0,.2,2.58c1.27-.16,2.46,1.6,3.89,1,.1-1.17,1.12-3.16-.51-3.83-.23-.1-.73.1-1,.06s-.7-.39-1.07-.33c-.77.12-2.06,1.47-2.71,1.94Z"/><path class="cls-7" d="M150.63,322.79a7.69,7.69,0,0,0,3.09,1.08c1,.11,2.16.1,3.18.17,1.8.13,4.12-.06,5.88.42s2.15,1.69,3.23,2.89c.65.71,1.45,1.35,2.16,2a10.93,10.93,0,0,1,1.21,1.06,8.43,8.43,0,0,0,1.2,1.53c1,.87,2.39,1.14,3.43,2a7.64,7.64,0,0,0,2.54,1.89,8,8,0,0,0,2.39,0,10.19,10.19,0,0,1,3,.65c3.33,1.1,5.57,3.82,8.74,5.14,2.88,1.2,6-2,8.4-3.07.39-.18.91-.13,1.25-.42s.53-.93.79-1.32a4.14,4.14,0,0,1,1.88-1.64c.49-.22.45.26,1-.34a3.17,3.17,0,0,0,.27-1.76,4,4,0,0,0-1.92-3c-1.08-.86-2.13-1.75-3.23-2.6A30,30,0,0,1,196,325.3c-.88-.9-1.41-2-2.31-2.93-2.18-2.15-4.43-2.33-7.42-2.77-2.71-.4-6.14.11-7.85-2.53-.68-1.07-.27-1.42-.28-2.5s-.52-2.48-.19-3.68a12.07,12.07,0,0,1,1.23-1.95,23.83,23.83,0,0,0,1.81-2.65c.54-1.08.07-1.72.16-2.8.06-.66.24-.42.52-1a3.88,3.88,0,0,0,.47-1.8,11.16,11.16,0,0,0,0-3.78,8,8,0,0,1-.24-3.16,27.85,27.85,0,0,1,.9-4.07,9.44,9.44,0,0,1,2.15-3.68,12.76,12.76,0,0,1,1.7-1.21c1.64-1.2,2.52-3.22,3.53-4.93,1.5-2.52,2.93-7.51,6.77-6.65,1.14.26,1.89,1.27,3.12,1.32,2.61.12,3.93-2.41,5.12-4.33,2-3.24,2.89-6.91,3.67-10.59.51-2.35.89-4.37-.49-6.5-2.67-4.12-7.86-4.47-11.15-7.89s-4.33-8.39-6.38-12.39c-1.05-2-3-4.36-5.16-5.11a9.46,9.46,0,0,0-2.68-.44c-1.91,0-2.47,1.12-4,1.88a4.28,4.28,0,0,1-2.72.27c-2.75-.21-5.41,2.89-7.47,4.33-3,2.11-6.58,4.13-10.28,4.55a107.82,107.82,0,0,1-13.08.81,64.94,64.94,0,0,0-9.76.38,16.4,16.4,0,0,0-6.23,2.73c-2.66,1.72-4.46,4-4.69,7.29-.22,3.07,1.41,3.52,3.61,5.15.72.52,2.32,1.49,2.41,2.53.15,1.54-2.13,2.72-3.17,3.47s-3.2,1.69-2.91,3.17c.22,1.09,1.89,2.7,2.53,3.59s1.11,2.05,2.19,2.28c.83.19,1.56-.27,2.36-.38,1.41-.19,2.33.58,3.58,1a12,12,0,0,0,2.92.35c1.2.14,2.53.7,3.74.53,2.07-.31,3.27-1.8,5.55-1.44a11.26,11.26,0,0,0,2.37.38,10.07,10.07,0,0,0,1.85-.55c1.47-.42,3.75-.93,4.94.41s0,3.74-1,4.87-2.38,2.22-1.85,3.65c.45,1.22,1.76,1.69,1.79,3.12.12,4.53-5.73,5.06-8.51,7.19-4.21,3.2-3.91,8.44-3.82,13.16,0,.45-.2.9-.18,1.34,0,.78.42,1,.57,1.65a4,4,0,0,1-.69,2.69,7,7,0,0,1-1.94,2.63c-1.08.83-2.41,1.49-3.4,2.42-2,1.87-.95,4.88,1,6.43,1.27,1,3.46.86,4.92,1.57a21.65,21.65,0,0,0,3.48,1.63c.7.19,1.54.14,2.26.26C150.52,322.84,151.37,323.53,150.63,322.79Z"/><path class="cls-8" d="M240.17,277.5a13.14,13.14,0,0,0,1.93,3.3c.78.86,1.6,1.58,2.32,2.51,1.86,2.43,3.21,5.29,5,7.81a27.59,27.59,0,0,0,3.62,3.63c1.67,1.62,2.28,3.83,3.63,5.66,1.86,2.51,3.82,5.11,7,6a3.69,3.69,0,0,0,3.35-.35c1-.66,1.46-1.77,2.52-2.44.88-.56,1.82-.37,2.85-.57,1.28-.25,2.56-.59,3.84-.92a6.93,6.93,0,0,1,3.17-.07c1,.15,2.16-.2,3.05.54s.3,2.12.24,3.23a13.65,13.65,0,0,1-1.39,6.19,3.5,3.5,0,0,1-2.5,2c-1.22.39-2.38.71-2.92,2.06a12.32,12.32,0,0,0-.83,5.72,6,6,0,0,0,.38,1.3c.47.79.14.27.84.57s1.45.43,2,1.19a10.88,10.88,0,0,1,1.51,4.41,7.61,7.61,0,0,1-.15,2.89,31.92,31.92,0,0,1-.67,3.17c-.8,2.09-.84,4.16-1.88,6.22a46.39,46.39,0,0,0-2.83,7.53c-1.66,5.42-4.14,10.19-3.49,16,.17,1.42,1.19,3.93,2.63,4.57a14.5,14.5,0,0,0,2.15.28,9.27,9.27,0,0,1,2.94,1.64c1.09.73,2.74,1.87,4.12,1.93a8.72,8.72,0,0,0,4.34-1.51,22.35,22.35,0,0,1,1.93-1.29,15.2,15.2,0,0,0,1.57-.68c2-1.26,3.52-2.47,6-2.63a7,7,0,0,1,2.45.34c.95.27,2,1,2.94,1.15,2,.25,3.68-2.59,4.52-3.88,1.24-1.89,2.38-4.41,4.56-5.42,1.31-.62,2.8-.33,4.19-.77a21.8,21.8,0,0,1,5.45-1.05,3.4,3.4,0,0,0,2.06-.5c2.28-1.46,3.51-4.28,4.63-6.65,1.32-2.82,2.2-5.82,3.52-8.62a31.49,31.49,0,0,0,2.73-9c.52-3,1.76-5.74,2.64-8.65.66-2.21,1.26-4.45,1.88-6.66a48.21,48.21,0,0,0,1-7,30.08,30.08,0,0,0,.59-5.43,57.74,57.74,0,0,1-.26-6.29,31.75,31.75,0,0,0-.18-6.39c-.27-2-1.05-5.82-4-5.44-2.08.28-4,2.37-5.68,3.52-2.66,1.85-5.87,1.59-8.86.88-2.44-.58-4.7-1.55-7.18-1.92-1.23-.19-2.89-.8-4.1-.38a7.75,7.75,0,0,0-2.58,1.91,17,17,0,0,1-5.39,4c-1.84.84-4.48,1.95-6.52,1.64A34.6,34.6,0,0,1,291,295.7c-1.89-.55-3.2-3.11-3.68-4.95-1-3.84-3.11-7.33-4-11.22-.54-2.46,2.34-3.71,3.3-5.77.75-1.62.51-3.17.74-4.85a28.18,28.18,0,0,1,1.37-4.39c1.48-4.7-.67-8.92-5.73-10.13a7.16,7.16,0,0,0-7.52,2.56,31.88,31.88,0,0,0-2.32,3.15c-.89,1.47-1.41,3-2.67,4.28-4.79,4.76-11.49,5.07-17.75,5.7a24.24,24.24,0,0,0-8.61,2.34c-1.42.75-1.88.86-2.58,2.44a22.07,22.07,0,0,1-1.73,2.73C239.15,278.65,239.13,279.93,240.17,277.5Z"/><path class="cls-9" d="M148.37,179.64a5.13,5.13,0,0,0-.44.47,36.51,36.51,0,0,1-6.78,5.87,10.77,10.77,0,0,1-1.82,1.34c-.49.21-.83.1-1.33.37-1.08.56-2.21,1.13-3.29,1.57-2,.73-3.81,2.45-5.55,3.73-2.13,1.57-5,2.14-7,3.88-2.11,1.91-3.64,4.38-6,6l-1.63,1.17c-1.38,1-1.42,2.27-2.48,4,.39,1.21,1.34,3.13,1,4.4a6,6,0,0,1-.6,1.31,29,29,0,0,1-2.06,3.2,34,34,0,0,1-5,5.29,44.14,44.14,0,0,1-5.05,3.07c-3.41,2-6.77,3.75-8.82,7.31-1.11,2-2.16,4-3.33,6a22.53,22.53,0,0,0-2,3.56c-.34,1-.43,2-.7,2.93-.34,1.14-1.35,1.92-2,2.91a7.12,7.12,0,0,0-1,3.83c0,1.92,1.19,3.3,1.36,5.07a5.85,5.85,0,0,1-.85,2.85c-1.9,4.24-.46,8.46-1,12.91-.39,3.25-2.6,5.94-3.25,9.2a77.7,77.7,0,0,0-1.06,9.88,9.9,9.9,0,0,1-1.89,5.11A15.9,15.9,0,0,0,73.62,303c-.21,2.21-.36,4.35-.78,6.54-.33,1.72-1.23,3.25-1.5,5a23.61,23.61,0,0,0,.3,4.75c.21,3.51,1.28,6.77,1.61,10.25.26,2.87-.57,6.23,1,8.77a7.7,7.7,0,0,0,1.86,1.95c1.11.94,1.72,2.39,2.63,3.54a8.92,8.92,0,0,0,1.81,1.5,18.94,18.94,0,0,0,2.4,2.08c1.52.82,3.38.82,5,1.41a5.9,5.9,0,0,1,3.45,4c.59,1.87,1.13,3.83,1.6,5.73.74,2.92.15,6.37,1.37,9.18a7.77,7.77,0,0,0,2.21,2.42,39,39,0,0,1,2.81,2.94,10.46,10.46,0,0,1,2,3.53,9,9,0,0,1,.34,2.77c0,.45-.19.9-.19,1.34a13.74,13.74,0,0,0,.57,2.25c.16.79.62,2.58.2,3.34-.84,1.6-3.22-.69-3.48.72-.22,1,1.23,2.07,1.67,2.85a12,12,0,0,1,1.25,3.61c.45,2.37.08,3.34,2,4.92a20.32,20.32,0,0,0,4.94,3c2.22.94,3.06,2.87,4.78,4.33a18.75,18.75,0,0,1,2.19,2.87,19.17,19.17,0,0,0,2.53,2.15,5.85,5.85,0,0,1,1.72,2.37c.13.59-.28,1.27-.36,1.85a6.07,6.07,0,0,0,.82,3,15.54,15.54,0,0,0,2.27,4.15,139.78,139.78,0,0,1-11.55-218.86c2.64-2.34,5.38-4.58,8.26-6.72a0,0,0,0,0,0,0c.76-.61,1.55-1.17,2.33-1.74A140.59,140.59,0,0,1,148.37,179.64Z"/><path class="cls-10" d="M258.12,211.38s80.38-9.3,71.17,8.38-69.49,5.58-75.35,20.46,47.72,17.67,4.18,29.76-113.86,5.58-118.89-7.44,48.56-15.81,21.77-24.18-72,0-65.31-22.33S258.12,211.38,258.12,211.38Z"/><path class="cls-11" d="M328.05,242.68s-2.69,2.55-1.46,4.9l-24.94-9.2,1.75-4.44Z"/><path class="cls-11" d="M334.44,226.66s-2.68,2.55-1.46,4.9l-24.93-9.2,1.74-4.44Z"/><polygon class="cls-12" points="335.79 225.18 335.05 227.16 309.79 217.92 308.22 222.14 333.48 231.39 332.74 233.38 304.85 223.17 304.88 223.09 305.59 221.18 307.17 216.96 307.91 214.97 335.79 225.18"/><line class="cls-13" x1="332.72" y1="227.3" x2="310.33" y2="219.1"/><polygon class="cls-14" points="310.26 219.29 332.65 227.49 332.79 227.11 310.4 218.92 310.26 219.29"/><line class="cls-13" x1="332.29" y1="228.47" x2="309.9" y2="220.27"/><polygon class="cls-14" points="309.83 220.46 332.22 228.65 332.36 228.28 309.96 220.08 309.83 220.46"/><line class="cls-13" x1="331.87" y1="229.58" x2="309.48" y2="221.39"/><polygon class="cls-14" points="309.41 221.57 331.8 229.77 331.94 229.4 309.55 221.2 309.41 221.57"/><polygon class="cls-15" points="303.85 235.48 326.25 243.68 326.39 243.31 303.99 235.11 303.85 235.48"/><polygon class="cls-15" points="303.42 236.65 325.81 244.84 325.95 244.47 303.56 236.28 303.42 236.65"/><polygon class="cls-15" points="303 237.77 325.4 245.96 325.54 245.59 303.14 237.39 303 237.77"/><path class="cls-11" d="M328.21,233.7s-2.69,2.55-1.46,4.9l-24.94-9.2,1.75-4.44Z"/><polygon class="cls-16" points="329.56 232.21 328.82 234.2 303.56 224.96 301.98 229.18 327.24 238.43 326.5 240.42 298.62 230.21 298.65 230.13 299.36 228.22 300.93 224 301.67 222.01 329.56 232.21"/><polygon class="cls-14" points="304.02 226.33 326.42 234.53 326.56 234.15 304.16 225.96 304.02 226.33"/><polygon class="cls-14" points="303.59 227.49 325.98 235.69 326.12 235.32 303.73 227.12 303.59 227.49"/><polygon class="cls-14" points="303.17 228.61 325.57 236.81 325.7 236.44 303.31 228.24 303.17 228.61"/><polygon class="cls-17" points="329.4 241.19 328.66 243.18 303.4 233.94 301.82 238.16 327.08 247.41 326.34 249.4 298.46 239.19 298.49 239.12 299.2 237.2 300.77 232.98 301.51 230.99 329.4 241.19"/><path class="cls-11" d="M340.72,221.55s-2.69,2.54-1.46,4.9l-24.94-9.2,1.75-4.44Z"/><path class="cls-11" d="M347.11,205.53s-2.68,2.54-1.46,4.9l-24.93-9.2,1.74-4.44Z"/><polygon class="cls-12" points="348.46 204.04 347.72 206.03 322.46 196.78 320.89 201.01 346.15 210.26 345.41 212.25 317.52 202.04 317.55 201.96 318.26 200.05 319.84 195.82 320.58 193.84 348.46 204.04"/><line class="cls-13" x1="345.39" y1="206.17" x2="323" y2="197.97"/><polygon class="cls-14" points="322.93 198.16 345.32 206.35 345.46 205.98 323.07 197.78 322.93 198.16"/><line class="cls-13" x1="344.96" y1="207.33" x2="322.56" y2="199.14"/><polygon class="cls-14" points="322.5 199.32 344.89 207.52 345.03 207.15 322.63 198.95 322.5 199.32"/><line class="cls-13" x1="344.54" y1="208.45" x2="322.15" y2="200.25"/><polygon class="cls-14" points="322.08 200.44 344.47 208.64 344.61 208.26 322.22 200.07 322.08 200.44"/><polygon class="cls-15" points="316.52 214.35 338.92 222.55 339.06 222.17 316.66 213.98 316.52 214.35"/><polygon class="cls-15" points="316.09 215.51 338.48 223.71 338.62 223.34 316.23 215.14 316.09 215.51"/><polygon class="cls-15" points="315.67 216.63 338.07 224.83 338.21 224.46 315.81 216.26 315.67 216.63"/><path class="cls-11" d="M340.88,212.57s-2.69,2.54-1.47,4.9l-24.93-9.2,1.75-4.45Z"/><polygon class="cls-18" points="342.23 211.08 341.49 213.07 316.23 203.82 314.65 208.05 339.91 217.3 339.17 219.29 311.29 209.08 311.32 209 312.03 207.09 313.6 202.86 314.34 200.87 342.23 211.08"/><polygon class="cls-14" points="316.69 205.19 339.09 213.39 339.23 213.02 316.83 204.82 316.69 205.19"/><polygon class="cls-14" points="316.26 206.36 338.65 214.56 338.79 214.19 316.4 205.99 316.26 206.36"/><polygon class="cls-14" points="315.84 207.48 338.24 215.68 338.38 215.3 315.98 207.11 315.84 207.48"/><polygon class="cls-19" points="342.07 220.06 341.33 222.05 316.07 212.81 314.49 217.03 339.75 226.28 339.01 228.27 311.13 218.06 311.16 217.98 311.87 216.07 313.44 211.84 314.18 209.85 342.07 220.06"/><polygon class="cls-12" points="295.31 215.22 259.44 201.85 273.25 165.42 309.12 178.78 295.31 215.22"/><polygon class="cls-20" points="267.42 258.45 263.87 265.63 267.12 267.45 272.14 261.32 267.42 258.45"/><path class="cls-21" d="M338,165.93S324,177.16,320.83,176.67s-7.78-8.3-7.78-8.3l14.09-32.82s6.28,3.15,5.92,7.74-8,22.26-8,22.26l12-2Z"/><polygon class="cls-22" points="296.43 235.61 251.6 218.91 253.39 214.18 298.22 230.88 296.43 235.61"/><polygon class="cls-23" points="286.04 270.34 281.43 268.63 300.97 217.05 305.58 218.77 286.04 270.34"/><polygon class="cls-23" points="242.41 254.09 237.81 252.38 257.35 200.8 261.95 202.52 242.41 254.09"/><path class="cls-23" d="M312.75,186.62a6.76,6.76,0,0,0,1.45-2.3l3.05-8a7,7,0,0,0-4.2-9l-36.11-13.45a7.09,7.09,0,0,0-9.13,4l-3.05,8a6.71,6.71,0,0,0-.43,2.67Z"/><path class="cls-23" d="M309.23,223.64A5.82,5.82,0,0,0,311,221.2a6,6,0,0,0-3.59-7.68l-47.26-17.61a6.05,6.05,0,0,0-7.8,3.44,5.64,5.64,0,0,0-.27,3Z"/><path class="cls-24" d="M292.6,122.81s4.61-.77,7.16.18,10.91,2.66,10.91,2.66l10.9,5.46s11.06,8.58,11,10.38S322.42,162.81,320,165.36s-8.56,16-8.56,16l-46.72,1.23s12-18.6,14.88-23.41S292.6,122.81,292.6,122.81Z"/><g class="cls-25"><path class="cls-26" d="M313.53,140.22s6.29,12.08,13.87,12.49c2.74-5.27,5.14-10.35,5.17-11.22.06-1.8-11-10.38-11-10.38l-9.19-4.23-.28-.08Z"/><path class="cls-26" d="M284.15,170.57c3.3-2.15,19.88-5,19.88-5l8.74-13.21s-15-.19-15.47-5.9,6-11.4,1-16.22a25.17,25.17,0,0,1-3.51-4.38c-3.05,7-12.82,29.34-15.22,33.38-2.86,4.81-14.88,23.41-14.88,23.41l23.85-.63C285.51,177.49,282.22,171.82,284.15,170.57Z"/></g><path class="cls-19" d="M307.12,198.83s2.61,11.7-1.21,19.59-33.86,44.49-33.86,44.49l-5.82-3.79s24-42.67,21.53-48.07-15.38-13.62-15.38-13.62S293.59,181.43,307.12,198.83Z"/><path class="cls-20" d="M325.14,256.36l2.75,9.73s3.81-.2,4.1-1.51-2.75-9.73-2.75-9.73Z"/><path class="cls-19" d="M326.93,264.52s4.26.78,5.21-.9.69-2.37,1.76-1.37,6.48,3.43,9.74,4.14-.23,1.43-1.07,1.72-15.2.72-15.2.72A2.92,2.92,0,0,1,326.93,264.52Z"/><path class="cls-11" d="M344.54,155.33l1.24,2.21s-13,7.71-13.55,7.65-13.48-6.37-13.48-6.37l4.11-9.41,3-2.11s9.17,8.27,9.3,7.92S344.54,155.33,344.54,155.33Z"/><polygon class="cls-17" points="335.92 157.65 323.14 148.3 308.23 159.22 321.24 168.65 332.82 168.38 346.43 157.65 335.92 157.65"/><path class="cls-19" d="M267.42,269.93c-.83,1.14-2.93,1.07-4.67-.16s-2.49-3.16-1.65-4.3a4.18,4.18,0,0,1,5.22-.58A4,4,0,0,1,267.42,269.93Z"/><path class="cls-20" d="M315.32,153.08s2.2-3.63,5.5-3,6.9,2.57,5.19,4.36-5.81-.54-5.81-.54-4.89,3-5.82,1.68S315.32,153.08,315.32,153.08Z"/><path class="cls-24" d="M293.45,122.67s6.43-1.66,6.69,5.32S289,153.6,289,153.6l28.11-3,1,4.89s-38.38,21-44.55,5.55S286.69,123,293.45,122.67Z"/><path class="cls-19" d="M336.11,121.75l1.83-2.29s-2.14-2-2.45-3.75-1-5.37-5-7-10.48,2.84-10.7,8.16,7.07,4,7.07,4S333.87,125.1,336.11,121.75Z"/><path class="cls-20" d="M320.17,119.46l-11.17,6s-1.87,13.68,4.35,14.78,4.9-5.26,4.9-5.26l5.65-4Z"/><polygon class="cls-12" points="335.92 157.65 335.89 157.63 321.51 168.65 332.82 168.38 346.43 157.65 335.92 157.65"/><path class="cls-27" d="M269.16,261c4.59-8.16,13.94-24.48,20.7-34.35,5.46-8,12.88-14.55,18.12-18.77a45.53,45.53,0,0,0-.86-9.08c-13.53-17.4-34.74-1.4-34.74-1.4s12.86,8.23,15.38,13.62-21.53,48.07-21.53,48.07Z"/><path class="cls-28" d="M323.9,131l-3.73-11.51L317.32,121c-1.58,4.35-4.89,14.38-3.79,19.24,6,.95,4.72-5.28,4.72-5.28Z"/><path class="cls-20" d="M342.09,163.26s.48-4.55-2.45-3.75-1.79,4.73-1.79,4.73L335.66,166S340.47,167.92,342.09,163.26Z"/><path class="cls-20" d="M319.52,120.63s-1.16-5.69,1.54-5.7,1.7,4.28,1.7,4.28,3.81-.2,5.13-3.15c0,0,4.08,8.4,8.22,5.69,0,0-7.28,14.29-13.18,10.68S317.91,124.89,319.52,120.63Z"/><path class="cls-28" d="M326.48,125.25c-.18.49-1.15.59-2.15.21s-1.67-1.07-1.48-1.56,1.15-.59,2.15-.21S326.67,124.76,326.48,125.25Z"/><path class="cls-28" d="M332.07,127.48a1,1,0,0,1-1.38.35c-.6-.22-1-.74-.8-1.16s.77-.57,1.37-.35S332.23,127.07,332.07,127.48Z"/><path class="cls-27" d="M278.61,162.56c-12.16-7,10.22-33.67,15.84-40a5.54,5.54,0,0,0-1,.15c-6.76.31-26.09,22.88-19.92,38.34,2.15,5.37,8.16,6.26,15.1,5.15A31.36,31.36,0,0,1,278.61,162.56Z"/><path class="cls-19" d="M330.94,257.65S317.53,181.38,309.5,177s-29.43-7.73-42.18,1.83-6.22,22.25,3.9,25.48,26.58-.09,26.58-.09L325.17,259Z"/><path class="cls-27" d="M301.08,197.79s-25.15,1.77-31.72-1.69c-4.71-2.48-3.52-11.8-2.47-16.89-12.15,9.52-5.67,21.95,4.33,25.14s26.58-.09,26.58-.09L325.17,259l3.17-.75Z"/><path class="cls-29" d="M143.82,232.47,112,286.34c-2.33,4-14.24-3-11.91-6.92l31.82-53.87Z"/><path class="cls-30" d="M142.61,231.76l-30.37,51.42c-2.23,3.77-11.34-1.52-9.11-5.3l30.37-51.41Z"/><path class="cls-31" d="M134.56,228l-30,50.76a.51.51,0,0,1-.69.19h0a.51.51,0,0,1-.18-.69l30-50.77a.52.52,0,0,1,.69-.19h0A.5.5,0,0,1,134.56,228Z"/><path class="cls-31" d="M136.3,229l-30,50.77a.52.52,0,0,1-.7.19h0a.5.5,0,0,1-.17-.69l30-50.77a.52.52,0,0,1,.7-.19h0A.51.51,0,0,1,136.3,229Z"/><path class="cls-31" d="M138,230l-30,50.77a.51.51,0,0,1-.69.19h0a.51.51,0,0,1-.18-.7l30-50.76a.51.51,0,0,1,.69-.19h0A.49.49,0,0,1,138,230Z"/><path class="cls-31" d="M139.77,231l-30,50.77a.53.53,0,0,1-.7.19h0a.51.51,0,0,1-.17-.7l30-50.76a.51.51,0,0,1,.7-.19h0A.5.5,0,0,1,139.77,231Z"/><path class="cls-31" d="M141.51,232.05l-30,50.76a.5.5,0,0,1-.69.19h0a.49.49,0,0,1-.17-.69l30-50.77a.51.51,0,0,1,.69-.18h0A.5.5,0,0,1,141.51,232.05Z"/><path class="cls-32" d="M98.5,257.79l25.69-44.1c1.89-3.24,11.64,2.34,9.76,5.58l-25.7,44.1Z"/><path class="cls-30" d="M99.49,258.36,124,216.27c1.8-3.09,9.25,1.18,7.45,4.27L107,262.63Z"/><path class="cls-31" d="M106.07,261.38l24.22-41.57a.41.41,0,0,1,.56-.15h0a.41.41,0,0,1,.15.56l-24.22,41.56a.43.43,0,0,1-.57.16h0A.41.41,0,0,1,106.07,261.38Z"/><path class="cls-31" d="M104.65,260.56,128.87,219a.41.41,0,0,1,.56-.16h0a.42.42,0,0,1,.15.57L105.36,261a.43.43,0,0,1-.57.16h0A.42.42,0,0,1,104.65,260.56Z"/><path class="cls-31" d="M103.23,259.75l24.22-41.56A.41.41,0,0,1,128,218h0a.41.41,0,0,1,.15.56l-24.22,41.56a.43.43,0,0,1-.57.16h0A.4.4,0,0,1,103.23,259.75Z"/><path class="cls-31" d="M101.81,258.93,126,217.37a.41.41,0,0,1,.57-.15h0a.4.4,0,0,1,.14.56l-24.21,41.56a.43.43,0,0,1-.57.16h0A.42.42,0,0,1,101.81,258.93Z"/><path class="cls-31" d="M100.39,258.12l24.21-41.56a.43.43,0,0,1,.57-.16h0a.42.42,0,0,1,.14.57L101.1,258.53a.41.41,0,0,1-.57.15h0A.4.4,0,0,1,100.39,258.12Z"/><path class="cls-32" d="M129.7,277.7l15.71-48.43c1.15-3.56,11.92-.25,10.77,3.3L140.47,281Z"/><path class="cls-30" d="M130.8,278l15-46.22c1.1-3.4,9.34-.87,8.24,2.52l-15,46.23Z"/><path class="cls-31" d="M137.91,279.54l14.8-45.64a.42.42,0,0,1,.52-.28h0a.41.41,0,0,1,.26.52l-14.8,45.64a.41.41,0,0,1-.52.27h0A.4.4,0,0,1,137.91,279.54Z"/><path class="cls-31" d="M136.34,279.06l14.8-45.64a.42.42,0,0,1,.52-.28h0a.41.41,0,0,1,.26.52l-14.8,45.64a.42.42,0,0,1-.52.27h0A.4.4,0,0,1,136.34,279.06Z"/><path class="cls-31" d="M134.77,278.57l14.8-45.64a.42.42,0,0,1,.52-.27h0a.4.4,0,0,1,.26.51l-14.8,45.65a.42.42,0,0,1-.52.27h0A.41.41,0,0,1,134.77,278.57Z"/><path class="cls-31" d="M133.2,278.09,148,232.45a.41.41,0,0,1,.52-.27h0a.4.4,0,0,1,.26.51L134,278.33a.42.42,0,0,1-.52.28h0A.41.41,0,0,1,133.2,278.09Z"/><path class="cls-31" d="M131.63,277.61,146.43,232a.41.41,0,0,1,.52-.27h0a.4.4,0,0,1,.26.51l-14.8,45.64a.43.43,0,0,1-.52.28h0A.41.41,0,0,1,131.63,277.61Z"/><path class="cls-11" d="M130,248.69s5.51,1,5.89,5.05l24.17-32.27-5.87-4.24Z"/><path class="cls-11" d="M108.71,233.51s5.51,1,5.89,5.05l24.17-32.28L132.9,202Z"/><polygon class="cls-12" points="105.78 232.72 108.36 234.65 132.9 202.04 138.37 206.14 113.83 238.75 116.4 240.68 143.5 204.68 143.4 204.61 140.92 202.75 135.45 198.65 132.87 196.72 105.78 232.72"/><line class="cls-13" x1="111.43" y1="232.91" x2="133.19" y2="204"/><polygon class="cls-14" points="133.43 204.18 111.67 233.09 111.19 232.72 132.95 203.81 133.43 204.18"/><line class="cls-13" x1="112.94" y1="234.04" x2="134.7" y2="205.13"/><polygon class="cls-14" points="134.94 205.31 113.18 234.22 112.7 233.86 134.46 204.95 134.94 205.31"/><line class="cls-13" x1="114.39" y1="235.12" x2="136.15" y2="206.21"/><polygon class="cls-14" points="136.39 206.39 114.63 235.3 114.15 234.94 135.91 206.03 136.39 206.39"/><polygon class="cls-15" points="154.88 219.57 133.13 248.48 132.64 248.12 154.4 219.21 154.88 219.57"/><polygon class="cls-15" points="156.4 220.7 134.63 249.61 134.15 249.25 155.91 220.34 156.4 220.7"/><polygon class="cls-15" points="157.84 221.79 136.08 250.7 135.6 250.34 157.36 221.43 157.84 221.79"/><path class="cls-11" d="M122.43,237.36s5.51,1,5.89,5l24.17-32.28-5.87-4.24Z"/><polygon class="cls-33" points="119.5 236.57 122.07 238.5 146.62 205.89 152.09 209.99 127.55 242.6 130.12 244.53 157.22 208.53 157.12 208.46 154.64 206.6 149.17 202.5 146.59 200.57 119.5 236.57"/><polygon class="cls-14" points="147.15 208.03 125.39 236.94 124.91 236.57 146.67 207.66 147.15 208.03"/><polygon class="cls-14" points="148.66 209.16 126.9 238.07 126.42 237.71 148.18 208.79 148.66 209.16"/><polygon class="cls-14" points="150.11 210.24 128.35 239.15 127.86 238.79 149.63 209.88 150.11 210.24"/><polygon class="cls-17" points="127.08 247.91 129.65 249.84 154.2 217.23 159.67 221.33 135.13 253.94 137.7 255.87 164.8 219.87 164.7 219.79 162.22 217.94 156.75 213.84 154.17 211.91 127.08 247.91"/><path class="cls-11" d="M98.68,230.52s6,1.15,6.47,5.55l26.57-35.47-6.46-4.66Z"/><path class="cls-11" d="M75.27,213.83s6,1.15,6.47,5.55l26.57-35.47-6.46-4.66Z"/><polygon class="cls-12" points="72.05 212.97 74.88 215.09 101.85 179.25 107.87 183.75 80.89 219.59 83.72 221.72 113.5 182.15 113.39 182.07 110.67 180.03 104.66 175.52 101.83 173.4 72.05 212.97"/><line class="cls-13" x1="78.26" y1="213.17" x2="102.17" y2="181.4"/><polygon class="cls-14" points="102.44 181.59 78.52 213.37 77.99 212.97 101.91 181.2 102.44 181.59"/><line class="cls-13" x1="79.91" y1="214.41" x2="103.83" y2="182.64"/><polygon class="cls-14" points="104.1 182.84 80.18 214.61 79.65 214.22 103.56 182.44 104.1 182.84"/><line class="cls-13" x1="81.51" y1="215.61" x2="105.42" y2="183.83"/><polygon class="cls-14" points="105.69 184.03 81.77 215.81 81.24 215.41 105.16 183.63 105.69 184.03"/><polygon class="cls-15" points="126.02 198.52 102.1 230.29 101.57 229.9 125.49 198.12 126.02 198.52"/><polygon class="cls-15" points="127.68 199.76 103.76 231.53 103.23 231.14 127.14 199.36 127.68 199.76"/><polygon class="cls-15" points="129.27 200.95 105.35 232.73 104.82 232.33 128.74 200.56 129.27 200.95"/><path class="cls-11" d="M90.35,218.06s6.05,1.15,6.47,5.56l26.56-35.48-6.45-4.66Z"/><polygon class="cls-18" points="87.12 217.2 89.95 219.32 116.93 183.48 122.94 187.99 95.97 223.83 98.8 225.95 128.58 186.38 128.47 186.3 125.75 184.26 119.73 179.75 116.9 177.63 87.12 217.2"/><polygon class="cls-14" points="117.52 185.83 93.6 217.6 93.07 217.2 116.98 185.43 117.52 185.83"/><polygon class="cls-14" points="119.17 187.07 95.26 218.84 94.73 218.45 118.64 186.67 119.17 187.07"/><polygon class="cls-14" points="120.77 188.26 96.85 220.04 96.32 219.64 120.23 187.86 120.77 188.26"/><polygon class="cls-19" points="95.45 229.66 98.28 231.78 125.26 195.94 131.28 200.44 104.3 236.28 107.13 238.41 136.91 198.84 136.8 198.76 134.08 196.72 128.06 192.21 125.23 190.09 95.45 229.66"/><path class="cls-20" d="M92.69,198.53s-3.43,4.81-.6,7.45,11,6.82,11.35,3.19-6.7-4.81-7.26-6.81a14.91,14.91,0,0,1-.32-4.62Z"/><path class="cls-19" d="M23.57,146.22s-1.19-3.91,2-5.08,12.32,2.47,16-.94,6.13,3,3.59,5.7c0,0,1.91-1.86,3.43.06a3.45,3.45,0,0,1-1.21,5.41s2.49.28,1.8,2.4S45,158.14,45,158.14l-3.24,4.68s-.5,5.82-3,5.77a3.54,3.54,0,0,1-3.31-2s.38,2.92-2,3.37-3.31-1.94-3.11-3.24c0,0-1,3.88-3.65,3.33S23,168,23.43,165.32s.34-9.22-1.66-11.37S17.36,145.4,23.57,146.22Z"/><path class="cls-28" d="M36,144.9c-6.85,0-8.05-2.32-9-.68a3.92,3.92,0,0,0-.09,3.44s-3.86-.69-4.3,2.31,8,10.18,5.21,16.08c-.78,1.65-1.43,2.89-2,3.83a7.44,7.44,0,0,0,.82.22c2.67.55,3.65-3.33,3.65-3.33-.2,1.3.71,3.69,3.11,3.24s2-3.37,2-3.37a3.54,3.54,0,0,0,3.31,2c2.53,0,3-5.77,3-5.77L45,158.14s3.5-2.26,4.18-4.37-1.8-2.4-1.8-2.4A3.45,3.45,0,0,0,48.62,146c-1.52-1.92-3.43-.06-3.43-.06,1.8-1.92,1.11-5.67-.77-6.5A8.83,8.83,0,0,1,36,144.9Z"/><path class="cls-34" d="M77.3,180.34l-4.36,5.82a7.77,7.77,0,0,1-10.84,1.67L42.57,173.27a7.73,7.73,0,0,1-1.47-10.85l4.36-5.83a7.77,7.77,0,0,1,10.84-1.66l19.53,14.55A7.74,7.74,0,0,1,77.3,180.34Z"/><path class="cls-35" d="M45.74,156a11.3,11.3,0,0,0,2.11,15.86l3.56,2.65,5.78-.16s1.46-.75,5.91-2.56,4.25,1.2,3.25,3.74,2.2.85,5.59-1.1c2.79-1.6-.71,6.83-2,9.85a11.54,11.54,0,0,0,7.67-4.55,11.29,11.29,0,0,0-2.11-15.86L61.59,153.52A11.37,11.37,0,0,0,45.74,156Z"/><path class="cls-36" d="M88.57,149.71s-1.61,3.53-4.48,12.17-5.36,12.31-5.36,12.31L70.81,186.3s-12.9,2.61-15.72,6-2.5,9.19.27,11S75.91,213.37,85,202s12.16-14.87,13-25.57S99,145.39,88.57,149.71Z"/><path class="cls-20" d="M107.25,190.1s3.82-1.89,6.43-.11,3.55,6.5,6,4.63-4-12.48-6.3-11.53a61.89,61.89,0,0,0-6.64,3.82Z"/><path class="cls-37" d="M90.58,147.39c-11.45,4.43,1.19,52,1.19,52l4.53.49s1-3.58,2.1-8.86C94.54,180.65,87.51,159.12,90.58,147.39Z"/><path class="cls-38" d="M41.67,167.16c-.07-.43-1.27,5.37,2.41,11.45S53.24,196,59.21,198.3s8.15.81,9.14-4.41S43.22,176.56,41.67,167.16Z"/><path class="cls-19" d="M51,200.87s-3.78-4.92,1.42-9.46S109.5,185,109.5,185l.88,4.34S64,215.24,51,200.87Z"/><path class="cls-38" d="M49.39,154.8c-.44,0,4.79-2.74,11.68-.93s19.27,3.84,23.22,8.89,3.09,7.56-1.65,10S58.86,153.62,49.39,154.8Z"/><polygon class="cls-39" points="49.78 159.71 45.48 165.45 36.73 158.92 41.02 153.18 49.78 159.71"/><path class="cls-40" d="M59.92,146.34,73.27,160.9a2.83,2.83,0,0,1,.16,3.59c-3.59,4.92-13.18,18-16.89,22.89a2.85,2.85,0,0,1-3.52.85L35.4,179.56a2.81,2.81,0,0,1-1-4.2l21.13-28.73A2.83,2.83,0,0,1,59.92,146.34Z"/><path class="cls-41" d="M76.84,164,57.13,190.58a.94.94,0,0,1-1.3.2l-.67-.5A.91.91,0,0,1,55,189l19.71-26.54a.92.92,0,0,1,1.29-.21l.68.5A.94.94,0,0,1,76.84,164Z"/><path class="cls-11" d="M57.4,166.7a2.24,2.24,0,0,0-1.65-.34,2.08,2.08,0,0,1-.29,1.92,2,2,0,0,1-2.32.82,2.41,2.41,0,0,0,.92,2.4,3,3,0,0,0,3.34-4.8Z"/><path class="cls-20" d="M34.75,147.46c-2.68-.55-5.56-3.23-6.56-1.21s-.07,2.84-.07,2.84-1.87-.61-2.4.45-1.08,3,1.78,5.53,5.17,1.88,4.18,5.08a6.06,6.06,0,0,0-.28,2.19c4.3,1.75,9.09.83,11.65-2.58,3.09-4.13,1.76-10.35-3-14C38.67,146.67,36.44,147.8,34.75,147.46Z"/><path class="cls-37" d="M64.31,201.57c6.08-.55,5.66-5.95,8.41-9.16,2.34-2.73,29.19-5.11,37.11-5.76L109.5,185s-51.86,1.84-57.06,6.38c-3.3,2.87-3,5.9-2.32,7.74C54,197.84,59.2,202,64.31,201.57Z"/><path class="cls-11" d="M55.69,115.31l-1.11,1.86a14.39,14.39,0,0,0,2,8.76s-3.59,5.21-3,8.61l.61,2.08,3.3,0,2.13-9.71S58.17,115.72,58,115.71,55.69,115.31,55.69,115.31Z"/><polygon class="cls-19" points="55.22 114.58 57.05 125.26 75.9 126.38 72.89 116.35 55.22 114.58"/><polygon class="cls-19" points="53.44 137.72 56.97 127.4 75.81 128.51 71.22 138.05 53.44 137.72"/><polygon class="cls-42" points="76.27 126.14 76.06 128.75 56.78 127.61 56.99 125 76.27 126.14"/><path class="cls-11" d="M2.11,186.83l1.47-1.58a14.52,14.52,0,0,1,9-.59s4-4.91,7.42-5.3h2.18l1,3.15-8.73,4.79S3.2,189.1,3.16,189,2.11,186.83,2.11,186.83Z"/><polygon class="cls-19" points="1.28 186.6 12.06 185.32 18.48 203.03 7.98 202.99 1.28 186.6"/><polygon class="cls-19" points="23.01 178.34 14.09 184.63 20.5 202.35 28.37 195.25 23.01 178.34"/><polygon class="cls-42" points="18.35 203.45 20.8 202.51 14.24 184.39 11.79 185.33 18.35 203.45"/><path class="cls-20" d="M48.36,176.29s-3.15-.45-3.77-1.47a1.23,1.23,0,0,1,.27-1.66s-4.68-.54-3-2.68,3.44-1.34,5-.14,3.25,4.52,3.25,4.52Z"/><polygon class="cls-19" points="49.13 178.99 46.43 176.18 49.76 172.74 52.28 175.96 49.13 178.99"/><path class="cls-18" d="M62.3,199.55c-3.27.12-15-14.15-14.2-19s2.34-6.85,5.38-6.54,18.37,12,17.13,18.86C69.31,200,62.69,199.94,62.3,199.55Z"/><path class="cls-20" d="M59.38,160.09s-1.44-2.84-2.6-3.1a1.23,1.23,0,0,0-1.5.78s-2-4.25-3.5-2-.18,3.67,1.47,4.77,5.33,1.65,5.33,1.65Z"/><path class="cls-18" d="M86.24,165.07c-1.5-3.57-18.18-9.56-22.56-7.4s-5.77,4.39-4.51,7.16,18.33,15,23.38,10.2C87.27,170.53,87.42,168.18,86.24,165.07Z"/><polygon class="cls-19" points="62.19 159.95 58.66 158.29 56.44 162.53 60.3 163.9 62.19 159.95"/><path class="cls-18" d="M86.24,165.07c-1.5-3.57-18.18-9.56-22.56-7.4s-5.77,4.39-4.51,7.16,18.33,15,23.38,10.2C87.27,170.53,87.42,168.18,86.24,165.07Z"/><path class="cls-28" d="M40.7,148.54c.37.27.17,1.15-.44,2s-1.4,1.25-1.77,1-.17-1.15.45-2S40.34,148.27,40.7,148.54Z"/><path class="cls-28" d="M34.68,157.26c.37.28.2,1.12-.38,1.89s-1.34,1.17-1.7.9-.2-1.12.38-1.89S34.32,157,34.68,157.26Z"/><path class="cls-37" d="M70.09,168.54c-6.7-2.53-8.94-6.15-9.64-8.79-1.74,1.54-2.15,3.18-1.28,5.08,1.26,2.76,18.33,15,23.38,10.2a16.29,16.29,0,0,0,3.76-4.75C83.35,170.93,77.69,171.41,70.09,168.54Z"/><path class="cls-37" d="M53.48,174c-2.56-.26-4,1.15-4.93,4.48a17.33,17.33,0,0,1,9,2.86c3.82,2.74,10,8.82,10.14,16.74a8.14,8.14,0,0,0,3-5.22C71.85,186.07,56.51,174.35,53.48,174Z"/><path class="cls-20" d="M307.4,66.71s4.29-3,6.59-4.35,7.58-4.94,8.53-2.69S317.4,64,317.4,64s16.58-2.57,16.83.85-9.56,7-17.49,6L309,74.38Z"/><path class="cls-43" d="M203,97.43l-3.12-6.19,55.43-3.36,53-23.56L313,73.69s-45.83,38-102.72,45.88Z"/><path class="cls-44" d="M219.22,174.17s51.41-11.27,63.77-3.75,17.87,30.33-17,42.17-69.16,7.5-69.16,7.5L181.5,234.56s-4.4.14-4.28-7.4S186,214.68,186,214.68l4.26-4.44,32.17-4.57-25.3,1.13s-2-28.3-.92-28.69S219.22,174.17,219.22,174.17Z"/><path class="cls-45" d="M196.94,220.11a13,13,0,0,1-1.1-3.23c-.47-2.31.25-5.77.7-7.53l12-1.7a75.76,75.76,0,0,0,.41,13.18C202.1,220.68,197.68,220.2,196.94,220.11Z"/><path class="cls-46" d="M186,214.68l4.26-4.44,32.17-4.57-25.3,1.13s-.15-2.16-.35-5.29l3,.11c9.81.42,33.15-4.6,42.76-10.4S262.72,188,262.72,188c-11.46,1.55-20.68,11.65-32,16.54s-36.18,9.25-39.1,9.58-9.53,8.19-9.39,12.73a14.25,14.25,0,0,0,1.45,5.72l-2.15,2s-4.4.14-4.28-7.4S186,214.68,186,214.68Z"/><path class="cls-44" d="M175,175.53s-52-8.09-63.88.17-15.89,31.36,19.67,41S200.25,220,200.25,220l16.22,13.5s4.41-.13,3.8-7.65-9.56-11.92-9.56-11.92l-4.54-4.16-32.4-2.6,25.32-.42s.19-28.36-.92-28.69S175,175.53,175,175.53Z"/><path class="cls-43" d="M226.83,169.32l-14.08-73.4a6.22,6.22,0,0,0-6.35-5l-26.53.81c-1.71.05-14.6.68-17.22,5.19l-27.2,56.48c-4.52,7,10.47,16.24,15,9.23l20.16-31.45-3.82,40a6.07,6.07,0,0,0,3.58,6.12c18,8,35.8,7.83,53.37-1.55A6.05,6.05,0,0,0,226.83,169.32Z"/><path class="cls-23" d="M205.55,58.65c.54-.12,9.65-13.54-.27-19.81,0,0-.73,4.95-3.47,6.11,0,0-1.79-3.65-4.05-4.44,0,0-3.26,4.59-8.79,5.08s-10-2.74-14.33-.13-3.52,5.93-3.52,5.93-6.14,1.91-5.72,7,7.57,14,7.57,14,5,2.2,8.9.23.51-9.13,2.34-11S205.55,58.65,205.55,58.65Z"/><path class="cls-20" d="M183,75.91,181.18,93.2c-.12,9,20.64,9.22,20.76.26l-3.23-14.62-15-2.77"/><path class="cls-47" d="M206,39.32c.89,2.59,1.93,7.6-1.85,10.74l-1.91-2.18s-2,4.81-9.51,6.75-15.13.55-15.95,3.63a3.67,3.67,0,0,0,1.89,4.34s-4.81-1-6.2,1.45a5.34,5.34,0,0,0-.59,4.41s-5-5.14-5-9.27,4.25-7.8,4.25-7.8-6.14,1.91-5.72,7,7.57,14,7.57,14,5,2.2,8.9.23.51-9.13,2.34-11,21.34-2.9,21.34-2.9C206.08,58.54,214.75,45.76,206,39.32Z"/><path class="cls-48" d="M200.73,88l-2-9.17-15-2.77-.74-.16-.72,6.84A28.43,28.43,0,0,0,200.73,88Z"/><path class="cls-20" d="M204,53.88s8.09,20.28,4.41,25.51-5,6.64-12,6.53-14.12-7.35-14.12-7.35-5.62-1.51-7.87-4.69-1.33-8.17,1.54-7.15a9.3,9.3,0,0,1,4.29,3.09s3.77.82,3.1-2.89-3.25-4.25-1.71-7.35S202.26,61.07,204,53.88Z"/><path class="cls-48" d="M204,53.88a4.53,4.53,0,0,1-2.78,3c2.56,6.25,6.88,17.65,5.74,20.89-1.24,3.53-4.27,6.57-5.56,7.74,3-.71,4.45-2.49,7-6.14C212.07,74.16,204,53.88,204,53.88Z"/><path class="cls-46" d="M191.38,175.55c6.06-1.86,3-13.73,2.64-16.83s-15.07-4.32-18.34-7.09S173.54,123,173.54,123c-4.95,5.78-9.28,15.6-11.77,22l8.83-13.77-3.82,40a6.07,6.07,0,0,0,3.58,6.12A61.07,61.07,0,0,0,198.81,183C194.41,180.92,187,176.91,191.38,175.55Z"/><path class="cls-45" d="M178.09,158.21l13.34,2.23s-1.11-3,3-3.44,4.65,4.7,4.65,4.7,8-.16,9.5,5.09-1.45,11.05-6.13,10.22-12-2.23-13.91-4l-1.9-1.79L175.33,168Z"/><path class="cls-43" d="M142.37,164.47,185.85,173l2.57-15-44.22-8.22C135,148.69,133.12,163.36,142.37,164.47Z"/><path class="cls-45" d="M200.13,220a12.69,12.69,0,0,0,.9-3.29c.32-2.34-.63-5.74-1.19-7.47l-12.06-1a75.38,75.38,0,0,1,.43,13.18C195,220.9,199.4,220.14,200.13,220Z"/><path class="cls-46" d="M210.71,213.92l-4.54-4.16-32.4-2.6,25.32-.42s0-2.17,0-5.31l-3,.3c-9.76,1-33.38-2.56-43.34-7.76s-20.38-2-20.38-2c11.53.85,21.39,10.36,33,14.55s36.7,7,39.64,7.15,10,7.59,10.18,12.14a14.18,14.18,0,0,1-1.07,5.79l2.27,1.9s4.41-.13,3.8-7.65S210.71,213.92,210.71,213.92Z"/><path class="cls-40" d="M243.36,154.92l-7.11,43.86a6.4,6.4,0,0,1-6.11,5.3c-13.67.53-50.17,1.9-63.94,2.15a6.41,6.41,0,0,1-6.41-5L150.54,158a6.33,6.33,0,0,1,6.07-7.58l80.16-2.82A6.35,6.35,0,0,1,243.36,154.92Z"/><path class="cls-41" d="M236.52,209.42l-76,2.34a1.26,1.26,0,0,1-1.31-1.21l-.12-3.51a1.26,1.26,0,0,1,1.24-1.29l76-2.33a1.26,1.26,0,0,1,1.31,1.21l.11,3.5A1.26,1.26,0,0,1,236.52,209.42Z"/><path class="cls-11" d="M203.91,178.88a5,5,0,0,0-1.72-3.37,4.67,4.67,0,0,1-3.78,2.16,4.37,4.37,0,0,1-4.67-2.94,5.42,5.42,0,0,0-3,5c.2,3.05,3.3,5.35,6.93,5.12S204.1,181.94,203.91,178.88Z"/><path class="cls-48" d="M197.38,71.86c0,.51-1.71,1-3.86,1s-3.9-.29-3.92-.8,1.71-1,3.86-1S197.36,71.36,197.38,71.86Z"/><rect class="cls-49" width="405.54" height="452.57"/></g></g></g></svg>