<svg id="eD2AQVfqmZT1" xmlns="http://www.w3.org/2000/svg" viewBox="0 0 405.54 467.48" shape-rendering="geometricPrecision" text-rendering="geometricPrecision"><style>@keyframes eD2AQVfqmZT135_tr__tr{0%{transform:translate(198.456257px,120.879862px) rotate(-8.975735deg);animation-timing-function:cubic-bezier(.42,0,.58,1)}50%{transform:translate(198.456257px,120.879862px) rotate(0deg);animation-timing-function:cubic-bezier(0,0,.58,1)}to{transform:translate(198.456257px,120.879862px) rotate(-8.975735deg)}}@keyframes eD2AQVfqmZT136_tr__tr{0%{transform:translate(309.095895px,71.111189px) rotate(0deg);animation-timing-function:cubic-bezier(0,0,.58,1)}50%{transform:translate(309.095895px,71.111189px) rotate(-23.494759deg)}to{transform:translate(309.095895px,71.111189px) rotate(0deg)}}@keyframes eD2AQVfqmZT143_to__to{0%{transform:translate(187.509766px,56.205078px);animation-timing-function:cubic-bezier(0,0,.58,1)}50%{transform:translate(187.649022px,56.901356px);animation-timing-function:cubic-bezier(0,0,.58,1)}to{transform:translate(187.51px,56.21px)}}</style><defs><linearGradient id="eD2AQVfqmZT6-fill" x1="256.644" y1="438.026" x2="188.987" y2="173.367" spreadMethod="pad" gradientUnits="userSpaceOnUse"><stop id="eD2AQVfqmZT6-fill-0" offset="0%" stop-color="#E8DDFF"/><stop id="eD2AQVfqmZT6-fill-1" offset="100%" stop-color="#AA8AD8"/></linearGradient><linearGradient id="eD2AQVfqmZT7-fill" x1="122.166" y1="323.435" x2="100.903" y2="293.941" spreadMethod="pad" gradientUnits="userSpaceOnUse"><stop id="eD2AQVfqmZT7-fill-0" offset="0%" stop-color="#E8DDFF"/><stop id="eD2AQVfqmZT7-fill-1" offset="100%" stop-color="#AA8AD8"/></linearGradient><linearGradient id="eD2AQVfqmZT8-fill" x1="124.312" y1="334.857" x2="121.218" y2="330.566" spreadMethod="pad" gradientUnits="userSpaceOnUse"><stop id="eD2AQVfqmZT8-fill-0" offset="0%" stop-color="#E8DDFF"/><stop id="eD2AQVfqmZT8-fill-1" offset="100%" stop-color="#AA8AD8"/></linearGradient><linearGradient id="eD2AQVfqmZT9-fill" x1="207.352" y1="333.472" x2="137.578" y2="236.692" spreadMethod="pad" gradientUnits="userSpaceOnUse"><stop id="eD2AQVfqmZT9-fill-0" offset="0%" stop-color="#E8DDFF"/><stop id="eD2AQVfqmZT9-fill-1" offset="100%" stop-color="#AA8AD8"/></linearGradient><linearGradient id="eD2AQVfqmZT10-fill" x1="324.714" y1="356.162" x2="257.471" y2="262.894" spreadMethod="pad" gradientUnits="userSpaceOnUse"><stop id="eD2AQVfqmZT10-fill-0" offset="0%" stop-color="#E8DDFF"/><stop id="eD2AQVfqmZT10-fill-1" offset="100%" stop-color="#AA8AD8"/></linearGradient><radialGradient id="eD2AQVfqmZT5-fill" cx="0" cy="0" r="224.4" spreadMethod="pad" gradientUnits="userSpaceOnUse" gradientTransform="rotate(-35.79 521.307 5.851)"><stop id="eD2AQVfqmZT5-fill-0" offset="1%" stop-color="#4FB1FF"/><stop id="eD2AQVfqmZT5-fill-1" offset="21%" stop-color="#4EAEFC"/><stop id="eD2AQVfqmZT5-fill-2" offset="37%" stop-color="#49A6F3"/><stop id="eD2AQVfqmZT5-fill-3" offset="50%" stop-color="#4298E3"/><stop id="eD2AQVfqmZT5-fill-4" offset="63%" stop-color="#3883CC"/><stop id="eD2AQVfqmZT5-fill-5" offset="75%" stop-color="#2B69AF"/><stop id="eD2AQVfqmZT5-fill-6" offset="86%" stop-color="#1A498B"/><stop id="eD2AQVfqmZT5-fill-7" offset="96%" stop-color="#072462"/><stop id="eD2AQVfqmZT5-fill-8" offset="100%" stop-color="#001652"/></radialGradient><radialGradient id="eD2AQVfqmZT11-fill" cx="0" cy="0" r="89.55" spreadMethod="pad" gradientUnits="userSpaceOnUse" gradientTransform="rotate(-35.79 498.149 25.692)"><stop id="eD2AQVfqmZT11-fill-0" offset="0%" stop-color="#A9FAFF"/><stop id="eD2AQVfqmZT11-fill-1" offset="100%" stop-color="#70B7F8"/></radialGradient><radialGradient id="eD2AQVfqmZT12-fill" cx="0" cy="0" r="87.75" spreadMethod="pad" gradientUnits="userSpaceOnUse" gradientTransform="matrix(.97 0 0 1.4 213.018 240.286)"><stop id="eD2AQVfqmZT12-fill-0" offset="0%" stop-color="#0069B0"/><stop id="eD2AQVfqmZT12-fill-1" offset="100%" stop-color="#0091D6"/></radialGradient></defs><g id="eD2AQVfqmZT2" style="isolation:isolate"><g id="eD2AQVfqmZT3"><g id="eD2AQVfqmZT4"><path id="eD2AQVfqmZT5" d="M316.68 226.38c.84 1.15 1.64 2.31 2.41 3.47a138.2 138.2 0 0 1 17.78 36.94c17.197 55.687-1.973 116.199-48.098 151.825-46.125 35.627-109.518 38.885-159.052 8.175-2.41-1.48-4.79-3.05-7.11-4.71a139.78 139.78 0 0 1-11.55-218.86c2.64-2.34 5.38-4.58 8.26-6.72.76-.61 1.55-1.17 2.33-1.74a140.59 140.59 0 0 1 26.69-15.11 131.46 131.46 0 0 1 17.66-6.22c56.358-15.626 116.486 5.503 150.68 52.95z" fill="url(#eD2AQVfqmZT5-fill)" fill-rule="evenodd" stroke="none" stroke-width="1"/><path id="eD2AQVfqmZT6" style="mix-blend-mode:multiply" d="m255.41 178.42-1.09-.06a30.34 30.34 0 0 0-6 .51c-1.66.36-3.07 1.23-4.54 1.65a36.43 36.43 0 0 1-8 1.14c-3.29.16-6.26 1.11-9.52 1.35-8.52.59-16.73-3.59-24.6-6.32a36 36 0 0 1-4.9-1.89 11 11 0 0 0-3.7-.89c-2.84-.39-6.06-.59-8.69.84-1.59.85-2.22 2.56-3.16 4.11-1.3 2.1-1.76 2.87.51 3.78 4 1.59 9 2.6 8.64 8.06a71.63 71.63 0 0 1-.89 10.26c-.8 3.77-.56 8.45-3.26 11.59-2 2.33-5.63 2.21-8.47 3-2.5.68-5.26 1-7.52 2.38-1.77 1.05-2.74 2.64-4.2 4.05-2.24 2.16-5.35 3.7-8.23 2.16-1.11-.57-1-1-2.42-1a12 12 0 0 0-4.06 1.28c-3.47 1.48-6.47 4-9.93 5.46a66.65 66.65 0 0 1-7.37 2.1c-1.59.41-3.16 1.49-4.67 1.62-.87.08-2-.15-2.94-.12a9.93 9.93 0 0 0-6.77 2.21 45.8 45.8 0 0 0-12.16 14.28c-1.68 3.34-.59 4.85 2.12 6.76 2.32 1.64 6.21 3 7.36 5.73 1 2.29.55 5 1.22 7.34.67 2.34 1.24 4.5 3.42 5.78 3.65 2.17 8.3 2.5 12.15 4.2 4.32 1.94 9.41 6.81 7.63 11.84-.89 2.47-.62 4.9-.58 7.5 0 1.77.58 4.18-1.47 5.05-1.36.57-3.41-.27-4.8.18a5 5 0 0 0-3 3.3c-.91 2.25-2.45 4.9-2.72 7.34-.52 4.46 3.72 10 7.43 12 4.45 2.42 8.78 5.11 14 4.21 3.34-.57 6.41-2.76 9.82-1.09 2.09 1 3 2.88 4.64 4.34 1.64 1.46 3.46 2.42 5 4.13a33.57 33.57 0 0 0 4.5 4.34 69.16 69.16 0 0 0 7.18 5.45c3 1.81 6.39 2.19 9.59 3.28 2.87.95 5.38.65 8.31 1.25 3.19.65 6.65.57 9.57 2.12 2.21 1.17 4.3 2.6 6.58 3.68 6.38 2.93 9.08-4 10.91-8.88a40.15 40.15 0 0 0 2.87-10 42.13 42.13 0 0 1 1.36-8.42 58.21 58.21 0 0 1 2.88-8 9.45 9.45 0 0 0 1.32-3 7.74 7.74 0 0 0-1.59-5.18c-2.32-3.38-4.79-8.14-7.9-10.8-3.37-2.95-7.07.24-9.89 2.19-1.62 1.11-3.82 2.29-5.68 1.36-1.86-.93-2.58-2.61-4.57-3.39a4.7 4.7 0 0 0-5.59 1.42c-.66.74-.95 1.56-1.69 2.26-.74.7-1.71.77-1.88 1.91-.38 2.37 3.26 2.62 4.92 3.11 3 .86 3.42 1.19 3.92 4.23.28 1.75.57 4.58-1.6 5.1-1.55.36-4.31-1.62-5.75-2-6.12-1.66-12.31-3.32-12.35-11 0-2.4 1.14-3 1.85-5.05.71-2.05-.06-4.61.81-6.78 1.17-2.84 4.9-4.52 7.32-6.29a56.26 56.26 0 0 1 9.57-5.53c2.31-1.06 4-1.07 6.4-1.28 2.4-.21 3.71-2.27 5.8-3.16 3.85-1.62 7-.23 10.86.56 3.86.79 5.63 2.57 8.57 5 5.89 5 11.8 10.6 16.32 16.9 3.89 5.5 7.54 11.44 12.55 15.9a54.93 54.93 0 0 0 7.63 5.6c.87.54 1 .08 1.53 1.25a16.35 16.35 0 0 1 .71 4c0 2.14-1.29 4.84-1.69 7-.4 2.16-1.4 3.89-2.11 5.89-1 2.86-2.23 5.52-3.35 8.33-1.8 4.53 1.47 9 .53 13.81-1.36 6.87-5.65 11.07-9.46 16.71-3 4.52-6.36 8.69-8.83 13.49-1.55 3-2.26 6-4.12 8.92-2.34 3.67-5.49 6.64-8.24 10a28.54 28.54 0 0 1-7.68 6.67c-1.95 1.08-3.69 1.49-5.6 2.9-3.38 2.44-6.76 5-10.21 7.36-1.85 1.27-4 1.51-6.18 2.1-2.18.59-4.46 1-6.67 1.64-5.77 1.55-12.81 5.35-18.84 3.45-1.75-.56-3.42-1.54-5.22-2a27.84 27.84 0 0 0-4.47-.15 25.37 25.37 0 0 0-3.58-.13 18.2 18.2 0 0 1-5.36-.66 16.68 16.68 0 0 0-4.94-.13c-.84.08-2.2.64-3 .46-1.05-.22-1-.82-1.69-1.54-.69-.72-1.74-1.24-2.6-2-2.27-2-5.71-3.95-9.13-3.64-1.85.17-2.86.66-4.75.46a13.27 13.27 0 0 1-8.12-3c0 .1 0 .21.05.27a140 140 0 0 0 94.74 19.37c.56-.93 1.1-1.84 1.58-2.74 1.52-2.81 3.62-4.27 6.16-6.07a64.55 64.55 0 0 0 9.12-8 58 58 0 0 1 8.26-6.77c3.7-2.6 6.66-6 10.39-8.63 3.56-2.47 7.52-3.76 11.47-5.44 5.66-2.43 9.85-7.54 13.95-12 1.86-2 3-4.68 5-6.59 1.2-1.16 2.55-2 3.7-3.28a44 44 0 0 1 10.46-8.18c2.47-1.29 4.63-.2 7.09-.29 2.46-.09 4.27-2.73 6.37-3.89 2.45-1.36 5.61-.76 8 .64A140.1 140.1 0 0 0 336.9 266.9c-3.14 2.3-6 8.26-7.94 9.41-1.17.71-2.57.75-3.77 1.62a17.34 17.34 0 0 0-2.67 2.82c-1.39 1.5-3.17 3.34-5.16 2.42-1.99-.92-2.56-5-5.24-3.63-1.33.7-1.78 2.41-3.31 3.14a18.08 18.08 0 0 0-3.51 1.91 47.29 47.29 0 0 0-4.95 4.74 7.18 7.18 0 0 1-2.87 1.46c-.85.35-2.25 1.51-3.08 1.61-3 .41-2.69-3.17-2.77-5.09a25.11 25.11 0 0 0-.08-3.25c-.19-1.17-.71-1.47-1.17-2.47-1.22-2.55-.83-5.36-.19-8.05.94-3.94 1.85-8.14 1.64-12.17-.08-1.82.15-3-.64-4.65-.58-1.21-1.13-2.41-1.68-3.64a29.41 29.41 0 0 1-1.47-4.36c-.59-2.07-1.84-3.83-2.5-5.88-.56-1.74-1.08-5.76-.34-7.51.37-.82 1.23-1.29 1.51-2.22.28-.93-.08-1.66.46-2.51 1.23-2 5.57-2.8 7.57-3.36a25.3 25.3 0 0 1 10-.58c3.41.5 6.06 1.67 9.23 2.72a11.79 11.79 0 0 0 5.2.58c-.77-1.16-1.57-2.32-2.41-3.47a139 139 0 0 0-61.35-48.07zm-20.57 94.69c.29.95-1 2.49-1.75 2.88-1.61.84-3.94 0-5.67-.14a7 7 0 0 1-4.85-2.17h1.59c-2.11-.72-4.83-.91-5-3.78-.06-1.62 1-2.42 2.45-2.73 2.36-.48 5-1.08 7.38-.4 1.63.45 2.49 1.8 3.42 3.13.66.82 2.1 2.17 2.43 3.21zm-22.36-81.43a7.81 7.81 0 0 1-1.33 5A14.74 14.74 0 0 1 208 200c-2.44 1.78-6.08 1.48-8.86 1.33-1.62-.06-5.55-.81-1.61-2.1a7.14 7.14 0 0 1-2.59-2.07 15 15 0 0 1-1-2.33c-.73-1.72-.72-3.56-1.3-5.29a20.08 20.08 0 0 0-1.75-4.11c-.66-1.09-1.61-1.77-1.2-3.17a1.54 1.54 0 0 1 1.59-1.26c.87-.08 2.12.56 3 .76.88.2 2 .48 3 .77 2.92.78 5.41 2.66 8.23 3.68 1.53.387 2.992 1 4.34 1.82a5.65 5.65 0 0 1 2.63 3.65zm83.76 25c.28 2.85-2.31 5.61-4.23 7.43-2.83 2.69-7.25 4.45-10.87 5.87a9.59 9.59 0 0 1-4.36.79c-1.71-.06-3.5.52-1.43-.6a57 57 0 0 1-5.1-4.29c-2-1.9-4.53-3.35-6.75-5.05-3.68-2.85-8.14-6.22-9.87-10.72-1.13-2.94-1.13-7 .83-9.52a12.68 12.68 0 0 1 5.69-4.11c2.67-.88 5.57-.68 8.34-.49a14.77 14.77 0 0 1 7.72 2.71c1.57 1.19 2.87 2.72 4.52 3.8.84.56 1.62 1 2.41 1.66a11.24 11.24 0 0 0 3.35 1.45c1.74.66 3.18 1 4.34 2.48 1.16 1.48 2 2.88 3.08 4.31 1.08 1.43 2.16 2.51 2.33 4.24z" opacity=".3" fill="url(#eD2AQVfqmZT6-fill)" fill-rule="evenodd" stroke="none" stroke-width="1"/><path id="eD2AQVfqmZT7" style="mix-blend-mode:multiply" d="M124.34 315.33c.27 1.34 1.09 4.35.32 5.75-.86 1.58-3.53 1.28-5 1.49a20.37 20.37 0 0 0-3.59.44 22.69 22.69 0 0 1-2.8 1.07 9.22 9.22 0 0 1-2.81.17 6.57 6.57 0 0 1-2.1-1.26c-1.75-1.16-3.15-3-4.71-4.42a6.84 6.84 0 0 1-1.82-3.09c-.59-1.64-1.31-3.23-1.84-4.88a32.59 32.59 0 0 1-1.89-7.37 9.42 9.42 0 0 1 1.62-6c.49-.82 1.19-1.45 1.67-2.27a14.78 14.78 0 0 1 1.9-2.92 6.34 6.34 0 0 1 1.55-1.27 4.9 4.9 0 0 1 2.08-.34 5.25 5.25 0 0 1 2.78 0 7.67 7.67 0 0 1 2.39 1.2c1.46 1.13 3.16 2 4.52 3.23a10.73 10.73 0 0 1 3.59 5.59 39.29 39.29 0 0 0 2.32 6c.75 1.64 1.83 4 1.89 5.85.08 1.45-.27 2.64-.07 3.03z" opacity=".3" fill="url(#eD2AQVfqmZT7-fill)" fill-rule="evenodd" stroke="none" stroke-width="1"/><path id="eD2AQVfqmZT8" style="mix-blend-mode:multiply" d="M120.57 330.71a4.28 4.28 0 0 0 .2 2.58c1.27-.16 2.46 1.6 3.89 1 .1-1.17 1.12-3.16-.51-3.83-.23-.1-.73.1-1 .06-.27-.04-.7-.39-1.07-.33-.77.12-2.06 1.47-2.71 1.94z" opacity=".3" fill="url(#eD2AQVfqmZT8-fill)" fill-rule="evenodd" stroke="none" stroke-width="1"/><path id="eD2AQVfqmZT9" style="mix-blend-mode:multiply" d="M150.63 322.79a7.69 7.69 0 0 0 3.09 1.08c1 .11 2.16.1 3.18.17 1.8.13 4.12-.06 5.88.42 1.76.48 2.15 1.69 3.23 2.89.65.71 1.45 1.35 2.16 2 .429.323.833.677 1.21 1.06a8.43 8.43 0 0 0 1.2 1.53c1 .87 2.39 1.14 3.43 2a7.64 7.64 0 0 0 2.54 1.89 8 8 0 0 0 2.39 0 10.19 10.19 0 0 1 3 .65c3.33 1.1 5.57 3.82 8.74 5.14 2.88 1.2 6-2 8.4-3.07.39-.18.91-.13 1.25-.42.34-.29.53-.93.79-1.32a4.14 4.14 0 0 1 1.88-1.64c.49-.22.45.26 1-.34a3.17 3.17 0 0 0 .27-1.76 4 4 0 0 0-1.92-3c-1.08-.86-2.13-1.75-3.23-2.6a30 30 0 0 1-3.12-2.17c-.88-.9-1.41-2-2.31-2.93-2.18-2.15-4.43-2.33-7.42-2.77-2.71-.4-6.14.11-7.85-2.53-.68-1.07-.27-1.42-.28-2.5-.01-1.08-.52-2.48-.19-3.68a12.07 12.07 0 0 1 1.23-1.95 23.83 23.83 0 0 0 1.81-2.65c.54-1.08.07-1.72.16-2.8.06-.66.24-.42.52-1 .3-.553.462-1.17.47-1.8a11.16 11.16 0 0 0 0-3.78 8 8 0 0 1-.24-3.16 27.85 27.85 0 0 1 .9-4.07 9.44 9.44 0 0 1 2.15-3.68 12.76 12.76 0 0 1 1.7-1.21c1.64-1.2 2.52-3.22 3.53-4.93 1.5-2.52 2.93-7.51 6.77-6.65 1.14.26 1.89 1.27 3.12 1.32 2.61.12 3.93-2.41 5.12-4.33 2-3.24 2.89-6.91 3.67-10.59.51-2.35.89-4.37-.49-6.5-2.67-4.12-7.86-4.47-11.15-7.89s-4.33-8.39-6.38-12.39c-1.05-2-3-4.36-5.16-5.11a9.46 9.46 0 0 0-2.68-.44c-1.91 0-2.47 1.12-4 1.88a4.28 4.28 0 0 1-2.72.27c-2.75-.21-5.41 2.89-7.47 4.33-3 2.11-6.58 4.13-10.28 4.55-4.34.535-8.708.805-13.08.81a64.94 64.94 0 0 0-9.76.38 16.4 16.4 0 0 0-6.23 2.73c-2.66 1.72-4.46 4-4.69 7.29-.22 3.07 1.41 3.52 3.61 5.15.72.52 2.32 1.49 2.41 2.53.15 1.54-2.13 2.72-3.17 3.47s-3.2 1.69-2.91 3.17c.22 1.09 1.89 2.7 2.53 3.59.64.89 1.11 2.05 2.19 2.28.83.19 1.56-.27 2.36-.38 1.41-.19 2.33.58 3.58 1a12 12 0 0 0 2.92.35c1.2.14 2.53.7 3.74.53 2.07-.31 3.27-1.8 5.55-1.44.774.21 1.569.338 2.37.38a10.07 10.07 0 0 0 1.85-.55c1.47-.42 3.75-.93 4.94.41 1.19 1.34 0 3.74-1 4.87s-2.38 2.22-1.85 3.65c.45 1.22 1.76 1.69 1.79 3.12.12 4.53-5.73 5.06-8.51 7.19-4.21 3.2-3.91 8.44-3.82 13.16 0 .45-.2.9-.18 1.34 0 .78.42 1 .57 1.65a4 4 0 0 1-.69 2.69 7 7 0 0 1-1.94 2.63c-1.08.83-2.41 1.49-3.4 2.42-2 1.87-.95 4.88 1 6.43 1.27 1 3.46.86 4.92 1.57a21.65 21.65 0 0 0 3.48 1.63c.7.19 1.54.14 2.26.26 1.15.22 2 .91 1.26.17z" opacity=".3" fill="url(#eD2AQVfqmZT9-fill)" fill-rule="evenodd" stroke="none" stroke-width="1"/><path id="eD2AQVfqmZT10" style="mix-blend-mode:multiply" d="M240.17 277.5a13.14 13.14 0 0 0 1.93 3.3c.78.86 1.6 1.58 2.32 2.51 1.86 2.43 3.21 5.29 5 7.81a27.59 27.59 0 0 0 3.62 3.63c1.67 1.62 2.28 3.83 3.63 5.66 1.86 2.51 3.82 5.11 7 6a3.69 3.69 0 0 0 3.35-.35c1-.66 1.46-1.77 2.52-2.44.88-.56 1.82-.37 2.85-.57 1.28-.25 2.56-.59 3.84-.92a6.93 6.93 0 0 1 3.17-.07c1 .15 2.16-.2 3.05.54.89.74.3 2.12.24 3.23a13.65 13.65 0 0 1-1.39 6.19 3.5 3.5 0 0 1-2.5 2c-1.22.39-2.38.71-2.92 2.06a12.32 12.32 0 0 0-.83 5.72 6 6 0 0 0 .38 1.3c.47.79.14.27.84.57.7.3 1.45.43 2 1.19a10.88 10.88 0 0 1 1.51 4.41 7.61 7.61 0 0 1-.15 2.89 31.92 31.92 0 0 1-.67 3.17c-.8 2.09-.84 4.16-1.88 6.22a46.39 46.39 0 0 0-2.83 7.53c-1.66 5.42-4.14 10.19-3.49 16 .17 1.42 1.19 3.93 2.63 4.57a14.5 14.5 0 0 0 2.15.28 9.27 9.27 0 0 1 2.94 1.64c1.09.73 2.74 1.87 4.12 1.93a8.72 8.72 0 0 0 4.34-1.51 22.35 22.35 0 0 1 1.93-1.29 15.2 15.2 0 0 0 1.57-.68c2-1.26 3.52-2.47 6-2.63a7 7 0 0 1 2.45.34c.95.27 2 1 2.94 1.15 2 .25 3.68-2.59 4.52-3.88 1.24-1.89 2.38-4.41 4.56-5.42 1.31-.62 2.8-.33 4.19-.77a21.8 21.8 0 0 1 5.45-1.05 3.4 3.4 0 0 0 2.06-.5c2.28-1.46 3.51-4.28 4.63-6.65 1.32-2.82 2.2-5.82 3.52-8.62a31.49 31.49 0 0 0 2.73-9c.52-3 1.76-5.74 2.64-8.65.66-2.21 1.26-4.45 1.88-6.66a48.21 48.21 0 0 0 1-7 30.08 30.08 0 0 0 .59-5.43 57.74 57.74 0 0 1-.26-6.29 31.75 31.75 0 0 0-.18-6.39c-.27-2-1.05-5.82-4-5.44-2.08.28-4 2.37-5.68 3.52-2.66 1.85-5.87 1.59-8.86.88-2.44-.58-4.7-1.55-7.18-1.92-1.23-.19-2.89-.8-4.1-.38a7.75 7.75 0 0 0-2.58 1.91 17 17 0 0 1-5.39 4c-1.84.84-4.48 1.95-6.52 1.64a34.6 34.6 0 0 1-3.85-1.08c-1.89-.55-3.2-3.11-3.68-4.95-1-3.84-3.11-7.33-4-11.22-.54-2.46 2.34-3.71 3.3-5.77.75-1.62.51-3.17.74-4.85a28.18 28.18 0 0 1 1.37-4.39c1.48-4.7-.67-8.92-5.73-10.13a7.16 7.16 0 0 0-7.52 2.56 31.88 31.88 0 0 0-2.32 3.15c-.89 1.47-1.41 3-2.67 4.28-4.79 4.76-11.49 5.07-17.75 5.7a24.24 24.24 0 0 0-8.61 2.34c-1.42.75-1.88.86-2.58 2.44a22.07 22.07 0 0 1-1.73 2.73c-.67 1.06-.69 2.34.35-.09z" opacity=".3" fill="url(#eD2AQVfqmZT10-fill)" fill-rule="evenodd" stroke="none" stroke-width="1"/><path id="eD2AQVfqmZT11" d="M148.37 179.64a5.13 5.13 0 0 0-.44.47 36.51 36.51 0 0 1-6.78 5.87 10.77 10.77 0 0 1-1.82 1.34c-.49.21-.83.1-1.33.37-1.08.56-2.21 1.13-3.29 1.57-2 .73-3.81 2.45-5.55 3.73-2.13 1.57-5 2.14-7 3.88-2.11 1.91-3.64 4.38-6 6l-1.63 1.17c-1.38 1-1.42 2.27-2.48 4 .39 1.21 1.34 3.13 1 4.4a6 6 0 0 1-.6 1.31 29 29 0 0 1-2.06 3.2 34 34 0 0 1-5 5.29 44.14 44.14 0 0 1-5.05 3.07c-3.41 2-6.77 3.75-8.82 7.31-1.11 2-2.16 4-3.33 6a22.53 22.53 0 0 0-2 3.56c-.34 1-.43 2-.7 2.93-.34 1.14-1.35 1.92-2 2.91a7.12 7.12 0 0 0-1 3.83c0 1.92 1.19 3.3 1.36 5.07a5.85 5.85 0 0 1-.85 2.85c-1.9 4.24-.46 8.46-1 12.91-.39 3.25-2.6 5.94-3.25 9.2a77.7 77.7 0 0 0-1.06 9.88 9.9 9.9 0 0 1-1.89 5.11 15.9 15.9 0 0 0-2.18 6.13c-.21 2.21-.36 4.35-.78 6.54-.33 1.72-1.23 3.25-1.5 5-.06 1.59.04 3.18.3 4.75.21 3.51 1.28 6.77 1.61 10.25.26 2.87-.57 6.23 1 8.77a7.7 7.7 0 0 0 1.86 1.95c1.11.94 1.72 2.39 2.63 3.54a8.92 8.92 0 0 0 1.81 1.5 18.94 18.94 0 0 0 2.4 2.08c1.52.82 3.38.82 5 1.41a5.9 5.9 0 0 1 3.45 4c.59 1.87 1.13 3.83 1.6 5.73.74 2.92.15 6.37 1.37 9.18a7.77 7.77 0 0 0 2.21 2.42 39 39 0 0 1 2.81 2.94 10.46 10.46 0 0 1 2 3.53 9 9 0 0 1 .34 2.77c0 .45-.19.9-.19 1.34.126.765.317 1.517.57 2.25.16.79.62 2.58.2 3.34-.84 1.6-3.22-.69-3.48.72-.22 1 1.23 2.07 1.67 2.85a12 12 0 0 1 1.25 3.61c.45 2.37.08 3.34 2 4.92a20.32 20.32 0 0 0 4.94 3c2.22.94 3.06 2.87 4.78 4.33a18.75 18.75 0 0 1 2.19 2.87 19.17 19.17 0 0 0 2.53 2.15 5.85 5.85 0 0 1 1.72 2.37c.13.59-.28 1.27-.36 1.85a6.07 6.07 0 0 0 .82 3 15.54 15.54 0 0 0 2.27 4.15 139.78 139.78 0 0 1-11.55-218.86c2.64-2.34 5.38-4.58 8.26-6.72.76-.61 1.55-1.17 2.33-1.74a140.59 140.59 0 0 1 26.69-15.15z" fill="url(#eD2AQVfqmZT11-fill)" fill-rule="evenodd" stroke="none" stroke-width="1"/><path id="eD2AQVfqmZT12" style="mix-blend-mode:multiply" d="M258.12 211.38s80.38-9.3 71.17 8.38c-9.21 17.68-69.49 5.58-75.35 20.46-5.86 14.88 47.72 17.67 4.18 29.76s-113.86 5.58-118.89-7.44c-5.03-13.02 48.56-15.81 21.77-24.18-26.79-8.37-72 0-65.31-22.33 6.69-22.33 162.43-4.65 162.43-4.65z" opacity=".65" fill="url(#eD2AQVfqmZT12-fill)" stroke="none" stroke-width="1"/><path id="eD2AQVfqmZT13" d="M328.05 242.68s-2.69 2.55-1.46 4.9l-24.94-9.2 1.75-4.44zm6.39-16.02s-2.68 2.55-1.46 4.9l-24.93-9.2 1.74-4.44z" fill="#FFF" stroke="none" stroke-width="1"/><path id="eD2AQVfqmZT14" d="m335.79 225.18-.74 1.98-25.26-9.24-1.57 4.22 25.26 9.25-.74 1.99-27.89-10.21.03-.08.71-1.91 1.58-4.22.74-1.99 27.88 10.21z" fill="#4F64B1" stroke="none" stroke-width="1"/><path id="eD2AQVfqmZT15" d="m332.72 227.3-22.39-8.2" fill="#CAE0FF" stroke="none" stroke-width="1"/><path id="eD2AQVfqmZT16" d="m310.26 219.29 22.39 8.2.14-.38-22.39-8.19-.14.37z" fill="#162659" stroke="none" stroke-width="1"/><path id="eD2AQVfqmZT17" d="m332.29 228.47-22.39-8.2" fill="#CAE0FF" stroke="none" stroke-width="1"/><path id="eD2AQVfqmZT18" d="m309.83 220.46 22.39 8.19.14-.37-22.4-8.2-.13.38z" fill="#162659" stroke="none" stroke-width="1"/><path id="eD2AQVfqmZT19" d="m331.87 229.58-22.39-8.19" fill="#CAE0FF" stroke="none" stroke-width="1"/><path id="eD2AQVfqmZT20" d="m309.41 221.57 22.39 8.2.14-.37-22.39-8.2-.14.37z" fill="#162659" stroke="none" stroke-width="1"/><path id="eD2AQVfqmZT21" d="m303.85 235.48 22.4 8.2.14-.37-22.4-8.2-.14.37zm-.43 1.17 22.39 8.19.14-.37-22.39-8.19-.14.37zm-.42 1.12 22.4 8.19.14-.37-22.4-8.2-.14.38z" fill="#A29B00" stroke="none" stroke-width="1"/><path id="eD2AQVfqmZT22" d="M328.21 233.7s-2.69 2.55-1.46 4.9l-24.94-9.2 1.75-4.44z" fill="#FFF" stroke="none" stroke-width="1"/><path id="eD2AQVfqmZT23" d="m329.56 232.21-.74 1.99-25.26-9.24-1.58 4.22 25.26 9.25-.74 1.99-27.88-10.21.03-.08.71-1.91 1.57-4.22.74-1.99 27.89 10.2z" fill="#00F7E5" stroke="none" stroke-width="1"/><path id="eD2AQVfqmZT24" d="m304.02 226.33 22.4 8.2.14-.38-22.4-8.19-.14.37zm-.43 1.16 22.39 8.2.14-.37-22.39-8.2-.14.37zm-.42 1.12 22.4 8.2.13-.37-22.39-8.2-.14.37z" fill="#162659" stroke="none" stroke-width="1"/><path id="eD2AQVfqmZT25" d="m329.4 241.19-.74 1.99-25.26-9.24-1.58 4.22 25.26 9.25-.74 1.99-27.88-10.21.03-.07.71-1.92 1.57-4.22.74-1.99 27.89 10.2z" fill="#859CE8" stroke="none" stroke-width="1"/><path id="eD2AQVfqmZT26" d="M340.72 221.55s-2.69 2.54-1.46 4.9l-24.94-9.2 1.75-4.44zm6.39-16.02s-2.68 2.54-1.46 4.9l-24.93-9.2 1.74-4.44z" fill="#FFF" stroke="none" stroke-width="1"/><path id="eD2AQVfqmZT27" d="m348.46 204.04-.74 1.99-25.26-9.25-1.57 4.23 25.26 9.25-.74 1.99-27.89-10.21.03-.08.71-1.91 1.58-4.23.74-1.98 27.88 10.2z" fill="#4F64B1" stroke="none" stroke-width="1"/><path id="eD2AQVfqmZT28" d="m345.39 206.17-22.39-8.2" fill="#CAE0FF" stroke="none" stroke-width="1"/><path id="eD2AQVfqmZT29" d="m322.93 198.16 22.39 8.19.14-.37-22.39-8.2-.14.38z" fill="#162659" stroke="none" stroke-width="1"/><path id="eD2AQVfqmZT30" d="m344.96 207.33-22.4-8.19" fill="#CAE0FF" stroke="none" stroke-width="1"/><path id="eD2AQVfqmZT31" d="m322.5 199.32 22.39 8.2.14-.37-22.4-8.2-.13.37z" fill="#162659" stroke="none" stroke-width="1"/><path id="eD2AQVfqmZT32" d="m344.54 208.45-22.39-8.2" fill="#CAE0FF" stroke="none" stroke-width="1"/><path id="eD2AQVfqmZT33" d="m322.08 200.44 22.39 8.2.14-.38-22.39-8.19-.14.37z" fill="#162659" stroke="none" stroke-width="1"/><path id="eD2AQVfqmZT34" d="m316.52 214.35 22.4 8.2.14-.38-22.4-8.19-.14.37zm-.43 1.16 22.39 8.2.14-.37-22.39-8.2-.14.37zm-.42 1.12 22.4 8.2.14-.37-22.4-8.2-.14.37z" fill="#A29B00" stroke="none" stroke-width="1"/><path id="eD2AQVfqmZT35" d="M340.88 212.57s-2.69 2.54-1.47 4.9l-24.93-9.2 1.75-4.45z" fill="#FFF" stroke="none" stroke-width="1"/><path id="eD2AQVfqmZT36" d="m342.23 211.08-.74 1.99-25.26-9.25-1.58 4.23 25.26 9.25-.74 1.99-27.88-10.21.03-.08.71-1.91 1.57-4.23.74-1.99 27.89 10.21z" fill="#FB9844" stroke="none" stroke-width="1"/><path id="eD2AQVfqmZT37" d="m316.69 205.19 22.4 8.2.14-.37-22.4-8.2-.14.37zm-.43 1.17 22.39 8.2.14-.37-22.39-8.2-.14.37zm-.42 1.12 22.4 8.2.14-.38-22.4-8.19-.14.37z" fill="#162659" stroke="none" stroke-width="1"/><path id="eD2AQVfqmZT38" d="m342.07 220.06-.74 1.99-25.26-9.24-1.58 4.22 25.26 9.25-.74 1.99-27.88-10.21.03-.08.71-1.91 1.57-4.23.74-1.99 27.89 10.21z" fill="#2F3655" stroke="none" stroke-width="1"/><path id="eD2AQVfqmZT39" d="m295.31 215.22-35.87-13.37 13.81-36.43 35.87 13.36-13.81 36.44z" fill="#4F64B1" stroke="none" stroke-width="1"/><path id="eD2AQVfqmZT40" d="m267.42 258.45-3.55 7.18 3.25 1.82 5.02-6.13-4.72-2.87z" fill="#FED4D5" stroke="none" stroke-width="1"/><path id="eD2AQVfqmZT41" d="M338 165.93s-14 11.23-17.17 10.74c-3.17-.49-7.78-8.3-7.78-8.3l14.09-32.82s6.28 3.15 5.92 7.74c-.36 4.59-8 22.26-8 22.26l12-2z" fill="#2C5099" stroke="none" stroke-width="1"/><path id="eD2AQVfqmZT42" d="m296.43 235.61-44.83-16.7 1.79-4.73 44.83 16.7-1.79 4.73z" fill="#D87A1D" stroke="none" stroke-width="1"/><path id="eD2AQVfqmZT43" d="m286.04 270.34-4.61-1.71 19.54-51.58 4.61 1.72-19.54 51.57zm-43.63-16.25-4.6-1.71 19.54-51.58 4.6 1.72-19.54 51.57zm70.34-67.47a6.76 6.76 0 0 0 1.45-2.3l3.05-8a7 7 0 0 0-4.2-9l-36.11-13.45a7.09 7.09 0 0 0-9.13 4l-3.05 8a6.71 6.71 0 0 0-.43 2.67z" fill="#F7931E" stroke="none" stroke-width="1"/><path id="eD2AQVfqmZT44" d="M309.23 223.64a5.82 5.82 0 0 0 1.77-2.44 6 6 0 0 0-3.59-7.68l-47.26-17.61a6.05 6.05 0 0 0-7.8 3.44 5.64 5.64 0 0 0-.27 3z" fill="#F7931E" stroke="none" stroke-width="1"/><path id="eD2AQVfqmZT45" d="M292.6 122.81s4.61-.77 7.16.18 10.91 2.66 10.91 2.66l10.9 5.46s11.06 8.58 11 10.38c-.06 1.8-10.15 21.32-12.57 23.87-2.42 2.55-8.56 16-8.56 16l-46.72 1.23s12-18.6 14.88-23.41c2.88-4.81 13-36.37 13-36.37z" fill="#4E93FC" stroke="none" stroke-width="1"/><g id="eD2AQVfqmZT46" style="mix-blend-mode:overlay" opacity=".25"><path id="eD2AQVfqmZT47" d="M313.53 140.22s6.29 12.08 13.87 12.49c2.74-5.27 5.14-10.35 5.17-11.22.06-1.8-11-10.38-11-10.38l-9.19-4.23-.28-.08zm-29.38 30.35c3.3-2.15 19.88-5 19.88-5l8.74-13.21s-15-.19-15.47-5.9c-.47-5.71 6-11.4 1-16.22a25.17 25.17 0 0 1-3.51-4.38c-3.05 7-12.82 29.34-15.22 33.38-2.86 4.81-14.88 23.41-14.88 23.41l23.85-.63c-3.03-4.53-6.32-10.2-4.39-11.45z" fill="#231F20" stroke="none" stroke-width="1"/></g><path id="eD2AQVfqmZT48" d="M307.12 198.83s2.61 11.7-1.21 19.59c-3.82 7.89-33.86 44.49-33.86 44.49l-5.82-3.79s24-42.67 21.53-48.07c-2.47-5.4-15.38-13.62-15.38-13.62s21.21-16 34.74 1.4z" fill="#2F3655" stroke="none" stroke-width="1"/><path id="eD2AQVfqmZT49" d="m325.14 256.36 2.75 9.73s3.81-.2 4.1-1.51c.29-1.31-2.75-9.73-2.75-9.73z" fill="#FED4D5" stroke="none" stroke-width="1"/><path id="eD2AQVfqmZT50" d="M326.93 264.52s4.26.78 5.21-.9c.95-1.68.69-2.37 1.76-1.37s6.48 3.43 9.74 4.14c3.26.71-.23 1.43-1.07 1.72-.84.29-15.2.72-15.2.72a2.92 2.92 0 0 1-.44-4.31z" fill="#2F3655" stroke="none" stroke-width="1"/><path id="eD2AQVfqmZT51" d="m344.54 155.33 1.24 2.21s-13 7.71-13.55 7.65c-.55-.06-13.48-6.37-13.48-6.37l4.11-9.41 3-2.11s9.17 8.27 9.3 7.92c.13-.35 9.38.11 9.38.11z" fill="#FFF" stroke="none" stroke-width="1"/><path id="eD2AQVfqmZT52" d="m335.92 157.65-12.78-9.35-14.91 10.92 13.01 9.43 11.58-.27 13.61-10.73h-10.51z" fill="#859CE8" stroke="none" stroke-width="1"/><path id="eD2AQVfqmZT53" d="M267.42 269.93c-.83 1.14-2.93 1.07-4.67-.16-1.74-1.23-2.49-3.16-1.65-4.3a4.18 4.18 0 0 1 5.22-.58 4 4 0 0 1 1.1 5.04z" fill="#2F3655" stroke="none" stroke-width="1"/><path id="eD2AQVfqmZT54" d="M315.32 153.08s2.2-3.63 5.5-3c3.3.63 6.9 2.57 5.19 4.36-1.71 1.79-5.81-.54-5.81-.54s-4.89 3-5.82 1.68c-.93-1.32.94-2.5.94-2.5z" fill="#FED4D5" stroke="none" stroke-width="1"/><path id="eD2AQVfqmZT55" d="M293.45 122.67s6.43-1.66 6.69 5.32c.26 6.98-11.14 25.61-11.14 25.61l28.11-3 1 4.89s-38.38 21-44.55 5.55c-6.17-15.45 13.13-38.04 19.89-38.37z" fill="#4E93FC" stroke="none" stroke-width="1"/><path id="eD2AQVfqmZT56" d="m336.11 121.75 1.83-2.29s-2.14-2-2.45-3.75c-.31-1.75-1-5.37-5-7s-10.48 2.84-10.7 8.16c-.22 5.32 7.07 4 7.07 4s7.01 4.23 9.25.88z" fill="#2F3655" stroke="none" stroke-width="1"/><path id="eD2AQVfqmZT57" d="m320.17 119.46-11.17 6s-1.87 13.68 4.35 14.78c6.22 1.1 4.9-5.26 4.9-5.26l5.65-4z" fill="#FED4D5" stroke="none" stroke-width="1"/><path id="eD2AQVfqmZT58" d="m335.92 157.65-.03-.02-14.38 11.02 11.31-.27 13.61-10.73h-10.51z" fill="#4F64B1" stroke="none" stroke-width="1"/><path id="eD2AQVfqmZT59" style="mix-blend-mode:overlay" d="M269.16 261c4.59-8.16 13.94-24.48 20.7-34.35 5.46-8 12.88-14.55 18.12-18.77a45.53 45.53 0 0 0-.86-9.08c-13.53-17.4-34.74-1.4-34.74-1.4s12.86 8.23 15.38 13.62c2.52 5.39-21.53 48.07-21.53 48.07z" opacity=".46" fill="#231F20" stroke="none" stroke-width="1"/><path id="eD2AQVfqmZT60" style="mix-blend-mode:overlay" d="m323.9 131-3.73-11.51-2.85 1.51c-1.58 4.35-4.89 14.38-3.79 19.24 6 .95 4.72-5.28 4.72-5.28z" fill="#231F20" stroke="none" stroke-width="1"/><path id="eD2AQVfqmZT61" d="M342.09 163.26s.48-4.55-2.45-3.75c-2.93.8-1.79 4.73-1.79 4.73l-2.19 1.76s4.81 1.92 6.43-2.74zm-22.57-42.63s-1.16-5.69 1.54-5.7c2.7-.01 1.7 4.28 1.7 4.28s3.81-.2 5.13-3.15c0 0 4.08 8.4 8.22 5.69 0 0-7.28 14.29-13.18 10.68-5.9-3.61-5.02-7.54-3.41-11.8z" fill="#FED4D5" stroke="none" stroke-width="1"/><path id="eD2AQVfqmZT62" style="mix-blend-mode:overlay" d="M326.48 125.25c-.18.49-1.15.59-2.15.21s-1.67-1.07-1.48-1.56c.19-.49 1.15-.59 2.15-.21s1.67 1.07 1.48 1.56zm5.59 2.23a1 1 0 0 1-1.38.35c-.6-.22-1-.74-.8-1.16.2-.42.77-.57 1.37-.35.6.22.97.75.81 1.16z" fill="#231F20" stroke="none" stroke-width="1"/><path id="eD2AQVfqmZT63" style="mix-blend-mode:overlay" d="M278.61 162.56c-12.16-7 10.22-33.67 15.84-40a5.54 5.54 0 0 0-1 .15c-6.76.31-26.09 22.88-19.92 38.34 2.15 5.37 8.16 6.26 15.1 5.15a31.36 31.36 0 0 1-10.02-3.64z" opacity=".46" fill="#231F20" stroke="none" stroke-width="1"/><path id="eD2AQVfqmZT64" d="M330.94 257.65S317.53 181.38 309.5 177c-8.03-4.38-29.43-7.73-42.18 1.83s-6.22 22.25 3.9 25.48c10.12 3.23 26.58-.09 26.58-.09L325.17 259z" fill="#2F3655" stroke="none" stroke-width="1"/><path id="eD2AQVfqmZT65" style="mix-blend-mode:overlay" d="M301.08 197.79s-25.15 1.77-31.72-1.69c-4.71-2.48-3.52-11.8-2.47-16.89-12.15 9.52-5.67 21.95 4.33 25.14 10 3.19 26.58-.09 26.58-.09L325.17 259l3.17-.75z" opacity=".46" fill="#231F20" stroke="none" stroke-width="1"/><path id="eD2AQVfqmZT66" d="M143.82 232.47 112 286.34c-2.33 4-14.24-3-11.91-6.92l31.82-53.87z" fill="#662D91" stroke="none" stroke-width="1"/><path id="eD2AQVfqmZT67" d="m142.61 231.76-30.37 51.42c-2.23 3.77-11.34-1.52-9.11-5.3l30.37-51.41z" fill="#EFF4F4" stroke="none" stroke-width="1"/><path id="eD2AQVfqmZT68" d="m134.56 228-30 50.76a.51.51 0 0 1-.69.19.51.51 0 0 1-.18-.69l30-50.77a.52.52 0 0 1 .69-.19.5.5 0 0 1 .18.7zm1.74 1-30 50.77a.52.52 0 0 1-.7.19.5.5 0 0 1-.17-.69l30-50.77a.52.52 0 0 1 .7-.19.51.51 0 0 1 .17.69zm1.7 1-30 50.77a.51.51 0 0 1-.69.19.51.51 0 0 1-.18-.7l30-50.76a.51.51 0 0 1 .69-.19.49.49 0 0 1 .18.69zm1.77 1-30 50.77a.53.53 0 0 1-.7.19.51.51 0 0 1-.17-.7l30-50.76a.51.51 0 0 1 .7-.19.5.5 0 0 1 .17.69zm1.74 1.05-30 50.76a.5.5 0 0 1-.923-.118.49.49 0 0 1 .063-.382l30-50.77a.51.51 0 0 1 .69-.18.5.5 0 0 1 .17.69z" fill="#CCC" stroke="none" stroke-width="1"/><path id="eD2AQVfqmZT69" d="m98.5 257.79 25.69-44.1c1.89-3.24 11.64 2.34 9.76 5.58l-25.7 44.1z" fill="#FC6B76" stroke="none" stroke-width="1"/><path id="eD2AQVfqmZT70" d="M99.49 258.36 124 216.27c1.8-3.09 9.25 1.18 7.45 4.27L107 262.63z" fill="#EFF4F4" stroke="none" stroke-width="1"/><path id="eD2AQVfqmZT71" d="m106.07 261.38 24.22-41.57a.41.41 0 0 1 .71.41l-24.22 41.56a.43.43 0 0 1-.57.16.41.41 0 0 1-.14-.56zm-1.42-.82L128.87 219a.41.41 0 0 1 .56-.16.42.42 0 0 1 .15.57L105.36 261a.43.43 0 0 1-.57.16.42.42 0 0 1-.14-.6zm-1.42-.81 24.22-41.56a.41.41 0 0 1 .55-.19.41.41 0 0 1 .15.56l-24.22 41.56a.43.43 0 0 1-.57.16.4.4 0 0 1-.13-.53zm-1.42-.82L126 217.37a.41.41 0 0 1 .57-.15.4.4 0 0 1 .14.56l-24.21 41.56a.43.43 0 0 1-.57.16.42.42 0 0 1-.12-.57zm-1.42-.81 24.21-41.56a.43.43 0 0 1 .57-.16.42.42 0 0 1 .14.57l-24.21 41.56a.41.41 0 0 1-.57.15.4.4 0 0 1-.14-.56z" fill="#CCC" stroke="none" stroke-width="1"/><path id="eD2AQVfqmZT72" d="m129.7 277.7 15.71-48.43c1.15-3.56 11.92-.25 10.77 3.3L140.47 281z" fill="#FC6B76" stroke="none" stroke-width="1"/><path id="eD2AQVfqmZT73" d="m130.8 278 15-46.22c1.1-3.4 9.34-.87 8.24 2.52l-15 46.23z" fill="#EFF4F4" stroke="none" stroke-width="1"/><path id="eD2AQVfqmZT74" d="m137.91 279.54 14.8-45.64a.42.42 0 0 1 .52-.28.41.41 0 0 1 .26.52l-14.8 45.64a.41.41 0 0 1-.757.07.4.4 0 0 1-.023-.31zm-1.57-.48 14.8-45.64a.42.42 0 0 1 .52-.28.41.41 0 0 1 .26.52l-14.8 45.64a.42.42 0 0 1-.52.27.4.4 0 0 1-.26-.51zm-1.57-.49 14.8-45.64a.42.42 0 0 1 .52-.27.4.4 0 0 1 .26.51l-14.8 45.65a.42.42 0 0 1-.52.27.41.41 0 0 1-.26-.52zm-1.57-.48 14.8-45.64a.41.41 0 0 1 .757-.07.4.4 0 0 1 .023.31L134 278.33a.42.42 0 0 1-.77.08.41.41 0 0 1-.03-.32zm-1.57-.48 14.8-45.61a.41.41 0 0 1 .757-.07.4.4 0 0 1 .023.31l-14.8 45.64a.43.43 0 0 1-.52.28.41.41 0 0 1-.26-.55z" fill="#CCC" stroke="none" stroke-width="1"/><path id="eD2AQVfqmZT75" d="M130 248.69s5.51 1 5.89 5.05l24.17-32.27-5.87-4.24zm-21.29-15.18s5.51 1 5.89 5.05l24.17-32.28-5.87-4.28z" fill="#FFF" stroke="none" stroke-width="1"/><path id="eD2AQVfqmZT76" d="m105.78 232.72 2.58 1.93 24.54-32.61 5.47 4.1-24.54 32.61 2.57 1.93 27.1-36-.1-.07-2.48-1.86-5.47-4.1-2.58-1.93-27.09 36z" fill="#4F64B1" stroke="none" stroke-width="1"/><path id="eD2AQVfqmZT77" d="M111.43 232.91 133.19 204" fill="#CAE0FF" stroke="none" stroke-width="1"/><path id="eD2AQVfqmZT78" d="m133.43 204.18-21.76 28.91-.48-.37 21.76-28.91.48.37z" fill="#162659" stroke="none" stroke-width="1"/><path id="eD2AQVfqmZT79" d="m112.94 234.04 21.76-28.91" fill="#CAE0FF" stroke="none" stroke-width="1"/><path id="eD2AQVfqmZT80" d="m134.94 205.31-21.76 28.91-.48-.36 21.76-28.91.48.36z" fill="#162659" stroke="none" stroke-width="1"/><path id="eD2AQVfqmZT81" d="m114.39 235.12 21.76-28.91" fill="#CAE0FF" stroke="none" stroke-width="1"/><path id="eD2AQVfqmZT82" d="m136.39 206.39-21.76 28.91-.48-.36 21.76-28.91.48.36z" fill="#162659" stroke="none" stroke-width="1"/><path id="eD2AQVfqmZT83" d="m154.88 219.57-21.75 28.91-.49-.36 21.76-28.91.48.36zm1.52 1.13-21.77 28.91-.48-.36 21.76-28.91.49.36zm1.44 1.09-21.76 28.91-.48-.36 21.76-28.91.48.36z" fill="#A29B00" stroke="none" stroke-width="1"/><path id="eD2AQVfqmZT84" d="M122.43 237.36s5.51 1 5.89 5l24.17-32.28-5.87-4.24z" fill="#FFF" stroke="none" stroke-width="1"/><path id="eD2AQVfqmZT85" d="m119.5 236.57 2.57 1.93 24.55-32.61 5.47 4.1-24.54 32.61 2.57 1.93 27.1-36-.1-.07-2.48-1.86-5.47-4.1-2.58-1.93-27.09 36z" fill="#F15A24" stroke="none" stroke-width="1"/><path id="eD2AQVfqmZT86" d="m147.15 208.03-21.76 28.91-.48-.37 21.76-28.91.48.37zm1.51 1.13-21.76 28.91-.48-.36 21.76-28.92.48.37zm1.45 1.08-21.76 28.91-.49-.36 21.77-28.91.48.36z" fill="#162659" stroke="none" stroke-width="1"/><path id="eD2AQVfqmZT87" d="m127.08 247.91 2.57 1.93 24.55-32.61 5.47 4.1-24.54 32.61 2.57 1.93 27.1-36-.1-.08-2.48-1.85-5.47-4.1-2.58-1.93-27.09 36z" fill="#859CE8" stroke="none" stroke-width="1"/><path id="eD2AQVfqmZT88" d="M98.68 230.52s6 1.15 6.47 5.55l26.57-35.47-6.46-4.66zm-23.41-16.69s6 1.15 6.47 5.55l26.57-35.47-6.46-4.66z" fill="#FFF" stroke="none" stroke-width="1"/><path id="eD2AQVfqmZT89" d="m72.05 212.97 2.83 2.12 26.97-35.84 6.02 4.5-26.98 35.84 2.83 2.13 29.78-39.57-.11-.08-2.72-2.04-6.01-4.51-2.83-2.12-29.78 39.57z" fill="#4F64B1" stroke="none" stroke-width="1"/><path id="eD2AQVfqmZT90" d="m78.26 213.17 23.91-31.77" fill="#CAE0FF" stroke="none" stroke-width="1"/><path id="eD2AQVfqmZT91" d="m102.44 181.59-23.92 31.78-.53-.4 23.92-31.77.53.39z" fill="#162659" stroke="none" stroke-width="1"/><path id="eD2AQVfqmZT92" d="m79.91 214.41 23.92-31.77" fill="#CAE0FF" stroke="none" stroke-width="1"/><path id="eD2AQVfqmZT93" d="m104.1 182.84-23.92 31.77-.53-.39 23.91-31.78.54.4z" fill="#162659" stroke="none" stroke-width="1"/><path id="eD2AQVfqmZT94" d="m81.51 215.61 23.91-31.78" fill="#CAE0FF" stroke="none" stroke-width="1"/><path id="eD2AQVfqmZT95" d="m105.69 184.03-23.92 31.78-.53-.4 23.92-31.78.53.4z" fill="#162659" stroke="none" stroke-width="1"/><path id="eD2AQVfqmZT96" d="m126.02 198.52-23.92 31.77-.53-.39 23.92-31.78.53.4zm1.66 1.24-23.92 31.77-.53-.39 23.91-31.78.54.4zm1.59 1.19-23.92 31.78-.53-.4 23.92-31.77.53.39z" fill="#A29B00" stroke="none" stroke-width="1"/><path id="eD2AQVfqmZT97" d="M90.35 218.06s6.05 1.15 6.47 5.56l26.56-35.48-6.45-4.66z" fill="#FFF" stroke="none" stroke-width="1"/><path id="eD2AQVfqmZT98" d="m87.12 217.2 2.83 2.12 26.98-35.84 6.01 4.51-26.97 35.84 2.83 2.12 29.78-39.57-.11-.08-2.72-2.04-6.02-4.51-2.83-2.12-29.78 39.57z" fill="#FB9844" stroke="none" stroke-width="1"/><path id="eD2AQVfqmZT99" d="M117.52 185.83 93.6 217.6l-.53-.4 23.91-31.77.54.4zm1.65 1.24-23.91 31.77-.53-.39 23.91-31.78.53.4zm1.6 1.19-23.92 31.78-.53-.4 23.91-31.78.54.4z" fill="#162659" stroke="none" stroke-width="1"/><path id="eD2AQVfqmZT100" d="m95.45 229.66 2.83 2.12 26.98-35.84 6.02 4.5-26.98 35.84 2.83 2.13 29.78-39.57-.11-.08-2.72-2.04-6.02-4.51-2.83-2.12-29.78 39.57z" fill="#2F3655" stroke="none" stroke-width="1"/><path id="eD2AQVfqmZT101" d="M92.69 198.53s-3.43 4.81-.6 7.45c2.83 2.64 11 6.82 11.35 3.19.35-3.63-6.7-4.81-7.26-6.81a14.91 14.91 0 0 1-.32-4.62z" fill="#FED4D5" stroke="none" stroke-width="1"/><path id="eD2AQVfqmZT102" d="M23.57 146.22s-1.19-3.91 2-5.08 12.32 2.47 16-.94c3.68-3.41 6.13 3 3.59 5.7 0 0 1.91-1.86 3.43.06a3.45 3.45 0 0 1-1.21 5.41c-.999.443 2.49.28 1.8 2.4-.69 2.12-4.18 4.37-4.18 4.37l-3.24 4.68s-.5 5.82-3 5.77a3.54 3.54 0 0 1-3.31-2c-.61-1.264.38 2.92-2 3.37-2.38.45-3.31-1.94-3.11-3.24 0 0-1 3.88-3.65 3.33-2.65-.55-3.69-2.05-3.26-4.73.43-2.68.34-9.22-1.66-11.37-2-2.15-4.41-8.55 1.8-7.73z" fill="#2F3655" stroke="none" stroke-width="1"/><path id="eD2AQVfqmZT103" style="mix-blend-mode:overlay" d="M36 144.9c-6.85 0-8.05-2.32-9-.68a3.92 3.92 0 0 0-.09 3.44c.502 1.1-3.86-.69-4.3 2.31-.44 3 8 10.18 5.21 16.08-.78 1.65-1.43 2.89-2 3.83.269.089.543.162.82.22 2.67.55 3.65-3.33 3.65-3.33-.2 1.3.71 3.69 3.11 3.24 2.4-.45 2-3.37 2-3.37a3.54 3.54 0 0 0 3.31 2c2.53 0 3-5.77 3-5.77l3.29-4.73s3.5-2.26 4.18-4.37c.68-2.11-1.8-2.4-1.8-2.4a3.45 3.45 0 0 0 1.24-5.37c-1.52-1.92-3.43-.06-3.43-.06 1.8-1.92 1.11-5.67-.77-6.5A8.83 8.83 0 0 1 36 144.9z" fill="#231F20" stroke="none" stroke-width="1"/><path id="eD2AQVfqmZT104" d="m77.3 180.34-4.36 5.82a7.77 7.77 0 0 1-10.84 1.67l-19.53-14.56a7.73 7.73 0 0 1-1.47-10.85l4.36-5.83a7.77 7.77 0 0 1 10.84-1.66l19.53 14.55a7.74 7.74 0 0 1 1.47 10.86z" fill="#E8863D" stroke="none" stroke-width="1"/><path id="eD2AQVfqmZT105" style="mix-blend-mode:overlay" d="M45.74 156a11.3 11.3 0 0 0 2.11 15.86l3.56 2.65 5.78-.16s1.46-.75 5.91-2.56 4.25 1.2 3.25 3.74 2.2.85 5.59-1.1c2.79-1.6-.71 6.83-2 9.85a11.54 11.54 0 0 0 7.67-4.55 11.29 11.29 0 0 0-2.11-15.86l-13.91-10.35c-5.065-3.677-12.15-2.568-15.85 2.48z" opacity=".41" fill="#231F20" stroke="none" stroke-width="1"/><path id="eD2AQVfqmZT106" d="M88.57 149.71s-1.61 3.53-4.48 12.17-5.36 12.31-5.36 12.31l-7.92 12.11s-12.9 2.61-15.72 6c-2.82 3.39-2.5 9.19.27 11 2.77 1.81 20.55 10.07 29.64-1.3 9.09-11.37 12.16-14.87 13-25.57.84-10.7 1-31.04-9.43-26.72z" fill="#212638" stroke="none" stroke-width="1"/><path id="eD2AQVfqmZT107" d="M107.25 190.1s3.82-1.89 6.43-.11c2.61 1.78 3.55 6.5 6 4.63s-4-12.48-6.3-11.53a61.89 61.89 0 0 0-6.64 3.82z" fill="#FED4D5" stroke="none" stroke-width="1"/><path id="eD2AQVfqmZT108" style="mix-blend-mode:overlay" d="M90.58 147.39c-11.45 4.43 1.19 52 1.19 52l4.53.49s1-3.58 2.1-8.86c-3.86-10.37-10.89-31.9-7.82-43.63z" opacity=".58" fill="#231F20" stroke="none" stroke-width="1"/><path id="eD2AQVfqmZT109" d="M41.67 167.16c-.07-.43-1.27 5.37 2.41 11.45 3.68 6.08 9.16 17.39 15.13 19.69 5.97 2.3 8.15.81 9.14-4.41.99-5.22-25.13-17.33-26.68-26.73z" fill="#D67432" stroke="none" stroke-width="1"/><path id="eD2AQVfqmZT110" d="M51 200.87s-3.78-4.92 1.42-9.46c5.2-4.54 57.08-6.41 57.08-6.41l.88 4.34S64 215.24 51 200.87z" fill="#2F3655" stroke="none" stroke-width="1"/><path id="eD2AQVfqmZT111" d="M49.39 154.8c-.44 0 4.79-2.74 11.68-.93s19.27 3.84 23.22 8.89c3.95 5.05 3.09 7.56-1.65 10-4.74 2.44-23.78-19.14-33.25-17.96z" fill="#D67432" stroke="none" stroke-width="1"/><path id="eD2AQVfqmZT112" d="m49.78 159.71-4.3 5.74-8.75-6.53 4.29-5.74 8.76 6.53z" fill="#F2B3BB" stroke="none" stroke-width="1"/><path id="eD2AQVfqmZT113" d="m59.92 146.34 13.35 14.56a2.83 2.83 0 0 1 .16 3.59c-3.59 4.92-13.18 18-16.89 22.89a2.85 2.85 0 0 1-3.52.85l-17.62-8.67a2.81 2.81 0 0 1-1-4.2l21.13-28.73a2.83 2.83 0 0 1 4.39-.29z" fill="#E6E6E6" stroke="none" stroke-width="1"/><path id="eD2AQVfqmZT114" d="m76.84 164-19.71 26.58a.94.94 0 0 1-1.3.2l-.67-.5A.91.91 0 0 1 55 189l19.71-26.54a.92.92 0 0 1 1.29-.21l.68.5a.94.94 0 0 1 .16 1.25z" fill="#B3B3B3" stroke="none" stroke-width="1"/><path id="eD2AQVfqmZT115" d="M57.4 166.7a2.24 2.24 0 0 0-1.65-.34 2.08 2.08 0 0 1-.29 1.92 2 2 0 0 1-2.32.82 2.41 2.41 0 0 0 .92 2.4 3 3 0 0 0 3.34-4.8z" fill="#FFF" stroke="none" stroke-width="1"/><path id="eD2AQVfqmZT116" d="M34.75 147.46c-2.68-.55-5.56-3.23-6.56-1.21s-.07 2.84-.07 2.84-1.87-.61-2.4.45c-.53 1.06-1.08 3 1.78 5.53 2.86 2.53 5.17 1.88 4.18 5.08a6.06 6.06 0 0 0-.28 2.19c4.3 1.75 9.09.83 11.65-2.58 3.09-4.13 1.76-10.35-3-14-1.38.91-3.61 2.04-5.3 1.7z" fill="#FED4D5" stroke="none" stroke-width="1"/><path id="eD2AQVfqmZT117" style="mix-blend-mode:overlay" d="M64.31 201.57c6.08-.55 5.66-5.95 8.41-9.16 2.34-2.73 29.19-5.11 37.11-5.76l-.33-1.65s-51.86 1.84-57.06 6.38c-3.3 2.87-3 5.9-2.32 7.74 3.88-1.28 9.08 2.88 14.19 2.45z" opacity=".58" fill="#231F20" stroke="none" stroke-width="1"/><path id="eD2AQVfqmZT118" d="m55.69 115.31-1.11 1.86a14.39 14.39 0 0 0 2 8.76c1.585 2.632-3.59 5.21-3 8.61l.61 2.08h3.3l2.13-9.71s-1.45-11.19-1.62-11.2c-.17-.01-2.31-.4-2.31-.4z" fill="#FFF" stroke="none" stroke-width="1"/><path id="eD2AQVfqmZT119" d="m55.22 114.58 1.83 10.68 18.85 1.12-3.01-10.03-17.67-1.77zm-1.78 23.14 3.53-10.32 18.84 1.11-4.59 9.54-17.78-.33z" fill="#2F3655" stroke="none" stroke-width="1"/><path id="eD2AQVfqmZT120" d="m76.27 126.14-.21 2.61-19.28-1.14.21-2.61 19.28 1.14z" fill="#1A2138" stroke="none" stroke-width="1"/><path id="eD2AQVfqmZT121" d="m2.11 186.83 1.47-1.58a14.52 14.52 0 0 1 9-.59c2.987.764 4-4.91 7.42-5.3h2.18l1 3.15-8.73 4.79S3.2 189.1 3.16 189c-.04-.1-1.05-2.17-1.05-2.17z" fill="#FFF" stroke="none" stroke-width="1"/><path id="eD2AQVfqmZT122" d="m1.28 186.6 10.78-1.28 6.42 17.71-10.5-.04-6.7-16.39zm21.73-8.26-8.92 6.29 6.41 17.72 7.87-7.1-5.36-16.91z" fill="#2F3655" stroke="none" stroke-width="1"/><path id="eD2AQVfqmZT123" d="m18.35 203.45 2.45-.94-6.56-18.12-2.45.94 6.56 18.12z" fill="#1A2138" stroke="none" stroke-width="1"/><path id="eD2AQVfqmZT124" d="M48.36 176.29s-3.15-.45-3.77-1.47a1.23 1.23 0 0 1 .27-1.66c.513-.396-4.68-.54-3-2.68 1.68-2.14 3.44-1.34 5-.14 1.56 1.2 3.25 4.52 3.25 4.52z" fill="#FED4D5" stroke="none" stroke-width="1"/><path id="eD2AQVfqmZT125" d="m49.13 178.99-2.7-2.81 3.33-3.44 2.52 3.22-3.15 3.03z" fill="#2F3655" stroke="none" stroke-width="1"/><path id="eD2AQVfqmZT126" d="M62.3 199.55c-3.27.12-15-14.15-14.2-19 .8-4.85 2.34-6.85 5.38-6.54 3.04.31 18.37 12 17.13 18.86-1.3 7.13-7.92 7.07-8.31 6.68z" fill="#FB9844" stroke="none" stroke-width="1"/><path id="eD2AQVfqmZT127" d="M59.38 160.09s-1.44-2.84-2.6-3.1a1.23 1.23 0 0 0-1.5.78c-.214.617-2-4.25-3.5-2s-.18 3.67 1.47 4.77c1.65 1.1 5.33 1.65 5.33 1.65z" fill="#FED4D5" stroke="none" stroke-width="1"/><path id="eD2AQVfqmZT128" d="M86.24 165.07c-1.5-3.57-18.18-9.56-22.56-7.4-4.38 2.16-5.77 4.39-4.51 7.16 1.26 2.77 18.33 15 23.38 10.2 4.72-4.5 4.87-6.85 3.69-9.96z" fill="#FB9844" stroke="none" stroke-width="1"/><path id="eD2AQVfqmZT129" d="m62.19 159.95-3.53-1.66-2.22 4.24 3.86 1.37 1.89-3.95z" fill="#2F3655" stroke="none" stroke-width="1"/><path id="eD2AQVfqmZT130" d="M86.24 165.07c-1.5-3.57-18.18-9.56-22.56-7.4-4.38 2.16-5.77 4.39-4.51 7.16 1.26 2.77 18.33 15 23.38 10.2 4.72-4.5 4.87-6.85 3.69-9.96z" fill="#FB9844" stroke="none" stroke-width="1"/><path id="eD2AQVfqmZT131" style="mix-blend-mode:overlay" d="M40.7 148.54c.37.27.17 1.15-.44 2-.61.85-1.4 1.25-1.77 1-.37-.25-.17-1.15.45-2 .62-.85 1.4-1.27 1.76-1zm-6.02 8.72c.37.28.2 1.12-.38 1.89-.58.77-1.34 1.17-1.7.9-.36-.27-.2-1.12.38-1.89.58-.77 1.34-1.16 1.7-.9z" fill="#231F20" stroke="none" stroke-width="1"/><path id="eD2AQVfqmZT132" style="mix-blend-mode:overlay" d="M70.09 168.54c-6.7-2.53-8.94-6.15-9.64-8.79-1.74 1.54-2.15 3.18-1.28 5.08 1.26 2.76 18.33 15 23.38 10.2a16.29 16.29 0 0 0 3.76-4.75c-2.96.65-8.62 1.13-16.22-1.74zM53.48 174c-2.56-.26-4 1.15-4.93 4.48a17.33 17.33 0 0 1 9 2.86c3.82 2.74 10 8.82 10.14 16.74a8.14 8.14 0 0 0 3-5.22c1.16-6.79-14.18-18.51-17.21-18.86z" opacity=".58" fill="#231F20" stroke="none" stroke-width="1"/><g id="eD2AQVfqmZT133"><g transform="rotate(-8.976 869.275 -1203.796)" style="animation:eD2AQVfqmZT135_tr__tr 3000ms linear infinite normal forwards" id="eD2AQVfqmZT134"><g id="eD2AQVfqmZT135" transform="translate(-198.456 -120.88)"><g transform="translate(309.096 71.111)" style="animation:eD2AQVfqmZT136_tr__tr 3000ms linear infinite normal forwards"><path id="eD2AQVfqmZT136" d="M307.4 66.71s4.29-3 6.59-4.35c2.3-1.35 7.58-4.94 8.53-2.69.95 2.25-5.12 4.33-5.12 4.33s16.58-2.57 16.83.85-9.56 7-17.49 6L309 74.38z" transform="translate(-308.326 -71.86)" fill="#FED4D5" stroke="none" stroke-width="1"/></g><path id="eD2AQVfqmZT137" d="m203 97.43-3.12-6.19 55.43-3.36 53-23.56 4.69 9.37s-45.83 38-102.72 45.88z" fill="#F04665" stroke="none" stroke-width="1"/></g></g></g><path id="eD2AQVfqmZT138" d="M219.22 174.17s51.41-11.27 63.77-3.75c12.36 7.52 17.87 30.33-17 42.17-34.87 11.84-69.16 7.5-69.16 7.5l-15.33 14.47s-4.4.14-4.28-7.4c.12-7.54 8.78-12.48 8.78-12.48l4.26-4.44 32.17-4.57-25.3 1.13s-2-28.3-.92-28.69c1.08-.39 23.01-3.94 23.01-3.94z" fill="#4D4D4D" stroke="none" stroke-width="1"/><path id="eD2AQVfqmZT139" d="M196.94 220.11a13 13 0 0 1-1.1-3.23c-.47-2.31.25-5.77.7-7.53l12-1.7a75.76 75.76 0 0 0 .41 13.18c-6.85-.15-11.27-.63-12.01-.72z" fill="#EDB49F" stroke="none" stroke-width="1"/><path id="eD2AQVfqmZT140" style="mix-blend-mode:overlay" d="m186 214.68 4.26-4.44 32.17-4.57-25.3 1.13s-.15-2.16-.35-5.29l3 .11c9.81.42 33.15-4.6 42.76-10.4 9.61-5.8 20.18-3.22 20.18-3.22-11.46 1.55-20.68 11.65-32 16.54-11.32 4.89-36.18 9.25-39.1 9.58-2.92.33-9.53 8.19-9.39 12.73a14.25 14.25 0 0 0 1.45 5.72l-2.15 2s-4.4.14-4.28-7.4c.12-7.54 8.75-12.49 8.75-12.49z" opacity=".34" fill="#000" stroke="none" stroke-width="1"/><path id="eD2AQVfqmZT141" d="M175 175.53s-52-8.09-63.88.17c-11.88 8.26-15.89 31.36 19.67 41s69.46 3.3 69.46 3.3l16.22 13.5s4.41-.13 3.8-7.65c-.61-7.52-9.56-11.92-9.56-11.92l-4.54-4.16-32.4-2.6 25.32-.42s.19-28.36-.92-28.69c-1.11-.33-23.17-2.53-23.17-2.53z" fill="#4D4D4D" stroke="none" stroke-width="1"/><path id="eD2AQVfqmZT142" d="m226.83 169.32-14.08-73.4a6.22 6.22 0 0 0-6.35-5l-26.53.81c-1.71.05-14.6.68-17.22 5.19l-27.2 56.48c-4.52 7 10.47 16.24 15 9.23l20.16-31.45-3.82 40a6.07 6.07 0 0 0 3.58 6.12c18 8 35.8 7.83 53.37-1.55a6.05 6.05 0 0 0 3.09-6.43z" fill="#F04665" stroke="none" stroke-width="1"/><g transform="translate(187.51 56.205)" style="animation:eD2AQVfqmZT143_to__to 3000ms linear infinite normal forwards"><g id="eD2AQVfqmZT143" transform="translate(-187.51 -56.205)" stroke="none" stroke-width="1"><path id="eD2AQVfqmZT144" d="M205.55 58.65c.54-.12 9.65-13.54-.27-19.81 0 0-.73 4.95-3.47 6.11 0 0-1.79-3.65-4.05-4.44 0 0-3.26 4.59-8.79 5.08-5.53.49-10-2.74-14.33-.13-4.33 2.61-3.52 5.93-3.52 5.93s-6.14 1.91-5.72 7c.42 5.09 7.57 14 7.57 14s5 2.2 8.9.23c3.9-1.97.51-9.13 2.34-11 1.83-1.87 21.34-2.97 21.34-2.97z" fill="#F7931E"/><path id="eD2AQVfqmZT145" style="mix-blend-mode:overlay" d="M206 39.32c.89 2.59 1.93 7.6-1.85 10.74l-1.91-2.18s-2 4.81-9.51 6.75c-7.51 1.94-15.13.55-15.95 3.63a3.67 3.67 0 0 0 1.89 4.34c1.603.793-4.81-1-6.2 1.45a5.34 5.34 0 0 0-.59 4.41c.454 1.486-5-5.14-5-9.27s4.25-7.8 4.25-7.8-6.14 1.91-5.72 7c.42 5.09 7.57 14 7.57 14s5 2.2 8.9.23c3.9-1.97.51-9.13 2.34-11 1.83-1.87 21.34-2.9 21.34-2.9.52-.18 9.19-12.96.44-19.4z" transform="matrix(1.0117 0 0 1.00772 -2.326 -.435)" opacity=".32" fill="#000"/></g></g><path id="eD2AQVfqmZT146" d="m183 75.91-1.82 17.29c-.12 9 20.64 9.22 20.76.26l-3.23-14.62-15-2.77" fill="#FED4D5" stroke="none" stroke-width="1"/><path id="eD2AQVfqmZT147" style="mix-blend-mode:overlay" d="m200.73 88-2-9.17-15-2.77-.74-.16-.72 6.84A28.43 28.43 0 0 0 200.73 88z" opacity=".76" fill="#000" stroke="none" stroke-width="1"/><path id="eD2AQVfqmZT148" d="M204 53.88s8.09 20.28 4.41 25.51c-3.68 5.23-5 6.64-12 6.53-7-.11-14.12-7.35-14.12-7.35s-5.62-1.51-7.87-4.69c-2.25-3.18-1.33-8.17 1.54-7.15a9.3 9.3 0 0 1 4.29 3.09c1.1 1.423 3.77.82 3.1-2.89-.67-3.71-3.25-4.25-1.71-7.35 1.54-3.1 20.62 1.49 22.36-5.7z" fill="#FED4D5" stroke="none" stroke-width="1"/><path id="eD2AQVfqmZT149" style="mix-blend-mode:overlay" d="M204 53.88a4.53 4.53 0 0 1-2.78 3c2.56 6.25 6.88 17.65 5.74 20.89-1.24 3.53-4.27 6.57-5.56 7.74 3-.71 4.45-2.49 7-6.14 3.67-5.21-4.4-25.49-4.4-25.49z" opacity=".76" fill="#000" stroke="none" stroke-width="1"/><path id="eD2AQVfqmZT150" style="mix-blend-mode:overlay" d="M191.38 175.55c6.06-1.86 3-13.73 2.64-16.83-.36-3.1-15.07-4.32-18.34-7.09-3.27-2.77-2.14-28.63-2.14-28.63-4.95 5.78-9.28 15.6-11.77 22l8.83-13.77-3.82 40a6.07 6.07 0 0 0 3.58 6.12 61.07 61.07 0 0 0 28.45 5.65c-4.4-2.08-11.81-6.09-7.43-7.45z" opacity=".34" fill="#000" stroke="none" stroke-width="1"/><path id="eD2AQVfqmZT151" d="m178.09 158.21 13.34 2.23s-1.11-3 3-3.44c4.11-.44 4.65 4.7 4.65 4.7s8-.16 9.5 5.09-1.45 11.05-6.13 10.22c-4.68-.83-12-2.23-13.91-4l-1.9-1.79-11.31-3.22z" fill="#EDB49F" stroke="none" stroke-width="1"/><path id="eD2AQVfqmZT152" d="m142.37 164.47 43.48 8.53 2.57-15-44.22-8.22c-9.2-1.09-11.08 13.58-1.83 14.69z" fill="#F04665" stroke="none" stroke-width="1"/><path id="eD2AQVfqmZT153" d="M200.13 220a12.69 12.69 0 0 0 .9-3.29c.32-2.34-.63-5.74-1.19-7.47l-12.06-1a75.38 75.38 0 0 1 .43 13.18c6.79-.52 11.19-1.28 11.92-1.42z" fill="#EDB49F" stroke="none" stroke-width="1"/><path id="eD2AQVfqmZT154" style="mix-blend-mode:overlay" d="m210.71 213.92-4.54-4.16-32.4-2.6 25.32-.42v-5.31l-3 .3c-9.76 1-33.38-2.56-43.34-7.76-9.96-5.2-20.38-2-20.38-2 11.53.85 21.39 10.36 33 14.55 11.61 4.19 36.7 7 39.64 7.15 2.94.15 10 7.59 10.18 12.14a14.18 14.18 0 0 1-1.07 5.79l2.27 1.9s4.41-.13 3.8-7.65c-.61-7.52-9.48-11.93-9.48-11.93z" opacity=".34" fill="#000" stroke="none" stroke-width="1"/><path id="eD2AQVfqmZT155" d="m243.36 154.92-7.11 43.86a6.4 6.4 0 0 1-6.11 5.3c-13.67.53-50.17 1.9-63.94 2.15a6.41 6.41 0 0 1-6.41-5L150.54 158a6.33 6.33 0 0 1 6.07-7.58l80.16-2.82a6.35 6.35 0 0 1 6.59 7.32z" fill="#E6E6E6" stroke="none" stroke-width="1"/><path id="eD2AQVfqmZT156" d="m236.52 209.42-76 2.34a1.26 1.26 0 0 1-1.31-1.21l-.12-3.51a1.26 1.26 0 0 1 1.24-1.29l76-2.33a1.26 1.26 0 0 1 1.31 1.21l.11 3.5a1.26 1.26 0 0 1-1.23 1.29z" fill="#B3B3B3" stroke="none" stroke-width="1"/><path id="eD2AQVfqmZT157" d="M203.91 178.88a5 5 0 0 0-1.72-3.37 4.67 4.67 0 0 1-3.78 2.16 4.37 4.37 0 0 1-4.67-2.94 5.42 5.42 0 0 0-3 5c.2 3.05 3.3 5.35 6.93 5.12 3.63-.23 6.43-2.91 6.24-5.97z" fill="#FFF" stroke="none" stroke-width="1"/><path id="eD2AQVfqmZT158" style="mix-blend-mode:overlay" d="M197.38 71.86c0 .51-1.71 1-3.86 1s-3.9-.29-3.92-.8c-.02-.51 1.71-1 3.86-1s3.9.3 3.92.8z" opacity=".76" fill="#000" stroke="none" stroke-width="1"/></g></g></g></svg>