<svg id="eD2AQVfqmZT1" xmlns="http://www.w3.org/2000/svg" xmlns:xlink="http://www.w3.org/1999/xlink" viewBox="0 0 405.540000 467.480000" shape-rendering="geometricPrecision" text-rendering="geometricPrecision"><style><![CDATA[#eD2AQVfqmZT135_tr {animation: eD2AQVfqmZT135_tr__tr 3000ms linear infinite normal forwards}@keyframes eD2AQVfqmZT135_tr__tr { 0% {transform: translate(198.456257px,120.879862px) rotate(-8.975735deg);animation-timing-function: cubic-bezier(0.420000,0,0.580000,1)} 50% {transform: translate(198.456257px,120.879862px) rotate(0deg);animation-timing-function: cubic-bezier(0,0,0.580000,1)} 100% {transform: translate(198.456257px,120.879862px) rotate(-8.975735deg)}} #eD2AQVfqmZT136_tr {animation: eD2AQVfqmZT136_tr__tr 3000ms linear infinite normal forwards}@keyframes eD2AQVfqmZT136_tr__tr { 0% {transform: translate(309.095895px,71.111189px) rotate(0deg);animation-timing-function: cubic-bezier(0,0,0.580000,1)} 50% {transform: translate(309.095895px,71.111189px) rotate(-23.494759deg)} 100% {transform: translate(309.095895px,71.111189px) rotate(0deg)}} #eD2AQVfqmZT143_to {animation: eD2AQVfqmZT143_to__to 3000ms linear infinite normal forwards}@keyframes eD2AQVfqmZT143_to__to { 0% {transform: translate(187.509766px,56.205078px);animation-timing-function: cubic-bezier(0,0,0.580000,1)} 50% {transform: translate(187.649022px,56.901356px);animation-timing-function: cubic-bezier(0,0,0.580000,1)} 100% {transform: translate(187.510000px,56.210000px)}}]]></style><defs><radialGradient id="eD2AQVfqmZT5-fill" cx="0" cy="0" r="224.400000" spreadMethod="pad" gradientUnits="userSpaceOnUse" gradientTransform="matrix(0.81116586923599 -0.58481609821320 0.58481609821320 0.81116586923599 95.01868218660320 305.97388188600553)"><stop id="eD2AQVfqmZT5-fill-0" offset="1%" stop-color="rgb(79,177,255)"/><stop id="eD2AQVfqmZT5-fill-1" offset="21%" stop-color="rgb(78,174,252)"/><stop id="eD2AQVfqmZT5-fill-2" offset="37%" stop-color="rgb(73,166,243)"/><stop id="eD2AQVfqmZT5-fill-3" offset="50%" stop-color="rgb(66,152,227)"/><stop id="eD2AQVfqmZT5-fill-4" offset="63%" stop-color="rgb(56,131,204)"/><stop id="eD2AQVfqmZT5-fill-5" offset="75%" stop-color="rgb(43,105,175)"/><stop id="eD2AQVfqmZT5-fill-6" offset="86%" stop-color="rgb(26,73,139)"/><stop id="eD2AQVfqmZT5-fill-7" offset="96%" stop-color="rgb(7,36,98)"/><stop id="eD2AQVfqmZT5-fill-8" offset="100%" stop-color="rgb(0,22,82)"/></radialGradient><linearGradient id="eD2AQVfqmZT6-fill" x1="256.644463" y1="438.026226" x2="188.986960" y2="173.367372" spreadMethod="pad" gradientUnits="userSpaceOnUse"><stop id="eD2AQVfqmZT6-fill-0" offset="0%" stop-color="rgb(232,221,255)"/><stop id="eD2AQVfqmZT6-fill-1" offset="100%" stop-color="rgb(170,138,216)"/></linearGradient><linearGradient id="eD2AQVfqmZT7-fill" x1="122.166427" y1="323.434626" x2="100.902513" y2="293.940635" spreadMethod="pad" gradientUnits="userSpaceOnUse"><stop id="eD2AQVfqmZT7-fill-0" offset="0%" stop-color="rgb(232,221,255)"/><stop id="eD2AQVfqmZT7-fill-1" offset="100%" stop-color="rgb(170,138,216)"/></linearGradient><linearGradient id="eD2AQVfqmZT8-fill" x1="124.311533" y1="334.857083" x2="121.217855" y2="330.566015" spreadMethod="pad" gradientUnits="userSpaceOnUse"><stop id="eD2AQVfqmZT8-fill-0" offset="0%" stop-color="rgb(232,221,255)"/><stop id="eD2AQVfqmZT8-fill-1" offset="100%" stop-color="rgb(170,138,216)"/></linearGradient><linearGradient id="eD2AQVfqmZT9-fill" x1="207.352386" y1="333.471878" x2="137.577977" y2="236.691679" spreadMethod="pad" gradientUnits="userSpaceOnUse"><stop id="eD2AQVfqmZT9-fill-0" offset="0%" stop-color="rgb(232,221,255)"/><stop id="eD2AQVfqmZT9-fill-1" offset="100%" stop-color="rgb(170,138,216)"/></linearGradient><linearGradient id="eD2AQVfqmZT10-fill" x1="324.713599" y1="356.161773" x2="257.471444" y2="262.893921" spreadMethod="pad" gradientUnits="userSpaceOnUse"><stop id="eD2AQVfqmZT10-fill-0" offset="0%" stop-color="rgb(232,221,255)"/><stop id="eD2AQVfqmZT10-fill-1" offset="100%" stop-color="rgb(170,138,216)"/></linearGradient><radialGradient id="eD2AQVfqmZT11-fill" cx="0" cy="0" r="89.550000" spreadMethod="pad" gradientUnits="userSpaceOnUse" gradientTransform="matrix(0.81116586923599 -0.58481609821320 0.58481609821320 0.81116586923599 79.04248261392149 296.17704439699628)"><stop id="eD2AQVfqmZT11-fill-0" offset="0%" stop-color="rgb(169,250,255)"/><stop id="eD2AQVfqmZT11-fill-1" offset="100%" stop-color="rgb(112,183,248)"/></radialGradient><radialGradient id="eD2AQVfqmZT12-fill" cx="0" cy="0" r="87.750000" spreadMethod="pad" gradientUnits="userSpaceOnUse" gradientTransform="matrix(0.97000002861023 0 0 1.39999997615814 213.01750570535660 240.28599689483644)"><stop id="eD2AQVfqmZT12-fill-0" offset="0%" stop-color="rgb(0,105,176)"/><stop id="eD2AQVfqmZT12-fill-1" offset="100%" stop-color="rgb(0,145,214)"/></radialGradient></defs><g id="eD2AQVfqmZT2" style="isolation:isolate"><g id="eD2AQVfqmZT3"><g id="eD2AQVfqmZT4"><path id="eD2AQVfqmZT5" d="M316.680000,226.380000C317.520000,227.530000,318.320000,228.690000,319.090000,229.850000C326.820204,241.210912,332.812790,253.661199,336.870000,266.790000C354.067089,322.476752,334.896899,382.988873,288.771891,418.615237C242.646883,454.241601,179.254475,457.499770,129.720000,426.790000C127.310000,425.310000,124.930000,423.740000,122.610000,422.080000C87.779067,397.368749,66.155858,358.090379,63.905223,315.443288C61.654588,272.796196,79.023492,231.460077,111.060000,203.220000C113.700000,200.880000,116.440000,198.640000,119.320000,196.500000C120.080000,195.890000,120.870000,195.330000,121.650000,194.760000C129.969016,188.765078,138.918925,183.698269,148.340000,179.650000C154.071348,177.159561,159.972979,175.080957,166,173.430000C222.358484,157.804371,282.485524,178.933431,316.680000,226.380000Z" fill="url(#eD2AQVfqmZT5-fill)" fill-rule="evenodd" stroke="none" stroke-width="1"/><path id="eD2AQVfqmZT6" style="mix-blend-mode:multiply" d="M255.410000,178.420000L254.320000,178.360000C252.308036,178.330616,250.298140,178.501458,248.320000,178.870000C246.660000,179.230000,245.250000,180.100000,243.780000,180.520000C241.163860,181.195496,238.480691,181.577848,235.780000,181.660000C232.490000,181.820000,229.520000,182.770000,226.260000,183.010000C217.740000,183.600000,209.530000,179.420000,201.660000,176.690000C199.982830,176.180139,198.345140,175.548458,196.760000,174.800000C195.587740,174.290626,194.335674,173.989453,193.060000,173.910000C190.220000,173.520000,187,173.320000,184.370000,174.750000C182.780000,175.600000,182.150000,177.310000,181.210000,178.860000C179.910000,180.960000,179.450000,181.730000,181.720000,182.640000C185.720000,184.230000,190.720000,185.240000,190.360000,190.700000C190.309890,194.136924,190.012454,197.565784,189.470000,200.960000C188.670000,204.730000,188.910000,209.410000,186.210000,212.550000C184.210000,214.880000,180.580000,214.760000,177.740000,215.550000C175.240000,216.230000,172.480000,216.550000,170.220000,217.930000C168.450000,218.980000,167.480000,220.570000,166.020000,221.980000C163.780000,224.140000,160.670000,225.680000,157.790000,224.140000C156.680000,223.570000,156.790000,223.140000,155.370000,223.140000C153.951197,223.321291,152.576233,223.754778,151.310000,224.420000C147.840000,225.900000,144.840000,228.420000,141.380000,229.880000C138.965642,230.720770,136.504909,231.421929,134.010000,231.980000C132.420000,232.390000,130.850000,233.470000,129.340000,233.600000C128.470000,233.680000,127.340000,233.450000,126.400000,233.480000C123.947707,233.354277,121.535799,234.141621,119.630000,235.690000C114.634979,239.560192,110.494846,244.422124,107.470000,249.970000C105.790000,253.310000,106.880000,254.820000,109.590000,256.730000C111.910000,258.370000,115.800000,259.730000,116.950000,262.460000C117.950000,264.750000,117.500000,267.460000,118.170000,269.800000C118.840000,272.140000,119.410000,274.300000,121.590000,275.580000C125.240000,277.750000,129.890000,278.080000,133.740000,279.780000C138.060000,281.720000,143.150000,286.590000,141.370000,291.620000C140.480000,294.090000,140.750000,296.520000,140.790000,299.120000C140.790000,300.890000,141.370000,303.300000,139.320000,304.170000C137.960000,304.740000,135.910000,303.900000,134.520000,304.350000C133.057634,304.918393,131.946863,306.140241,131.520000,307.650000C130.610000,309.900000,129.070000,312.550000,128.800000,314.990000C128.280000,319.450000,132.520000,324.990000,136.230000,326.990000C140.680000,329.410000,145.010000,332.100000,150.230000,331.200000C153.570000,330.630000,156.640000,328.440000,160.050000,330.110000C162.140000,331.110000,163.050000,332.990000,164.690000,334.450000C166.330000,335.910000,168.150000,336.870000,169.690000,338.580000C171.051732,340.163496,172.558264,341.616462,174.190000,342.920000C176.462271,344.890870,178.860697,346.711403,181.370000,348.370000C184.370000,350.180000,187.760000,350.560000,190.960000,351.650000C193.830000,352.600000,196.340000,352.300000,199.270000,352.900000C202.460000,353.550000,205.920000,353.470000,208.840000,355.020000C211.050000,356.190000,213.140000,357.620000,215.420000,358.700000C221.800000,361.630000,224.500000,354.700000,226.330000,349.820000C227.716314,346.625244,228.681078,343.263697,229.200000,339.820000C229.367333,336.974554,229.823001,334.153434,230.560000,331.400000C231.323699,328.666692,232.286266,325.992895,233.440000,323.400000C234.051381,322.484519,234.498098,321.469252,234.760000,320.400000C234.871448,318.538156,234.306823,316.698687,233.170000,315.220000C230.850000,311.840000,228.380000,307.080000,225.270000,304.420000C221.900000,301.470000,218.200000,304.660000,215.380000,306.610000C213.760000,307.720000,211.560000,308.900000,209.700000,307.970000C207.840000,307.040000,207.120000,305.360000,205.130000,304.580000C203.161128,303.720032,200.859755,304.304638,199.540000,306C198.880000,306.740000,198.590000,307.560000,197.850000,308.260000C197.110000,308.960000,196.140000,309.030000,195.970000,310.170000C195.590000,312.540000,199.230000,312.790000,200.890000,313.280000C203.890000,314.140000,204.310000,314.470000,204.810000,317.510000C205.090000,319.260000,205.380000,322.090000,203.210000,322.610000C201.660000,322.970000,198.900000,320.990000,197.460000,320.610000C191.340000,318.950000,185.150000,317.290000,185.110000,309.610000C185.110000,307.210000,186.250000,306.610000,186.960000,304.560000C187.670000,302.510000,186.900000,299.950000,187.770000,297.780000C188.940000,294.940000,192.670000,293.260000,195.090000,291.490000C198.090757,289.337021,201.296223,287.484751,204.660000,285.960000C206.970000,284.900000,208.660000,284.890000,211.060000,284.680000C213.460000,284.470000,214.770000,282.410000,216.860000,281.520000C220.710000,279.900000,223.860000,281.290000,227.720000,282.080000C231.580000,282.870000,233.350000,284.650000,236.290000,287.080000C242.180000,292.080000,248.090000,297.680000,252.610000,303.980000C256.500000,309.480000,260.150000,315.420000,265.160000,319.880000C267.537483,321.962708,270.090289,323.836328,272.790000,325.480000C273.660000,326.020000,273.790000,325.560000,274.320000,326.730000C274.722039,328.028631,274.960546,329.372335,275.030000,330.730000C275.030000,332.870000,273.740000,335.570000,273.340000,337.730000C272.940000,339.890000,271.940000,341.620000,271.230000,343.620000C270.230000,346.480000,269,349.140000,267.880000,351.950000C266.080000,356.480000,269.350000,360.950000,268.410000,365.760000C267.050000,372.630000,262.760000,376.830000,258.950000,382.470000C255.950000,386.990000,252.590000,391.160000,250.120000,395.960000C248.570000,398.960000,247.860000,401.960000,246,404.880000C243.660000,408.550000,240.510000,411.520000,237.760000,414.880000C235.620066,417.545287,233.018757,419.804497,230.080000,421.550000C228.130000,422.630000,226.390000,423.040000,224.480000,424.450000C221.100000,426.890000,217.720000,429.450000,214.270000,431.810000C212.420000,433.080000,210.270000,433.320000,208.090000,433.910000C205.910000,434.500000,203.630000,434.910000,201.420000,435.550000C195.650000,437.100000,188.610000,440.900000,182.580000,439C180.830000,438.440000,179.160000,437.460000,177.360000,437C175.876434,436.830202,174.381612,436.780041,172.890000,436.850000C171.701221,436.722363,170.504906,436.678922,169.310000,436.720000C167.500453,436.767778,165.693903,436.545329,163.950000,436.060000C162.318922,435.771629,160.653988,435.727815,159.010000,435.930000C158.170000,436.010000,156.810000,436.570000,156.010000,436.390000C154.960000,436.170000,155.010000,435.570000,154.320000,434.850000C153.630000,434.130000,152.580000,433.610000,151.720000,432.850000C149.450000,430.850000,146.010000,428.900000,142.590000,429.210000C140.740000,429.380000,139.730000,429.870000,137.840000,429.670000C134.874089,429.605756,132.015239,428.549531,129.720000,426.670000C129.720000,426.770000,129.720000,426.880000,129.770000,426.940000C158.046998,444.444267,191.631742,451.310812,224.510000,446.310000C225.070000,445.380000,225.610000,444.470000,226.090000,443.570000C227.610000,440.760000,229.710000,439.300000,232.250000,437.500000C235.534402,435.125549,238.587884,432.447056,241.370000,429.500000C243.909264,426.994102,246.674317,424.727830,249.630000,422.730000C253.330000,420.130000,256.290000,416.730000,260.020000,414.100000C263.580000,411.630000,267.540000,410.340000,271.490000,408.660000C277.150000,406.230000,281.340000,401.120000,285.440000,396.660000C287.300000,394.660000,288.440000,391.980000,290.440000,390.070000C291.640000,388.910000,292.990000,388.070000,294.140000,386.790000C297.192783,383.549886,300.719602,380.791819,304.600000,378.610000C307.070000,377.320000,309.230000,378.410000,311.690000,378.320000C314.150000,378.230000,315.960000,375.590000,318.060000,374.430000C320.510000,373.070000,323.670000,373.670000,326.060000,375.070000C344.085520,341.942135,347.993430,302.945952,336.900000,266.900000C333.760000,269.200000,330.900000,275.160000,328.960000,276.310000C327.790000,277.020000,326.390000,277.060000,325.190000,277.930000C324.197214,278.767058,323.301599,279.712989,322.520000,280.750000C321.130000,282.250000,319.350000,284.090000,317.360000,283.170000C315.370000,282.250000,314.800000,278.170000,312.120000,279.540000C310.790000,280.240000,310.340000,281.950000,308.810000,282.680000C307.573020,283.185018,306.395832,283.825596,305.300000,284.590000C303.537531,286.048201,301.883187,287.632360,300.350000,289.330000C299.516206,290.027675,298.534864,290.526894,297.480000,290.790000C296.630000,291.140000,295.230000,292.300000,294.400000,292.400000C291.400000,292.810000,291.710000,289.230000,291.630000,287.310000C291.673564,286.226076,291.646842,285.140468,291.550000,284.060000C291.360000,282.890000,290.840000,282.590000,290.380000,281.590000C289.160000,279.040000,289.550000,276.230000,290.190000,273.540000C291.130000,269.600000,292.040000,265.400000,291.830000,261.370000C291.750000,259.550000,291.980000,258.370000,291.190000,256.720000C290.610000,255.510000,290.060000,254.310000,289.510000,253.080000C288.906892,251.667285,288.415388,250.209492,288.040000,248.720000C287.450000,246.650000,286.200000,244.890000,285.540000,242.840000C284.980000,241.100000,284.460000,237.080000,285.200000,235.330000C285.570000,234.510000,286.430000,234.040000,286.710000,233.110000C286.990000,232.180000,286.630000,231.450000,287.170000,230.600000C288.400000,228.600000,292.740000,227.800000,294.740000,227.240000C298.001365,226.382136,301.401325,226.184938,304.740000,226.660000C308.150000,227.160000,310.800000,228.330000,313.970000,229.380000C315.638015,229.960363,317.415104,230.158577,319.170000,229.960000C318.400000,228.800000,317.600000,227.640000,316.760000,226.490000C301.312642,204.943915,280.025727,188.264828,255.410000,178.420000ZM234.840000,273.110000C235.130000,274.060000,233.840000,275.600000,233.090000,275.990000C231.480000,276.830000,229.150000,275.990000,227.420000,275.850000C225.580971,275.792184,223.838648,275.012630,222.570000,273.680000L224.160000,273.680000C222.050000,272.960000,219.330000,272.770000,219.160000,269.900000C219.100000,268.280000,220.160000,267.480000,221.610000,267.170000C223.970000,266.690000,226.610000,266.090000,228.990000,266.770000C230.620000,267.220000,231.480000,268.570000,232.410000,269.900000C233.070000,270.720000,234.510000,272.070000,234.840000,273.110000ZM212.480000,191.680000C212.617634,193.449370,212.148547,195.212854,211.150000,196.680000C210.279254,197.943916,209.216446,199.064082,208,200C205.560000,201.780000,201.920000,201.480000,199.140000,201.330000C197.520000,201.270000,193.590000,200.520000,197.530000,199.230000C196.516201,198.752787,195.628948,198.043669,194.940000,197.160000C194.541504,196.412948,194.206976,195.633498,193.940000,194.830000C193.210000,193.110000,193.220000,191.270000,192.640000,189.540000C192.211344,188.109177,191.624379,186.730649,190.890000,185.430000C190.230000,184.340000,189.280000,183.660000,189.690000,182.260000C189.829399,181.500919,190.509149,180.962249,191.280000,181C192.150000,180.920000,193.400000,181.560000,194.280000,181.760000C195.160000,181.960000,196.280000,182.240000,197.280000,182.530000C200.200000,183.310000,202.690000,185.190000,205.510000,186.210000C207.039316,186.596891,208.502165,187.210344,209.850000,188.030000C211.194139,188.830135,212.146404,190.151720,212.480000,191.680000ZM296.240000,216.680000C296.520000,219.530000,293.930000,222.290000,292.010000,224.110000C289.180000,226.800000,284.760000,228.560000,281.140000,229.980000C279.768263,230.580078,278.275076,230.850632,276.780000,230.770000C275.070000,230.710000,273.280000,231.290000,275.350000,230.170000C273.567786,228.840690,271.864876,227.408242,270.250000,225.880000C268.250000,223.980000,265.720000,222.530000,263.500000,220.830000C259.820000,217.980000,255.360000,214.610000,253.630000,210.110000C252.500000,207.170000,252.500000,203.110000,254.460000,200.590000C255.932138,198.711877,257.904377,197.287289,260.150000,196.480000C262.820000,195.600000,265.720000,195.800000,268.490000,195.990000C271.267184,196.148341,273.943202,197.087720,276.210000,198.700000C277.780000,199.890000,279.080000,201.420000,280.730000,202.500000C281.570000,203.060000,282.350000,203.500000,283.140000,204.160000C284.170198,204.822642,285.301784,205.312433,286.490000,205.610000C288.230000,206.270000,289.670000,206.610000,290.830000,208.090000C291.990000,209.570000,292.830000,210.970000,293.910000,212.400000C294.990000,213.830000,296.070000,214.910000,296.240000,216.640000Z" opacity="0.3" fill="url(#eD2AQVfqmZT6-fill)" fill-rule="evenodd" stroke="none" stroke-width="1"/><path id="eD2AQVfqmZT7" style="mix-blend-mode:multiply" d="M124.340000,315.330000C124.610000,316.670000,125.430000,319.680000,124.660000,321.080000C123.800000,322.660000,121.130000,322.360000,119.660000,322.570000C118.452654,322.609927,117.251253,322.757174,116.070000,323.010000C115.161272,323.427994,114.225898,323.785440,113.270000,324.080000C112.347557,324.280172,111.399847,324.337506,110.460000,324.250000C109.687216,323.965329,108.974843,323.537905,108.360000,322.990000C106.610000,321.830000,105.210000,319.990000,103.650000,318.570000C102.779315,317.720196,102.151054,316.653534,101.830000,315.480000C101.240000,313.840000,100.520000,312.250000,99.990000,310.600000C99.074410,308.225552,98.440088,305.752033,98.100000,303.230000C97.945704,301.104325,98.516801,298.989151,99.720000,297.230000C100.210000,296.410000,100.910000,295.780000,101.390000,294.960000C101.906007,293.915169,102.543770,292.935029,103.290000,292.040000C103.736077,291.537177,104.259277,291.108491,104.840000,290.770000C105.500463,290.507134,106.210212,290.391117,106.920000,290.430000C107.829832,290.180197,108.790168,290.180197,109.700000,290.430000C110.560793,290.686953,111.369754,291.093126,112.090000,291.630000C113.550000,292.760000,115.250000,293.630000,116.610000,294.860000C118.367903,296.296624,119.624836,298.253799,120.200000,300.450000C120.808029,302.510053,121.583962,304.516777,122.520000,306.450000C123.270000,308.090000,124.350000,310.450000,124.410000,312.300000C124.490000,313.750000,124.140000,314.940000,124.340000,315.330000Z" opacity="0.3" fill="url(#eD2AQVfqmZT7-fill)" fill-rule="evenodd" stroke="none" stroke-width="1"/><path id="eD2AQVfqmZT8" style="mix-blend-mode:multiply" d="M120.570000,330.710000C120.368859,331.570035,120.438719,332.471238,120.770000,333.290000C122.040000,333.130000,123.230000,334.890000,124.660000,334.290000C124.760000,333.120000,125.780000,331.130000,124.150000,330.460000C123.920000,330.360000,123.420000,330.560000,123.150000,330.520000C122.880000,330.480000,122.450000,330.130000,122.080000,330.190000C121.310000,330.310000,120.020000,331.660000,119.370000,332.130000Z" opacity="0.3" fill="url(#eD2AQVfqmZT8-fill)" fill-rule="evenodd" stroke="none" stroke-width="1"/><path id="eD2AQVfqmZT9" style="mix-blend-mode:multiply" d="M150.630000,322.790000C151.570558,323.367582,152.624430,323.735925,153.720000,323.870000C154.720000,323.980000,155.880000,323.970000,156.900000,324.040000C158.700000,324.170000,161.020000,323.980000,162.780000,324.460000C164.540000,324.940000,164.930000,326.150000,166.010000,327.350000C166.660000,328.060000,167.460000,328.700000,168.170000,329.350000C168.598822,329.673133,169.003251,330.027426,169.380000,330.410000C169.719646,330.964579,170.122324,331.477993,170.580000,331.940000C171.580000,332.810000,172.970000,333.080000,174.010000,333.940000C174.715411,334.740443,175.580653,335.384265,176.550000,335.830000C177.342172,335.949673,178.147828,335.949673,178.940000,335.830000C179.967085,335.893941,180.978558,336.113094,181.940000,336.480000C185.270000,337.580000,187.510000,340.300000,190.680000,341.620000C193.560000,342.820000,196.680000,339.620000,199.080000,338.550000C199.470000,338.370000,199.990000,338.420000,200.330000,338.130000C200.670000,337.840000,200.860000,337.200000,201.120000,336.810000C201.563128,336.083029,202.219610,335.510354,203,335.170000C203.490000,334.950000,203.450000,335.430000,204,334.830000C204.256301,334.281178,204.349998,333.670414,204.270000,333.070000C204.135103,331.824510,203.424478,330.714159,202.350000,330.070000C201.270000,329.210000,200.220000,328.320000,199.120000,327.470000C198.035183,326.813334,196.993092,326.088547,196,325.300000C195.120000,324.400000,194.590000,323.300000,193.690000,322.370000C191.510000,320.220000,189.260000,320.040000,186.270000,319.600000C183.560000,319.200000,180.130000,319.710000,178.420000,317.070000C177.740000,316,178.150000,315.650000,178.140000,314.570000C178.130000,313.490000,177.620000,312.090000,177.950000,310.890000C178.296840,310.202242,178.708718,309.549264,179.180000,308.940000C179.842194,308.098341,180.446898,307.213001,180.990000,306.290000C181.530000,305.210000,181.060000,304.570000,181.150000,303.490000C181.210000,302.830000,181.390000,303.070000,181.670000,302.490000C181.970318,301.936992,182.131621,301.319236,182.140000,300.690000C182.354939,299.439166,182.354939,298.160834,182.140000,296.910000C181.850081,295.883209,181.768480,294.808799,181.900000,293.750000C182.097910,292.372756,182.398752,291.012280,182.800000,289.680000C183.226764,288.305474,183.962172,287.046730,184.950000,286C185.482682,285.550932,186.051250,285.146246,186.650000,284.790000C188.290000,283.590000,189.170000,281.570000,190.180000,279.860000C191.680000,277.340000,193.110000,272.350000,196.950000,273.210000C198.090000,273.470000,198.840000,274.480000,200.070000,274.530000C202.680000,274.650000,204,272.120000,205.190000,270.200000C207.190000,266.960000,208.080000,263.290000,208.860000,259.610000C209.370000,257.260000,209.750000,255.240000,208.370000,253.110000C205.700000,248.990000,200.510000,248.640000,197.220000,245.220000C193.930000,241.800000,192.890000,236.830000,190.840000,232.830000C189.790000,230.830000,187.840000,228.470000,185.680000,227.720000C184.812479,227.445195,183.909846,227.297002,183,227.280000C181.090000,227.280000,180.530000,228.400000,179,229.160000C178.147216,229.544879,177.191807,229.639717,176.280000,229.430000C173.530000,229.220000,170.870000,232.320000,168.810000,233.760000C165.810000,235.870000,162.230000,237.890000,158.530000,238.310000C154.190457,238.844965,149.822391,239.115464,145.450000,239.120000C142.191740,239.001479,138.929181,239.128505,135.690000,239.500000C133.445368,239.964620,131.323062,240.894619,129.460000,242.230000C126.800000,243.950000,125,246.230000,124.770000,249.520000C124.550000,252.590000,126.180000,253.040000,128.380000,254.670000C129.100000,255.190000,130.700000,256.160000,130.790000,257.200000C130.940000,258.740000,128.660000,259.920000,127.620000,260.670000C126.580000,261.420000,124.420000,262.360000,124.710000,263.840000C124.930000,264.930000,126.600000,266.540000,127.240000,267.430000C127.880000,268.320000,128.350000,269.480000,129.430000,269.710000C130.260000,269.900000,130.990000,269.440000,131.790000,269.330000C133.200000,269.140000,134.120000,269.910000,135.370000,270.330000C136.325302,270.565946,137.305998,270.683496,138.290000,270.680000C139.490000,270.820000,140.820000,271.380000,142.030000,271.210000C144.100000,270.900000,145.300000,269.410000,147.580000,269.770000C148.354204,269.980747,149.148717,270.108137,149.950000,270.150000C150.582854,270.026321,151.202365,269.842142,151.800000,269.600000C153.270000,269.180000,155.550000,268.670000,156.740000,270.010000C157.930000,271.350000,156.740000,273.750000,155.740000,274.880000C154.740000,276.010000,153.360000,277.100000,153.890000,278.530000C154.340000,279.750000,155.650000,280.220000,155.680000,281.650000C155.800000,286.180000,149.950000,286.710000,147.170000,288.840000C142.960000,292.040000,143.260000,297.280000,143.350000,302C143.350000,302.450000,143.150000,302.900000,143.170000,303.340000C143.170000,304.120000,143.590000,304.340000,143.740000,304.990000C143.838634,305.940296,143.593873,306.894511,143.050000,307.680000C142.619904,308.697457,141.955121,309.598683,141.110000,310.310000C140.030000,311.140000,138.700000,311.800000,137.710000,312.730000C135.710000,314.600000,136.760000,317.610000,138.710000,319.160000C139.980000,320.160000,142.170000,320.020000,143.630000,320.730000C144.739391,321.375411,145.903978,321.920893,147.110000,322.360000C147.810000,322.550000,148.650000,322.500000,149.370000,322.620000C150.520000,322.840000,151.370000,323.530000,150.630000,322.790000Z" opacity="0.3" fill="url(#eD2AQVfqmZT9-fill)" fill-rule="evenodd" stroke="none" stroke-width="1"/><path id="eD2AQVfqmZT10" style="mix-blend-mode:multiply" d="M240.170000,277.500000C240.649021,278.688204,241.299234,279.799968,242.100000,280.800000C242.880000,281.660000,243.700000,282.380000,244.420000,283.310000C246.280000,285.740000,247.630000,288.600000,249.420000,291.120000C250.511392,292.439727,251.723289,293.654971,253.040000,294.750000C254.710000,296.370000,255.320000,298.580000,256.670000,300.410000C258.530000,302.920000,260.490000,305.520000,263.670000,306.410000C264.777887,306.839511,266.024818,306.709235,267.020000,306.060000C268.020000,305.400000,268.480000,304.290000,269.540000,303.620000C270.420000,303.060000,271.360000,303.250000,272.390000,303.050000C273.670000,302.800000,274.950000,302.460000,276.230000,302.130000C277.267057,301.861997,278.352123,301.838036,279.400000,302.060000C280.400000,302.210000,281.560000,301.860000,282.450000,302.600000C283.340000,303.340000,282.750000,304.720000,282.690000,305.830000C282.719242,307.973865,282.243048,310.094469,281.300000,312.020000C280.838284,313.051072,279.907276,313.795878,278.800000,314.020000C277.580000,314.410000,276.420000,314.730000,275.880000,316.080000C275.153665,317.893874,274.869170,319.854492,275.050000,321.800000C275.127195,322.246287,275.254674,322.682398,275.430000,323.100000C275.900000,323.890000,275.570000,323.370000,276.270000,323.670000C276.970000,323.970000,277.720000,324.100000,278.270000,324.860000C279.086019,326.203649,279.601174,327.708174,279.780000,329.270000C279.915312,330.234060,279.864391,331.215129,279.630000,332.160000C279.460474,333.227327,279.236852,334.285357,278.960000,335.330000C278.160000,337.420000,278.120000,339.490000,277.080000,341.550000C275.920413,343.973322,274.973520,346.492791,274.250000,349.080000C272.590000,354.500000,270.110000,359.270000,270.760000,365.080000C270.930000,366.500000,271.950000,369.010000,273.390000,369.650000C274.098675,369.796858,274.817350,369.890453,275.540000,369.930000C276.611881,370.292645,277.608309,370.848476,278.480000,371.570000C279.570000,372.300000,281.220000,373.440000,282.600000,373.500000C284.155653,373.393751,285.654359,372.872311,286.940000,371.990000C287.560553,371.526857,288.204755,371.096277,288.870000,370.700000C289.405685,370.502990,289.929849,370.275964,290.440000,370.020000C292.440000,368.760000,293.960000,367.550000,296.440000,367.390000C297.270374,367.357005,298.099990,367.472135,298.890000,367.730000C299.840000,368,300.890000,368.730000,301.830000,368.880000C303.830000,369.130000,305.510000,366.290000,306.350000,365C307.590000,363.110000,308.730000,360.590000,310.910000,359.580000C312.220000,358.960000,313.710000,359.250000,315.100000,358.810000C316.864510,358.229226,318.696017,357.876367,320.550000,357.760000C321.272404,357.817121,321.994163,357.641937,322.610000,357.260000C324.890000,355.800000,326.120000,352.980000,327.240000,350.610000C328.560000,347.790000,329.440000,344.790000,330.760000,341.990000C332.115392,339.143573,333.035653,336.109744,333.490000,332.990000C334.010000,329.990000,335.250000,327.250000,336.130000,324.340000C336.790000,322.130000,337.390000,319.890000,338.010000,317.680000C338.514232,315.374291,338.848464,313.034666,339.010000,310.680000C339.370931,308.891638,339.568411,307.074147,339.600000,305.250000C339.399013,303.159622,339.312218,301.059835,339.340000,298.960000C339.495126,296.829369,339.434820,294.688520,339.160000,292.570000C338.890000,290.570000,338.110000,286.750000,335.160000,287.130000C333.080000,287.410000,331.160000,289.500000,329.480000,290.650000C326.820000,292.500000,323.610000,292.240000,320.620000,291.530000C318.180000,290.950000,315.920000,289.980000,313.440000,289.610000C312.210000,289.420000,310.550000,288.810000,309.340000,289.230000C308.356126,289.679631,307.477276,290.330252,306.760000,291.140000C305.247023,292.818296,303.414647,294.178129,301.370000,295.140000C299.530000,295.980000,296.890000,297.090000,294.850000,296.780000C293.546920,296.494518,292.261441,296.133916,291,295.700000C289.110000,295.150000,287.800000,292.590000,287.320000,290.750000C286.320000,286.910000,284.210000,283.420000,283.320000,279.530000C282.780000,277.070000,285.660000,275.820000,286.620000,273.760000C287.370000,272.140000,287.130000,270.590000,287.360000,268.910000C287.696301,267.411786,288.154493,265.943565,288.730000,264.520000C290.210000,259.820000,288.060000,255.600000,283,254.390000C280.206386,253.647065,277.240062,254.656877,275.480000,256.950000C274.642910,257.951515,273.868118,259.003496,273.160000,260.100000C272.270000,261.570000,271.750000,263.100000,270.490000,264.380000C265.700000,269.140000,259,269.450000,252.740000,270.080000C249.749934,270.320533,246.830488,271.113971,244.130000,272.420000C242.710000,273.170000,242.250000,273.280000,241.550000,274.860000C241.040829,275.811058,240.462613,276.723504,239.820000,277.590000C239.150000,278.650000,239.130000,279.930000,240.170000,277.500000Z" opacity="0.3" fill="url(#eD2AQVfqmZT10-fill)" fill-rule="evenodd" stroke="none" stroke-width="1"/><path id="eD2AQVfqmZT11" d="M148.370000,179.640000C148.213637,179.787300,148.066681,179.944275,147.930000,180.110000C145.919810,182.337851,143.642636,184.309387,141.150000,185.980000C140.592009,186.489261,139.981984,186.938400,139.330000,187.320000C138.840000,187.530000,138.500000,187.420000,138,187.690000C136.920000,188.250000,135.790000,188.820000,134.710000,189.260000C132.710000,189.990000,130.900000,191.710000,129.160000,192.990000C127.030000,194.560000,124.160000,195.130000,122.160000,196.870000C120.050000,198.780000,118.520000,201.250000,116.160000,202.870000L114.530000,204.040000C113.150000,205.040000,113.110000,206.310000,112.050000,208.040000C112.440000,209.250000,113.390000,211.170000,113.050000,212.440000C112.903348,212.899183,112.701896,213.339020,112.450000,213.750000C111.834140,214.860621,111.145992,215.929589,110.390000,216.950000C108.917434,218.887174,107.241163,220.660668,105.390000,222.240000C103.777141,223.375002,102.090027,224.400634,100.340000,225.310000C96.930000,227.310000,93.570000,229.060000,91.520000,232.620000C90.410000,234.620000,89.360000,236.620000,88.190000,238.620000C87.416950,239.743683,86.747535,240.935242,86.190000,242.180000C85.850000,243.180000,85.760000,244.180000,85.490000,245.110000C85.150000,246.250000,84.140000,247.030000,83.490000,248.020000C82.801349,249.176481,82.454614,250.504476,82.490000,251.850000C82.490000,253.770000,83.680000,255.150000,83.850000,256.920000C83.816913,257.927361,83.524118,258.909086,83,259.770000C81.100000,264.010000,82.540000,268.230000,82,272.680000C81.610000,275.930000,79.400000,278.620000,78.750000,281.880000C78.186228,285.147344,77.832171,288.447424,77.690000,291.760000C77.550327,293.606576,76.895528,295.376959,75.800000,296.870000C74.658578,298.741230,73.916376,300.828248,73.620000,303C73.410000,305.210000,73.260000,307.350000,72.840000,309.540000C72.510000,311.260000,71.610000,312.790000,71.340000,314.540000C71.279748,316.129396,71.380258,317.720814,71.640000,319.290000C71.850000,322.800000,72.920000,326.060000,73.250000,329.540000C73.510000,332.410000,72.680000,335.770000,74.250000,338.310000C74.750553,339.064283,75.380193,339.724390,76.110000,340.260000C77.220000,341.200000,77.830000,342.650000,78.740000,343.800000C79.274518,344.377660,79.883135,344.882038,80.550000,345.300000C81.290357,346.059302,82.093178,346.755081,82.950000,347.380000C84.470000,348.200000,86.330000,348.200000,87.950000,348.790000C89.665976,349.505316,90.944431,350.987583,91.400000,352.790000C91.990000,354.660000,92.530000,356.620000,93,358.520000C93.740000,361.440000,93.150000,364.890000,94.370000,367.700000C94.926234,368.654617,95.679657,369.479632,96.580000,370.120000C97.567161,371.050462,98.505103,372.031796,99.390000,373.060000C100.280666,374.094857,100.960111,375.294079,101.390000,376.590000C101.646672,377.490038,101.761384,378.424605,101.730000,379.360000C101.730000,379.810000,101.540000,380.260000,101.540000,380.700000C101.666198,381.464734,101.856879,382.217419,102.110000,382.950000C102.270000,383.740000,102.730000,385.530000,102.310000,386.290000C101.470000,387.890000,99.090000,385.600000,98.830000,387.010000C98.610000,388.010000,100.060000,389.080000,100.500000,389.860000C101.106767,390.988863,101.528781,392.207637,101.750000,393.470000C102.200000,395.840000,101.830000,396.810000,103.750000,398.390000C105.245315,399.620268,106.908804,400.630484,108.690000,401.390000C110.910000,402.330000,111.750000,404.260000,113.470000,405.720000C114.290613,406.603999,115.024012,407.565120,115.660000,408.590000C116.439568,409.378486,117.286075,410.097850,118.190000,410.740000C118.954986,411.371406,119.546863,412.186957,119.910000,413.110000C120.040000,413.700000,119.630000,414.380000,119.550000,414.960000C119.558166,416.014242,119.840776,417.048180,120.370000,417.960000C120.910461,419.451065,121.675995,420.850608,122.640000,422.110000C87.809067,397.398749,66.185858,358.120379,63.935223,315.473288C61.684588,272.826196,79.053492,231.490077,111.090000,203.250000C113.730000,200.910000,116.470000,198.670000,119.350000,196.530000C120.110000,195.920000,120.900000,195.360000,121.680000,194.790000C129.997165,188.781174,138.947144,183.700913,148.370000,179.640000Z" fill="url(#eD2AQVfqmZT11-fill)" fill-rule="evenodd" stroke="none" stroke-width="1"/><path id="eD2AQVfqmZT12" style="mix-blend-mode:multiply" d="M258.120000,211.380000C258.120000,211.380000,338.500000,202.080000,329.290000,219.760000C320.080000,237.440000,259.800000,225.340000,253.940000,240.220000C248.080000,255.100000,301.660000,257.890000,258.120000,269.980000C214.580000,282.070000,144.260000,275.560000,139.230000,262.540000C134.200000,249.520000,187.790000,246.730000,161,238.360000C134.210000,229.990000,89,238.360000,95.690000,216.030000C102.380000,193.700000,258.120000,211.380000,258.120000,211.380000Z" opacity="0.65" fill="url(#eD2AQVfqmZT12-fill)" stroke="none" stroke-width="1"/><path id="eD2AQVfqmZT13" d="M328.050000,242.680000C328.050000,242.680000,325.360000,245.230000,326.590000,247.580000L301.650000,238.380000L303.400000,233.940000ZM334.440000,226.660000C334.440000,226.660000,331.760000,229.210000,332.980000,231.560000L308.050000,222.360000L309.790000,217.920000Z" fill="rgb(255,255,255)" stroke="none" stroke-width="1"/><path id="eD2AQVfqmZT14" d="M335.790000,225.180000L335.050000,227.160000L309.790000,217.920000L308.220000,222.140000L333.480000,231.390000L332.740000,233.380000L304.850000,223.170000L304.880000,223.090000L305.590000,221.180000L307.170000,216.960000L307.910000,214.970000L335.790000,225.180000Z" fill="rgb(79,100,177)" stroke="none" stroke-width="1"/><path id="eD2AQVfqmZT15" d="M332.720000,227.300000L310.330000,219.100000" fill="rgb(202,224,255)" stroke="none" stroke-width="1"/><path id="eD2AQVfqmZT16" d="M310.260000,219.290000L332.650000,227.490000L332.790000,227.110000L310.400000,218.920000L310.260000,219.290000Z" fill="rgb(22,38,89)" stroke="none" stroke-width="1"/><path id="eD2AQVfqmZT17" d="M332.290000,228.470000L309.900000,220.270000" fill="rgb(202,224,255)" stroke="none" stroke-width="1"/><path id="eD2AQVfqmZT18" d="M309.830000,220.460000L332.220000,228.650000L332.360000,228.280000L309.960000,220.080000L309.830000,220.460000Z" fill="rgb(22,38,89)" stroke="none" stroke-width="1"/><path id="eD2AQVfqmZT19" d="M331.870000,229.580000L309.480000,221.390000" fill="rgb(202,224,255)" stroke="none" stroke-width="1"/><path id="eD2AQVfqmZT20" d="M309.410000,221.570000L331.800000,229.770000L331.940000,229.400000L309.550000,221.200000L309.410000,221.570000Z" fill="rgb(22,38,89)" stroke="none" stroke-width="1"/><path id="eD2AQVfqmZT21" d="M303.850000,235.480000L326.250000,243.680000L326.390000,243.310000L303.990000,235.110000L303.850000,235.480000ZM303.420000,236.650000L325.810000,244.840000L325.950000,244.470000L303.560000,236.280000L303.420000,236.650000ZM303,237.770000L325.400000,245.960000L325.540000,245.590000L303.140000,237.390000L303,237.770000Z" fill="rgb(162,155,0)" stroke="none" stroke-width="1"/><path id="eD2AQVfqmZT22" d="M328.210000,233.700000C328.210000,233.700000,325.520000,236.250000,326.750000,238.600000L301.810000,229.400000L303.560000,224.960000Z" fill="rgb(255,255,255)" stroke="none" stroke-width="1"/><path id="eD2AQVfqmZT23" d="M329.560000,232.210000L328.820000,234.200000L303.560000,224.960000L301.980000,229.180000L327.240000,238.430000L326.500000,240.420000L298.620000,230.210000L298.650000,230.130000L299.360000,228.220000L300.930000,224L301.670000,222.010000L329.560000,232.210000Z" fill="rgb(0,247,229)" stroke="none" stroke-width="1"/><path id="eD2AQVfqmZT24" d="M304.020000,226.330000L326.420000,234.530000L326.560000,234.150000L304.160000,225.960000L304.020000,226.330000ZM303.590000,227.490000L325.980000,235.690000L326.120000,235.320000L303.730000,227.120000L303.590000,227.490000ZM303.170000,228.610000L325.570000,236.810000L325.700000,236.440000L303.310000,228.240000L303.170000,228.610000Z" fill="rgb(22,38,89)" stroke="none" stroke-width="1"/><path id="eD2AQVfqmZT25" d="M329.400000,241.190000L328.660000,243.180000L303.400000,233.940000L301.820000,238.160000L327.080000,247.410000L326.340000,249.400000L298.460000,239.190000L298.490000,239.120000L299.200000,237.200000L300.770000,232.980000L301.510000,230.990000L329.400000,241.190000Z" fill="rgb(133,156,232)" stroke="none" stroke-width="1"/><path id="eD2AQVfqmZT26" d="M340.720000,221.550000C340.720000,221.550000,338.030000,224.090000,339.260000,226.450000L314.320000,217.250000L316.070000,212.810000ZM347.110000,205.530000C347.110000,205.530000,344.430000,208.070000,345.650000,210.430000L320.720000,201.230000L322.460000,196.790000Z" fill="rgb(255,255,255)" stroke="none" stroke-width="1"/><path id="eD2AQVfqmZT27" d="M348.460000,204.040000L347.720000,206.030000L322.460000,196.780000L320.890000,201.010000L346.150000,210.260000L345.410000,212.250000L317.520000,202.040000L317.550000,201.960000L318.260000,200.050000L319.840000,195.820000L320.580000,193.840000L348.460000,204.040000Z" fill="rgb(79,100,177)" stroke="none" stroke-width="1"/><path id="eD2AQVfqmZT28" d="M345.390000,206.170000L323,197.970000" fill="rgb(202,224,255)" stroke="none" stroke-width="1"/><path id="eD2AQVfqmZT29" d="M322.930000,198.160000L345.320000,206.350000L345.460000,205.980000L323.070000,197.780000L322.930000,198.160000Z" fill="rgb(22,38,89)" stroke="none" stroke-width="1"/><path id="eD2AQVfqmZT30" d="M344.960000,207.330000L322.560000,199.140000" fill="rgb(202,224,255)" stroke="none" stroke-width="1"/><path id="eD2AQVfqmZT31" d="M322.500000,199.320000L344.890000,207.520000L345.030000,207.150000L322.630000,198.950000L322.500000,199.320000Z" fill="rgb(22,38,89)" stroke="none" stroke-width="1"/><path id="eD2AQVfqmZT32" d="M344.540000,208.450000L322.150000,200.250000" fill="rgb(202,224,255)" stroke="none" stroke-width="1"/><path id="eD2AQVfqmZT33" d="M322.080000,200.440000L344.470000,208.640000L344.610000,208.260000L322.220000,200.070000L322.080000,200.440000Z" fill="rgb(22,38,89)" stroke="none" stroke-width="1"/><path id="eD2AQVfqmZT34" d="M316.520000,214.350000L338.920000,222.550000L339.060000,222.170000L316.660000,213.980000L316.520000,214.350000ZM316.090000,215.510000L338.480000,223.710000L338.620000,223.340000L316.230000,215.140000L316.090000,215.510000ZM315.670000,216.630000L338.070000,224.830000L338.210000,224.460000L315.810000,216.260000L315.670000,216.630000Z" fill="rgb(162,155,0)" stroke="none" stroke-width="1"/><path id="eD2AQVfqmZT35" d="M340.880000,212.570000C340.880000,212.570000,338.190000,215.110000,339.410000,217.470000L314.480000,208.270000L316.230000,203.820000Z" fill="rgb(255,255,255)" stroke="none" stroke-width="1"/><path id="eD2AQVfqmZT36" d="M342.230000,211.080000L341.490000,213.070000L316.230000,203.820000L314.650000,208.050000L339.910000,217.300000L339.170000,219.290000L311.290000,209.080000L311.320000,209L312.030000,207.090000L313.600000,202.860000L314.340000,200.870000L342.230000,211.080000Z" fill="rgb(251,152,68)" stroke="none" stroke-width="1"/><path id="eD2AQVfqmZT37" d="M316.690000,205.190000L339.090000,213.390000L339.230000,213.020000L316.830000,204.820000L316.690000,205.190000ZM316.260000,206.360000L338.650000,214.560000L338.790000,214.190000L316.400000,205.990000L316.260000,206.360000ZM315.840000,207.480000L338.240000,215.680000L338.380000,215.300000L315.980000,207.110000L315.840000,207.480000Z" fill="rgb(22,38,89)" stroke="none" stroke-width="1"/><path id="eD2AQVfqmZT38" d="M342.070000,220.060000L341.330000,222.050000L316.070000,212.810000L314.490000,217.030000L339.750000,226.280000L339.010000,228.270000L311.130000,218.060000L311.160000,217.980000L311.870000,216.070000L313.440000,211.840000L314.180000,209.850000L342.070000,220.060000Z" fill="rgb(47,54,85)" stroke="none" stroke-width="1"/><path id="eD2AQVfqmZT39" d="M295.310000,215.220000L259.440000,201.850000L273.250000,165.420000L309.120000,178.780000L295.310000,215.220000Z" fill="rgb(79,100,177)" stroke="none" stroke-width="1"/><path id="eD2AQVfqmZT40" d="M267.420000,258.450000L263.870000,265.630000L267.120000,267.450000L272.140000,261.320000L267.420000,258.450000Z" fill="rgb(254,212,213)" stroke="none" stroke-width="1"/><path id="eD2AQVfqmZT41" d="M338,165.930000C338,165.930000,324,177.160000,320.830000,176.670000C317.660000,176.180000,313.050000,168.370000,313.050000,168.370000L327.140000,135.550000C327.140000,135.550000,333.420000,138.700000,333.060000,143.290000C332.700000,147.880000,325.060000,165.550000,325.060000,165.550000L337.060000,163.550000Z" fill="rgb(44,80,153)" stroke="none" stroke-width="1"/><path id="eD2AQVfqmZT42" d="M296.430000,235.610000L251.600000,218.910000L253.390000,214.180000L298.220000,230.880000L296.430000,235.610000Z" fill="rgb(216,122,29)" stroke="none" stroke-width="1"/><path id="eD2AQVfqmZT43" d="M286.040000,270.340000L281.430000,268.630000L300.970000,217.050000L305.580000,218.770000L286.040000,270.340000ZM242.410000,254.090000L237.810000,252.380000L257.350000,200.800000L261.950000,202.520000L242.410000,254.090000ZM312.750000,186.620000C313.384115,185.959449,313.877425,185.176957,314.200000,184.320000L317.250000,176.320000C317.892877,174.569904,317.811018,172.635654,317.022574,170.946132C316.234131,169.256610,314.804257,167.951434,313.050000,167.320000L276.940000,153.870000C273.314786,152.478051,269.244377,154.261363,267.810000,157.870000L264.760000,165.870000C264.436940,166.721592,264.290636,167.630040,264.330000,168.540000Z" fill="rgb(247,147,30)" stroke="none" stroke-width="1"/><path id="eD2AQVfqmZT44" d="M309.230000,223.640000C310.024044,222.996223,310.634520,222.154662,311,221.200000C312.126204,218.088020,310.519950,214.651799,307.410000,213.520000L260.150000,195.910000C257.046468,194.719080,253.563417,196.255194,252.350000,199.350000C251.989694,200.307031,251.896365,201.344015,252.080000,202.350000Z" fill="rgb(247,147,30)" stroke="none" stroke-width="1"/><path id="eD2AQVfqmZT45" d="M292.600000,122.810000C292.600000,122.810000,297.210000,122.040000,299.760000,122.990000C302.310000,123.940000,310.670000,125.650000,310.670000,125.650000L321.570000,131.110000C321.570000,131.110000,332.630000,139.690000,332.570000,141.490000C332.510000,143.290000,322.420000,162.810000,320,165.360000C317.580000,167.910000,311.440000,181.360000,311.440000,181.360000L264.720000,182.590000C264.720000,182.590000,276.720000,163.990000,279.600000,159.180000C282.480000,154.370000,292.600000,122.810000,292.600000,122.810000Z" fill="rgb(78,147,252)" stroke="none" stroke-width="1"/><g id="eD2AQVfqmZT46" style="mix-blend-mode:overlay" opacity="0.25"><path id="eD2AQVfqmZT47" d="M313.530000,140.220000C313.530000,140.220000,319.820000,152.300000,327.400000,152.710000C330.140000,147.440000,332.540000,142.360000,332.570000,141.490000C332.630000,139.690000,321.570000,131.110000,321.570000,131.110000L312.380000,126.880000L312.100000,126.800000ZM284.150000,170.570000C287.450000,168.420000,304.030000,165.570000,304.030000,165.570000L312.770000,152.360000C312.770000,152.360000,297.770000,152.170000,297.300000,146.460000C296.830000,140.750000,303.300000,135.060000,298.300000,130.240000C296.970361,128.915429,295.793042,127.446296,294.790000,125.860000C291.740000,132.860000,281.970000,155.200000,279.570000,159.240000C276.710000,164.050000,264.690000,182.650000,264.690000,182.650000L288.540000,182.020000C285.510000,177.490000,282.220000,171.820000,284.150000,170.570000Z" fill="rgb(35,31,32)" stroke="none" stroke-width="1"/></g><path id="eD2AQVfqmZT48" d="M307.120000,198.830000C307.120000,198.830000,309.730000,210.530000,305.910000,218.420000C302.090000,226.310000,272.050000,262.910000,272.050000,262.910000L266.230000,259.120000C266.230000,259.120000,290.230000,216.450000,287.760000,211.050000C285.290000,205.650000,272.380000,197.430000,272.380000,197.430000C272.380000,197.430000,293.590000,181.430000,307.120000,198.830000Z" fill="rgb(47,54,85)" stroke="none" stroke-width="1"/><path id="eD2AQVfqmZT49" d="M325.140000,256.360000L327.890000,266.090000C327.890000,266.090000,331.700000,265.890000,331.990000,264.580000C332.280000,263.270000,329.240000,254.850000,329.240000,254.850000Z" fill="rgb(254,212,213)" stroke="none" stroke-width="1"/><path id="eD2AQVfqmZT50" d="M326.930000,264.520000C326.930000,264.520000,331.190000,265.300000,332.140000,263.620000C333.090000,261.940000,332.830000,261.250000,333.900000,262.250000C334.970000,263.250000,340.380000,265.680000,343.640000,266.390000C346.900000,267.100000,343.410000,267.820000,342.570000,268.110000C341.730000,268.400000,327.370000,268.830000,327.370000,268.830000C326.704481,268.341454,326.276875,267.594013,326.193028,266.772696C326.109181,265.951378,326.376931,265.132950,326.930000,264.520000Z" fill="rgb(47,54,85)" stroke="none" stroke-width="1"/><path id="eD2AQVfqmZT51" d="M344.540000,155.330000L345.780000,157.540000C345.780000,157.540000,332.780000,165.250000,332.230000,165.190000C331.680000,165.130000,318.750000,158.820000,318.750000,158.820000L322.860000,149.410000L325.860000,147.300000C325.860000,147.300000,335.030000,155.570000,335.160000,155.220000C335.290000,154.870000,344.540000,155.330000,344.540000,155.330000Z" fill="rgb(255,255,255)" stroke="none" stroke-width="1"/><path id="eD2AQVfqmZT52" d="M335.920000,157.650000L323.140000,148.300000L308.230000,159.220000L321.240000,168.650000L332.820000,168.380000L346.430000,157.650000L335.920000,157.650000Z" fill="rgb(133,156,232)" stroke="none" stroke-width="1"/><path id="eD2AQVfqmZT53" d="M267.420000,269.930000C266.590000,271.070000,264.490000,271,262.750000,269.770000C261.010000,268.540000,260.260000,266.610000,261.100000,265.470000C262.486137,264.071181,264.660613,263.829572,266.320000,264.890000C267.865710,266.077569,268.330333,268.206390,267.420000,269.930000Z" fill="rgb(47,54,85)" stroke="none" stroke-width="1"/><path id="eD2AQVfqmZT54" d="M315.320000,153.080000C315.320000,153.080000,317.520000,149.450000,320.820000,150.080000C324.120000,150.710000,327.720000,152.650000,326.010000,154.440000C324.300000,156.230000,320.200000,153.900000,320.200000,153.900000C320.200000,153.900000,315.310000,156.900000,314.380000,155.580000C313.450000,154.260000,315.320000,153.080000,315.320000,153.080000Z" fill="rgb(254,212,213)" stroke="none" stroke-width="1"/><path id="eD2AQVfqmZT55" d="M293.450000,122.670000C293.450000,122.670000,299.880000,121.010000,300.140000,127.990000C300.400000,134.970000,289,153.600000,289,153.600000L317.110000,150.600000L318.110000,155.490000C318.110000,155.490000,279.730000,176.490000,273.560000,161.040000C267.390000,145.590000,286.690000,123,293.450000,122.670000Z" fill="rgb(78,147,252)" stroke="none" stroke-width="1"/><path id="eD2AQVfqmZT56" d="M336.110000,121.750000L337.940000,119.460000C337.940000,119.460000,335.800000,117.460000,335.490000,115.710000C335.180000,113.960000,334.490000,110.340000,330.490000,108.710000C326.490000,107.080000,320.010000,111.550000,319.790000,116.870000C319.570000,122.190000,326.860000,120.870000,326.860000,120.870000C326.860000,120.870000,333.870000,125.100000,336.110000,121.750000Z" fill="rgb(47,54,85)" stroke="none" stroke-width="1"/><path id="eD2AQVfqmZT57" d="M320.170000,119.460000L309,125.460000C309,125.460000,307.130000,139.140000,313.350000,140.240000C319.570000,141.340000,318.250000,134.980000,318.250000,134.980000L323.900000,130.980000Z" fill="rgb(254,212,213)" stroke="none" stroke-width="1"/><path id="eD2AQVfqmZT58" d="M335.920000,157.650000L335.890000,157.630000L321.510000,168.650000L332.820000,168.380000L346.430000,157.650000L335.920000,157.650000Z" fill="rgb(79,100,177)" stroke="none" stroke-width="1"/><path id="eD2AQVfqmZT59" style="mix-blend-mode:overlay" d="M269.160000,261C273.750000,252.840000,283.100000,236.520000,289.860000,226.650000C295.320000,218.650000,302.740000,212.100000,307.980000,207.880000C307.997973,204.832178,307.709861,201.790252,307.120000,198.800000C293.590000,181.400000,272.380000,197.400000,272.380000,197.400000C272.380000,197.400000,285.240000,205.630000,287.760000,211.020000C290.280000,216.410000,266.230000,259.090000,266.230000,259.090000Z" opacity="0.46" fill="rgb(35,31,32)" stroke="none" stroke-width="1"/><path id="eD2AQVfqmZT60" style="mix-blend-mode:overlay" d="M323.900000,131L320.170000,119.490000L317.320000,121C315.740000,125.350000,312.430000,135.380000,313.530000,140.240000C319.530000,141.190000,318.250000,134.960000,318.250000,134.960000Z" fill="rgb(35,31,32)" stroke="none" stroke-width="1"/><path id="eD2AQVfqmZT61" d="M342.090000,163.260000C342.090000,163.260000,342.570000,158.710000,339.640000,159.510000C336.710000,160.310000,337.850000,164.240000,337.850000,164.240000L335.660000,166C335.660000,166,340.470000,167.920000,342.090000,163.260000ZM319.520000,120.630000C319.520000,120.630000,318.360000,114.940000,321.060000,114.930000C323.760000,114.920000,322.760000,119.210000,322.760000,119.210000C322.760000,119.210000,326.570000,119.010000,327.890000,116.060000C327.890000,116.060000,331.970000,124.460000,336.110000,121.750000C336.110000,121.750000,328.830000,136.040000,322.930000,132.430000C317.030000,128.820000,317.910000,124.890000,319.520000,120.630000Z" fill="rgb(254,212,213)" stroke="none" stroke-width="1"/><path id="eD2AQVfqmZT62" style="mix-blend-mode:overlay" d="M326.480000,125.250000C326.300000,125.740000,325.330000,125.840000,324.330000,125.460000C323.330000,125.080000,322.660000,124.390000,322.850000,123.900000C323.040000,123.410000,324,123.310000,325,123.690000C326,124.070000,326.670000,124.760000,326.480000,125.250000ZM332.070000,127.480000C331.934679,127.710803,331.712515,127.877756,331.453178,127.943529C331.193841,128.009303,330.918962,127.968413,330.690000,127.830000C330.090000,127.610000,329.690000,127.090000,329.890000,126.670000C330.090000,126.250000,330.660000,126.100000,331.260000,126.320000C331.860000,126.540000,332.230000,127.070000,332.070000,127.480000Z" fill="rgb(35,31,32)" stroke="none" stroke-width="1"/><path id="eD2AQVfqmZT63" style="mix-blend-mode:overlay" d="M278.610000,162.560000C266.450000,155.560000,288.830000,128.890000,294.450000,122.560000C294.112791,122.579411,293.778064,122.629620,293.450000,122.710000C286.690000,123.020000,267.360000,145.590000,273.530000,161.050000C275.680000,166.420000,281.690000,167.310000,288.630000,166.200000C285.106734,165.567428,281.717777,164.336310,278.610000,162.560000Z" opacity="0.46" fill="rgb(35,31,32)" stroke="none" stroke-width="1"/><path id="eD2AQVfqmZT64" d="M330.940000,257.650000C330.940000,257.650000,317.530000,181.380000,309.500000,177C301.470000,172.620000,280.070000,169.270000,267.320000,178.830000C254.570000,188.390000,261.100000,201.080000,271.220000,204.310000C281.340000,207.540000,297.800000,204.220000,297.800000,204.220000L325.170000,259Z" fill="rgb(47,54,85)" stroke="none" stroke-width="1"/><path id="eD2AQVfqmZT65" style="mix-blend-mode:overlay" d="M301.080000,197.790000C301.080000,197.790000,275.930000,199.560000,269.360000,196.100000C264.650000,193.620000,265.840000,184.300000,266.890000,179.210000C254.740000,188.730000,261.220000,201.160000,271.220000,204.350000C281.220000,207.540000,297.800000,204.260000,297.800000,204.260000L325.170000,259L328.340000,258.250000Z" opacity="0.46" fill="rgb(35,31,32)" stroke="none" stroke-width="1"/><path id="eD2AQVfqmZT66" d="M143.820000,232.470000L112,286.340000C109.670000,290.340000,97.760000,283.340000,100.090000,279.420000L131.910000,225.550000Z" fill="rgb(102,45,145)" stroke="none" stroke-width="1"/><path id="eD2AQVfqmZT67" d="M142.610000,231.760000L112.240000,283.180000C110.010000,286.950000,100.900000,281.660000,103.130000,277.880000L133.500000,226.470000Z" fill="rgb(239,244,244)" stroke="none" stroke-width="1"/><path id="eD2AQVfqmZT68" d="M134.560000,228L104.560000,278.760000C104.420507,279.001171,104.113288,279.085768,103.870000,278.950000C103.632456,278.807136,103.552515,278.500698,103.690000,278.260000L133.690000,227.490000C133.832906,227.253291,134.136065,227.169813,134.380000,227.300000C134.499038,227.366789,134.585598,227.479339,134.619590,227.611534C134.653583,227.743728,134.632054,227.884073,134.560000,228ZM136.300000,229L106.300000,279.770000C106.156642,280.012474,105.846281,280.096715,105.600000,279.960000C105.485437,279.891510,105.403015,279.780057,105.371085,279.650457C105.339155,279.520858,105.360367,279.383872,105.430000,279.270000L135.430000,228.500000C135.573358,228.257526,135.883719,228.173285,136.130000,228.310000C136.363953,228.456170,136.439272,228.761875,136.300000,229ZM138,230L108,280.770000C107.860507,281.011171,107.553288,281.095768,107.310000,280.960000C107.193083,280.891246,107.108370,280.778751,107.074592,280.647391C107.040813,280.516030,107.060752,280.376625,107.130000,280.260000L137.130000,229.500000C137.269493,229.258829,137.576712,229.174232,137.820000,229.310000C137.938400,229.374795,138.024830,229.485558,138.058899,229.616157C138.092969,229.746756,138.071660,229.885625,138,230ZM139.770000,231L109.770000,281.770000C109.623327,282.008081,109.316920,282.091248,109.070000,281.960000C108.830063,281.813420,108.754020,281.500302,108.900000,281.260000L138.900000,230.500000C138.967077,230.381390,139.078829,230.294555,139.210334,230.258861C139.341839,230.223167,139.482159,230.241582,139.600000,230.310000C139.714563,230.378490,139.796985,230.489943,139.828915,230.619543C139.860845,230.749142,139.839633,230.886128,139.770000,231ZM141.510000,232.050000L111.510000,282.810000C111.444879,282.927940,111.334920,283.014609,111.205031,283.050376C111.075142,283.086142,110.936316,283.067979,110.820000,283C110.703277,282.933478,110.618986,282.821949,110.586847,282.691501C110.554708,282.561054,110.577539,282.423132,110.650000,282.310000L140.650000,231.540000C140.792864,231.302456,141.099302,231.222515,141.340000,231.360000C141.454563,231.428490,141.536985,231.539943,141.568915,231.669543C141.600845,231.799142,141.579633,231.936128,141.510000,232.050000Z" fill="rgb(204,204,204)" stroke="none" stroke-width="1"/><path id="eD2AQVfqmZT69" d="M98.500000,257.790000L124.190000,213.690000C126.080000,210.450000,135.830000,216.030000,133.950000,219.270000L108.250000,263.370000Z" fill="rgb(252,107,118)" stroke="none" stroke-width="1"/><path id="eD2AQVfqmZT70" d="M99.490000,258.360000L124,216.270000C125.800000,213.180000,133.250000,217.450000,131.450000,220.540000L107,262.630000Z" fill="rgb(239,244,244)" stroke="none" stroke-width="1"/><path id="eD2AQVfqmZT71" d="M106.070000,261.380000L130.290000,219.810000C130.403241,219.613968,130.653934,219.546818,130.850000,219.660000C131.046032,219.773241,131.113182,220.023934,131,220.220000L106.780000,261.780000C106.662809,261.976463,106.412312,262.046778,106.210000,261.940000C106.017575,261.823374,105.955096,261.573458,106.070000,261.380000ZM104.650000,260.560000L128.870000,219C128.922689,218.904155,129.011489,218.833335,129.116654,218.803288C129.221818,218.773241,129.334629,218.786458,129.430000,218.840000C129.627306,218.957128,129.694094,219.210924,129.580000,219.410000L105.360000,261C105.242809,261.196463,104.992312,261.266778,104.790000,261.160000C104.688414,261.102086,104.615572,261.004442,104.589001,260.890566C104.562430,260.776691,104.584536,260.656893,104.650000,260.560000ZM103.230000,259.750000L127.450000,218.190000C127.497440,218.091592,127.582193,218.016187,127.685451,217.980516C127.788709,217.944845,127.901933,217.951858,128,218C128.196032,218.113241,128.263182,218.363934,128.150000,218.560000L103.930000,260.120000C103.812809,260.316463,103.562312,260.386778,103.360000,260.280000C103.184174,260.164910,103.127385,259.933387,103.230000,259.750000ZM101.810000,258.930000L126,217.370000C126.054377,217.273108,126.145750,217.202434,126.253199,217.174158C126.360649,217.145882,126.474973,217.162425,126.570000,217.220000C126.664560,217.274115,126.732954,217.364459,126.759378,217.470155C126.785802,217.575852,126.767969,217.687753,126.710000,217.780000L102.500000,259.340000C102.382809,259.536463,102.132312,259.606778,101.930000,259.500000C101.743340,259.373109,101.690344,259.121379,101.810000,258.930000ZM100.390000,258.120000L124.600000,216.560000C124.717191,216.363537,124.967688,216.293222,125.170000,216.400000C125.363712,216.520456,125.425865,216.773507,125.310000,216.970000L101.100000,258.530000C101.045623,258.626892,100.954250,258.697566,100.846801,258.725842C100.739351,258.754118,100.625027,258.737575,100.530000,258.680000C100.435440,258.625885,100.367046,258.535541,100.340622,258.429845C100.314198,258.324148,100.332031,258.212247,100.390000,258.120000Z" fill="rgb(204,204,204)" stroke="none" stroke-width="1"/><path id="eD2AQVfqmZT72" d="M129.700000,277.700000L145.410000,229.270000C146.560000,225.710000,157.330000,229.020000,156.180000,232.570000L140.470000,281Z" fill="rgb(252,107,118)" stroke="none" stroke-width="1"/><path id="eD2AQVfqmZT73" d="M130.800000,278L145.800000,231.780000C146.900000,228.380000,155.140000,230.910000,154.040000,234.300000L139.040000,280.530000Z" fill="rgb(239,244,244)" stroke="none" stroke-width="1"/><path id="eD2AQVfqmZT74" d="M137.910000,279.540000L152.710000,233.900000C152.777368,233.679981,153.009231,233.555131,153.230000,233.620000C153.333612,233.654229,153.419304,233.728349,153.468103,233.825948C153.516903,233.923547,153.524783,234.036573,153.490000,234.140000L138.690000,279.780000C138.657851,279.885448,138.584593,279.973507,138.486756,280.024307C138.388918,280.075108,138.274746,280.084368,138.170000,280.050000C138.067118,280.017960,137.981515,279.945766,137.932574,279.849766C137.883633,279.753766,137.875494,279.642081,137.910000,279.540000ZM136.340000,279.060000L151.140000,233.420000C151.207368,233.199981,151.439231,233.075131,151.660000,233.140000C151.763612,233.174229,151.849304,233.248349,151.898103,233.345948C151.946903,233.443547,151.954783,233.556573,151.920000,233.660000L137.120000,279.300000C137.048430,279.516007,136.817855,279.635728,136.600000,279.570000C136.497118,279.537960,136.411515,279.465766,136.362574,279.369766C136.313633,279.273766,136.305494,279.162081,136.340000,279.060000ZM134.770000,278.570000L149.570000,232.930000C149.641570,232.713993,149.872145,232.594272,150.090000,232.660000C150.192882,232.692040,150.278485,232.764234,150.327426,232.860234C150.376367,232.956234,150.384506,233.067919,150.350000,233.170000L135.550000,278.820000C135.478430,279.036007,135.247855,279.155728,135.030000,279.090000C134.926388,279.055771,134.840696,278.981651,134.791897,278.884052C134.743097,278.786453,134.735217,278.673427,134.770000,278.570000ZM133.200000,278.090000L148,232.450000C148.032149,232.344552,148.105407,232.256493,148.203244,232.205693C148.301082,232.154892,148.415254,232.145632,148.520000,232.180000C148.622882,232.212040,148.708485,232.284234,148.757426,232.380234C148.806367,232.476234,148.814506,232.587919,148.780000,232.690000L134,278.330000C133.932632,278.550019,133.700769,278.674869,133.480000,278.610000C133.372713,278.579994,133.282255,278.507621,133.229439,278.409533C133.176622,278.311445,133.165994,278.196087,133.200000,278.090000ZM131.630000,277.610000L146.430000,232C146.462149,231.894552,146.535407,231.806493,146.633244,231.755693C146.731082,231.704892,146.845254,231.695632,146.950000,231.730000C147.052882,231.762040,147.138485,231.834234,147.187426,231.930234C147.236367,232.026234,147.244506,232.137919,147.210000,232.240000L132.410000,277.880000C132.338309,278.096432,132.110154,278.219285,131.890000,278.160000C131.779019,278.126482,131.687415,278.047546,131.637868,277.942735C131.588321,277.837924,131.585462,277.717036,131.630000,277.610000Z" fill="rgb(204,204,204)" stroke="none" stroke-width="1"/><path id="eD2AQVfqmZT75" d="M130,248.690000C130,248.690000,135.510000,249.690000,135.890000,253.740000L160.060000,221.470000L154.190000,217.230000ZM108.710000,233.510000C108.710000,233.510000,114.220000,234.510000,114.600000,238.560000L138.770000,206.280000L132.900000,202Z" fill="rgb(255,255,255)" stroke="none" stroke-width="1"/><path id="eD2AQVfqmZT76" d="M105.780000,232.720000L108.360000,234.650000L132.900000,202.040000L138.370000,206.140000L113.830000,238.750000L116.400000,240.680000L143.500000,204.680000L143.400000,204.610000L140.920000,202.750000L135.450000,198.650000L132.870000,196.720000L105.780000,232.720000Z" fill="rgb(79,100,177)" stroke="none" stroke-width="1"/><path id="eD2AQVfqmZT77" d="M111.430000,232.910000L133.190000,204" fill="rgb(202,224,255)" stroke="none" stroke-width="1"/><path id="eD2AQVfqmZT78" d="M133.430000,204.180000L111.670000,233.090000L111.190000,232.720000L132.950000,203.810000L133.430000,204.180000Z" fill="rgb(22,38,89)" stroke="none" stroke-width="1"/><path id="eD2AQVfqmZT79" d="M112.940000,234.040000L134.700000,205.130000" fill="rgb(202,224,255)" stroke="none" stroke-width="1"/><path id="eD2AQVfqmZT80" d="M134.940000,205.310000L113.180000,234.220000L112.700000,233.860000L134.460000,204.950000L134.940000,205.310000Z" fill="rgb(22,38,89)" stroke="none" stroke-width="1"/><path id="eD2AQVfqmZT81" d="M114.390000,235.120000L136.150000,206.210000" fill="rgb(202,224,255)" stroke="none" stroke-width="1"/><path id="eD2AQVfqmZT82" d="M136.390000,206.390000L114.630000,235.300000L114.150000,234.940000L135.910000,206.030000L136.390000,206.390000Z" fill="rgb(22,38,89)" stroke="none" stroke-width="1"/><path id="eD2AQVfqmZT83" d="M154.880000,219.570000L133.130000,248.480000L132.640000,248.120000L154.400000,219.210000L154.880000,219.570000ZM156.400000,220.700000L134.630000,249.610000L134.150000,249.250000L155.910000,220.340000L156.400000,220.700000ZM157.840000,221.790000L136.080000,250.700000L135.600000,250.340000L157.360000,221.430000L157.840000,221.790000Z" fill="rgb(162,155,0)" stroke="none" stroke-width="1"/><path id="eD2AQVfqmZT84" d="M122.430000,237.360000C122.430000,237.360000,127.940000,238.360000,128.320000,242.360000L152.490000,210.080000L146.620000,205.840000Z" fill="rgb(255,255,255)" stroke="none" stroke-width="1"/><path id="eD2AQVfqmZT85" d="M119.500000,236.570000L122.070000,238.500000L146.620000,205.890000L152.090000,209.990000L127.550000,242.600000L130.120000,244.530000L157.220000,208.530000L157.120000,208.460000L154.640000,206.600000L149.170000,202.500000L146.590000,200.570000L119.500000,236.570000Z" fill="rgb(241,90,36)" stroke="none" stroke-width="1"/><path id="eD2AQVfqmZT86" d="M147.150000,208.030000L125.390000,236.940000L124.910000,236.570000L146.670000,207.660000L147.150000,208.030000ZM148.660000,209.160000L126.900000,238.070000L126.420000,237.710000L148.180000,208.790000L148.660000,209.160000ZM150.110000,210.240000L128.350000,239.150000L127.860000,238.790000L149.630000,209.880000L150.110000,210.240000Z" fill="rgb(22,38,89)" stroke="none" stroke-width="1"/><path id="eD2AQVfqmZT87" d="M127.080000,247.910000L129.650000,249.840000L154.200000,217.230000L159.670000,221.330000L135.130000,253.940000L137.700000,255.870000L164.800000,219.870000L164.700000,219.790000L162.220000,217.940000L156.750000,213.840000L154.170000,211.910000L127.080000,247.910000Z" fill="rgb(133,156,232)" stroke="none" stroke-width="1"/><path id="eD2AQVfqmZT88" d="M98.680000,230.520000C98.680000,230.520000,104.680000,231.670000,105.150000,236.070000L131.720000,200.600000L125.260000,195.940000ZM75.270000,213.830000C75.270000,213.830000,81.270000,214.980000,81.740000,219.380000L108.310000,183.910000L101.850000,179.250000Z" fill="rgb(255,255,255)" stroke="none" stroke-width="1"/><path id="eD2AQVfqmZT89" d="M72.050000,212.970000L74.880000,215.090000L101.850000,179.250000L107.870000,183.750000L80.890000,219.590000L83.720000,221.720000L113.500000,182.150000L113.390000,182.070000L110.670000,180.030000L104.660000,175.520000L101.830000,173.400000L72.050000,212.970000Z" fill="rgb(79,100,177)" stroke="none" stroke-width="1"/><path id="eD2AQVfqmZT90" d="M78.260000,213.170000L102.170000,181.400000" fill="rgb(202,224,255)" stroke="none" stroke-width="1"/><path id="eD2AQVfqmZT91" d="M102.440000,181.590000L78.520000,213.370000L77.990000,212.970000L101.910000,181.200000L102.440000,181.590000Z" fill="rgb(22,38,89)" stroke="none" stroke-width="1"/><path id="eD2AQVfqmZT92" d="M79.910000,214.410000L103.830000,182.640000" fill="rgb(202,224,255)" stroke="none" stroke-width="1"/><path id="eD2AQVfqmZT93" d="M104.100000,182.840000L80.180000,214.610000L79.650000,214.220000L103.560000,182.440000L104.100000,182.840000Z" fill="rgb(22,38,89)" stroke="none" stroke-width="1"/><path id="eD2AQVfqmZT94" d="M81.510000,215.610000L105.420000,183.830000" fill="rgb(202,224,255)" stroke="none" stroke-width="1"/><path id="eD2AQVfqmZT95" d="M105.690000,184.030000L81.770000,215.810000L81.240000,215.410000L105.160000,183.630000L105.690000,184.030000Z" fill="rgb(22,38,89)" stroke="none" stroke-width="1"/><path id="eD2AQVfqmZT96" d="M126.020000,198.520000L102.100000,230.290000L101.570000,229.900000L125.490000,198.120000L126.020000,198.520000ZM127.680000,199.760000L103.760000,231.530000L103.230000,231.140000L127.140000,199.360000L127.680000,199.760000ZM129.270000,200.950000L105.350000,232.730000L104.820000,232.330000L128.740000,200.560000L129.270000,200.950000Z" fill="rgb(162,155,0)" stroke="none" stroke-width="1"/><path id="eD2AQVfqmZT97" d="M90.350000,218.060000C90.350000,218.060000,96.400000,219.210000,96.820000,223.620000L123.380000,188.140000L116.930000,183.480000Z" fill="rgb(255,255,255)" stroke="none" stroke-width="1"/><path id="eD2AQVfqmZT98" d="M87.120000,217.200000L89.950000,219.320000L116.930000,183.480000L122.940000,187.990000L95.970000,223.830000L98.800000,225.950000L128.580000,186.380000L128.470000,186.300000L125.750000,184.260000L119.730000,179.750000L116.900000,177.630000L87.120000,217.200000Z" fill="rgb(251,152,68)" stroke="none" stroke-width="1"/><path id="eD2AQVfqmZT99" d="M117.520000,185.830000L93.600000,217.600000L93.070000,217.200000L116.980000,185.430000L117.520000,185.830000ZM119.170000,187.070000L95.260000,218.840000L94.730000,218.450000L118.640000,186.670000L119.170000,187.070000ZM120.770000,188.260000L96.850000,220.040000L96.320000,219.640000L120.230000,187.860000L120.770000,188.260000Z" fill="rgb(22,38,89)" stroke="none" stroke-width="1"/><path id="eD2AQVfqmZT100" d="M95.450000,229.660000L98.280000,231.780000L125.260000,195.940000L131.280000,200.440000L104.300000,236.280000L107.130000,238.410000L136.910000,198.840000L136.800000,198.760000L134.080000,196.720000L128.060000,192.210000L125.230000,190.090000L95.450000,229.660000Z" fill="rgb(47,54,85)" stroke="none" stroke-width="1"/><path id="eD2AQVfqmZT101" d="M92.690000,198.530000C92.690000,198.530000,89.260000,203.340000,92.090000,205.980000C94.920000,208.620000,103.090000,212.800000,103.440000,209.170000C103.790000,205.540000,96.740000,204.360000,96.180000,202.360000C95.833361,200.846066,95.725393,199.287267,95.860000,197.740000Z" fill="rgb(254,212,213)" stroke="none" stroke-width="1"/><path id="eD2AQVfqmZT102" d="M23.570000,146.220000C23.570000,146.220000,22.380000,142.310000,25.570000,141.140000C28.760000,139.970000,37.890000,143.610000,41.570000,140.200000C45.250000,136.790000,47.700000,143.200000,45.160000,145.900000C45.160000,145.900000,47.070000,144.040000,48.590000,145.960000C49.304855,146.786663,49.585754,147.903142,49.347214,148.969673C49.108674,150.036203,48.378909,150.926638,47.380000,151.370000C46.381091,151.813362,49.870000,151.650000,49.180000,153.770000C48.490000,155.890000,45,158.140000,45,158.140000L41.760000,162.820000C41.760000,162.820000,41.260000,168.640000,38.760000,168.590000C37.357824,168.638161,36.059519,167.853687,35.450000,166.590000C34.840481,165.326313,35.830000,169.510000,33.450000,169.960000C31.070000,170.410000,30.140000,168.020000,30.340000,166.720000C30.340000,166.720000,29.340000,170.600000,26.690000,170.050000C24.040000,169.500000,23,168,23.430000,165.320000C23.860000,162.640000,23.770000,156.100000,21.770000,153.950000C19.770000,151.800000,17.360000,145.400000,23.570000,146.220000Z" fill="rgb(47,54,85)" stroke="none" stroke-width="1"/><path id="eD2AQVfqmZT103" style="mix-blend-mode:overlay" d="M36,144.900000C29.150000,144.900000,27.950000,142.580000,27,144.220000C26.441400,145.291505,26.408193,146.560751,26.910000,147.660000C27.411807,148.759249,23.050000,146.970000,22.610000,149.970000C22.170000,152.970000,30.610000,160.150000,27.820000,166.050000C27.040000,167.700000,26.390000,168.940000,25.820000,169.880000C26.088923,169.968882,26.362702,170.042335,26.640000,170.100000C29.310000,170.650000,30.290000,166.770000,30.290000,166.770000C30.090000,168.070000,31,170.460000,33.400000,170.010000C35.800000,169.560000,35.400000,166.640000,35.400000,166.640000C36.009519,167.903687,37.307824,168.688161,38.710000,168.640000C41.240000,168.640000,41.710000,162.870000,41.710000,162.870000L45,158.140000C45,158.140000,48.500000,155.880000,49.180000,153.770000C49.860000,151.660000,47.380000,151.370000,47.380000,151.370000C48.369800,150.929568,49.095234,150.049778,49.338983,148.994188C49.582732,147.938598,49.316484,146.829816,48.620000,146C47.100000,144.080000,45.190000,145.940000,45.190000,145.940000C46.990000,144.020000,46.300000,140.270000,44.420000,139.440000C43.020812,142.833019,39.668639,145.006756,36,144.900000Z" fill="rgb(35,31,32)" stroke="none" stroke-width="1"/><path id="eD2AQVfqmZT104" d="M77.300000,180.340000L72.940000,186.160000C70.403285,189.607137,65.556594,190.353813,62.100000,187.830000L42.570000,173.270000C40.933510,172.028115,39.858681,170.185884,39.582869,168.150127C39.307057,166.114371,39.852951,164.052558,41.100000,162.420000L45.460000,156.590000C47.999800,153.146174,52.846008,152.404042,56.300000,154.930000L75.830000,169.480000C77.467139,170.723698,78.542188,172.567651,78.817968,174.605040C79.093747,176.642429,78.547593,178.705827,77.300000,180.340000Z" fill="rgb(232,134,61)" stroke="none" stroke-width="1"/><path id="eD2AQVfqmZT105" style="mix-blend-mode:overlay" d="M45.740000,156C43.913113,158.381660,43.108875,161.392316,43.504722,164.367736C43.900569,167.343156,45.463971,170.038823,47.850000,171.860000L51.410000,174.510000L57.190000,174.350000C57.190000,174.350000,58.650000,173.600000,63.100000,171.790000C67.550000,169.980000,67.350000,172.990000,66.350000,175.530000C65.350000,178.070000,68.550000,176.380000,71.940000,174.430000C74.730000,172.830000,71.230000,181.260000,69.940000,184.280000C73.003083,183.852412,75.766342,182.213190,77.610000,179.730000C79.439501,177.349314,80.245363,174.337947,79.849407,171.361715C79.453452,168.385483,77.888297,165.689554,75.500000,163.870000L61.590000,153.520000C56.524678,149.843019,49.440077,150.951525,45.740000,156Z" opacity="0.41" fill="rgb(35,31,32)" stroke="none" stroke-width="1"/><path id="eD2AQVfqmZT106" d="M88.570000,149.710000C88.570000,149.710000,86.960000,153.240000,84.090000,161.880000C81.220000,170.520000,78.730000,174.190000,78.730000,174.190000L70.810000,186.300000C70.810000,186.300000,57.910000,188.910000,55.090000,192.300000C52.270000,195.690000,52.590000,201.490000,55.360000,203.300000C58.130000,205.110000,75.910000,213.370000,85,202C94.090000,190.630000,97.160000,187.130000,98,176.430000C98.840000,165.730000,99,145.390000,88.570000,149.710000Z" fill="rgb(33,38,56)" stroke="none" stroke-width="1"/><path id="eD2AQVfqmZT107" d="M107.250000,190.100000C107.250000,190.100000,111.070000,188.210000,113.680000,189.990000C116.290000,191.770000,117.230000,196.490000,119.680000,194.620000C122.130000,192.750000,115.680000,182.140000,113.380000,183.090000C111.089911,184.225003,108.872331,185.500779,106.740000,186.910000Z" fill="rgb(254,212,213)" stroke="none" stroke-width="1"/><path id="eD2AQVfqmZT108" style="mix-blend-mode:overlay" d="M90.580000,147.390000C79.130000,151.820000,91.770000,199.390000,91.770000,199.390000L96.300000,199.880000C96.300000,199.880000,97.300000,196.300000,98.400000,191.020000C94.540000,180.650000,87.510000,159.120000,90.580000,147.390000Z" opacity="0.58" fill="rgb(35,31,32)" stroke="none" stroke-width="1"/><path id="eD2AQVfqmZT109" d="M41.670000,167.160000C41.600000,166.730000,40.400000,172.530000,44.080000,178.610000C47.760000,184.690000,53.240000,196,59.210000,198.300000C65.180000,200.600000,67.360000,199.110000,68.350000,193.890000C69.340000,188.670000,43.220000,176.560000,41.670000,167.160000Z" fill="rgb(214,116,50)" stroke="none" stroke-width="1"/><path id="eD2AQVfqmZT110" d="M51,200.870000C51,200.870000,47.220000,195.950000,52.420000,191.410000C57.620000,186.870000,109.500000,185,109.500000,185L110.380000,189.340000C110.380000,189.340000,64,215.240000,51,200.870000Z" fill="rgb(47,54,85)" stroke="none" stroke-width="1"/><path id="eD2AQVfqmZT111" d="M49.390000,154.800000C48.950000,154.800000,54.180000,152.060000,61.070000,153.870000C67.960000,155.680000,80.340000,157.710000,84.290000,162.760000C88.240000,167.810000,87.380000,170.320000,82.640000,172.760000C77.900000,175.200000,58.860000,153.620000,49.390000,154.800000Z" fill="rgb(214,116,50)" stroke="none" stroke-width="1"/><path id="eD2AQVfqmZT112" d="M49.780000,159.710000L45.480000,165.450000L36.730000,158.920000L41.020000,153.180000L49.780000,159.710000Z" fill="rgb(242,179,187)" stroke="none" stroke-width="1"/><path id="eD2AQVfqmZT113" d="M59.920000,146.340000L73.270000,160.900000C74.173734,161.904938,74.240752,163.408651,73.430000,164.490000C69.840000,169.410000,60.250000,182.490000,56.540000,187.380000C55.720564,188.468120,54.245694,188.824267,53.020000,188.230000L35.400000,179.560000C34.653104,179.189026,34.109572,178.505462,33.916412,177.694188C33.723251,176.882914,33.900420,176.027754,34.400000,175.360000L55.530000,146.630000C56.022386,145.932146,56.803598,145.493987,57.655816,145.437690C58.508033,145.381393,59.340094,145.712981,59.920000,146.340000Z" fill="rgb(230,230,230)" stroke="none" stroke-width="1"/><path id="eD2AQVfqmZT114" d="M76.840000,164L57.130000,190.580000C56.823231,190.989219,56.245585,191.078087,55.830000,190.780000L55.160000,190.280000C54.968557,190.131822,54.844048,189.913468,54.814020,189.673247C54.783993,189.433027,54.850922,189.190743,55,189L74.710000,162.460000C74.852510,162.260159,75.068967,162.125550,75.311228,162.086112C75.553488,162.046674,75.801464,162.105678,76,162.250000L76.680000,162.750000C77.046088,163.063933,77.115215,163.603980,76.840000,164Z" fill="rgb(179,179,179)" stroke="none" stroke-width="1"/><path id="eD2AQVfqmZT115" d="M57.400000,166.700000C56.915195,166.376282,56.323288,166.254314,55.750000,166.360000C55.976330,167.008620,55.867800,167.727160,55.460000,168.280000C54.966205,169.053006,54.009873,169.391019,53.140000,169.100000C52.958870,170.010418,53.316720,170.943939,54.060000,171.500000C55.357254,172.021347,56.842658,171.577484,57.641201,170.429877C58.439744,169.282270,58.339699,167.735199,57.400000,166.700000Z" fill="rgb(255,255,255)" stroke="none" stroke-width="1"/><path id="eD2AQVfqmZT116" d="M34.750000,147.460000C32.070000,146.910000,29.190000,144.230000,28.190000,146.250000C27.190000,148.270000,28.120000,149.090000,28.120000,149.090000C28.120000,149.090000,26.250000,148.480000,25.720000,149.540000C25.190000,150.600000,24.640000,152.540000,27.500000,155.070000C30.360000,157.600000,32.670000,156.950000,31.680000,160.150000C31.453353,160.856696,31.358444,161.599013,31.400000,162.340000C35.700000,164.090000,40.490000,163.170000,43.050000,159.760000C46.140000,155.630000,44.810000,149.410000,40.050000,145.760000C38.670000,146.670000,36.440000,147.800000,34.750000,147.460000Z" fill="rgb(254,212,213)" stroke="none" stroke-width="1"/><path id="eD2AQVfqmZT117" style="mix-blend-mode:overlay" d="M64.310000,201.570000C70.390000,201.020000,69.970000,195.620000,72.720000,192.410000C75.060000,189.680000,101.910000,187.300000,109.830000,186.650000L109.500000,185C109.500000,185,57.640000,186.840000,52.440000,191.380000C49.140000,194.250000,49.440000,197.280000,50.120000,199.120000C54,197.840000,59.200000,202,64.310000,201.570000Z" opacity="0.58" fill="rgb(35,31,32)" stroke="none" stroke-width="1"/><path id="eD2AQVfqmZT118" d="M55.690000,115.310000L54.580000,117.170000C54.294554,120.228624,54.995399,123.298327,56.580000,125.930000C58.164601,128.561673,52.990000,131.140000,53.580000,134.540000L54.190000,136.620000L57.490000,136.620000L59.620000,126.910000C59.620000,126.910000,58.170000,115.720000,58,115.710000C57.830000,115.700000,55.690000,115.310000,55.690000,115.310000Z" fill="rgb(255,255,255)" stroke="none" stroke-width="1"/><path id="eD2AQVfqmZT119" d="M55.220000,114.580000L57.050000,125.260000L75.900000,126.380000L72.890000,116.350000L55.220000,114.580000ZM53.440000,137.720000L56.970000,127.400000L75.810000,128.510000L71.220000,138.050000L53.440000,137.720000Z" fill="rgb(47,54,85)" stroke="none" stroke-width="1"/><path id="eD2AQVfqmZT120" d="M76.270000,126.140000L76.060000,128.750000L56.780000,127.610000L56.990000,125L76.270000,126.140000Z" fill="rgb(26,33,56)" stroke="none" stroke-width="1"/><path id="eD2AQVfqmZT121" d="M2.110000,186.830000L3.580000,185.250000C6.441309,184.102949,9.593431,183.896309,12.580000,184.660000C15.566569,185.423691,16.580000,179.750000,20,179.360000L22.180000,179.360000L23.180000,182.510000L14.450000,187.300000C14.450000,187.300000,3.200000,189.100000,3.160000,189C3.120000,188.900000,2.110000,186.830000,2.110000,186.830000Z" fill="rgb(255,255,255)" stroke="none" stroke-width="1"/><path id="eD2AQVfqmZT122" d="M1.280000,186.600000L12.060000,185.320000L18.480000,203.030000L7.980000,202.990000L1.280000,186.600000ZM23.010000,178.340000L14.090000,184.630000L20.500000,202.350000L28.370000,195.250000L23.010000,178.340000Z" fill="rgb(47,54,85)" stroke="none" stroke-width="1"/><path id="eD2AQVfqmZT123" d="M18.350000,203.450000L20.800000,202.510000L14.240000,184.390000L11.790000,185.330000L18.350000,203.450000Z" fill="rgb(26,33,56)" stroke="none" stroke-width="1"/><path id="eD2AQVfqmZT124" d="M48.360000,176.290000C48.360000,176.290000,45.210000,175.840000,44.590000,174.820000C44.228556,174.281959,44.346673,173.555759,44.860000,173.160000C45.373327,172.764241,40.180000,172.620000,41.860000,170.480000C43.540000,168.340000,45.300000,169.140000,46.860000,170.340000C48.420000,171.540000,50.110000,174.860000,50.110000,174.860000Z" fill="rgb(254,212,213)" stroke="none" stroke-width="1"/><path id="eD2AQVfqmZT125" d="M49.130000,178.990000L46.430000,176.180000L49.760000,172.740000L52.280000,175.960000L49.130000,178.990000Z" fill="rgb(47,54,85)" stroke="none" stroke-width="1"/><path id="eD2AQVfqmZT126" d="M62.300000,199.550000C59.030000,199.670000,47.300000,185.400000,48.100000,180.550000C48.900000,175.700000,50.440000,173.700000,53.480000,174.010000C56.520000,174.320000,71.850000,186.010000,70.610000,192.870000C69.310000,200,62.690000,199.940000,62.300000,199.550000Z" fill="rgb(251,152,68)" stroke="none" stroke-width="1"/><path id="eD2AQVfqmZT127" d="M59.380000,160.090000C59.380000,160.090000,57.940000,157.250000,56.780000,156.990000C56.152231,156.810703,55.493753,157.153112,55.280000,157.770000C55.066247,158.386888,53.280000,153.520000,51.780000,155.770000C50.280000,158.020000,51.600000,159.440000,53.250000,160.540000C54.900000,161.640000,58.580000,162.190000,58.580000,162.190000Z" fill="rgb(254,212,213)" stroke="none" stroke-width="1"/><path id="eD2AQVfqmZT128" d="M86.240000,165.070000C84.740000,161.500000,68.060000,155.510000,63.680000,157.670000C59.300000,159.830000,57.910000,162.060000,59.170000,164.830000C60.430000,167.600000,77.500000,179.830000,82.550000,175.030000C87.270000,170.530000,87.420000,168.180000,86.240000,165.070000Z" fill="rgb(251,152,68)" stroke="none" stroke-width="1"/><path id="eD2AQVfqmZT129" d="M62.190000,159.950000L58.660000,158.290000L56.440000,162.530000L60.300000,163.900000L62.190000,159.950000Z" fill="rgb(47,54,85)" stroke="none" stroke-width="1"/><path id="eD2AQVfqmZT130" d="M86.240000,165.070000C84.740000,161.500000,68.060000,155.510000,63.680000,157.670000C59.300000,159.830000,57.910000,162.060000,59.170000,164.830000C60.430000,167.600000,77.500000,179.830000,82.550000,175.030000C87.270000,170.530000,87.420000,168.180000,86.240000,165.070000Z" fill="rgb(251,152,68)" stroke="none" stroke-width="1"/><path id="eD2AQVfqmZT131" style="mix-blend-mode:overlay" d="M40.700000,148.540000C41.070000,148.810000,40.870000,149.690000,40.260000,150.540000C39.650000,151.390000,38.860000,151.790000,38.490000,151.540000C38.120000,151.290000,38.320000,150.390000,38.940000,149.540000C39.560000,148.690000,40.340000,148.270000,40.700000,148.540000ZM34.680000,157.260000C35.050000,157.540000,34.880000,158.380000,34.300000,159.150000C33.720000,159.920000,32.960000,160.320000,32.600000,160.050000C32.240000,159.780000,32.400000,158.930000,32.980000,158.160000C33.560000,157.390000,34.320000,157,34.680000,157.260000Z" fill="rgb(35,31,32)" stroke="none" stroke-width="1"/><path id="eD2AQVfqmZT132" style="mix-blend-mode:overlay" d="M70.090000,168.540000C63.390000,166.010000,61.150000,162.390000,60.450000,159.750000C58.710000,161.290000,58.300000,162.930000,59.170000,164.830000C60.430000,167.590000,77.500000,179.830000,82.550000,175.030000C84.089310,173.695695,85.364693,172.084506,86.310000,170.280000C83.350000,170.930000,77.690000,171.410000,70.090000,168.540000ZM53.480000,174C50.920000,173.740000,49.480000,175.150000,48.550000,178.480000C51.756910,178.581809,54.872598,179.571905,57.550000,181.340000C61.370000,184.080000,67.550000,190.160000,67.690000,198.080000C69.320384,196.787358,70.393886,194.919464,70.690000,192.860000C71.850000,186.070000,56.510000,174.350000,53.480000,174Z" opacity="0.58" fill="rgb(35,31,32)" stroke="none" stroke-width="1"/><g id="eD2AQVfqmZT133"><g id="eD2AQVfqmZT134"><g id="eD2AQVfqmZT135_tr" transform="translate(198.456257,120.879862) rotate(-8.975735)"><g id="eD2AQVfqmZT135" transform="translate(-198.456257,-120.879862)"><g id="eD2AQVfqmZT136_tr" transform="translate(309.095895,71.111189) rotate(0)"><path id="eD2AQVfqmZT136" d="M307.400000,66.710000C307.400000,66.710000,311.690000,63.710000,313.990000,62.360000C316.290000,61.010000,321.570000,57.420000,322.520000,59.670000C323.470000,61.920000,317.400000,64,317.400000,64C317.400000,64,333.980000,61.430000,334.230000,64.850000C334.480000,68.270000,324.670000,71.850000,316.740000,70.850000L309,74.380000Z" transform="translate(-308.326486,-71.860159)" fill="rgb(254,212,213)" stroke="none" stroke-width="1"/></g><path id="eD2AQVfqmZT137" d="M203,97.430000L199.880000,91.240000L255.310000,87.880000L308.310000,64.320000L313,73.690000C313,73.690000,267.170000,111.690000,210.280000,119.570000Z" fill="rgb(240,70,101)" stroke="none" stroke-width="1"/></g></g></g></g><path id="eD2AQVfqmZT138" d="M219.220000,174.170000C219.220000,174.170000,270.630000,162.900000,282.990000,170.420000C295.350000,177.940000,300.860000,200.750000,265.990000,212.590000C231.120000,224.430000,196.830000,220.090000,196.830000,220.090000L181.500000,234.560000C181.500000,234.560000,177.100000,234.700000,177.220000,227.160000C177.340000,219.620000,186,214.680000,186,214.680000L190.260000,210.240000L222.430000,205.670000L197.130000,206.800000C197.130000,206.800000,195.130000,178.500000,196.210000,178.110000C197.290000,177.720000,219.220000,174.170000,219.220000,174.170000Z" fill="rgb(77,77,77)" stroke="none" stroke-width="1"/><path id="eD2AQVfqmZT139" d="M196.940000,220.110000C196.433013,219.086339,196.063162,218.000320,195.840000,216.880000C195.370000,214.570000,196.090000,211.110000,196.540000,209.350000L208.540000,207.650000C208.293340,212.046900,208.430526,216.456933,208.950000,220.830000C202.100000,220.680000,197.680000,220.200000,196.940000,220.110000Z" fill="rgb(237,180,159)" stroke="none" stroke-width="1"/><path id="eD2AQVfqmZT140" style="mix-blend-mode:overlay" d="M186,214.680000L190.260000,210.240000L222.430000,205.670000L197.130000,206.800000C197.130000,206.800000,196.980000,204.640000,196.780000,201.510000L199.780000,201.620000C209.590000,202.040000,232.930000,197.020000,242.540000,191.220000C252.150000,185.420000,262.720000,188,262.720000,188C251.260000,189.550000,242.040000,199.650000,230.720000,204.540000C219.400000,209.430000,194.540000,213.790000,191.620000,214.120000C188.700000,214.450000,182.090000,222.310000,182.230000,226.850000C182.308940,228.836952,182.802861,230.785388,183.680000,232.570000L181.530000,234.570000C181.530000,234.570000,177.130000,234.710000,177.250000,227.170000C177.370000,219.630000,186,214.680000,186,214.680000Z" opacity="0.34" fill="rgb(0,0,0)" stroke="none" stroke-width="1"/><path id="eD2AQVfqmZT141" d="M175,175.530000C175,175.530000,123,167.440000,111.120000,175.700000C99.240000,183.960000,95.230000,207.060000,130.790000,216.700000C166.350000,226.340000,200.250000,220,200.250000,220L216.470000,233.500000C216.470000,233.500000,220.880000,233.370000,220.270000,225.850000C219.660000,218.330000,210.710000,213.930000,210.710000,213.930000L206.170000,209.770000L173.770000,207.170000L199.090000,206.750000C199.090000,206.750000,199.280000,178.390000,198.170000,178.060000C197.060000,177.730000,175,175.530000,175,175.530000Z" fill="rgb(77,77,77)" stroke="none" stroke-width="1"/><path id="eD2AQVfqmZT142" d="M226.830000,169.320000L212.750000,95.920000C212.152058,92.917851,209.458646,90.797054,206.400000,90.920000L179.870000,91.730000C178.160000,91.780000,165.270000,92.410000,162.650000,96.920000L135.450000,153.400000C130.930000,160.400000,145.920000,169.640000,150.450000,162.630000L170.610000,131.180000L166.790000,171.180000C166.544080,173.777381,167.985432,176.241368,170.370000,177.300000C188.370000,185.300000,206.170000,185.130000,223.740000,175.750000C226.058525,174.506524,227.307653,171.907207,226.830000,169.320000Z" fill="rgb(240,70,101)" stroke="none" stroke-width="1"/><g id="eD2AQVfqmZT143_to" transform="translate(187.509766,56.205078)"><g id="eD2AQVfqmZT143" transform="translate(-187.509766,-56.205078)"><path id="eD2AQVfqmZT144" d="M205.550000,58.650000C206.090000,58.530000,215.200000,45.110000,205.280000,38.840000C205.280000,38.840000,204.550000,43.790000,201.810000,44.950000C201.810000,44.950000,200.020000,41.300000,197.760000,40.510000C197.760000,40.510000,194.500000,45.100000,188.970000,45.590000C183.440000,46.080000,178.970000,42.850000,174.640000,45.460000C170.310000,48.070000,171.120000,51.390000,171.120000,51.390000C171.120000,51.390000,164.980000,53.300000,165.400000,58.390000C165.820000,63.480000,172.970000,72.390000,172.970000,72.390000C172.970000,72.390000,177.970000,74.590000,181.870000,72.620000C185.770000,70.650000,182.380000,63.490000,184.210000,61.620000C186.040000,59.750000,205.550000,58.650000,205.550000,58.650000Z" fill="rgb(247,147,30)" stroke="none" stroke-width="1"/><path id="eD2AQVfqmZT145" style="mix-blend-mode:overlay" d="M206,39.320000C206.890000,41.910000,207.930000,46.920000,204.150000,50.060000L202.240000,47.880000C202.240000,47.880000,200.240000,52.690000,192.730000,54.630000C185.220000,56.570000,177.600000,55.180000,176.780000,58.260000C176.268172,59.973945,177.066538,61.807229,178.670000,62.600000C180.273462,63.392771,173.860000,61.600000,172.470000,64.050000C171.641134,65.364166,171.425736,66.974168,171.880000,68.460000C172.334264,69.945832,166.880000,63.320000,166.880000,59.190000C166.880000,55.060000,171.130000,51.390000,171.130000,51.390000C171.130000,51.390000,164.990000,53.300000,165.410000,58.390000C165.830000,63.480000,172.980000,72.390000,172.980000,72.390000C172.980000,72.390000,177.980000,74.590000,181.880000,72.620000C185.780000,70.650000,182.390000,63.490000,184.220000,61.620000C186.050000,59.750000,205.560000,58.720000,205.560000,58.720000C206.080000,58.540000,214.750000,45.760000,206,39.320000Z" transform="matrix(1.01169808630361 0 0 1.00772118071373 -2.32580822531295 -0.43532680402950)" opacity="0.32" fill="rgb(0,0,0)" stroke="none" stroke-width="1"/></g></g><path id="eD2AQVfqmZT146" d="M183,75.910000L181.180000,93.200000C181.060000,102.200000,201.820000,102.420000,201.940000,93.460000L198.710000,78.840000L183.710000,76.070000" fill="rgb(254,212,213)" stroke="none" stroke-width="1"/><path id="eD2AQVfqmZT147" style="mix-blend-mode:overlay" d="M200.730000,88L198.730000,78.830000L183.730000,76.060000L182.990000,75.900000L182.270000,82.740000C187.627475,86.580367,194.152950,88.439739,200.730000,88Z" opacity="0.76" fill="rgb(0,0,0)" stroke="none" stroke-width="1"/><path id="eD2AQVfqmZT148" d="M204,53.880000C204,53.880000,212.090000,74.160000,208.410000,79.390000C204.730000,84.620000,203.410000,86.030000,196.410000,85.920000C189.410000,85.810000,182.290000,78.570000,182.290000,78.570000C182.290000,78.570000,176.670000,77.060000,174.420000,73.880000C172.170000,70.700000,173.090000,65.710000,175.960000,66.730000C177.658825,67.323277,179.149053,68.396658,180.250000,69.820000C181.350947,71.243342,184.020000,70.640000,183.350000,66.930000C182.680000,63.220000,180.100000,62.680000,181.640000,59.580000C183.180000,56.480000,202.260000,61.070000,204,53.880000Z" fill="rgb(254,212,213)" stroke="none" stroke-width="1"/><path id="eD2AQVfqmZT149" style="mix-blend-mode:overlay" d="M204,53.880000C203.603205,55.265229,202.571059,56.379056,201.220000,56.880000C203.780000,63.130000,208.100000,74.530000,206.960000,77.770000C205.720000,81.300000,202.690000,84.340000,201.400000,85.510000C204.400000,84.800000,205.850000,83.020000,208.400000,79.370000C212.070000,74.160000,204,53.880000,204,53.880000Z" opacity="0.76" fill="rgb(0,0,0)" stroke="none" stroke-width="1"/><path id="eD2AQVfqmZT150" style="mix-blend-mode:overlay" d="M191.380000,175.550000C197.440000,173.690000,194.380000,161.820000,194.020000,158.720000C193.660000,155.620000,178.950000,154.400000,175.680000,151.630000C172.410000,148.860000,173.540000,123,173.540000,123C168.590000,128.780000,164.260000,138.600000,161.770000,145L170.600000,131.230000L166.780000,171.230000C166.534080,173.827381,167.975432,176.291368,170.360000,177.350000C179.251978,181.490770,189.010540,183.428762,198.810000,183C194.410000,180.920000,187,176.910000,191.380000,175.550000Z" opacity="0.34" fill="rgb(0,0,0)" stroke="none" stroke-width="1"/><path id="eD2AQVfqmZT151" d="M178.090000,158.210000L191.430000,160.440000C191.430000,160.440000,190.320000,157.440000,194.430000,157C198.540000,156.560000,199.080000,161.700000,199.080000,161.700000C199.080000,161.700000,207.080000,161.540000,208.580000,166.790000C210.080000,172.040000,207.130000,177.840000,202.450000,177.010000C197.770000,176.180000,190.450000,174.780000,188.540000,173.010000L186.640000,171.220000L175.330000,168Z" fill="rgb(237,180,159)" stroke="none" stroke-width="1"/><path id="eD2AQVfqmZT152" d="M142.370000,164.470000L185.850000,173L188.420000,158L144.200000,149.780000C135,148.690000,133.120000,163.360000,142.370000,164.470000Z" fill="rgb(240,70,101)" stroke="none" stroke-width="1"/><path id="eD2AQVfqmZT153" d="M200.130000,220C200.576688,218.948832,200.879422,217.842171,201.030000,216.710000C201.350000,214.370000,200.400000,210.970000,199.840000,209.240000L187.780000,208.240000C188.308082,212.612336,188.451966,217.022541,188.210000,221.420000C195,220.900000,199.400000,220.140000,200.130000,220Z" fill="rgb(237,180,159)" stroke="none" stroke-width="1"/><path id="eD2AQVfqmZT154" style="mix-blend-mode:overlay" d="M210.710000,213.920000L206.170000,209.760000L173.770000,207.160000L199.090000,206.740000L199.090000,201.430000L196.090000,201.730000C186.330000,202.730000,162.710000,199.170000,152.750000,193.970000C142.790000,188.770000,132.370000,191.970000,132.370000,191.970000C143.900000,192.820000,153.760000,202.330000,165.370000,206.520000C176.980000,210.710000,202.070000,213.520000,205.010000,213.670000C207.950000,213.820000,215.010000,221.260000,215.190000,225.810000C215.242378,227.793607,214.877854,229.766125,214.120000,231.600000L216.390000,233.500000C216.390000,233.500000,220.800000,233.370000,220.190000,225.850000C219.580000,218.330000,210.710000,213.920000,210.710000,213.920000Z" opacity="0.34" fill="rgb(0,0,0)" stroke="none" stroke-width="1"/><path id="eD2AQVfqmZT155" d="M243.360000,154.920000L236.250000,198.780000C235.729290,201.772857,233.176402,203.987309,230.140000,204.080000C216.470000,204.610000,179.970000,205.980000,166.200000,206.230000C163.144550,206.304654,160.461392,204.211708,159.790000,201.230000L150.540000,158C150.169396,156.162421,150.632325,154.255090,151.804071,152.791855C152.975817,151.328620,154.735848,150.459998,156.610000,150.420000L236.770000,147.600000C238.677789,147.505021,240.526981,148.273895,241.805020,149.693507C243.083058,151.113119,243.654150,153.032633,243.360000,154.920000Z" fill="rgb(230,230,230)" stroke="none" stroke-width="1"/><path id="eD2AQVfqmZT156" d="M236.520000,209.420000L160.520000,211.760000C160.185757,211.773527,159.859854,211.653586,159.614122,211.426612C159.368390,211.199638,159.223001,210.884264,159.210000,210.550000L159.090000,207.040000C159.081959,206.704101,159.208411,206.378903,159.441254,206.136671C159.674098,205.894438,159.994046,205.755237,160.330000,205.750000L236.330000,203.420000C236.664243,203.406473,236.990146,203.526414,237.235878,203.753388C237.481610,203.980362,237.626999,204.295736,237.640000,204.630000L237.750000,208.130000C237.758052,208.464200,237.632965,208.787901,237.402275,209.029843C237.171585,209.271786,236.854204,209.412138,236.520000,209.420000Z" fill="rgb(179,179,179)" stroke="none" stroke-width="1"/><path id="eD2AQVfqmZT157" d="M203.910000,178.880000C203.800227,177.574734,203.182627,176.364669,202.190000,175.510000C201.363209,176.809203,199.949069,177.617283,198.410000,177.670000C196.353181,177.921107,194.402781,176.693232,193.740000,174.730000C191.852297,175.670957,190.681925,177.621577,190.740000,179.730000C190.940000,182.780000,194.040000,185.080000,197.670000,184.850000C201.300000,184.620000,204.100000,181.940000,203.910000,178.880000Z" fill="rgb(255,255,255)" stroke="none" stroke-width="1"/><path id="eD2AQVfqmZT158" style="mix-blend-mode:overlay" d="M197.380000,71.860000C197.380000,72.370000,195.670000,72.860000,193.520000,72.860000C191.370000,72.860000,189.620000,72.570000,189.600000,72.060000C189.580000,71.550000,191.310000,71.060000,193.460000,71.060000C195.610000,71.060000,197.360000,71.360000,197.380000,71.860000Z" opacity="0.76" fill="rgb(0,0,0)" stroke="none" stroke-width="1"/></g></g></g></svg>