<svg version="1.1" id="Layer_1" xmlns="http://www.w3.org/2000/svg" x="0" y="0" viewBox="0 0 317.5 208.2" style="enable-background:new 0 0 317.5 208.2" xml:space="preserve"><style>.st1{fill-rule:evenodd;clip-rule:evenodd;fill:#68b7e7}.st2{fill:#406fbb}.st2,.st3{fill-rule:evenodd;clip-rule:evenodd}.st3,.st4{fill:#365cbb}.st5,.st7{fill-rule:evenodd;clip-rule:evenodd;fill:#90ffff}.st7{fill:#b7ffff}</style><g id="Layer_2_1_" style="opacity:.5"><g id="Ñëîé_1"><path class="st1" d="M162.8 38.2c0 .3-.2.5-.5.5s-.5-.2-.5-.5.2-.5.5-.5.5.2.5.5zm-9 50.1c0 .3-.2.5-.5.5s-.5-.2-.5-.5.2-.5.5-.5.5.2.5.5zm66.7 24.9c0 .3-.2.5-.5.5s-.5-.2-.5-.5.2-.5.5-.5.5.2.5.5zm13.2 57.1c0 .3-.1.5-.4.5-.3 0-.5-.1-.5-.4v-.1c0-.3.3-.4.5-.4s.3.2.4.4z"/><path class="st2" d="M191.2 94.1c0 .3-.2.5-.4.5-.3 0-.5-.1-.5-.4s.1-.5.4-.5h.1c.2 0 .4.2.4.4zm-22-10.6c0 .3-.2.5-.5.5s-.5-.1-.5-.4.1-.5.4-.5h.1c.3-.1.5.1.5.4z"/><path class="st3" d="M141.8 62.2c0 .3-.2.5-.5.5s-.5-.1-.5-.4c0-.3.1-.5.4-.5h.1c.3-.1.5.2.5.4z"/><circle class="st4" cx="113.2" cy="27.4" r=".5"/><path class="st3" d="M168.7 11.5c0 .3-.2.5-.5.5s-.5-.2-.5-.5.2-.5.5-.5.5.2.5.5zm29.6 82.2c0 .3-.3.4-.5.4s-.4-.2-.4-.4c0-.3.1-.5.4-.5.3 0 .5.1.5.4v.1z"/><circle class="st4" cx="201.7" cy="7.6" r=".5"/><path class="st5" d="M108.4 202c0 .3-.2.5-.5.5s-.5-.2-.5-.5.2-.5.5-.5.5.2.5.5z"/><path class="st2" d="M218.8 17.8c0 .3-.2.5-.5.5s-.5-.2-.5-.5.2-.5.5-.5.5.2.5.5zm-4 61.7c0 .3-.2.5-.5.5s-.5-.2-.5-.5.2-.5.5-.5.5.3.5.5zM95.9 57.2c0 .3-.2.5-.5.5s-.5-.2-.5-.5.2-.5.5-.5.5.2.5.5zm189.4-43.6c0 .3-.2.5-.5.5s-.5-.2-.5-.5.2-.5.5-.5.5.2.5.5zm-164.8 68c0 .3-.2.5-.5.5s-.5-.2-.5-.5.2-.5.5-.5.5.2.5.5zm42.8 126.2c0 .3-.3.4-.5.4s-.4-.2-.4-.4c0-.3.1-.5.4-.5.3 0 .5.1.5.4v.1zM317.5 7.6c0 .3-.3.4-.5.4s-.4-.2-.4-.4c0-.3.1-.5.4-.5s.5.1.5.4v.1zM126.6 24.1c0 .3-.2.5-.5.5s-.5-.2-.5-.5.2-.5.5-.5.5.3.5.5zm90.5 118.7c0 .3-.2.5-.5.5s-.5-.2-.5-.5.2-.5.5-.5c.3.1.5.3.5.5zM68.9 78.6c0 .3-.2.5-.5.5s-.4-.3-.4-.5.2-.4.4-.4c.3 0 .5.2.5.4zm10.5-66.2c0 .3-.3.4-.5.4s-.4-.2-.4-.4c0-.3.1-.5.4-.5.3 0 .5.1.5.4v.1zm99.3 109.9c0 .3-.2.5-.5.5s-.5-.2-.5-.5.2-.5.5-.5c.2 0 .5.2.5.5zm-36.4-77.1c0 .3-.2.5-.5.5s-.5-.2-.5-.5.2-.5.5-.5c.3.1.5.3.5.5zm108.9 111.1c0 .3-.2.5-.5.5-.2 0-.5-.2-.5-.4 0-.3.2-.5.4-.5.3 0 .6.2.6.4z"/><path class="st1" d="M224.2 47.1c0 .3-.2.5-.5.5s-.5-.2-.5-.5.2-.5.5-.5.5.2.5.5z"/><path class="st2" d="M247.1 51c0 .3-.1.5-.4.5-.3 0-.5-.1-.5-.4V51c0-.3.3-.4.5-.4s.3.2.4.4zm-53.6 120.7c0 .3-.2.5-.5.5s-.5-.2-.5-.5.2-.5.5-.5.5.2.5.5z"/><path class="st5" d="M106.2 64.9c0 .3-.2.5-.4.5-.3 0-.5-.2-.5-.5s.2-.5.5-.5c.2 0 .4.2.4.5z"/><circle cx="149.2" cy="70.5" r=".5" style="fill:#90ffff"/><path class="st5" d="M145.1 11.9c0 .3-.2.5-.5.5s-.5-.2-.5-.5.2-.5.5-.5c.2.1.4.3.5.5zM66.5 47.1c0 .3-.2.5-.5.5s-.4-.3-.4-.5.2-.4.4-.4c.3-.1.5.1.5.4z"/><path class="st7" d="M177.6 138.2c0 .3-.1.5-.4.5-.3 0-.5-.1-.5-.4v-.1c0-.3.3-.4.5-.4s.4.2.4.4z"/><path class="st5" d="M158.4 28.8c0 .3-.2.5-.5.5s-.5-.2-.5-.5.2-.5.5-.5.5.3.5.5zm88.2 63.7c0 .3-.2.5-.4.5-.3 0-.5-.2-.5-.5s.2-.5.5-.5c.2.1.4.3.4.5zm-94.5 47.2c0 .3-.2.5-.5.5s-.5-.2-.5-.5.2-.5.5-.5.5.2.5.5zm-64.3 4.1c0 .3-.2.5-.5.5s-.5-.2-.5-.5.2-.5.5-.5.5.2.5.5zM246.1 4.9c0 .3-.2.5-.5.5s-.5-.2-.5-.5.2-.5.5-.5.5.2.5.5zm-31.5 33.3c0 .3-.2.5-.5.5s-.4-.3-.4-.5.2-.4.4-.4c.3-.1.5.1.5.4zm-15.8 26.7c0 .3-.2.5-.4.5-.3 0-.5-.2-.5-.5s.2-.5.5-.5c.1 0 .4.2.4.5zm-48.2.2c0 .3-.2.5-.4.5-.3 0-.5-.2-.5-.5s.2-.5.5-.5c.2 0 .4.2.4.5 0-.1 0-.1 0 0zm15 81.2c0 .3-.2.5-.5.5s-.5-.2-.5-.5.2-.5.5-.5.5.2.5.5z"/><path class="st1" d="M152.6 106.1c0 .3-.2.5-.5.5s-.5-.2-.5-.5.2-.5.5-.5.5.2.5.5z"/><path class="st2" d="M123.2 87c0 .3-.2.5-.5.5s-.5-.2-.5-.5.2-.5.5-.5.5.2.5.5zm-22-10.6c0 .3-.3.4-.5.4s-.4-.2-.4-.4c0-.3.1-.5.4-.5.3 0 .5.1.5.4v.1z"/><path class="st3" d="M73.9 55.1c0 .3-.2.5-.5.5s-.5-.2-.5-.5.2-.5.5-.5.5.3.5.5zM45.7 20.3c0 .3-.2.5-.5.5s-.5-.2-.5-.5.2-.5.5-.5.5.2.5.5zm55.1-16c0 .3-.2.5-.5.5s-.5-.2-.5-.5.2-.5.5-.5c.3.1.5.3.5.5zm-47.2 121c0 .3-.2.5-.5.5-.2 0-.5-.2-.5-.4 0-.3.2-.5.4-.5.3-.1.6.2.6.4zm76.8-38.8c0 .3-.1.5-.4.5-.3 0-.5-.1-.5-.4v-.1c0-.3.3-.4.5-.4.2.1.3.2.4.4zm3.8-86c0 .3-.2.5-.5.5s-.5-.2-.5-.5.2-.5.4-.5c.4 0 .6.2.6.5z"/><path class="st2" d="M28 50.1c0 .3-.2.5-.5.5s-.5-.2-.5-.5.2-.5.5-.5.5.2.5.5zm24.5 24.3c0 .3-.2.5-.5.5s-.5-.2-.5-.5.2-.5.5-.5c.3.1.5.3.5.5zM58.7 17c0 .3-.2.5-.5.5s-.5-.2-.5-.5.2-.5.5-.5c.2 0 .4.2.5.5zm-2.6 122.6c0 .3-.3.4-.5.4s-.4-.2-.4-.4c0-.3.1-.5.4-.5.3 0 .5.1.5.4v.1zM.9 71.5c0 .3-.2.5-.4.5-.3 0-.5-.2-.5-.5s.2-.5.5-.5c.2.1.4.3.4.5zM11.5 5.3c0 .3-.2.5-.5.5s-.5-.2-.5-.5.2-.5.5-.5.5.2.5.5zm62.8 32.8c0 .3-.2.5-.5.5s-.5-.1-.5-.4c0-.3.1-.5.4-.5h.1c.3 0 .5.2.5.4z"/><path class="st5" d="M38.3 57.8c0 .3-.2.5-.5.5s-.5-.2-.5-.5.2-.5.5-.5.5.2.5.5zm38.8-53c0 .3-.2.5-.5.5s-.5-.2-.5-.5.2-.5.5-.5c.3.1.5.3.5.5z"/><path class="st7" d="M109.7 131.1c0 .3-.2.5-.4.5-.3 0-.5-.1-.5-.4 0-.3.1-.5.4-.5h.1c.2-.1.4.1.4.4z"/><path class="st5" d="M84.2 132.6c0 .3-.2.5-.5.5s-.5-.2-.5-.5.2-.5.5-.5c.2 0 .5.2.5.5zm-64.3 4c0 .3-.2.5-.5.5s-.5-.2-.5-.5.2-.5.5-.5.5.3.5.5zM146.6 31.1c0 .3-.2.5-.5.5s-.5-.2-.5-.5.2-.5.5-.5.5.2.5.5zm-15.8 26.7c0 .3-.2.5-.5.5s-.5-.2-.5-.5.2-.5.5-.5.5.2.5.5zm-46.6 3.4c0 .3-.2.5-.5.5s-.5-.2-.5-.5.2-.5.5-.5c.3.1.5.3.5.5zm13.5 78c0 .3-.2.5-.5.5s-.5-.2-.5-.5.2-.5.5-.5.5.2.5.5zm116.8-2.2c0 .3-.2.5-.5.5s-.5-.2-.5-.5.2-.5.5-.5.5.2.5.5z"/><path class="st2" d="M279.5 78.2c0 .3-.2.5-.5.5s-.5-.2-.5-.5.2-.5.5-.5.5.2.5.5zm-38.4-20.6c0 .3-.2.5-.5.5s-.5-.2-.5-.5.2-.5.5-.5.5.2.5.5zM37.2 10.4c0 .3-.2.5-.5.5s-.5-.2-.5-.5c0-.2.2-.5.4-.5.4 0 .6.2.6.5zm171.1 80.8c0 .3-.2.5-.5.5s-.5-.2-.5-.5.2-.5.5-.5.5.2.5.5zm47.6 15.8c0 .3-.2.5-.5.5s-.5-.2-.5-.5.2-.5.5-.5.5.2.5.5z"/><path class="st5" d="M276.9 72.3c0 .3-.2.5-.5.5s-.5-.2-.5-.5.2-.5.5-.5.5.2.5.5z"/></g></g></svg>