<svg xmlns="http://www.w3.org/2000/svg" viewBox="0 0 136.25 227.35"><defs><style>.cls-1{isolation:isolate;}.cls-2{fill:#212638;}.cls-3{fill:#343655;opacity:0.92;}.cls-13,.cls-3,.cls-5,.cls-7{mix-blend-mode:overlay;}.cls-4{fill:#2f3655;}.cls-13,.cls-5,.cls-7{fill:#231f20;}.cls-6{fill:#e8863d;}.cls-7{opacity:0.41;}.cls-8{fill:#fed4d5;}.cls-9{fill:#d67432;}.cls-10{fill:#f2b3bb;}.cls-11{fill:#e6e6e6;}.cls-12{fill:#b3b3b3;}.cls-13{opacity:0.58;}.cls-14{fill:#fb9844;}</style></defs><g class="cls-1"><g id="Layer_2" data-name="Layer 2"><g id="Layer_1-2" data-name="Layer 1"><path class="cls-2" d="M123.55,120.84c-7.39-.58-12.26,3.09-18.87,6.11a67.2,67.2,0,0,1-26.88,5.8L48.23,134S28.65,115.15,19.61,114.5s-18.28,6.88-18,13.79,7.46,47.18,37.17,48.78,39.18,2.69,58-8.92c19.11-11.78,43.25-32.2,39-41.77C133.64,121.64,125.19,121,123.55,120.84Z"/><path class="cls-3" d="M131.54,122.53c-24.75-9.18-80.76,63.65-80.29,63.1l4.48,8.22s7-2.64,17.05-7.09C85.42,167.75,108.61,131.43,131.54,122.53Z"/><path class="cls-4" d="M59.39,4.88S64.52-1.9,70.24,2.13s10.41,24,20.49,26.16,2.24,14.07-5.28,13c0,0,5.36,1,4,5.92s-6.64,7-10.46,4.48c0,0,2.47,4.59-1.88,6s-12.24-1.81-12.24-1.81L53.17,56S42.89,62.25,40,57.87a7.58,7.58,0,0,1-.67-8s-4.41,4.21-8,.67-.67-8,1.73-9.23c0,0-7.62,3-9.86-2.18s-.86-8.86,4.16-11.33,15.79-10.6,17-16.61S53.43-6.7,59.39,4.88Z"/><path class="cls-5" d="M76.3,24.48c-8-11.7-5.63-16.52-9.52-16.19s-5.85,4-5.85,4S57.52,4.9,52,7.78s-7.54,26-20.68,28.39c-3.68.67-6.51,1.07-8.71,1.29a14.62,14.62,0,0,0,.59,1.67c2.24,5.23,9.86,2.18,9.86,2.18-2.4,1.24-5.31,5.69-1.73,9.23s8-.67,8-.67a7.58,7.58,0,0,0,.67,8C42.89,62.25,53.17,56,53.17,56l11.65-.15s7.9,3.22,12.24,1.81,1.88-6,1.88-6c3.82,2.47,9,.44,10.46-4.48s-4-5.92-4-5.92c5.32.74,10.78-5,9.94-9.19A17.81,17.81,0,0,1,76.3,24.48Z"/><rect class="cls-6" x="36.02" y="54.55" width="46.84" height="83.05" rx="7.17" transform="translate(2.39 -1.44) rotate(1.41)"/><path class="cls-7" d="M69.24,54.49a23.42,23.42,0,0,0-24,22.84L45,86.61l7.09,9.65s3,1.58,11.26,7,3,8.7-2.41,10.07,1.18,4.77,8.42,8.19c6,2.81-12.23,7.07-18.83,8.48a23.4,23.4,0,0,0,40.63-15.28l.9-36.2A23.43,23.43,0,0,0,69.24,54.49Z"/><path class="cls-8" d="M84.9,200.63s7.65,4.21,7.78,10.82S86,225.37,92,227.25s16.07-22,11.82-24.72-14.21-6.68-14.21-6.68Z"/><path class="cls-8" d="M55.55,193.49l-3.81-6.65c-3.64.42-10.44,2-11.23,7.7-1.09,7.86,1.68,26.53,8.28,22.74s.15-16.91,2.89-20.23A24,24,0,0,1,55.55,193.49Z"/><path class="cls-9" d="M45.79,61.1c.64-.65-10.46,4.34-16.25,18s-18.16,36.63-15,49.65S22.77,143.61,32.66,139,31.93,75.13,45.79,61.1Z"/><path class="cls-4" d="M.55,117.91s3.76-12.41,17.47-9,78,89.45,78,89.45l-6.2,6.75S-8.18,157.37.55,117.91Z"/><path class="cls-9" d="M75.55,59.25C74.94,58.57,85.78,64.1,90.89,78s16.33,37.49,12.56,50.33-9,14.44-18.62,9.32S88.7,73.94,75.55,59.25Z"/><rect class="cls-10" x="53.43" y="42.86" width="14.66" height="22.85" transform="translate(1.36 -1.48) rotate(1.41)"/><path class="cls-11" d="M102.1,66.93l-8.56,40.4a5.86,5.86,0,0,1-5.8,4.64c-12.44-.16-45.64-.6-58.15-1A5.84,5.84,0,0,1,24,106L17.69,65.47a5.85,5.85,0,0,1,5.88-6.75l72.9,1.15A5.85,5.85,0,0,1,102.1,66.93Z"/><rect class="cls-12" x="23.09" y="110.94" width="71.41" height="5.58" rx="0.86" transform="translate(2.33 -1.17) rotate(1.17)"/><path class="cls-8" d="M70.53,25.42C68.29,20.19,69.35,12,64.8,12.77S60,16.1,60,16.1s-1.2-3.91-3.58-3.54-6.3,1.79-7.14,9.75,3,11.07-3.56,13.28a12.34,12.34,0,0,0-4,2.16c2.16,9.47,9.35,16.51,18.07,16.72,10.54.26,19.34-9.55,19.82-22C76.46,31.14,71.94,28.72,70.53,25.42Z"/><path class="cls-13" d="M15.06,141.41c8.1,9.69,16.62,2.42,25.22,3.21,7.33.67,43,43.51,53.43,56.21L96,198.31s-64.28-86.1-78-89.45c-8.69-2.13-13.38,2.07-15.65,5.44C9.08,119.26,8.26,133.27,15.06,141.41Z"/><path class="cls-8" d="M38.45,83.58s-3-5.93-2-8.21a2.48,2.48,0,0,1,3.09-1.55s-4.61-8.64,1-8.34,6.3,4.23,6.14,8.37-3.7,11-3.7,11Z"/><polygon class="cls-4" points="34.84 88.15 36.35 80.15 46.02 81.64 43.63 89.85 34.84 88.15"/><path class="cls-14" d="M16.08,135.53C12,130.1,22,92.79,31,88.33S45.19,84,48.24,89.55,49.85,135.44,37,141.6C23.59,148,15.88,136.66,16.08,135.53Z"/><path class="cls-8" d="M78.5,82.69s3-5.9,2.11-8.19a2.48,2.48,0,0,0-3.07-1.6s4.73-8.57-.85-8.35-6.35,4.15-6.25,8.29S74,83.92,74,83.92Z"/><path class="cls-14" d="M101.89,134.48c4.19-6.89-5.49-42.56-14.27-47.4s-14.14-4.51-17.27,1-3.44,49.44,10.56,52.2C94,142.85,98.1,140.26,101.89,134.48Z"/><polygon class="cls-4" points="82.05 87.3 80.65 79.28 70.96 80.64 73.24 88.88 82.05 87.3"/><path class="cls-14" d="M101.89,134.48c4.19-6.89-5.49-42.56-14.27-47.4s-14.14-4.51-17.27,1-3.44,49.44,10.56,52.2C94,142.85,98.1,140.26,101.89,134.48Z"/><path class="cls-5" d="M75.75,36.87c0,1-1.74,1.68-3.82,1.63s-3.75-.87-3.73-1.82S69.93,35,72,35.05,75.77,35.91,75.75,36.87Z"/><path class="cls-5" d="M54.07,37.19c0,1-1.64,1.69-3.6,1.64S46.94,38,47,37s1.63-1.69,3.6-1.64S54.09,36.24,54.07,37.19Z"/><path class="cls-13" d="M77,111.17c-3.68-14.47-.28-22.68,3.3-27.07-4.63-1.1-7.84.2-10,4-3.13,5.5-3.44,49.44,10.56,52.2,5.49,1.08,9.39,1.24,12.36.65C88.71,136.67,81.22,127.61,77,111.17Z"/><path class="cls-13" d="M48.24,89.55c-2.57-4.66-6.66-5.47-13.28-3,2.63,4.3,5.84,11.18,5.79,18.72-.07,9.82-3,27.66-16,37.57,3.26,1,7.36,1,12.22-1.29C49.85,135.44,51.3,95.1,48.24,89.55Z"/></g></g></g></svg>