<svg xmlns="http://www.w3.org/2000/svg" xmlns:xlink="http://www.w3.org/1999/xlink" viewBox="0 0 177.66 177.65"><defs><linearGradient id="a" x1="-470.69" y1="-186.36" x2="-470.69" y2="-360.06" gradientTransform="rotate(-14.34 1247.882 -2366.08)" gradientUnits="userSpaceOnUse"><stop offset="0" stop-color="#e8ddff"/><stop offset="1" stop-color="#aa8ad8"/></linearGradient><linearGradient id="c" x1="-1170.31" y1="-1063.26" x2="-1170.31" y2="-1086.39" gradientTransform="rotate(-35.79 1232.14 -2352.09)" xlink:href="#a"/><linearGradient id="d" x1="-1173.45" y1="-1056.58" x2="-1173.45" y2="-1059.94" gradientTransform="rotate(-35.79 1232.14 -2352.09)" xlink:href="#a"/><linearGradient id="e" x1="-1130.1" y1="-1026.41" x2="-1130.1" y2="-1102.28" gradientTransform="rotate(-35.79 1232.14 -2352.09)" xlink:href="#a"/><linearGradient id="f" x1="-1078.01" y1="-971.06" x2="-1078.01" y2="-1044.17" gradientTransform="rotate(-35.79 1232.14 -2352.09)" xlink:href="#a"/><radialGradient id="b" cx="-1177.81" cy="-1082.37" r="142.69" gradientTransform="rotate(-35.79 1232.14 -2352.09)" gradientUnits="userSpaceOnUse"><stop offset=".01" stop-color="#4fb1ff"/><stop offset=".21" stop-color="#4eaefc"/><stop offset=".37" stop-color="#49a6f3"/><stop offset=".5" stop-color="#4298e3"/><stop offset=".63" stop-color="#3883cc"/><stop offset=".75" stop-color="#2b69af"/><stop offset=".86" stop-color="#1a498b"/><stop offset=".96" stop-color="#072462"/><stop offset="1" stop-color="#001652"/></radialGradient><radialGradient id="g" cx="-1182.42" cy="-1093.36" r="56.94" gradientTransform="rotate(-35.79 1232.14 -2352.09)" gradientUnits="userSpaceOnUse"><stop offset="0" stop-color="#a9faff"/><stop offset="1" stop-color="#70b7f8"/></radialGradient></defs><g data-name="Layer 2" style="isolation:isolate"><g data-name="Layer 1"><path d="M160.88 36.88c.53.73 1 1.47 1.53 2.21a88.06 88.06 0 0 1 11.31 23.49A88.86 88.86 0 0 1 42 164.32q-2.31-1.41-4.53-3a88.92 88.92 0 0 1-7.34-139.16q2.52-2.23 5.25-4.27c.48-.38 1-.74 1.48-1.1a88.93 88.93 0 0 1 17-9.61 82.47 82.47 0 0 1 11.21-3.96 88.85 88.85 0 0 1 95.81 33.66z" style="fill:url(#b);fill-rule:evenodd"/><path d="M121.92 6.39h-.69a19.61 19.61 0 0 0-3.83.32c-1.06.23-2 .78-2.89 1a22.83 22.83 0 0 1-5.11.73c-2.09.1-4 .71-6.05.85-5.41.38-10.64-2.28-15.64-4a24.31 24.31 0 0 1-3.12-1.21 7 7 0 0 0-2.35-.56 9 9 0 0 0-5.52.53c-1 .55-1.42 1.63-2 2.62-.84 1.33-1.14 1.82.28 2.4 2.52 1 5.73 1.65 5.49 5.13a45.77 45.77 0 0 1-.49 6.52c-.51 2.4-.36 5.37-2.08 7.37-1.27 1.48-3.58 1.4-5.38 1.88a18.75 18.75 0 0 0-4.78 1.51 15.15 15.15 0 0 0-2.67 2.58c-1.43 1.38-3.4 2.35-5.24 1.37-.7-.36-.64-.66-1.53-.67a8 8 0 0 0-2.59.82c-2.2.94-4.11 2.57-6.31 3.47a40.21 40.21 0 0 1-4.68 1.33 20.73 20.73 0 0 1-3 1c-.55.05-1.27-.09-1.86-.07a6.34 6.34 0 0 0-4.31 1.4 29.31 29.31 0 0 0-7.73 9.08c-1.07 2.13-.38 3.09 1.35 4.3 1.47 1.05 3.94 1.92 4.67 3.65.63 1.45.36 3.18.78 4.66s.79 2.87 2.17 3.68c2.32 1.38 5.29 1.59 7.73 2.67 2.75 1.23 6 4.33 4.86 7.53a12.72 12.72 0 0 0-.4 4.8c0 1.12.36 2.66-.94 3.21-.87.36-2.17-.17-3 .11a3.17 3.17 0 0 0-1.89 2.1c-.58 1.43-1.56 3.12-1.73 4.67-.33 2.83 2.37 6.34 4.73 7.61 2.83 1.54 5.54 3.22 8.83 2.68 2.12-.36 4.08-1.75 6.24-.69 1.33.66 1.92 1.83 3 2.76a31.25 31.25 0 0 1 3.15 2.62 21.47 21.47 0 0 0 2.87 2.77 44.82 44.82 0 0 0 4.56 3.46c1.9 1.15 4.07 1.39 6.1 2.09 1.83.6 3.42.41 5.28.79 2 .42 4.24.36 6.09 1.35 1.41.74 2.73 1.65 4.19 2.34 4 1.86 5.77-2.54 6.93-5.64a25.5 25.5 0 0 0 1.82-6.4 27.77 27.77 0 0 1 .87-5.35 37.34 37.34 0 0 1 1.83-5.07 5.9 5.9 0 0 0 .84-1.94 4.9 4.9 0 0 0-1-3.29c-1.48-2.15-3-5.18-5-6.87-2.15-1.87-4.5.15-6.29 1.39-1 .71-2.43 1.46-3.61.87s-1.68-1.65-2.95-2.16a3 3 0 0 0-3.55.91c-.42.47-.61 1-1.08 1.43s-1.09.49-1.19 1.22c-.24 1.5 2.07 1.66 3.13 2 1.87.55 2.17.76 2.49 2.69.18 1.11.36 2.92-1 3.25-1 .23-2.74-1-3.66-1.28-3.89-1.06-7.82-2.12-7.85-7 0-1.53.73-1.93 1.18-3.21s0-2.93.51-4.31c.75-1.81 3.12-2.88 4.66-4a34.81 34.81 0 0 1 6.09-3.52 10.73 10.73 0 0 1 4.06-.81c1.51-.14 2.36-1.44 3.69-2 2.45-1 4.47-.15 6.91.36s3.58 1.63 5.44 3.2a61.41 61.41 0 0 1 10.38 10.75c2.48 3.49 4.8 7.27 8 10.1a35.5 35.5 0 0 0 4.84 3.57c.55.34.63 0 1 .79a10.65 10.65 0 0 1 .46 2.54c0 1.36-.82 3.08-1.07 4.44a23 23 0 0 1-1.35 3.75c-.65 1.82-1.42 3.51-2.12 5.3-1.15 2.88.93 5.7.33 8.78-.87 4.36-3.59 7-6 10.62a88.9 88.9 0 0 0-5.61 8.58c-1 1.91-1.44 3.82-2.62 5.67a66.16 66.16 0 0 1-5.24 6.33 17.69 17.69 0 0 1-4.88 4.24 27.57 27.57 0 0 0-3.57 1.85c-2.15 1.55-4.29 3.16-6.49 4.68a12.27 12.27 0 0 1-3.93 1.34c-1.38.39-2.83.65-4.24 1-3.66 1-8.14 3.4-12 2.19-1.11-.35-2.17-1-3.32-1.26a17.94 17.94 0 0 0-2.84-.09 14.45 14.45 0 0 0-2.27-.08 11.69 11.69 0 0 1-3.41-.43 10.65 10.65 0 0 0-3.2-.08 7.64 7.64 0 0 1-1.92.29c-.67-.14-.61-.51-1.07-1s-1.11-.79-1.65-1.26a8.25 8.25 0 0 0-5.81-2.32 12.79 12.79 0 0 1-3 .3 8.38 8.38 0 0 1-5.15-1.86.74.74 0 0 0 0 .17 89 89 0 0 0 60.24 12.31c.35-.58.7-1.16 1-1.73a11.23 11.23 0 0 1 3.92-3.86A41.15 41.15 0 0 0 113 166a36.93 36.93 0 0 1 5.25-4.29c2.35-1.66 4.24-3.82 6.61-5.49s4.78-2.39 7.29-3.47c3.6-1.54 6.26-4.79 8.87-7.63 1.18-1.28 1.92-3 3.17-4.19.76-.73 1.62-1.28 2.35-2.08a27.88 27.88 0 0 1 6.66-5.2c1.56-.82 2.93-.13 4.5-.18s2.72-1.74 4.05-2.48a5.34 5.34 0 0 1 5.12.41 89.13 89.13 0 0 0 6.89-68.78c-2 1.46-3.83 5.25-5.05 6-.75.45-1.63.48-2.4 1a11.13 11.13 0 0 0-1.7 1.8c-.88 1-2 2.12-3.28 1.54s-1.63-3.17-3.33-2.31c-.85.44-1.13 1.53-2.11 2a11.52 11.52 0 0 0-2.23 1.22 28.88 28.88 0 0 0-3.14 3 4.81 4.81 0 0 1-1.83.93c-.54.22-1.43 1-2 1-1.9.26-1.71-2-1.76-3.23a15.82 15.82 0 0 0-.05-2.07c-.12-.74-.45-.94-.74-1.57a7.56 7.56 0 0 1-.14-5.13 28.31 28.31 0 0 0 1-7.74 6.64 6.64 0 0 0-.41-3c-.37-.76-.72-1.53-1.07-2.31a18.4 18.4 0 0 1-.93-2.77c-.38-1.32-1.17-2.44-1.59-3.74-.36-1.11-.69-3.66-.22-4.78.24-.52.78-.82 1-1.41s-.06-1.05.28-1.59c.79-1.25 3.54-1.78 4.82-2.14a16 16 0 0 1 6.32-.37 32.84 32.84 0 0 1 5.87 1.73 7.48 7.48 0 0 0 3.31.37c-.49-.74-1-1.48-1.53-2.21a88.31 88.31 0 0 0-38.93-30.45zm-13.08 60.2c.18.61-.61 1.59-1.11 1.84-1 .53-2.51 0-3.61-.09A4.43 4.43 0 0 1 101 67h1c-1.35-.46-3.07-.57-3.16-2.4a1.67 1.67 0 0 1 1.56-1.73 10.08 10.08 0 0 1 4.69-.26 4.14 4.14 0 0 1 2.18 2 10.33 10.33 0 0 1 1.57 1.98zM94.62 14.82a5 5 0 0 1-.84 3.18 9.36 9.36 0 0 1-2 2.15c-1.54 1.13-3.86.94-5.63.85-1 0-3.53-.52-1-1.34a4.51 4.51 0 0 1-1.65-1.31 10.83 10.83 0 0 1-.64-1.48c-.46-1.1-.45-2.27-.82-3.37a13 13 0 0 0-1.11-2.61c-.42-.69-1-1.12-.76-2a1 1 0 0 1 1-.8 8.06 8.06 0 0 1 1.92.48c.65.15 1.28.31 1.91.5 1.85.49 3.44 1.69 5.23 2.34A9.91 9.91 0 0 1 93 12.52a3.62 3.62 0 0 1 1.62 2.3zm53.26 15.87c.18 1.81-1.47 3.57-2.69 4.72-1.8 1.71-4.61 2.83-6.91 3.73a6 6 0 0 1-2.77.51c-1.09 0-2.23.33-.91-.38a35.67 35.67 0 0 1-3.24-2.73c-1.3-1.21-2.89-2.13-4.3-3.22-2.33-1.8-5.18-3.95-6.27-6.81-.72-1.87-.72-4.45.53-6.05a7.93 7.93 0 0 1 3.62-2.61 13.46 13.46 0 0 1 5.29-.31 9.25 9.25 0 0 1 4.92 1.72c1 .76 1.82 1.73 2.87 2.41.53.36 1 .66 1.53 1.06a7.35 7.35 0 0 0 2.13.92 5.41 5.41 0 0 1 2.76 1.57c.69.89 1.3 1.84 2 2.75a5.79 5.79 0 0 1 1.44 2.72z" style="fill:url(#a);opacity:.3;mix-blend-mode:multiply;fill-rule:evenodd"/><path d="M38.58 93.44c.17.86.69 2.77.2 3.66s-2.25.81-3.16.94a14.62 14.62 0 0 0-2.29.28 13.16 13.16 0 0 1-1.77.68 5.72 5.72 0 0 1-1.79.11 4 4 0 0 1-1.34-.8 28.27 28.27 0 0 1-3-2.81 4.4 4.4 0 0 1-1.16-2c-.37-1-.83-2.06-1.17-3.11a21 21 0 0 1-1.2-4.68 6 6 0 0 1 1-3.8c.31-.52.76-.92 1.06-1.44a9.89 9.89 0 0 1 1.21-1.86 3.83 3.83 0 0 1 1-.8 3.2 3.2 0 0 1 1.32-.23 3.39 3.39 0 0 1 1.76 0 4.77 4.77 0 0 1 1.53.76c.92.72 2 1.28 2.87 2A6.9 6.9 0 0 1 36 84a25 25 0 0 0 1.47 3.85 10.9 10.9 0 0 1 1.2 3.72 13.68 13.68 0 0 0-.09 1.87z" style="fill:url(#c);opacity:.3;mix-blend-mode:multiply;fill-rule:evenodd"/><path d="M36.18 103.22a2.7 2.7 0 0 0 .13 1.64c.8-.1 1.56 1 2.47.63.06-.74.71-2-.32-2.44-.15-.06-.47.07-.63 0s-.45-.24-.68-.21c-.49.08-1.31.94-1.73 1.24z" style="fill:url(#d);opacity:.3;mix-blend-mode:multiply;fill-rule:evenodd"/><path d="M55.29 98.18a4.76 4.76 0 0 0 2 .69c.64.07 1.37.07 2 .11a20.28 20.28 0 0 1 3.74.27c1.12.3 1.36 1.07 2 1.83.41.46.93.86 1.38 1.3a6 6 0 0 1 .76.67 5.57 5.57 0 0 0 .77 1c.65.55 1.52.73 2.18 1.3a4.85 4.85 0 0 0 1.61 1.2 4.91 4.91 0 0 0 1.53 0 6.53 6.53 0 0 1 1.89.41c2.12.7 3.54 2.43 5.56 3.27 1.82.76 3.82-1.25 5.34-1.95.25-.12.57-.08.79-.27s.34-.59.51-.84a2.6 2.6 0 0 1 1.19-1c.31-.14.29.17.61-.22a1.93 1.93 0 0 0 .18-1.12 2.57 2.57 0 0 0-1.22-1.92c-.69-.54-1.36-1.11-2.06-1.65a20.63 20.63 0 0 1-2-1.42c-.56-.57-.9-1.3-1.47-1.86-1.38-1.37-2.81-1.49-4.72-1.76-1.72-.26-3.9.06-5-1.61-.44-.68-.18-.91-.18-1.59a8.72 8.72 0 0 1-.12-2.34 6.84 6.84 0 0 1 .78-1.24 17.21 17.21 0 0 0 1.26-1.74c.34-.69 0-1.1.1-1.78 0-.43.16-.27.33-.64a2.6 2.6 0 0 0 .3-1.14 6.91 6.91 0 0 0 0-2.4 5.28 5.28 0 0 1-.15-2 18.84 18.84 0 0 1 .57-2.58 6 6 0 0 1 1.37-2.34 8.15 8.15 0 0 1 1.05-.82 9.54 9.54 0 0 0 2.24-3.14c1-1.6 1.87-4.77 4.31-4.23.73.17 1.2.81 2 .85 1.67.07 2.51-1.54 3.26-2.76A20.56 20.56 0 0 0 92.29 58c.33-1.5.57-2.78-.31-4.13-1.7-2.62-5-2.85-7.08-5s-2.76-5.34-4.07-7.87a6.71 6.71 0 0 0-3.27-3.25 6.06 6.06 0 0 0-1.71-.28c-1.22 0-1.57.71-2.52 1.2a2.7 2.7 0 0 1-1.72.17c-1.76-.13-3.45 1.83-4.76 2.75a14.91 14.91 0 0 1-6.53 2.89A68.08 68.08 0 0 1 52 45a41.38 41.38 0 0 0-6.2.24 10.31 10.31 0 0 0-4 1.74 5.87 5.87 0 0 0-3 4.63c-.14 1.95.89 2.24 2.3 3.28.45.33 1.47.95 1.53 1.6.09 1-1.36 1.74-2 2.21s-2 1.08-1.85 2c.22.7 1.22 1.73 1.64 2.3s.71 1.3 1.39 1.45 1-.17 1.5-.24a4.41 4.41 0 0 1 2.28.66 7.76 7.76 0 0 0 1.86.22 9.69 9.69 0 0 0 2.37.34c1.32-.19 2.08-1.14 3.53-.92a6.6 6.6 0 0 0 1.51.24A5.82 5.82 0 0 0 56 64.4c.94-.27 2.39-.6 3.15.26s0 2.37-.61 3.09-1.51 1.42-1.18 2.33 1.12 1.07 1.14 2c.07 2.88-3.64 3.22-5.41 4.57-2.68 2-2.49 5.37-2.43 8.37 0 .28-.13.57-.11.85 0 .49.26.61.36 1.05a2.57 2.57 0 0 1-.44 1.71 4.38 4.38 0 0 1-1.23 1.67c-.69.53-1.54 1-2.17 1.54-1.24 1.19-.6 3.11.66 4.09.81.63 2.21.54 3.14 1a12 12 0 0 0 2.21 1c.44.12 1 .09 1.43.17.71.12 1.25.56.78.08z" style="fill:url(#e);opacity:.3;mix-blend-mode:multiply;fill-rule:evenodd"/><path d="M112.23 69.39a8.18 8.18 0 0 0 1.23 2.1c.49.54 1 1 1.47 1.59 1.18 1.55 2 3.37 3.18 5a17.32 17.32 0 0 0 2.3 2.31c1.06 1 1.45 2.44 2.31 3.6 1.18 1.6 2.43 3.25 4.43 3.84a2.34 2.34 0 0 0 2.13-.22c.65-.42.93-1.13 1.6-1.55s1.16-.24 1.81-.37c.82-.16 1.63-.37 2.44-.58a4.59 4.59 0 0 1 2 0c.66.1 1.37-.13 1.94.35s.19 1.34.15 2a8.8 8.8 0 0 1-.88 3.94 2.24 2.24 0 0 1-1.59 1.28c-.78.25-1.52.45-1.86 1.31a8 8 0 0 0-.53 3.64 4.41 4.41 0 0 0 .24.82c.3.51.09.17.54.37s.92.27 1.27.75a6.92 6.92 0 0 1 1 2.81 4.9 4.9 0 0 1-.09 1.83 20.17 20.17 0 0 1-.43 2c-.51 1.33-.54 2.64-1.2 4a29 29 0 0 0-1.79 4.79c-1.06 3.45-2.64 6.48-2.23 10.19.11.91.76 2.51 1.67 2.91a8.54 8.54 0 0 0 1.37.18 5.93 5.93 0 0 1 1.87 1 6.08 6.08 0 0 0 2.62 1.23 5.49 5.49 0 0 0 2.76-1 14.6 14.6 0 0 1 1.23-.82 10.75 10.75 0 0 0 1-.43 7.74 7.74 0 0 1 3.82-1.68 4.53 4.53 0 0 1 1.56.22 13.39 13.39 0 0 0 1.87.73c1.25.16 2.34-1.64 2.87-2.46.79-1.21 1.52-2.81 2.9-3.45.84-.4 1.79-.21 2.67-.49a13.84 13.84 0 0 1 3.47-.67 2.18 2.18 0 0 0 1.31-.31c1.45-.94 2.23-2.73 2.94-4.23.84-1.8 1.4-3.7 2.24-5.49a20.4 20.4 0 0 0 1.74-5.71 44.15 44.15 0 0 1 1.68-5.5c.42-1.41.79-2.83 1.19-4.24a30 30 0 0 0 .65-4.45 19.08 19.08 0 0 0 .38-3.45 35.78 35.78 0 0 1-.17-4 20.4 20.4 0 0 0-.11-4.06c-.17-1.29-.67-3.7-2.53-3.46-1.33.17-2.56 1.5-3.61 2.24-1.69 1.17-3.73 1-5.64.55-1.55-.37-3-1-4.56-1.22a6.13 6.13 0 0 0-2.61-.23 4.67 4.67 0 0 0-1.64 1.21 10.79 10.79 0 0 1-3.43 2.55 8.28 8.28 0 0 1-4.14 1 22.44 22.44 0 0 1-2.5-.76c-1.2-.35-2-2-2.34-3.14-.65-2.45-2-4.67-2.52-7.14-.35-1.56 1.49-2.36 2.1-3.67a9.55 9.55 0 0 0 .46-3.08 18.91 18.91 0 0 1 .88-2.8 4.76 4.76 0 0 0-3.64-6.44 4.55 4.55 0 0 0-4.78 1.63 21.48 21.48 0 0 0-1.48 2A12.54 12.54 0 0 1 131.5 61c-3 3-7.31 3.23-11.28 3.63a15.51 15.51 0 0 0-5.48 1.49c-.91.47-1.19.55-1.64 1.55a14.51 14.51 0 0 1-1.1 1.74c-.42.71-.43 1.52.23-.02z" style="fill:url(#f);opacity:.3;mix-blend-mode:multiply;fill-rule:evenodd"/><path d="M53.86 7.16a2.74 2.74 0 0 0-.28.3 23.45 23.45 0 0 1-4.31 3.73 7.09 7.09 0 0 1-1.16.86c-.31.13-.53.06-.85.23-.69.35-1.4.72-2.09 1a16.66 16.66 0 0 0-3.53 2.37c-1.35 1-3.21 1.36-4.45 2.47s-2.31 2.78-3.81 3.82l-1 .75c-.88.65-.91 1.44-1.58 2.54.24.77.85 2 .63 2.79a3.4 3.4 0 0 1-.39.84 15.59 15.59 0 0 1-1.31 2 21.16 21.16 0 0 1-3.18 3.37 28.42 28.42 0 0 1-3.22 2c-2.17 1.26-4.3 2.38-5.6 4.65-.71 1.25-1.38 2.54-2.12 3.8a14.7 14.7 0 0 0-1.25 2.26c-.21.6-.27 1.26-.45 1.86a7.4 7.4 0 0 1-1.27 1.86 4.57 4.57 0 0 0-.6 2.43c0 1.22.75 2.1.86 3.22a3.72 3.72 0 0 1-.54 1.82c-1.21 2.69-.29 5.38-.66 8.2-.24 2.07-1.65 3.78-2.06 5.85a51 51 0 0 0-.68 6.29 6.27 6.27 0 0 1-1.2 3.25 10.2 10.2 0 0 0-1.4 3.92c-.14 1.4-.23 2.76-.5 4.15-.21 1.1-.78 2.07-1 3.17a14.56 14.56 0 0 0 .19 3c.13 2.23.81 4.31 1 6.52.17 1.82-.36 4 .67 5.57a4.82 4.82 0 0 0 1.18 1.24 14.42 14.42 0 0 1 1.67 2.25 5.81 5.81 0 0 0 1.15 1 12.7 12.7 0 0 0 1.53 1.32 24.29 24.29 0 0 0 3.16.9 3.72 3.72 0 0 1 2.19 2.55c.38 1.19.73 2.44 1 3.65.47 1.86.1 4 .87 5.84a4.92 4.92 0 0 0 1.41 1.53c.6.56 1.24 1.25 1.79 1.87a6.75 6.75 0 0 1 1.33 2.21 6.24 6.24 0 0 1 .22 1.76c0 .28-.13.57-.13.85a9.11 9.11 0 0 0 .37 1.43 4.3 4.3 0 0 1 .13 2.13c-.54 1-2-.44-2.22.45-.14.64.79 1.32 1.07 1.82a7.87 7.87 0 0 1 .79 2.29c.28 1.51.05 2.13 1.25 3.13a12.62 12.62 0 0 0 3.13 1.89c1.42.6 1.95 1.83 3 2.76a11.89 11.89 0 0 1 1.4 1.82 12.4 12.4 0 0 0 1.61 1.37 3.72 3.72 0 0 1 1.09 1.51c.08.37-.18.8-.23 1.17a3.9 3.9 0 0 0 .52 1.9 10.43 10.43 0 0 0 1.44 2.64 88.92 88.92 0 0 1-7.31-139.17q2.52-2.23 5.25-4.27c.48-.38 1-.74 1.48-1.1a88.93 88.93 0 0 1 17-9.63z" style="fill:url(#g);fill-rule:evenodd"/></g></g></svg>